<svg width="265" height="137" viewBox="0 0 265 137" fill="none" xmlns="http://www.w3.org/2000/svg">
<path d="M226.035 23.7154C226.035 23.7154 216.698 26 198.338 16.1458C195.018 13.3433 194.393 13.2443 189.101 11.5766C189.101 11.5766 160.368 2.96368 156.636 2.33923C152.905 1.71477 150.308 1.09793 146.264 3.10076C142.221 5.10358 125.307 13.884 119.291 15.4452C113.275 17.0063 111.097 20.9434 111.302 23.5326C111.508 26.1218 112.544 42.6242 108.812 52.8897C107.875 55.2733 111.858 60.1546 117.95 57.87C120.296 56.5907 134.445 52.1662 133.181 27.6829" stroke="#919DD9" stroke-width="2" stroke-miterlimit="10" stroke-linecap="round"/>
<path d="M133.021 35.5726C133.021 35.5726 147.491 35.5726 149.775 22.5428" stroke="#919DD9" stroke-width="2" stroke-miterlimit="10" stroke-linecap="round"/>
<path d="M142.746 32.8539C158.297 37.0651 170.923 49.9274 175.721 56.4613C180.518 62.9953 209.121 86.161 211.825 89.2072C211.825 89.2072 217.917 94.7054 212.861 101.552C210.576 104.148 208.916 107.156 200.828 107.156C201.59 110.058 201.758 114.833 198.749 117.528C195.741 120.224 191.591 122.303 179.665 117.528C180.29 120.849 181.95 130.474 163.894 128.418C163.894 132.363 154.04 138.174 145.435 130.81C145.435 130.81 135.679 134.023 132.778 135.059C124.683 137.343 120.845 127.489 122.406 125.205C118.255 129.561 107.465 131.015 104.974 117.528C94.6024 120.575 85.4715 116.005 88.312 102.488C88.312 102.488 70.0352 108.58 74.6044 85.7345" stroke="#919DD9" stroke-width="2" stroke-miterlimit="10" stroke-linecap="round"/>
<path d="M161.512 69.4073C169.607 86.9226 193.496 95.6725 200.83 107.187" stroke="#919DD9" stroke-width="2" stroke-miterlimit="10" stroke-linecap="round"/>
<path d="M150.613 94.8424L179.666 117.559" stroke="#919DD9" stroke-width="2" stroke-miterlimit="10" stroke-linecap="round"/>
<path d="M140.973 112.815C144.704 116.439 157.78 127.436 163.895 128.472" stroke="#919DD9" stroke-width="2" stroke-miterlimit="10" stroke-linecap="round"/>
<path d="M134.302 8.98755C134.302 8.98755 106.011 9.3988 94.7023 9.81764C83.3935 10.2365 70.9119 11.3407 67.0357 13.9604C63.1595 16.58 60.9435 18.3925 54.3105 18.2478" stroke="#919DD9" stroke-width="2" stroke-miterlimit="10" stroke-linecap="round"/>
<path d="M137.233 127.52C137.233 127.52 140.972 120.62 136.472 116.523C135.576 115.706 134.442 115.197 133.235 115.073C132.029 114.948 130.814 115.213 129.77 115.83L122.406 125.235" stroke="#919DD9" stroke-width="2" stroke-miterlimit="10" stroke-linecap="round"/>
<path d="M129.772 115.861C129.772 115.861 132.536 104.834 127.662 101.826C121.57 98.0865 115.143 102.656 115.143 102.656C115.143 102.656 115.006 108.459 104.977 117.589" stroke="#919DD9" stroke-width="2" stroke-miterlimit="10" stroke-linecap="round"/>
<path d="M115.141 102.625C115.141 102.625 112.095 91.2024 99.4841 95.4288C94.3666 97.1575 88.3125 102.519 88.3125 102.519" stroke="#919DD9" stroke-width="2" stroke-miterlimit="10" stroke-linecap="round"/>
<path d="M95.5401 97.2946C90.9167 92.7179 85.2589 89.3222 79.0454 87.3947C68.5286 84.0744 61.3398 76.878 59.6797 74.1136" stroke="#919DD9" stroke-width="2" stroke-miterlimit="10" stroke-linecap="round"/>
<path d="M62.2541 77.2662L45.6069 72.3315L44.1219 84.1276C43.9964 85.0526 43.5218 85.8945 42.7954 86.4807C42.069 87.067 41.146 87.353 40.2154 87.2804L30.0488 85.7117" stroke="#919DD9" stroke-width="2" stroke-miterlimit="10" stroke-linecap="round"/>
<path d="M43.0801 11.752L50.6497 13.4426C51.7851 13.6957 52.7812 14.3723 53.435 15.3345C54.0887 16.2968 54.3508 17.4721 54.1679 18.621L45.6387 72.3317" stroke="#919DD9" stroke-width="2" stroke-miterlimit="10" stroke-linecap="round"/>
<path d="M211.824 89.2071C211.824 89.2071 224.831 80.4647 226.035 76.8855" stroke="#919DD9" stroke-width="2" stroke-miterlimit="10" stroke-linecap="round"/>
<path d="M221.877 81.6451H231.069" stroke="#919DD9" stroke-width="2" stroke-miterlimit="10" stroke-linecap="round"/>
<path d="M36.1024 92.1391C35.8816 99.8077 27.9845 97.2946 27.9845 97.2946L5.33656 92.9844C4.0845 92.7467 2.95892 92.0683 2.164 91.0723C1.36908 90.0762 0.957456 88.8282 1.00348 87.5546C1.33856 78.7437 2.39712 58.9973 5.41278 43.9951C8.40561 29.1224 12.3959 12.1403 14.216 4.50215C14.4834 3.38848 15.1595 2.41587 16.1101 1.77697C17.0607 1.13807 18.2165 0.879463 19.3487 1.05239L44.2205 4.86005C44.2205 4.86005 48.5915 4.95903 48.6524 8.98753" stroke="#919DD9" stroke-width="2" stroke-miterlimit="10" stroke-linecap="round"/>
<path d="M44.2146 4.85999L27.9863 97.2946" stroke="#919DD9" stroke-width="2" stroke-miterlimit="10" stroke-linecap="round"/>
<path d="M236.445 90.4484C236.445 90.4484 235.47 94.5302 243.078 94.8424C248.409 95.0633 256.192 94.9719 260.365 94.9033C261.149 94.8899 261.898 94.5745 262.456 94.0226C263.013 93.4708 263.336 92.7251 263.358 91.941C263.541 84.6683 263.936 65.2874 263.274 51.7246C262.604 38.017 259.063 20.2581 257.715 13.8841C257.568 13.2017 257.192 12.5903 256.648 12.1523C256.105 11.7142 255.428 11.4761 254.73 11.4777H231.069C231.069 11.4777 227.726 11.1959 228.023 15.3462" stroke="#919DD9" stroke-width="2" stroke-miterlimit="10" stroke-linecap="round"/>
<path d="M233.812 11.4778C233.812 11.4778 234.924 25.7184 239.905 54.3519C244.885 82.9855 243.08 94.8426 243.08 94.8426" stroke="#919DD9" stroke-width="2" stroke-miterlimit="10" stroke-linecap="round"/>
<path d="M234.595 18.9636L227.878 19.9765C227.497 20.0349 227.153 20.2355 226.914 20.538C226.675 20.8404 226.56 21.2221 226.591 21.6061L231.762 83.5566C231.793 83.9274 231.959 84.2739 232.229 84.5306C232.498 84.7874 232.852 84.9367 233.224 84.9503L239.621 85.1939" stroke="#919DD9" stroke-width="2" stroke-miterlimit="10" stroke-linecap="round"/>
</svg>
