<svg width="68" height="44" viewBox="0 0 68 44" fill="none" xmlns="http://www.w3.org/2000/svg" xmlns:xlink="http://www.w3.org/1999/xlink">
<mask id="mask0_754_4955" style="mask-type:alpha" maskUnits="userSpaceOnUse" x="0" y="0" width="45" height="44">
<circle cx="22.0195" cy="22" r="22" fill="#D9D9D9"/>
</mask>
<g mask="url(#mask0_754_4955)">
<rect x="-143.687" y="-9.70605" width="236.824" height="157.882" fill="url(#pattern0)"/>
</g>
<path d="M37.6294 36.0973L42.9539 33.9932L46.0212 38.8184L50.6756 24.5258L42.2838 21.8047L37.6294 36.0973Z" fill="#BE1818"/>
<path d="M58.7989 36.0973L53.4751 33.9932L50.4079 38.8184L45.7534 24.5258L54.1452 21.8047L58.7989 36.0973Z" fill="#E6344D"/>
<path d="M43.3555 32.6776L35.9112 26.445L34.2241 16.8956L39.0827 8.49834L48.2141 5.18164L57.3462 8.49834L62.2048 16.8956L60.517 26.445L53.0734 32.6776H43.3555Z" fill="#FFC80D"/>
<path d="M44.5128 29.4033L38.8414 24.6548L37.5552 17.3793L41.257 10.9813L48.2139 8.45508L55.1715 10.9813L58.8726 17.3793L57.5871 24.6548L51.9157 29.4033H44.5128Z" fill="#FC9E15"/>
<path d="M51.7583 25.221V24.3797L51.0912 20.9862L53.9187 17.9876V17.1455H42.6069V17.9876L45.3214 20.8659L44.7859 24.2616L44.7674 25.221L48.8212 21.0689L51.7583 25.221Z" fill="#F9B62F"/>
<path d="M48.2628 13.5166L50.0106 17.3698L53.9187 17.9876L51.0912 20.9862L51.7583 25.221L48.2628 23.2217L44.7674 25.221L45.4353 20.9862L42.6069 17.9876L46.5151 17.3698L48.2628 13.5166Z" fill="#F9B62F"/>
<path d="M48.2628 12.6748L50.0106 16.528L53.9187 17.1458L51.0912 20.1451L51.7583 24.3799L48.2628 22.3806L44.7674 24.3799L45.4353 20.1451L42.6069 17.1458L46.5151 16.528L48.2628 12.6748Z" fill="#FFE255"/>
<defs>
<pattern id="pattern0" patternContentUnits="objectBoundingBox" width="1" height="1">
<use xlink:href="#image0_754_4955" transform="scale(0.000285755 0.000428633)"/>
</pattern>
</defs>
</svg>
