<svg width="156" height="120" viewBox="0 0 156 120" fill="none" xmlns="http://www.w3.org/2000/svg">
<g clip-path="url(#clip0_788_6649)">
<g style="mix-blend-mode:multiply" opacity="0.5">
<path d="M46.2764 82.5892C47.7796 82.4279 50.3988 82.1699 51.5987 80.6345C52.16 79.9184 52.1342 79.0797 51.56 78.3765C51.1084 77.8153 49.6698 76.9895 48.9731 76.8153C46.1474 76.1251 44.1153 75.7831 41.2122 75.8993C39.2252 75.9767 33.8062 76.867 31.2063 77.783C29.3225 78.4475 27.342 78.8668 26.4388 80.8861C25.6582 82.6344 26.1743 85.1504 27.8323 86.2987C31.9546 89.1566 39.4317 83.344 46.2764 82.6021V82.5892Z" fill="#62575B"/>
<path d="M68.2044 46.2812L20.607 73.7636C19.6909 74.2926 19.6909 75.6152 20.607 76.1506L61.3274 99.659C65.5852 102.117 70.2301 103.846 75.0621 104.768L93.7385 108.336C94.1514 108.413 94.5707 108.517 94.9772 108.626C127.137 117.484 139.652 103.368 139.652 103.368L68.2044 46.2812Z" fill="#62575B"/>
</g>
<path d="M14.5881 79.473L6.12402 74.5829V71.9443L14.5881 76.8279V79.473Z" fill="#B5AEA3"/>
<path d="M34.6965 67.8603L14.5879 79.4725V76.8275L34.6965 65.2217V67.8603Z" fill="#C9C3B8"/>
<path d="M14.5881 76.8279L6.12402 71.9443L26.2326 60.332L34.6967 65.2221L14.5881 76.8279Z" fill="#EAE6DA"/>
<path opacity="0.7" d="M14.3816 75.828L25.6843 65.0544L26.2326 60.332L6.12402 71.9443L12.8462 75.828H14.3816Z" fill="#B5AEA3"/>
<path d="M30.4962 22.9668C30.4962 22.3087 30.264 21.8442 29.8898 21.6249L23.1547 17.709C23.5289 17.9283 23.7611 18.3928 23.7611 19.0508L23.7998 32.4437C23.7998 33.7662 22.8773 35.3726 21.7225 36.037L12.1488 41.5658C11.5682 41.9012 11.0457 41.9335 10.665 41.7141L17.4002 45.6301C17.7808 45.8494 18.3033 45.8172 18.884 45.4817L28.4576 39.953C29.606 39.2885 30.5349 37.6821 30.5349 36.3596L30.4962 22.9603V22.9668Z" fill="#A1B32F"/>
<path d="M27.0129 4.70322L20.2842 0.793748C21.8905 -0.135234 23.3485 -0.219101 24.3936 0.387318L31.1288 4.30324C30.0772 3.69037 28.6257 3.78068 27.0193 4.70322H27.0129Z" fill="#F3F3F3"/>
<path d="M14.3621 75.8738L7.62695 71.9643L7.6334 14.748L14.3685 18.6575L14.3621 75.8738Z" fill="#CBCBCB"/>
<path d="M20.1297 8.68384L13.3945 4.76792L20.2845 0.793945L27.0132 4.70341L20.1297 8.68384Z" fill="#ECECEC"/>
<path d="M27.0132 4.70353C30.2066 2.85846 32.8 4.34226 32.8129 8.00658V65.2229L14.3623 75.8739V18.6576C14.3623 14.9868 16.9364 10.5226 20.1297 8.68396L27.0197 4.70998L27.0132 4.70353ZM30.5356 36.3599L30.4969 22.9671C30.4969 21.6446 29.5615 21.1091 28.4067 21.7736L18.833 27.3023C17.6847 27.9668 16.7493 29.5796 16.7557 30.9021L16.7944 44.3014C16.7944 45.6239 17.7363 46.1529 18.8846 45.4884L28.4583 39.9597C29.6066 39.2952 30.5356 37.6888 30.5356 36.3663V36.3599Z" fill="#E5E5E5"/>
<path d="M14.369 18.6572L7.63384 14.7412C7.62093 11.0705 10.2014 6.60619 13.3948 4.76758L20.1299 8.6835C16.9366 10.5286 14.3625 14.9928 14.369 18.6572Z" fill="#F3F3F3"/>
<path d="M9.87205 37.8888C9.10435 37.005 8.62695 35.9083 8.62695 35.0374C8.62695 33.7213 9.69786 33.2633 11.0139 34.0245C11.4333 34.2697 11.8526 34.6181 12.2203 35.0438C12.988 35.9277 13.4654 37.0244 13.4654 37.9018C13.4654 39.2178 12.3945 39.6694 11.0784 38.9146C10.6591 38.6695 10.2398 38.3211 9.87205 37.8953V37.8888ZM12.1235 35.289C11.8074 34.9277 11.4462 34.6181 11.0784 34.4052C9.9043 33.7278 8.95597 34.1278 8.95597 35.2954C8.95597 36.0373 9.33659 36.9147 9.97527 37.6502C10.2914 38.0114 10.6526 38.3211 11.0204 38.534C12.1945 39.2114 13.1428 38.8114 13.1428 37.6437C13.1428 36.9018 12.7622 36.0244 12.1235 35.289Z" fill="#6A7F0B"/>
<path d="M10.9492 38.2376C10.917 38.1989 10.8976 38.1472 10.9041 38.1214L11.2266 36.586L10.4847 36.6118C10.4847 36.6118 10.4589 36.5989 10.4396 36.5796C10.4331 36.5731 10.4267 36.5602 10.4138 36.5473C10.388 36.5086 10.3751 36.4699 10.3815 36.4506L10.7105 34.5732L11.2654 34.8571C11.2654 34.8571 11.2847 34.87 11.2976 34.8829C11.3105 34.8958 11.3234 34.9152 11.3299 34.9345C11.3492 34.9732 11.3557 35.0055 11.3492 35.0184L10.8976 36.1603L11.6073 36.1344C11.6073 36.1344 11.6331 36.1474 11.6524 36.1667C11.6589 36.1796 11.6718 36.1861 11.6782 36.2054C11.704 36.2441 11.7169 36.2828 11.7105 36.3022L11.0138 38.2698C11.0138 38.2698 10.9815 38.2763 10.9557 38.2505C10.9557 38.2505 10.9492 38.244 10.9428 38.2376H10.9492Z" fill="#6A7F0B"/>
<path d="M11.3695 19.9474C11.2856 19.7603 11.176 19.5797 11.0405 19.4313C10.9308 19.3023 10.8018 19.1991 10.6728 19.1217C10.4341 18.9862 10.2212 18.9733 10.0728 19.0636L9.2793 19.5216C9.43413 19.4313 9.64702 19.4442 9.87926 19.5797C10.0083 19.6571 10.1373 19.7603 10.247 19.8894C10.3825 20.0377 10.4921 20.2184 10.576 20.4055C10.6663 20.6184 10.7244 20.8377 10.7244 21.0377C10.7244 21.3086 10.6276 21.4957 10.4792 21.5796L11.2727 21.1216C11.4276 21.0312 11.5179 20.8442 11.5179 20.5796C11.5179 20.3732 11.4663 20.1539 11.3695 19.9474Z" fill="#48484D"/>
<path d="M9.87891 19.5801C9.40797 19.3092 9.0338 19.5285 9.02734 20.064C9.02734 20.6059 9.40152 21.2575 9.87246 21.5284C10.337 21.7994 10.7176 21.5865 10.724 21.0446C10.724 20.5091 10.3434 19.8511 9.87891 19.5801Z" fill="#2B2B2D"/>
<path d="M11.3695 25.6574C11.2856 25.4703 11.176 25.2897 11.0405 25.1413C10.9308 25.0123 10.8018 24.909 10.6728 24.8316C10.4341 24.6961 10.2212 24.6832 10.0728 24.7736L9.2793 25.2316C9.43413 25.1413 9.64702 25.1542 9.87926 25.2897C10.0083 25.3671 10.1373 25.4703 10.247 25.5993C10.3825 25.7477 10.4921 25.9283 10.576 26.1154C10.6663 26.3283 10.7244 26.5477 10.7244 26.7476C10.7244 27.0186 10.6276 27.2057 10.4792 27.2896L11.2727 26.8315C11.4276 26.7412 11.5179 26.5541 11.5179 26.2896C11.5179 26.0896 11.4663 25.8638 11.3695 25.6574Z" fill="#48484D"/>
<path d="M9.87891 25.2901C9.40797 25.0192 9.0338 25.2385 9.02734 25.774C9.02734 26.3159 9.40152 26.9674 9.87246 27.2384C10.337 27.5093 10.7176 27.2965 10.724 26.7545C10.724 26.2191 10.3434 25.5611 9.87891 25.2901Z" fill="#2B2B2D"/>
<path d="M27.878 15.9738L20.0075 20.5219C19.614 20.7477 19.2979 20.6122 19.2979 20.2187V15.6383C19.2979 15.2448 19.614 14.7416 20.0075 14.5158L27.878 9.96762C28.2716 9.74183 28.5877 9.8773 28.5877 10.2708V14.8512C28.5877 15.2448 28.2716 15.748 27.878 15.9738Z" fill="url(#paint0_linear_788_6649)"/>
<path d="M27.6009 11.3096L20.2852 15.5287V19.2704L27.6009 15.0449V11.3096Z" fill="#A0B22E"/>
<path opacity="0.6" d="M27.3945 11.4257V14.9287L20.2852 19.0317V19.2704L27.6009 15.0449V11.3096L27.3945 11.4257Z" fill="#6A7F0B"/>
<path d="M130.162 53.0171C130.511 52.559 132.704 50.5398 132.975 50.7656C133.549 51.2365 133.278 53.4171 132.762 54.3009C132.285 55.1137 130.188 57.333 130.091 57.0685C129.917 56.5653 129.73 53.5783 130.156 53.0171H130.162Z" fill="#DCDCDC"/>
<path d="M60.05 57.165L51.2827 61.4358C50.0247 62.1648 50.4183 67.8096 51.1666 70.1901L66.5722 61.3777C64.7659 59.7455 62.5079 58.4359 60.05 57.165Z" fill="#3F3F3F"/>
<path d="M102.634 89.351C101.344 90.0993 101.157 97.5505 101.976 99.6407L108.634 95.57L123.717 81.5062C123.82 79.287 135.82 71.2874 137.11 70.5391L102.634 89.3574V89.351Z" fill="#3F3F3F"/>
<path d="M68.6165 68.132C67.9907 66.7128 67.1263 65.358 66.1199 64.2097C65.2683 63.242 64.3135 62.4227 63.3007 61.8356C61.5072 60.8034 59.8815 60.7066 58.7074 61.384L55.1592 63.4484L64.3006 79.1637L67.8488 77.0993C69.0036 76.4284 69.7261 74.9962 69.7326 72.964C69.7326 71.4157 69.3262 69.732 68.6165 68.132Z" fill="#262523"/>
<path d="M59.7529 63.9002C56.1918 61.8422 53.2952 63.4938 53.2823 67.5839C53.2694 71.6804 56.1466 76.6608 59.7142 78.7188C63.2753 80.7767 66.1719 79.1252 66.1848 75.0286C66.1977 70.9385 63.3204 65.9582 59.7529 63.9002Z" fill="#2D2C2B"/>
<path opacity="0.5" d="M59.7465 65.9899C57.1918 64.5126 55.1145 65.6996 55.1016 68.6349C55.0951 71.5703 57.1595 75.1507 59.7142 76.6281C62.2689 78.1054 64.3527 76.9184 64.3591 73.983C64.3656 71.0477 62.3012 67.4737 59.7465 65.9964V65.9899Z" fill="url(#paint1_linear_788_6649)"/>
<mask id="mask0_788_6649" style="mask-type:luminance" maskUnits="userSpaceOnUse" x="55" y="65" width="10" height="13">
<path d="M59.7465 65.9899C57.1918 64.5126 55.1145 65.6996 55.1016 68.6349C55.0951 71.5703 57.1595 75.1507 59.7142 76.6281C62.2689 78.1054 64.3527 76.9184 64.3591 73.983C64.3656 71.0477 62.3012 67.4737 59.7465 65.9964V65.9899Z" fill="white"/>
</mask>
<g mask="url(#mask0_788_6649)">
<path d="M60.2171 65.9575C62.6105 67.4026 64.5008 70.8024 64.4427 73.5635C64.3846 76.3247 62.3912 77.3891 60.0042 75.9441C57.6108 74.499 55.7206 71.0992 55.7786 68.338C55.8367 65.5769 57.8302 64.5124 60.2171 65.9575Z" fill="url(#paint2_radial_788_6649)"/>
<g style="mix-blend-mode:multiply" opacity="0.5">
<path d="M60.1978 66.7256C58.1722 65.5063 56.4884 66.4095 56.4368 68.7448C56.3852 71.0802 57.9851 73.9639 60.0108 75.1832C62.0365 76.4025 63.7202 75.4993 63.7719 73.1639C63.8235 70.8286 62.2235 67.9449 60.1978 66.7256ZM60.0172 74.8477C58.1528 73.7252 56.6755 71.0673 56.7206 68.9126C56.7658 66.7578 58.3205 65.9256 60.1849 67.0546C62.0494 68.1771 63.5267 70.835 63.4815 72.9898C63.4364 75.1445 61.8816 75.9767 60.0172 74.8477Z" fill="#C7C7C7"/>
</g>
</g>
<path d="M98.3832 87.4415L78.7262 75.784L67.9526 74.4551C67.9526 74.4551 67.8042 78.7 67.501 79.6935L102.009 99.6537V94.0024L98.3832 87.4415Z" fill="url(#paint3_linear_788_6649)"/>
<path d="M119.35 97.4207C118.724 96.0015 117.86 94.6467 116.853 93.4919C116.002 92.5242 115.047 91.7049 114.034 91.1179C112.241 90.0792 110.615 89.9889 109.441 90.6663L105.893 92.7307L115.034 108.446L118.582 106.382C119.737 105.711 120.46 104.278 120.466 102.246C120.466 100.698 120.06 99.0142 119.35 97.4143V97.4207Z" fill="#262523"/>
<path d="M110.486 93.1883C106.925 91.1303 104.029 92.7819 104.016 96.872C104.003 100.969 106.88 105.949 110.448 108.007C114.009 110.065 116.905 108.413 116.918 104.317C116.931 100.227 114.054 95.2462 110.486 93.1883Z" fill="#2D2C2B"/>
<path opacity="0.5" d="M110.48 95.2791C107.925 93.8018 105.848 94.9888 105.835 97.9177C105.829 100.853 107.893 104.433 110.448 105.911C113.002 107.388 115.08 106.201 115.093 103.266C115.099 100.33 113.035 96.7565 110.48 95.2791Z" fill="url(#paint4_linear_788_6649)"/>
<mask id="mask1_788_6649" style="mask-type:luminance" maskUnits="userSpaceOnUse" x="105" y="94" width="11" height="13">
<path d="M110.48 95.2791C107.925 93.8018 105.848 94.9888 105.835 97.9177C105.829 100.853 107.893 104.433 110.448 105.911C113.002 107.388 115.08 106.201 115.093 103.266C115.099 100.33 113.035 96.7565 110.48 95.2791Z" fill="white"/>
</mask>
<g mask="url(#mask1_788_6649)">
<path d="M110.951 95.2466C113.344 96.6916 115.234 100.091 115.176 102.853C115.118 105.614 113.125 106.678 110.738 105.233C108.344 103.788 106.454 100.388 106.512 97.6271C106.57 94.8659 108.564 93.8015 110.951 95.2466Z" fill="url(#paint5_radial_788_6649)"/>
<g style="mix-blend-mode:multiply" opacity="0.5">
<path d="M110.931 96.0146C108.906 94.7953 107.222 95.6985 107.17 98.0339C107.119 100.369 108.718 103.253 110.744 104.472C112.77 105.692 114.454 104.788 114.505 102.453C114.557 100.118 112.957 97.2339 110.931 96.0146ZM110.751 104.137C108.886 103.014 107.409 100.356 107.454 98.2016C107.499 96.0469 109.054 95.2147 110.918 96.3436C112.783 97.4662 114.26 100.124 114.215 102.279C114.17 104.434 112.615 105.266 110.751 104.137Z" fill="#C7C7C7"/>
</g>
</g>
<path d="M155.574 82.809C155.561 82.6026 155.49 82.3962 155.355 82.2349C155.142 81.9833 154.897 81.8349 154.89 81.7639C154.742 80.0285 154.413 78.6996 154.155 78.0674C153.742 77.0545 153.155 75.9126 152.432 74.745C151.652 73.4805 133.266 57.1653 133.266 57.1653C133.027 56.875 121.524 45.282 117.815 43.1338L85.1908 24.3025C83.6618 23.4187 81.7781 23.4187 80.2427 24.3025L61.7727 34.9665C60.6179 35.6309 59.6051 36.5277 58.8051 37.5921C58.8051 37.5921 51.6249 47.34 51.612 47.4561C51.5152 48.6496 50.9991 52.5526 50.9991 52.5526L49.6572 54.5461C49.3992 54.888 49.2444 55.2944 49.2056 55.7202C49.0315 57.5588 49.0637 63.9004 49.0831 66.7389C49.0895 67.8034 49.5347 68.8227 50.3475 69.513C50.7991 69.8936 51.1733 70.1517 51.1733 70.1517C51.4636 65.7261 53.2119 57.6814 60.547 61.9521C60.6308 61.9973 60.7082 62.0489 60.7921 62.1005C64.6629 64.4875 67.7337 69.8614 67.953 74.4547L102.016 94.1568C102.229 89.6022 105.532 87.8346 109.499 90.1248C109.583 90.1699 109.667 90.2215 109.751 90.2732C113.615 92.6537 118.021 96.9825 118.099 106.905C125.021 109.75 133.556 107.679 140.859 104.098C148.458 100.369 154.071 95.6987 155.393 91.9827C155.529 91.6021 155.568 91.2021 155.568 90.8022C155.581 88.9313 155.619 83.6026 155.568 82.8026L155.574 82.809ZM97.0805 35.3277L95.2935 36.3599L85.1392 30.4957L86.9262 29.4635C87.5778 29.0894 88.6422 29.0894 89.2938 29.4635L97.0805 33.9601C97.7321 34.3407 97.7321 34.9471 97.0805 35.3277ZM115.641 48.1141C117.396 46.7981 118.55 45.7723 119.079 45.2756C122.498 48.2303 129.285 54.8364 130.724 56.7717L115.641 48.1141Z" fill="#BFBFBF"/>
<path d="M133.259 57.1653C133.02 56.875 121.518 45.282 117.808 43.1338L85.1841 24.3025C83.6552 23.4187 81.7714 23.4187 80.236 24.3025L61.766 34.9665C61.308 35.231 60.8758 35.5406 60.4629 35.8761C60.4629 35.8761 61.5209 35.7148 62.2692 36.1599C67.4432 39.2501 85.4357 50.7721 89.5775 53.1461C93.1644 55.1976 95.8287 56.5653 97.3706 60.5328C99.1382 65.0745 101.719 69.1453 103.499 73.687C108.822 80.6479 115.002 86.583 123.182 92.4279C133.304 91.5247 152.664 80.964 152.426 74.7514C150.335 71.3064 133.259 57.1588 133.259 57.1588V57.1653ZM97.0803 35.3277L95.2933 36.3599L85.139 30.4957L86.926 29.4635C87.5776 29.0894 88.642 29.0894 89.2936 29.4635L97.0803 33.9601C97.7319 34.3407 97.7319 34.9471 97.0803 35.3277ZM115.641 48.1141C117.395 46.7981 118.55 45.7723 119.079 45.2756C122.498 48.2303 129.285 54.8364 130.724 56.7717L115.641 48.1141Z" fill="#ECECEC"/>
<path d="M153.69 76.8356C143.768 90.8025 124.408 93.725 122.557 93.7637C122.092 93.7766 120.705 93.7637 120.705 93.7637C121.028 94.6927 121.531 95.5829 121.918 95.9184C122.55 96.4732 124.073 96.2926 124.827 96.2797C126.563 96.241 144.723 93.5056 153.961 80.3902C154.665 79.3967 154.284 78.0355 153.697 76.8291L153.69 76.8356Z" fill="#F3F8FF"/>
<path d="M123.13 93.7121C122.872 93.7444 122.672 93.7573 122.55 93.7573C122.085 93.7702 121.363 93.8218 120.698 93.7573C121.021 94.6863 121.524 95.5765 121.911 95.912C122.047 96.0346 122.24 96.1055 122.447 96.1636C122.505 96.183 122.569 96.1959 122.634 96.2152C123.35 96.37 124.279 96.2797 124.821 96.2668C124.924 96.2668 125.098 96.2539 125.311 96.2281C124.517 95.312 123.769 94.4411 123.13 93.6992V93.7121Z" fill="#F7A041"/>
<g style="mix-blend-mode:multiply" opacity="0.5">
<path d="M123.517 93.2539C118.963 92.3572 53.7534 54.4495 50.9277 52.6367L49.6504 54.5398C49.3923 54.8818 49.2375 55.2882 49.1988 55.714C49.0246 57.5526 49.0569 63.8942 49.0762 66.7327C49.0827 67.7972 49.5278 68.8165 50.3407 69.5068C50.7923 69.8874 51.1664 70.1455 51.1664 70.1455C51.4568 65.7199 53.205 57.6752 60.5401 61.9523C60.624 61.9975 60.7014 62.0491 60.7853 62.1007C64.656 64.4877 67.7268 69.8616 67.9462 74.4549C67.9462 74.4549 67.7978 78.6998 67.4946 79.6933L102.002 99.6535V94.1506C102.222 89.596 105.525 87.8348 109.492 90.125C109.576 90.1702 109.66 90.2218 109.744 90.2734C113.608 92.6539 118.014 96.9827 118.092 106.905C121.847 108.447 126.079 108.537 130.336 107.731C130.259 106.002 125.679 93.6797 123.517 93.2539Z" fill="#C7C7C7"/>
</g>
<path d="M131.556 56.2875C127.285 52.0039 123.518 48.4299 119.537 45.0494C119.473 44.9913 119.376 44.9913 119.311 45.0494C119.253 45.101 119.176 45.1849 119.073 45.2752C122.492 48.2299 129.279 54.836 130.717 56.7714L115.634 48.1138C112.099 50.7652 106.125 54.5779 97.8158 57.5842C97.7061 57.6229 97.6545 57.7519 97.7126 57.8552L105.744 72.5899C106.248 73.5124 107.325 73.835 108.344 73.5575C112.009 72.5705 120.976 69.4545 129.653 61.7453C130.988 60.5582 132.962 57.6939 131.556 56.2811V56.2875Z" fill="#101616"/>
<path d="M93.4479 32.1541C93.1188 31.9734 92.8092 31.7734 92.5124 31.5541L92.9963 35.0249L85.1515 30.4961L72.2748 37.928C71.6232 38.3021 71.6232 38.915 72.2748 39.2956L80.0615 43.7922C80.7131 44.1663 81.7711 44.1663 82.4291 43.7922L95.3058 36.3603L93.9188 35.5603L93.4543 32.1605L93.4479 32.1541Z" fill="#151B1C"/>
<g style="mix-blend-mode:multiply" opacity="0.5">
<path d="M101.918 73.4099L101.538 73.5131C101.538 73.5131 102.312 76.4033 102.08 77.7774C101.854 79.0741 100.441 89.6735 100.189 91.5767L80.5453 80.2611V69.8488L82.9645 62.017L82.6097 61.8428L80.1776 69.6101L80.1582 80.4998L100.247 92.0734L100.505 92.2218L100.544 91.9315C100.564 91.8025 102.228 79.2676 102.473 77.8548C102.725 76.3968 101.957 73.5389 101.925 73.4228L101.918 73.4099Z" fill="#C7C7C7"/>
</g>
<g style="mix-blend-mode:multiply" opacity="0.5">
<path d="M78.8039 79.6993V68.8289L81.2231 60.9971L80.8683 60.8229L78.4297 68.6096L78.4168 79.0155L67.7658 72.8545C67.7981 73.0222 67.8045 73.1835 67.8239 73.3448L78.7717 79.6735L78.8039 79.6929V79.6993ZM63.2951 64.184V59.7972L65.7143 52.0492L65.3595 51.875L62.9209 59.6681V63.8227C63.0435 63.9453 63.1725 64.0614 63.2951 64.1905V64.184Z" fill="#C7C7C7"/>
</g>
<path d="M155.587 83.0863C155.587 82.9895 155.58 82.8927 155.574 82.8089C155.561 82.6024 155.49 82.396 155.355 82.2347C155.142 81.9831 154.897 81.8347 154.89 81.7638C154.89 81.7315 154.884 81.6992 154.884 81.667C142.601 99.6015 119.589 99.408 119.589 99.408C119.589 99.4144 120.724 100.098 123.64 100.201C137.498 100.672 153.335 88.8343 155.593 83.0863H155.587Z" fill="#ECECEC"/>
<g opacity="0.5">
<path d="M130.834 59.1072C130.859 58.4104 131.646 58.2104 131.375 57.604C131.311 57.4621 130.176 56.6686 130.072 56.7202C120.757 59.7007 110.925 65.7455 105.016 71.3968C106.332 74.616 107.751 72.3839 109.119 72.8742C109.177 72.8612 122.092 68.3454 130.84 59.1072H130.834Z" fill="#D3D3D3"/>
<path d="M127.299 57.7267C126.563 60.4491 120.422 63.5392 115.815 63.3586C115.815 63.3586 117.641 60.92 120.964 59.2362C124.879 57.2557 127.292 57.7267 127.292 57.7267H127.299Z" fill="#EAEAEA"/>
</g>
<path opacity="0.7" d="M119.311 45.0494C118.357 45.9719 111.028 52.8038 97.8158 57.5907C97.7061 57.6294 97.6545 57.7584 97.7126 57.8616L105.744 72.5963C106.248 73.5188 107.325 73.8414 108.344 73.564C112.002 72.577 120.976 69.461 129.653 61.7517C130.988 60.5647 132.962 57.7003 131.556 56.2875C127.285 52.0039 123.518 48.4299 119.537 45.0494C119.473 44.9913 119.376 44.9913 119.311 45.0494Z" fill="#334547"/>
<path d="M102.118 73.6418L55.8887 47.0884C55.8887 47.0884 59.753 41.3339 61.7593 39.5662C62.3593 39.0372 62.7141 38.9534 63.4108 39.3533C69.6428 42.9338 90.2997 54.8622 93.1189 56.4943C93.9511 56.9717 94.6285 57.6556 95.0995 58.4942C97.1897 62.2102 101.693 71.958 102.118 73.6418Z" fill="#252F30"/>
<path d="M101.054 70.3003C100.583 69.2294 100.106 68.1649 99.6154 67.1069C98.6348 64.9845 97.622 62.8814 96.564 60.7976L95.7511 59.2428C95.4673 58.7396 95.2157 58.1977 94.8286 57.7203C94.4544 57.243 94.0028 56.8301 93.4932 56.4946C92.9771 56.1785 92.4803 55.9075 91.9707 55.6108L85.9 52.1271L85.6097 51.9852L62.7723 38.8117C61.7143 38.1988 56.4565 45.979 55.7339 46.9983C55.6565 47.1274 55.6952 47.2757 55.8049 47.3403C55.8113 47.3403 81.3583 62.0749 81.3583 62.0749L101.989 73.8614C102.06 73.9001 102.125 73.9066 102.189 73.8872C102.312 73.8485 102.383 73.713 102.344 73.5905C101.983 72.4292 101.506 71.3841 101.041 70.3003H101.054ZM81.6551 61.5653L56.3081 47.0564C56.921 46.25 61.8949 38.6633 62.8948 39.2568L85.442 52.2819L85.7194 52.4497L91.7771 55.9591C92.2739 56.2495 92.8029 56.5398 93.2738 56.8365C93.7383 57.1462 94.1577 57.5268 94.4996 57.9719C94.8479 58.4042 95.0866 58.9332 95.3769 59.4428L96.1769 60.9911C97.222 63.0684 98.2284 65.178 99.1961 67.294C99.6799 68.352 100.157 69.4165 100.622 70.4874C100.99 71.3519 101.357 72.2357 101.667 73.1002L81.6551 61.5653Z" fill="#151B1C"/>
<path style="mix-blend-mode:screen" opacity="0.4" d="M133.162 59.2744C133.162 59.2744 126.943 69.2416 109.356 74.8349C110.376 75.7445 125.323 86.0278 130.91 87.7116C130.91 87.7116 142.297 84.6795 148.096 76.9702C145.309 71.7125 134.523 60.2163 133.162 59.2744Z" fill="url(#paint6_linear_788_6649)"/>
<path d="M131.859 56.4431C131.665 56.1786 131.459 55.998 131.265 55.798C130.865 55.398 130.472 55.0045 130.091 54.6239C127.008 51.5531 124.356 49.0822 122.466 47.3855C121.511 46.5469 120.763 45.8888 120.253 45.4373C119.995 45.2179 119.795 45.0437 119.666 44.9341C119.569 44.8373 119.395 44.8244 119.324 44.8631C119.24 44.8953 119.214 44.9341 119.214 44.9341C119.214 44.9341 118.195 45.9534 116.189 47.4952C114.189 49.0371 111.208 51.1079 107.376 53.1336C105.46 54.1529 103.351 55.1787 101.048 56.1205C100.48 56.3657 99.8929 56.6044 99.2929 56.8237C98.9961 56.9399 98.6929 57.0495 98.3962 57.1657L97.9446 57.3398L97.8285 57.385C97.7962 57.4043 97.7575 57.4043 97.6672 57.4624C97.5382 57.5592 97.4801 57.7463 97.5382 57.9075C98.1704 59.0623 98.8155 60.2429 99.4671 61.4428C100.77 63.8234 102.119 66.2877 103.493 68.7908C104.177 70.0424 104.867 71.3004 105.564 72.5713C105.886 73.268 106.647 73.7583 107.409 73.8035C107.789 73.8357 108.183 73.7841 108.538 73.6744C108.886 73.5777 109.234 73.4745 109.583 73.3648C115.137 71.6229 120.33 68.8747 124.795 65.7652C125.343 65.3652 125.891 64.9652 126.433 64.5717C126.956 64.1588 127.478 63.7459 127.995 63.346C128.975 62.4879 130.04 61.7331 130.807 60.7138C131.194 60.2171 131.53 59.6881 131.788 59.1268C132.04 58.5656 132.227 57.9592 132.181 57.3334C132.162 57.0237 132.052 56.7141 131.878 56.456L131.859 56.4431ZM130.582 60.5461C129.853 61.5332 128.795 62.288 127.82 63.146C127.311 63.5524 126.795 63.9588 126.272 64.3717C125.737 64.7652 125.195 65.1652 124.646 65.5652C120.221 68.6941 115.015 71.3778 109.486 73.0745C109.144 73.1841 108.796 73.2809 108.447 73.3777C108.105 73.4809 107.77 73.5261 107.428 73.4938C106.744 73.4357 106.131 73.0422 105.841 72.4164C105.151 71.1455 104.467 69.8811 103.789 68.6295C102.428 66.12 101.086 63.6556 99.7961 61.2687C99.151 60.0816 98.5188 58.9204 97.8994 57.7785L98.0672 57.714L98.5252 57.5398C98.8284 57.4237 99.1316 57.3076 99.4284 57.1915C100.028 56.9721 100.615 56.7334 101.19 56.4818C103.499 55.5335 105.622 54.4884 107.544 53.4626C111.389 51.4111 114.382 49.3209 116.389 47.7662C118.402 46.2114 119.434 45.1727 119.434 45.1727C119.447 45.1727 119.414 45.1598 119.453 45.1857C119.589 45.3018 119.782 45.4695 120.04 45.6889C120.55 46.134 121.298 46.792 122.253 47.6242C124.15 49.308 126.801 51.7724 129.891 54.8238C130.278 55.2045 130.672 55.598 131.072 55.998C131.272 56.198 131.485 56.398 131.64 56.6044C131.781 56.8237 131.878 57.0753 131.898 57.3527C131.962 58.4688 131.317 59.5849 130.588 60.5526L130.582 60.5461Z" fill="#151B1C"/>
<path d="M131.556 56.2875C131.356 56.081 131.156 55.8875 130.956 55.6875C132.272 61.913 107.609 74.0543 105.744 72.5898C106.247 73.5124 107.325 73.8349 108.344 73.5575C112.002 72.5705 120.976 69.4545 129.653 61.7452C130.988 60.5582 132.962 57.6938 131.556 56.281V56.2875Z" fill="#151B1C"/>
<path d="M86.1451 52.5458L83.9968 51.333L80.668 61.1583L82.7969 62.4163L86.1451 52.5458Z" fill="#151B1C"/>
<path d="M69.0494 42.6757L68.114 42.166L64.7852 51.9848L65.7012 52.5461L69.0494 42.6757Z" fill="#151B1C"/>
<path d="M99.1448 66.5259C99.1255 66.4937 99.1126 66.4614 99.0932 66.4227C98.9448 66.1195 98.79 65.8227 98.6416 65.5195L96.9385 70.5451L97.8546 71.1063L99.2932 66.8549C99.2416 66.7453 99.19 66.6292 99.1384 66.5195L99.1448 66.5259Z" fill="#151B1C"/>
<path d="M151.974 90.0022C147.903 94.2342 141.749 97.7179 135.962 100.086C135.865 100.124 135.801 100.221 135.801 100.324V104.614C135.788 104.782 135.936 104.911 136.104 104.879C138.594 104.35 150.193 97.7824 152.277 94.8084C152.387 94.6536 152.432 94.46 152.432 94.2729V90.1764C152.432 89.9377 152.148 89.8216 151.98 89.9957L151.974 90.0022Z" fill="#595959"/>
<path d="M136.098 103.962C135.936 103.995 135.795 103.866 135.788 103.704V104.62C135.788 104.788 135.936 104.917 136.098 104.885C138.588 104.356 150.187 97.7885 152.271 94.8144C152.381 94.6596 152.426 94.4661 152.426 94.279V93.3564C152.426 93.5435 152.381 93.7371 152.271 93.8919C150.187 96.8595 138.588 103.433 136.098 103.962Z" fill="#ECECEC"/>
<path d="M97.8545 74.2549L99.8286 74.3581C100.751 74.4033 101.667 74.2226 102.499 73.8291C102.125 72.9066 101.764 71.9776 101.37 71.0615L98.9835 72.1324L97.8545 74.2549Z" fill="#151B1C"/>
<path d="M99.0345 71.3648C98.4732 71.3326 94.3121 72.6744 94.3638 73.1712C94.4605 74.1131 95.9314 75.3453 96.8217 75.5259C97.6733 75.7001 101.221 74.5711 101.234 74.2421C101.267 73.6163 100.105 71.4293 99.0345 71.3648Z" fill="#DCDCDC"/>
<g style="mix-blend-mode:multiply" opacity="0.5">
<path d="M84.816 71.474L83.7838 70.8741C83.429 70.6676 83.1387 70.216 83.1387 69.8548V68.5451C83.1387 68.1903 83.429 68.0678 83.7838 68.2742L84.816 68.8742C85.1708 69.0806 85.4611 69.5322 85.4611 69.887V71.1966C85.4611 71.5514 85.1708 71.674 84.816 71.4676V71.474Z" fill="#C7C7C7"/>
</g>
<path d="M85.6416 70.9323L82.9579 69.384C82.674 69.2227 82.4482 68.8614 82.4482 68.5776C82.4482 68.2937 82.674 68.1969 82.9579 68.3647L85.6416 69.913C85.9255 70.0742 86.1513 70.4355 86.1513 70.7194C86.1513 71.0032 85.9255 71.1 85.6416 70.9323Z" fill="#EAEAEA"/>
<g style="mix-blend-mode:multiply" opacity="0.5">
<path d="M67.2945 61.3582L66.2623 60.7582C65.9075 60.5518 65.6172 60.1002 65.6172 59.7454V58.4358C65.6172 58.081 65.9075 57.9584 66.2623 58.1648L67.2945 58.7648C67.6493 58.9712 67.9396 59.4228 67.9396 59.7776V61.0872C67.9396 61.4421 67.6493 61.5646 67.2945 61.3582Z" fill="#C7C7C7"/>
</g>
<path d="M68.1201 60.816L65.4364 59.2677C65.1526 59.1065 64.9268 58.7452 64.9268 58.4613C64.9268 58.1775 65.1526 58.0807 65.4364 58.242L68.1201 59.7903C68.404 59.9516 68.6298 60.3128 68.6298 60.5967C68.6298 60.8806 68.404 60.9773 68.1201 60.8096V60.816Z" fill="#EAEAEA"/>
<path d="M51.6053 47.4564C50.657 47.0242 48.9538 53.7529 49.2764 55.3463L50.9279 52.6433C52.102 49.1596 51.5988 47.4564 51.5988 47.4564H51.6053Z" fill="#A00000"/>
<path d="M72.2686 38.5535L86.9323 30.0894C87.5839 29.7152 88.6483 29.7152 89.2999 30.0894L97.0866 34.5859C97.2737 34.6956 97.3898 34.8246 97.4737 34.9601C97.6736 34.6246 97.5511 34.2376 97.0866 33.9666L89.2999 29.4701C88.6483 29.0959 87.5839 29.0959 86.9323 29.4701L72.2686 37.9341C71.8041 38.2051 71.6815 38.5922 71.8815 38.9276C71.9589 38.7922 72.0815 38.6631 72.2686 38.5535Z" fill="#BFBFBF"/>
<path opacity="0.7" d="M97.0801 35.3274L82.4164 43.7915C81.7648 44.1656 80.7004 44.1656 80.0488 43.7915L72.2621 39.2949C71.6105 38.9208 71.6105 38.3079 72.2621 37.9273L86.9258 29.4632C87.5774 29.0826 88.6419 29.0826 89.2935 29.4632L97.0801 33.9597C97.7317 34.3339 97.7317 34.9468 97.0801 35.3274Z" fill="#334547"/>
<path d="M56.9015 50.7588C56.3274 50.3782 55.6822 50.6879 55.45 51.4362C55.2113 52.191 55.4822 53.0942 56.0564 53.4748C56.6241 53.849 57.2757 53.5522 57.5079 52.7974C57.7402 52.0491 57.4692 51.133 56.9015 50.7588Z" fill="#262323"/>
<path d="M28.5745 89.9892C26.0779 89.9892 23.5812 89.4409 21.6846 88.3442C19.7814 87.2474 18.7363 85.7701 18.7363 84.1831C18.7363 82.5961 19.7814 81.1187 21.6846 80.022C25.4844 77.8286 31.6647 77.8286 35.4645 80.022C37.3676 81.1187 38.4127 82.5961 38.4127 84.1831C38.4127 85.7701 37.3676 87.2474 35.4645 88.3442C33.5678 89.4409 31.0711 89.9892 28.5745 89.9892ZM28.5745 79.0027C26.194 79.0027 23.8199 79.5253 22.0071 80.5704C20.3169 81.551 19.3815 82.8283 19.3815 84.1766C19.3815 85.525 20.3169 86.8023 22.0071 87.7829C25.6263 89.8731 31.5227 89.8731 35.1419 87.7829C36.8386 86.8023 37.7676 85.525 37.7676 84.1766C37.7676 82.8283 36.8321 81.551 35.1419 80.5704C33.3291 79.5253 30.955 79.0027 28.5745 79.0027Z" fill="#262323"/>
<path d="M36.4191 87.6345C36.3224 87.6345 36.2256 87.5893 36.1675 87.5119C36.0579 87.37 36.0837 87.17 36.2256 87.0603C39.4512 84.5379 39.0061 78.5446 38.7674 75.3255C38.7222 74.7319 38.69 74.261 38.6835 73.9126C38.6577 71.9966 38.2965 70.0354 37.9481 68.1387C37.3868 65.1195 36.8127 61.9971 37.5868 58.965C37.9997 57.3522 38.8319 55.862 39.9867 54.662C40.1093 54.533 40.3157 54.533 40.4447 54.6556C40.5738 54.7782 40.5738 54.9846 40.4512 55.1136C39.3738 56.2362 38.5932 57.6232 38.2061 59.1263C37.4642 62.0165 37.9997 64.9325 38.5739 68.0226C38.9287 69.9451 39.2964 71.9321 39.3222 73.9062C39.3222 74.2352 39.3609 74.719 39.4061 75.2803C39.6512 78.6156 40.1157 84.8346 36.6191 87.57C36.5611 87.6151 36.4901 87.6409 36.4191 87.6409V87.6345Z" fill="#262323"/>
<path d="M44.0451 51.0692C43.6386 51.2047 42.9161 51.8111 42.4838 52.1208C41.671 52.7078 40.9033 53.2562 40.1485 53.9078C39.9033 54.1207 39.4711 54.4819 39.1485 54.8497C38.9937 55.0238 39.0195 55.3012 39.2001 55.4496C39.5872 55.7722 40.0066 56.056 40.4388 56.3141C40.8259 56.5463 41.2839 56.656 41.7355 56.598C42.1742 56.5399 42.6 56.4367 42.9741 56.2947C44.4773 55.7077 46.761 53.4239 47.8513 52.2369C47.9416 52.1401 44.5289 50.9079 44.058 51.0692H44.0451ZM43.587 54.8948C43.0774 55.2174 42.4258 55.6625 41.8323 55.7464C41.4387 55.798 40.7485 55.3658 40.7485 55.3077C40.7549 55.1271 44.4773 52.3337 44.4773 52.3337C44.4773 52.3337 46.4514 52.4046 46.4256 52.4562C46.4256 52.4562 44.3354 54.411 43.587 54.8948Z" fill="#262323"/>
<path d="M56.6443 51.5785L44.2514 51.0366C43.8902 51.0043 43.5934 51.3011 43.5805 51.6624C43.5676 52.0172 43.845 52.3204 44.2063 52.3333C44.2063 52.3333 56.3476 52.6559 56.6443 52.6559C56.9411 52.6559 56.9282 51.5914 56.6443 51.5785Z" fill="#262323"/>
<path d="M61.9465 120C52.0245 120 42.1863 117.361 33.4577 112.362L33.3029 112.271C26.7226 108.471 20.2907 103.485 14.1814 97.4526C12.1041 95.4011 10.1687 94.169 8.10427 93.5819C7.51721 93.4142 6.87208 93.2851 6.25276 93.1561C4.07868 92.711 1.83364 92.2529 0.814342 90.1369C0.324046 89.1241 0.285338 87.9177 0.691768 86.7436C1.26593 85.1114 2.68521 83.6856 4.69155 82.7244C4.89799 82.6276 5.09798 82.5309 5.29152 82.447C7.29786 81.518 8.30426 81.0535 8.40103 77.015C8.78165 60.3708 8.78165 44.191 8.40103 27.5467C8.38813 27.108 8.62037 26.6952 9.001 26.4758L9.60742 26.1274C9.76225 26.0371 9.95578 26.0887 10.0461 26.2436C10.1364 26.3984 10.0848 26.5919 9.92998 26.6823L9.33001 27.0306C9.15583 27.1338 9.04616 27.3209 9.05261 27.5274C9.43323 44.1781 9.43968 60.3708 9.05261 77.0279C8.94939 81.4729 7.60752 82.0922 5.56892 83.0341C5.38184 83.1244 5.18185 83.2147 4.97541 83.3115C3.1239 84.1953 1.82074 85.492 1.30464 86.9629C0.949818 87.9757 0.982075 89.0015 1.39496 89.8595C2.27878 91.6917 4.27222 92.0981 6.38824 92.5303C7.02046 92.6594 7.67849 92.7948 8.29136 92.969C10.4719 93.5883 12.4911 94.8721 14.6459 97.0011C20.7165 102.994 27.1032 107.949 33.6384 111.723L33.7932 111.813C42.425 116.761 52.16 119.368 61.9659 119.368C62.0949 119.368 62.2175 119.368 62.3401 119.368C73.2234 119.29 80.5133 116.2 82.8615 110.665C84.8679 105.93 82.8357 100.743 79.9391 97.7042C70.4042 87.7112 60.037 89.7305 53.0631 92.1239C46.0764 94.5173 32.4901 94.0012 22.7099 88.9886C22.5487 88.9047 22.4906 88.7112 22.568 88.5564C22.6519 88.3951 22.8454 88.337 23.0002 88.4144C32.6255 93.3496 45.9926 93.8657 52.8503 91.511C59.9918 89.066 70.6106 86.9951 80.4036 97.2591C83.4486 100.452 85.5775 105.917 83.4551 110.916C80.9971 116.703 73.5008 119.935 62.3465 120.013C62.2175 120.013 62.0949 120.013 61.9659 120.013L61.9465 120Z" fill="#262323"/>
</g>
<defs>
<linearGradient id="paint0_linear_788_6649" x1="28.407" y1="10.774" x2="19.2978" y2="19.8832" gradientUnits="userSpaceOnUse">
<stop stop-color="#221E1E"/>
<stop offset="0.52" stop-color="#332D2D"/>
<stop offset="0.53" stop-color="#221E1E"/>
</linearGradient>
<linearGradient id="paint1_linear_788_6649" x1="55.108" y1="71.3058" x2="64.3656" y2="71.3058" gradientUnits="userSpaceOnUse">
<stop stop-color="#201F1D"/>
<stop offset="1" stop-color="#12100C"/>
</linearGradient>
<radialGradient id="paint2_radial_788_6649" cx="0" cy="0" r="1" gradientUnits="userSpaceOnUse" gradientTransform="translate(59.3591 66.5639) scale(11.0833)">
<stop stop-color="#C7C7C7"/>
<stop offset="1" stop-color="#B5B5B5"/>
</radialGradient>
<linearGradient id="paint3_linear_788_6649" x1="86.1516" y1="85.0352" x2="83.9582" y2="88.8285" gradientUnits="userSpaceOnUse">
<stop offset="0.13" stop-color="#ABABAB"/>
<stop offset="0.16" stop-color="#C7C7C7"/>
</linearGradient>
<linearGradient id="paint4_linear_788_6649" x1="105.841" y1="100.595" x2="115.093" y2="100.595" gradientUnits="userSpaceOnUse">
<stop stop-color="#201F1D"/>
<stop offset="1" stop-color="#12100C"/>
</linearGradient>
<radialGradient id="paint5_radial_788_6649" cx="0" cy="0" r="1" gradientUnits="userSpaceOnUse" gradientTransform="translate(110.092 95.853) scale(11.0833 11.0833)">
<stop stop-color="#C7C7C7"/>
<stop offset="1" stop-color="#B5B5B5"/>
</radialGradient>
<linearGradient id="paint6_linear_788_6649" x1="142.451" y1="66.9514" x2="59.0301" y2="125.439" gradientUnits="userSpaceOnUse">
<stop stop-color="#ECECEC"/>
<stop offset="1"/>
</linearGradient>
<clipPath id="clip0_788_6649">
<rect width="155.198" height="120" fill="white" transform="translate(0.401367)"/>
</clipPath>
</defs>
</svg>
