<svg width="32" height="20" viewBox="0 0 32 20" fill="none" xmlns="http://www.w3.org/2000/svg">
<g clip-path="url(#clip0_754_5013)">
<path d="M16.2051 18.4503L16.0482 19.3243C16.0482 19.8584 15.7943 20.1497 15.0099 19.9219L1.44505 12.0675C0.64953 11.6716 0.470258 11.2346 0.500137 10.8014C0.500137 10.7342 0.515076 10.667 0.526281 10.5997C0.530015 10.5698 0.54122 10.54 0.556159 10.5138C0.686878 10.215 1.17241 9.89011 1.63926 9.86023C1.74757 9.85276 1.85588 9.86023 1.95672 9.89011L3.88762 9.17676L14.0352 15.0367C15.2303 15.7239 16.1304 16.9116 16.2014 18.2785C16.2014 18.3383 16.2051 18.3943 16.2051 18.4541V18.4503Z" fill="#B6C7CC"/>
<path d="M22.035 14.6028L17.1349 18.8493L16.1527 19.4655L15.9211 19.6149L1.82213 11.2527C1.65406 11.1518 1.21335 11.9137 1.07516 11.8502C0.686741 11.6672 0.5 11.0659 0.5 10.8007C0.5 10.7335 0.514939 10.6663 0.526144 10.5991C0.529879 10.5692 0.541083 10.5393 0.556022 10.5132C0.630719 10.4534 0.705416 10.4048 0.776377 10.3638L1.63539 9.8633L16.6793 1.09766L18.9986 2.49448L26.9874 7.3012C28.2311 8.01829 22.035 13.1649 22.035 14.6028Z" fill="#82A4AD"/>
<path d="M0.533691 10.5959C0.533691 10.5959 0.56357 10.5137 0.627062 10.4502C0.593449 10.4987 0.56357 10.5436 0.533691 10.5959Z" fill="#A5C6D1"/>
<path d="M22.5167 14.0881L15.7007 18.3795L15.4691 18.5289L2.30383 10.7343C1.24687 10.0919 0.705322 10.4243 0.529785 10.5998C0.623156 10.245 1.04519 9.97236 1.26181 9.84538L17.1647 0.583008L19.484 1.97983L27.4728 6.78656C28.7165 7.50364 22.5204 12.6502 22.5204 14.0881H22.5167Z" fill="#D0ECF5"/>
<path d="M22.5168 14.0881L15.7008 18.3794C15.3646 17.9798 14.7857 17.6287 14.0313 17.1955L3.88377 11.3355L1.48975 9.94991L17.3964 0.773438L19.4841 1.97979L27.4729 6.78651C28.7166 7.5036 22.5206 12.6502 22.5206 14.0881H22.5168Z" fill="#A3BCC3"/>
<path d="M31.7194 10.4239L31.697 10.4911C31.6485 10.6256 31.6037 10.6667 31.5215 10.887C31.5215 10.887 27.6672 13.2213 23.7418 15.5219C21.6279 16.7656 19.4916 17.9981 17.923 18.8497C16.6569 19.5406 15.7605 19.9851 15.5514 19.9851C15.5812 19.9701 16.0444 19.7423 16.0444 18.4986C16.0444 17.6246 15.275 17.1391 14.0313 16.422L3.88377 10.5621L1.48975 9.17647L17.3964 0L29.9342 7.24183C30.0089 7.28665 30.0873 7.3352 30.162 7.38375C31.5925 8.33987 32.2759 8.79925 31.7232 10.4239H31.7194Z" fill="#F5FAFF"/>
<path d="M11.8726 13.0977L23.3945 6.43848L23.9995 6.78955L12.4813 13.4487L11.8726 13.0977Z" fill="#5F7E86"/>
<path d="M10.6699 12.4033L22.1881 5.74414L22.7969 6.09521L11.275 12.7544L10.6699 12.4033Z" fill="#5F7E86"/>
<path d="M9.40771 11.6748L20.9259 5.01562L21.5347 5.3667L10.0128 12.0259L9.40771 11.6748Z" fill="#5F7E86"/>
<path d="M22.9536 12.116L28.2235 9.06836L28.8322 9.4157L23.5624 12.4671L22.9536 12.116Z" fill="#5F7E86"/>
<path d="M21.751 11.4216L27.0208 8.37402L27.6259 8.72136L22.3598 11.7727L21.751 11.4216Z" fill="#5F7E86"/>
<path d="M20.4888 10.693L25.7586 7.6416L26.3637 7.99268L21.0975 11.0403L20.4888 10.693Z" fill="#5F7E86"/>
<path d="M23.7421 15.5215C21.6282 16.7652 19.4919 17.9977 17.9232 18.8492L17.8523 17.6952C17.8075 17.0042 17.419 16.3768 16.8215 16.0332L13.3892 14.05L19.2043 10.6924L22.6366 12.6756C23.2342 13.0229 23.6226 13.6466 23.6674 14.3413L23.7421 15.5252V15.5215Z" fill="#F25E5E"/>
<g style="mix-blend-mode:multiply">
<path d="M23.245 13.4077C21.1311 14.6514 18.9948 15.8839 17.4262 16.7355C16.724 17.1201 16.1376 17.4264 15.7156 17.6243C15.9285 17.882 16.0443 18.1622 16.0443 18.502C16.0443 19.7457 15.5811 19.9735 15.5513 19.9885C15.7604 19.9885 16.653 19.544 17.9229 18.8531C19.4915 18.0016 21.6278 16.7691 23.7417 15.5254C27.667 13.2247 31.5214 10.8904 31.5214 10.8904C31.6073 10.6701 31.6521 10.629 31.6969 10.4946L31.7193 10.4273C32.0144 9.55711 31.9546 9.02303 31.6185 8.56738C29.7473 9.63928 26.0536 11.7644 23.245 13.4115V13.4077Z" fill="#D0E2E8"/>
</g>
<path d="M4.87354 9.19927L17.5645 1.92383L20.2573 3.47005L7.65225 10.8165L4.87354 9.19927Z" fill="#5F7E86"/>
</g>
<defs>
<clipPath id="clip0_754_5013">
<rect width="31.4099" height="20" fill="white" transform="translate(0.5)"/>
</clipPath>
</defs>
</svg>
