<svg width="170" height="130" viewBox="0 0 170 130" fill="none" xmlns="http://www.w3.org/2000/svg">
<g clip-path="url(#clip0_788_7363)">
<g style="mix-blend-mode:multiply">
<path d="M123.845 41.869L167.538 67.0931C170.646 68.8888 170.246 72.043 166.664 74.1178L71.4525 129.088C67.8703 131.153 50.9923 129.088 50.9923 129.088L19.2552 104.534C16.1476 102.738 16.5477 99.5838 20.1298 97.5089L111.694 42.3715C115.276 40.3059 120.747 40.0733 123.854 41.869H123.845Z" fill="#D7D9D8"/>
</g>
<path d="M0.441353 99.0446V91.8803L7.37307 92.3735L9.8015 91.9175L98.5647 40.6693C102.147 38.6038 107.618 38.3712 110.725 40.1669L149.348 62.4694L156.503 61.1109V68.4427C156.503 69.8198 155.498 71.2806 153.544 72.4064L58.3328 127.376C54.7507 129.442 49.2797 129.674 46.1721 127.879L2.4697 102.645C0.832134 101.706 0.180832 100.375 0.441353 99.0353V99.0446Z" fill="url(#paint0_linear_788_7363)"/>
<path d="M153.526 66.9908L58.3148 121.961C54.7327 124.026 49.2617 124.259 46.1541 122.463L2.47026 97.2392C1.27001 96.5413 0.600095 95.6481 0.432617 94.6805V93.7035C0.432617 93.7035 0.432617 93.6477 0.432617 93.6291V91.8706L7.36434 92.3637L9.79277 91.9078L98.556 40.6596C102.138 38.594 107.609 38.3614 110.717 40.1571L149.339 62.4596L156.494 61.1012V63.0272C156.494 64.4042 155.489 65.865 153.535 66.9908H153.526Z" fill="url(#paint1_linear_788_7363)"/>
<path d="M153.814 66.935L62.2227 119.83V117.671L153.814 64.7764V66.935Z" fill="#3A3B3B"/>
<path d="M110.717 32.7138L154.41 57.9378C157.517 59.7335 157.117 62.8877 153.535 64.9626L58.3239 119.932C54.7418 121.998 49.2708 122.231 46.1632 120.435L2.47009 95.2109C-0.637557 93.4152 -0.237471 90.261 3.34469 88.1861L98.5558 33.2162C102.138 31.1506 107.609 30.918 110.717 32.7138Z" fill="#5E5E5E"/>
<path d="M153.815 64.7761V64.7947L62.2229 117.671L7.25293 85.9341L98.5562 33.2158H99.161L153.824 64.7761H153.815Z" fill="#3A3B3B"/>
<path d="M144.919 56.1518C144.119 56.6077 142.826 56.6077 142.026 56.1425C141.272 55.7052 141.263 54.8957 142.026 54.4677C142.826 54.0118 144.119 54.0118 144.919 54.477C145.673 54.9143 145.682 55.7238 144.919 56.1518Z" fill="#3A3B3B"/>
<path d="M139.876 53.4627C139.327 53.7791 138.434 53.7791 137.885 53.4627C137.336 53.1464 137.327 52.6347 137.885 52.3183C138.434 52.002 139.327 52.002 139.876 52.3183C140.425 52.6347 140.434 53.1464 139.876 53.4627Z" fill="#743B3B"/>
<path d="M32.1041 108.665L21.8507 102.747C20.576 102.012 20.7342 100.728 22.2043 99.8814C23.6743 99.0347 25.8981 98.9417 27.1728 99.6767L37.4261 105.594C38.7008 106.329 38.5427 107.613 37.0726 108.46C35.6025 109.307 33.3788 109.4 32.1041 108.665Z" fill="#4A4A4A"/>
<path d="M37.4358 106.907L27.1825 100.989C25.9078 100.254 23.6841 100.347 22.214 101.194C21.7301 101.473 21.3859 101.799 21.1905 102.143C20.7346 101.426 21.0881 100.524 22.214 99.8726C23.6841 99.0259 25.9078 98.9329 27.1825 99.6679L37.4358 105.585C38.2918 106.079 38.4965 106.814 38.0964 107.511C37.9569 107.288 37.7336 107.083 37.4358 106.907Z" fill="#121212"/>
<path d="M20.6138 109.558C20.6138 109.893 20.7161 110.256 20.8836 110.581C21.0511 110.898 21.2744 111.168 21.5349 111.316L26.8384 114.378C27.3408 114.666 27.7502 114.359 27.7502 113.68C27.7502 113.596 27.7502 113.522 27.7316 113.438C27.6944 113.177 27.6013 112.898 27.4804 112.656C27.3129 112.34 27.0896 112.07 26.8291 111.921L21.8606 109.056L21.5256 108.86C21.0139 108.572 20.6045 108.879 20.6045 109.558H20.6138Z" fill="#868686"/>
<path d="M21.8604 109.056C21.8976 109.325 21.9906 109.595 22.1116 109.837C22.279 110.154 22.5023 110.423 22.7629 110.572L27.7314 113.438C27.6942 113.177 27.6011 112.898 27.4802 112.656C27.3127 112.34 27.0894 112.07 26.8289 111.921L21.8604 109.056Z" fill="#3A3B3B"/>
<path d="M152.93 65.3069L63.1248 117.16L8.14551 85.4135L97.9601 33.5605L152.93 65.3069Z" fill="#252525"/>
<g style="mix-blend-mode:color-dodge">
<path d="M152.931 65.307L125.278 49.3408L34.4307 100.589L63.1252 117.16L152.931 65.307Z" fill="#383838"/>
</g>
<path d="M152.93 66.8791L63.125 118.732V117.16L152.93 65.3066V66.8791Z" fill="#262626"/>
<path d="M133.587 50.4389L120.701 42.9955C120.356 42.7908 120.394 42.4465 120.794 42.2139C121.194 41.9813 121.808 41.9534 122.152 42.1581L135.039 49.5922C135.383 49.7969 135.346 50.1412 134.936 50.3738C134.536 50.6064 133.922 50.6343 133.578 50.4296L133.587 50.4389Z" fill="#3A3B3B"/>
<path d="M55.7194 59.5763C55.7194 59.809 55.7008 60.0323 55.6543 60.1904C55.6543 60.1904 55.6543 60.1997 55.6543 60.209C55.6357 60.2742 55.6078 60.3207 55.5706 60.3579C55.5427 60.3858 55.5054 60.4137 55.4589 60.451C55.2821 60.5905 54.9751 60.758 54.6215 60.8231C54.4913 60.8417 54.3517 60.851 54.2121 60.8417C54.2121 60.8417 54.1656 60.8417 54.1377 60.8417C53.9888 60.8231 53.8307 60.7766 53.6818 60.7022C53.6539 60.6836 53.6167 60.6649 53.5794 60.6463C53.5794 60.6463 53.505 60.6091 53.4678 60.5812C52.7886 60.1625 51.9884 59.3623 51.6535 58.6645C51.6069 58.5622 51.5604 58.4598 51.5325 58.3482C51.4953 58.2179 51.4674 58.0877 51.4581 57.9574C51.4581 57.9295 51.4581 57.8923 51.4581 57.8643C51.4488 57.7527 51.4395 57.6503 51.4395 57.548C51.4395 57.4643 51.4395 57.3898 51.4395 57.3154C51.4395 57.2689 51.4395 57.2224 51.4488 57.1758C51.4581 57.027 51.486 56.8781 51.5325 56.7478C51.6069 56.4315 51.7372 56.1896 51.914 56.0407C52.0628 55.9197 52.2303 55.8639 52.4443 55.8918C52.8909 55.9477 53.5515 56.3384 54.6494 57.0921C55.1054 57.4084 55.5427 57.9481 55.6729 58.4319C55.6729 58.4412 55.6729 58.4598 55.6822 58.4691C55.7008 58.5436 55.7101 58.6273 55.7101 58.7017C55.7101 58.8041 55.7101 58.925 55.7194 59.0553C55.7194 59.2321 55.7194 59.4182 55.7194 59.5856V59.5763Z" fill="#1D5C9C"/>
<path d="M54.817 59.1482V59.297C54.817 59.297 54.817 59.3156 54.817 59.3342C54.817 59.6692 54.7612 59.9762 54.6495 60.2181C54.5658 60.4228 54.4355 60.581 54.268 60.6555C54.0819 60.7392 53.8586 60.7392 53.5702 60.6182C53.5702 60.6182 53.4958 60.581 53.4492 60.5624C52.6584 60.153 51.9605 59.3994 51.6349 58.6457C51.5884 58.5434 51.5419 58.441 51.5139 58.3294C51.4767 58.2084 51.4488 58.0875 51.4395 57.9572V57.9293C51.4395 57.9293 51.4395 57.8642 51.4395 57.8362C51.4302 57.7246 51.4209 57.6222 51.4209 57.5199C51.4209 57.4362 51.4209 57.3617 51.4209 57.2873C51.4209 57.2501 51.4209 57.2035 51.4209 57.1663C51.4302 56.9802 51.4674 56.8407 51.5046 56.7197C51.5698 56.515 51.6721 56.4034 51.7652 56.3848C51.821 56.3848 51.8954 56.3848 51.9792 56.3848C52.3606 56.4499 53.0026 56.729 53.4492 57.1012C53.9982 57.5664 54.7891 58.0968 54.8077 59.1295L54.817 59.1482Z" fill="#2372C1"/>
<g style="mix-blend-mode:multiply">
<path d="M63.0694 109.466L56.8448 107.168L38.0873 96.3374C38.0873 96.3374 35.938 93.4624 35.9287 92.9134C35.9287 92.2342 36.4125 91.5178 37.3895 90.9595L101.031 53.2584C102.79 52.2442 105.46 52.1326 106.986 53.0072L133.922 68.564C135.448 69.4479 135.252 70.9831 133.494 72.0066L69.0242 109.233C67.2657 110.247 64.5953 110.359 63.0694 109.484V109.466Z" fill="#848484"/>
</g>
<path d="M124.423 62.9815C125.511 63.6142 126.19 64.9634 126.2 66.8894V68.9177L98.0355 52.5514V50.5231C98.0261 48.6064 97.3469 47.2479 96.249 46.6152L124.423 62.9815Z" fill="#184D84"/>
<path d="M65.7119 96.3841L120.635 65.6333L119.593 42.7354L65.7119 60.5159V96.3841Z" fill="#143F6E"/>
<path d="M78.9982 90.2433C80.0868 90.8759 80.766 92.2251 80.7753 94.1511V96.1794L52.6111 79.8131V77.7848C52.6018 75.8681 51.9226 74.5096 50.834 73.877L79.0075 90.2433H78.9982Z" fill="#184D84"/>
<path d="M65.312 99.0173C65.3585 95.6398 67.7497 91.6017 70.6434 89.9921C72.0483 89.2105 73.323 89.1547 74.2441 89.6944C75.2118 90.2526 77.1564 91.3877 78.124 91.946C77.2029 91.4064 75.9375 91.4715 74.5233 92.2437C71.6389 93.8441 69.257 97.8729 69.2012 101.241C69.1919 102.106 69.3315 102.841 69.592 103.428C70.1595 103.362 70.7736 103.158 71.4249 102.795L74.3372 104.451C72.9415 105.223 71.6855 105.288 70.7643 104.758C69.7874 104.209 67.8428 103.083 66.8658 102.534C65.8796 101.976 65.2748 100.748 65.3027 98.9987L65.312 99.0173Z" fill="url(#paint2_linear_788_7363)"/>
<path d="M75.8727 93.7416C75.6959 93.3601 75.5191 92.9879 75.333 92.6064C75.5563 93.081 75.6773 93.6857 75.668 94.3929C75.6308 97.0632 73.742 100.255 71.4531 101.52L72.5045 101.473C74.4863 100.376 76.1239 97.6029 76.1611 95.2861C76.1611 94.672 76.0681 94.151 75.8727 93.7323V93.7416Z" fill="url(#paint3_linear_788_7363)"/>
<path d="M72.5133 100.785C74.1695 99.8634 75.5372 97.5559 75.5651 95.6206C75.5837 94.625 75.2395 93.9179 74.6719 93.6016L74.8859 93.7225C75.4441 94.0482 75.7884 94.746 75.7791 95.7416C75.7512 97.6769 74.3835 99.9936 72.7273 100.905C71.9271 101.352 71.2014 101.389 70.671 101.082L70.457 100.961C70.9874 101.268 71.7131 101.231 72.5133 100.785Z" fill="url(#paint4_linear_788_7363)"/>
<path d="M77.3327 92.4857L76.5604 92.0391C77.4257 92.5322 77.9468 93.6115 77.9282 95.1467C77.8816 98.1241 75.7789 101.678 73.2295 103.093L74.0017 103.539C76.5511 102.125 78.6539 98.5707 78.7004 95.5933C78.719 94.0581 78.198 92.9788 77.3327 92.4857Z" fill="#141414"/>
<path d="M74.5514 101.957C76.2075 101.036 77.5753 98.7287 77.6032 96.7935C77.6218 95.7979 77.2775 95.0908 76.71 94.7744L76.9333 94.9047C77.4915 95.2303 77.8358 95.9281 77.8265 96.9237C77.7986 98.859 76.4308 101.176 74.7747 102.088C73.9745 102.534 73.2488 102.571 72.7184 102.264L72.4951 102.134C73.0255 102.441 73.7512 102.404 74.5514 101.957Z" fill="url(#paint5_linear_788_7363)"/>
<path d="M71.1362 99.7241C71.1455 99.6682 71.1548 99.6124 71.1734 99.5566C71.099 99.9195 71.0618 100.282 71.0525 100.636C71.0152 103.046 72.6621 104.078 74.7277 102.934C76.7932 101.79 78.4959 98.9053 78.5331 96.4955C78.5703 94.0856 76.9235 93.0529 74.8579 94.1973C74.5044 94.3927 74.1508 94.6439 73.8251 94.9416C73.8717 94.9044 73.9089 94.8672 73.9554 94.83C74.309 94.5229 74.6718 94.2531 75.0533 94.0484C77.2491 92.8389 78.989 93.9275 78.9518 96.4862C78.9146 99.0448 77.1096 102.106 74.9137 103.325C72.7179 104.544 70.978 103.446 71.0152 100.887C71.0152 100.515 71.0618 100.133 71.1362 99.7427V99.7241Z" fill="url(#paint6_linear_788_7363)"/>
<path d="M71.0524 100.627C71.0896 98.2173 72.7923 95.333 74.8578 94.1885C76.9234 93.0441 78.5703 94.0769 78.5331 96.4867C78.4958 98.8965 76.7931 101.781 74.7276 102.925C72.662 104.07 71.0152 103.037 71.0524 100.627ZM74.7369 102.535C76.6164 101.492 78.1702 98.8686 78.1981 96.6728C78.2353 94.477 76.728 93.5372 74.8485 94.5793C72.9691 95.6214 71.4152 98.2452 71.3873 100.441C71.3501 102.637 72.8574 103.577 74.7369 102.535Z" fill="url(#paint7_linear_788_7363)"/>
<path d="M70.8482 101.064C70.811 103.8 72.6719 104.963 75.0072 103.67C77.3426 102.376 79.2779 99.1105 79.3151 96.3843C79.3524 93.6488 77.4915 92.4858 75.1561 93.7791C74.7467 94.0024 74.3559 94.2908 73.9745 94.6258C73.9931 94.7002 73.9931 94.756 73.9745 94.8026C73.9931 94.7653 74.0024 94.7002 73.9745 94.6258C72.5137 95.9191 71.3599 97.9195 70.9785 99.8455C70.8947 100.264 70.8482 100.674 70.8482 101.074V101.064ZM71.0157 100.869C71.0157 100.497 71.0622 100.106 71.1459 99.7152C71.1925 99.5012 71.2576 99.2128 71.3227 98.9988C71.3599 98.8778 71.4065 98.7197 71.453 98.608C71.4902 98.4871 71.5553 98.3382 71.6019 98.2265C71.7135 97.9381 71.9647 97.4078 72.1787 97.0542C72.309 96.8309 72.4951 96.5425 72.6346 96.3285C72.7649 96.1424 72.951 95.9098 73.0905 95.733C73.2487 95.5376 73.3511 95.4259 73.6302 95.1375C73.7232 95.0445 73.8535 94.9142 73.9559 94.8305C74.3094 94.5141 74.6816 94.2536 75.0631 94.0396C77.2589 92.83 78.9988 93.9186 78.9616 96.4773C78.9244 99.036 77.1193 102.097 74.9235 103.316C72.7277 104.535 70.9878 103.437 71.025 100.878L71.0157 100.869Z" fill="url(#paint8_linear_788_7363)"/>
<path d="M70.494 101.26C70.5405 98.3008 72.6246 94.7651 75.1554 93.3695C77.6862 91.9645 79.7052 93.2299 79.6587 96.1887C79.6122 99.1475 77.528 102.683 74.9972 104.079C72.4665 105.484 70.4474 104.218 70.494 101.26ZM75.0159 103.083C77.0721 101.939 78.7748 99.0637 78.812 96.6632C78.8492 94.2627 77.2117 93.2299 75.1461 94.3651C73.0899 95.5095 71.3872 98.3845 71.3499 100.785C71.3127 103.195 72.9503 104.218 75.0159 103.083Z" fill="url(#paint9_linear_788_7363)"/>
<path d="M74.793 104.507C74.914 104.441 75.0721 104.348 75.1838 104.274C75.3234 104.181 75.5095 104.06 75.6397 103.958C75.8723 103.781 76.1794 103.53 76.3934 103.334C76.7748 102.981 77.054 102.664 77.1377 102.562C77.4541 102.208 77.6774 101.901 77.8076 101.715C77.8541 101.65 78.1147 101.287 78.4031 100.813C78.5892 100.506 78.7567 100.18 78.9055 99.8638C79.3428 98.9519 79.5382 98.2448 79.6313 97.8912C79.6685 97.7424 79.7708 97.3516 79.836 96.8957C79.9104 96.3932 79.9197 96.0304 79.9197 95.9187C79.9197 95.5931 79.9197 95.2953 79.8825 94.9976C79.8639 94.8487 79.836 94.6533 79.8081 94.5045C79.7894 94.4021 79.7522 94.2625 79.7243 94.1602C79.6871 94.0113 79.622 93.8252 79.5661 93.6857C79.5382 93.6019 79.4824 93.4903 79.4452 93.4066C79.3801 93.267 79.2777 93.0809 79.1847 92.9599C79.0916 92.8297 78.9614 92.6622 78.859 92.5412C78.8032 92.4761 78.7194 92.4017 78.6636 92.3459C78.6078 92.29 78.5334 92.2249 78.4775 92.1877C78.3752 92.1133 78.2356 92.0202 78.124 91.9551C77.2028 91.4154 75.9281 91.4806 74.5232 92.2528C71.6389 93.8532 69.2569 97.8819 69.2011 101.25C69.1732 102.99 69.778 104.218 70.7642 104.776C70.8294 104.814 70.9131 104.86 70.9875 104.888C71.0713 104.925 71.1829 104.972 71.276 105.009C71.4155 105.065 71.6202 105.102 71.7691 105.139C71.8901 105.167 72.0575 105.186 72.1785 105.186C72.3181 105.186 72.5042 105.186 72.6437 105.186C72.7368 105.186 72.8577 105.167 72.9508 105.158C73.1275 105.13 73.3695 105.093 73.5462 105.037C73.7602 104.972 74.0487 104.869 74.2534 104.786C74.4208 104.711 74.6348 104.6 74.8023 104.516C74.9233 104.451 74.9977 104.302 75.007 104.088C72.4762 105.493 70.4572 104.227 70.5037 101.269C70.5502 98.3099 72.6344 94.7743 75.1652 93.3786C77.696 91.9737 79.715 93.2391 79.6685 96.1978C79.622 99.1566 77.5378 102.692 75.007 104.088C75.007 104.302 74.9233 104.451 74.8023 104.516L74.793 104.507Z" fill="url(#paint10_linear_788_7363)"/>
<path d="M71.7968 101.976C71.7502 101.827 71.713 101.678 71.6665 101.539C71.6107 101.343 71.5455 101.157 71.499 100.962C71.6944 100.897 71.8898 100.813 72.0945 100.692C73.8344 99.7243 75.2673 97.2959 75.2952 95.2861C75.2952 94.9977 75.2766 94.7372 75.2208 94.4952C75.4441 94.4766 75.6581 94.4208 75.8721 94.365C75.993 94.3371 76.114 94.3092 76.2256 94.2812L76.3745 94.365C76.4861 94.4301 76.5792 94.5046 76.6722 94.5976L77.0072 94.793C77.584 95.1279 77.9283 95.8444 77.919 96.8585C77.8911 98.859 76.4768 101.25 74.7555 102.209C73.9088 102.683 73.1459 102.72 72.5876 102.395C72.5039 102.348 72.4201 102.292 72.355 102.227C72.1968 102.19 72.048 102.134 71.9084 102.05C71.8712 102.032 71.834 102.004 71.7968 101.985V101.976Z" fill="url(#paint11_linear_788_7363)"/>
<path d="M71.5826 100.934C71.75 100.869 71.9175 100.794 72.0943 100.692C73.8342 99.7243 75.2671 97.2959 75.295 95.2861C75.295 95.007 75.2764 94.7465 75.2205 94.5139C75.4066 94.4952 75.5927 94.4208 75.7602 94.3743C75.8811 94.3371 76.0021 94.3092 76.1231 94.2812C76.6813 94.6162 77.0256 95.3326 77.0163 96.3282C76.9884 98.3286 75.5741 100.72 73.8528 101.678C73.0061 102.153 72.2432 102.19 71.6849 101.864C71.657 101.846 71.6384 101.836 71.6105 101.818C71.5919 101.52 71.5732 101.232 71.5826 100.934Z" fill="url(#paint12_linear_788_7363)"/>
<path d="M73.5278 98.4862L72.9509 98.1512L72.5322 97.2859C72.5974 97.1742 72.6625 97.0719 72.7369 96.9695C72.9137 96.709 73.0998 96.4578 73.3045 96.2159C73.4068 96.0949 73.5092 95.9833 73.6208 95.8809C73.6674 95.8251 73.7232 95.7786 73.7697 95.7321C73.7883 95.7135 73.7976 95.7042 73.8162 95.6855C73.9279 95.7507 74.0209 95.8065 74.0302 95.8158L73.3045 96.6532L73.5278 98.4862Z" fill="url(#paint13_linear_788_7363)"/>
<path d="M73.5276 98.4858L73.6113 99.2302L73.0438 101.082L72.7925 101.919C72.7088 102.105 72.96 102.515 72.8484 102.496C72.653 102.459 72.1785 102.18 71.9272 102.003C71.9086 101.984 71.8993 101.956 71.89 101.938C71.8435 101.854 71.797 101.77 71.7598 101.677C71.7598 101.631 71.7784 101.593 71.8063 101.547L71.8714 101.342L72.9135 98.2625L72.96 98.1602L73.5369 98.4951L73.5276 98.4858Z" fill="url(#paint14_linear_788_7363)"/>
<path d="M77.0264 95.7135C76.9798 95.6856 76.9147 95.6949 76.8403 95.7321L74.0676 96.9044L73.9932 96.951V98.4397L74.6072 98.0861L76.9054 97.1836C77.045 97.0998 77.1659 96.9044 77.1752 96.737C77.1938 96.4113 77.6963 96.3369 77.6312 96.0578C77.6218 96.0019 77.0729 95.7321 77.0357 95.7135H77.0264Z" fill="url(#paint15_linear_788_7363)"/>
<path d="M74.1046 99.6581L72.8951 97.1831C72.8392 97.0808 72.8765 96.8947 72.9788 96.7458C73.0905 96.5876 73.2114 96.4388 73.3417 96.2899C73.4719 96.141 73.6022 96.0108 73.7325 95.8805C73.8627 95.7596 73.993 95.7502 74.0581 95.8526L75.2677 98.3275L74.1046 99.6581Z" fill="#DFDFE3"/>
<path d="M74.5605 98.7836V97.2949L74.6443 97.2484L77.417 96.076C77.5379 96.0016 77.6496 96.0388 77.6775 96.1691C77.7426 96.4482 77.7612 96.7552 77.7426 97.0809C77.7426 97.2484 77.6217 97.4438 77.4728 97.5275L75.1746 98.43L74.5605 98.7836Z" fill="#DFDFE3"/>
<path d="M72.3743 102.245C72.2906 102.18 72.2906 102.022 72.3743 101.863L73.4909 98.5789L73.5374 98.4766L74.5701 98.7743L74.198 99.5559L73.3699 102.245C73.2862 102.431 73.1187 102.552 73.007 102.524C72.7744 102.477 72.5697 102.384 72.3836 102.245H72.3743Z" fill="#DFDFE3"/>
<path d="M72.997 102.161C72.997 102.161 73.0249 102.124 73.0435 102.096L73.8902 99.3699L74.9509 98.151L77.3049 97.2206C77.3049 97.2206 77.3887 97.1182 77.398 97.0624C77.398 96.867 77.398 96.6902 77.3794 96.5135L74.5136 97.7416L73.8809 96.2529C73.7972 96.346 73.7041 96.439 73.6204 96.5321C73.4994 96.6716 73.3878 96.8112 73.2761 96.9601C73.2482 96.9973 73.2389 97.0252 73.2296 97.0531L73.8809 98.579L72.6807 102.04C72.7737 102.096 72.8761 102.143 72.9877 102.17L72.997 102.161Z" fill="#4B4A4B"/>
<path d="M76.505 98.5045C76.505 98.5045 76.4678 98.4673 76.4492 98.458C76.5702 98.5045 76.6818 98.5697 76.7563 98.6534L76.505 98.5045Z" fill="url(#paint16_linear_788_7363)"/>
<path d="M74.644 94.4855C75.5745 93.9644 76.4119 93.9272 77.0259 94.2808L77.24 94.4017C76.6259 94.0482 75.7885 94.0854 74.858 94.6064C72.96 95.6578 71.4061 98.3002 71.3782 100.496C71.3689 101.613 71.7504 102.403 72.3831 102.766L72.1691 102.645C71.5364 102.282 71.1549 101.492 71.1642 100.375C71.1921 98.1793 72.746 95.5462 74.644 94.4855Z" fill="url(#paint17_linear_788_7363)"/>
<path d="M74.8581 94.6064C76.7562 93.555 78.2635 94.4762 78.2356 96.672C78.2077 98.8678 76.6539 101.501 74.7558 102.562C72.8577 103.613 71.3504 102.692 71.3783 100.496C71.4062 98.3002 72.9601 95.6671 74.8581 94.6064ZM71.6947 100.319C71.6667 102.32 73.0438 103.157 74.7651 102.199C76.4864 101.24 77.9006 98.8399 77.9286 96.8488C77.9565 94.8483 76.5794 94.0109 74.8581 94.9693C73.1368 95.9276 71.7226 98.3282 71.6947 100.319Z" fill="#E3E3E4"/>
<path d="M110.977 72.8532C111.024 69.4758 113.415 65.4377 116.308 63.828C117.713 63.0465 118.988 62.9906 119.909 63.5303C120.877 64.0886 122.821 65.2237 123.789 65.7819C122.868 65.2423 121.603 65.3074 120.188 66.0797C117.304 67.68 114.922 71.7088 114.866 75.077C114.857 75.9423 114.996 76.6773 115.257 77.2635C115.825 77.1984 116.439 76.9937 117.09 76.6308L120.002 78.287C118.607 79.0592 117.35 79.1243 116.429 78.594C115.452 78.045 113.508 76.9192 112.531 76.3703C111.545 75.812 110.94 74.5838 110.968 72.8346L110.977 72.8532Z" fill="url(#paint18_linear_788_7363)"/>
<path d="M121.528 67.5775C121.351 67.196 121.174 66.8239 120.988 66.4424C121.212 66.9169 121.333 67.5217 121.323 68.2288C121.286 70.8992 119.397 74.0905 117.108 75.3559L118.16 75.3094C120.142 74.2115 121.779 71.4388 121.816 69.122C121.816 68.5079 121.723 67.9869 121.528 67.5682V67.5775Z" fill="url(#paint19_linear_788_7363)"/>
<path d="M118.178 74.6302C119.834 73.7091 121.202 71.4016 121.23 69.4663C121.249 68.4707 120.904 67.7636 120.337 67.4473L120.551 67.5682C121.109 67.8939 121.453 68.5917 121.444 69.5873C121.416 71.5226 120.048 73.8393 118.392 74.7512C117.592 75.1978 116.866 75.235 116.336 74.9279L116.122 74.807C116.652 75.114 117.378 75.0768 118.178 74.6302Z" fill="url(#paint20_linear_788_7363)"/>
<path d="M122.989 66.3304L122.217 65.8838C123.082 66.3769 123.603 67.4562 123.584 68.9914C123.538 71.9688 121.435 75.5231 118.886 76.9373L119.658 77.3839C122.207 75.9697 124.31 72.4154 124.357 69.438C124.375 67.9028 123.854 66.8235 122.989 66.3304Z" fill="#141414"/>
<path d="M120.216 75.7933C121.873 74.8722 123.24 72.5647 123.268 70.6294C123.287 69.6338 122.943 68.9267 122.375 68.6104L122.598 68.7406C123.157 69.0663 123.501 69.7641 123.492 70.7597C123.464 72.695 122.096 75.0117 120.44 75.9235C119.64 76.3702 118.914 76.4074 118.383 76.1003L118.16 75.9701C118.691 76.2771 119.416 76.2399 120.216 75.7933Z" fill="url(#paint21_linear_788_7363)"/>
<path d="M116.801 73.56C116.811 73.5042 116.82 73.4483 116.838 73.3925C116.764 73.7554 116.727 74.1183 116.717 74.4718C116.68 76.8816 118.327 77.9144 120.393 76.77C122.458 75.6256 124.161 72.7412 124.198 70.3314C124.235 67.9216 122.589 66.8888 120.523 68.0332C120.169 68.2286 119.816 68.4798 119.49 68.7776C119.537 68.7404 119.574 68.7031 119.62 68.6659C119.974 68.3589 120.337 68.0891 120.718 67.8844C122.914 66.6748 124.654 67.7634 124.617 70.3221C124.58 72.8808 122.775 75.9419 120.579 77.1608C118.383 78.3703 116.643 77.2817 116.68 74.723C116.68 74.3509 116.727 73.9694 116.801 73.5786V73.56Z" fill="url(#paint22_linear_788_7363)"/>
<path d="M116.717 74.4719C116.755 72.062 118.457 69.1777 120.523 68.0333C122.588 66.8888 124.235 67.9216 124.198 70.3314C124.161 72.7413 122.458 75.6256 120.393 76.77C118.327 77.9145 116.68 76.8817 116.717 74.4719ZM120.402 76.3792C122.281 75.3372 123.835 72.7133 123.863 70.5175C123.9 68.3217 122.393 67.382 120.514 68.4241C118.634 69.4661 117.08 72.0899 117.052 74.2858C117.015 76.4816 118.522 77.4213 120.402 76.3792Z" fill="url(#paint23_linear_788_7363)"/>
<path d="M116.513 74.9003C116.476 77.6358 118.337 78.7988 120.672 77.5055C123.008 76.2122 124.943 72.9464 124.98 70.2202C125.017 67.4848 123.157 66.3217 120.821 67.615C120.412 67.8383 120.021 68.1268 119.639 68.4617C119.658 68.5361 119.658 68.592 119.639 68.6385C119.658 68.6013 119.667 68.5361 119.639 68.4617C118.179 69.755 117.025 71.7554 116.644 73.6814C116.56 74.1001 116.513 74.5095 116.513 74.9096V74.9003ZM116.681 74.7049C116.681 74.3327 116.727 73.942 116.811 73.5512C116.858 73.3372 116.923 73.0487 116.988 72.8347C117.025 72.7138 117.072 72.5556 117.118 72.444C117.155 72.323 117.22 72.1741 117.267 72.0625C117.379 71.774 117.63 71.2437 117.844 70.8901C117.974 70.6668 118.16 70.3784 118.3 70.1644C118.43 69.9783 118.616 69.7457 118.756 69.5689C118.914 69.3735 119.016 69.2619 119.295 68.9734C119.388 68.8804 119.519 68.7501 119.621 68.6664C119.974 68.3501 120.347 68.0895 120.728 67.8755C122.924 66.666 124.664 67.7546 124.627 70.3133C124.589 72.872 122.784 75.9331 120.589 77.1519C118.393 78.3615 116.653 77.2729 116.69 74.7142L116.681 74.7049Z" fill="url(#paint24_linear_788_7363)"/>
<path d="M116.159 75.0955C116.206 72.1367 118.29 68.6011 120.82 67.2054C123.351 65.8005 125.37 67.0659 125.324 70.0246C125.277 72.9834 123.193 76.5191 120.662 77.9147C118.132 79.3197 116.112 78.0543 116.159 75.0955ZM120.681 76.9191C122.737 75.7747 124.44 72.8997 124.477 70.4992C124.514 68.0986 122.877 67.0659 120.811 68.201C118.755 69.3454 117.052 72.2205 117.015 74.621C116.978 77.0308 118.625 78.0543 120.681 76.9191Z" fill="url(#paint25_linear_788_7363)"/>
<path d="M120.458 78.3425C120.579 78.2774 120.737 78.1844 120.849 78.1099C120.988 78.0169 121.174 77.8959 121.305 77.7936C121.537 77.6168 121.844 77.3656 122.058 77.1702C122.44 76.8166 122.719 76.5003 122.803 76.3979C123.119 76.0444 123.342 75.7373 123.473 75.5512C123.519 75.4861 123.78 75.1233 124.068 74.6487C124.254 74.3417 124.422 74.016 124.571 73.6997C125.008 72.7879 125.203 72.0807 125.296 71.7272C125.334 71.5783 125.436 71.1875 125.501 70.7316C125.575 70.2292 125.585 69.8663 125.585 69.7547C125.585 69.429 125.585 69.1313 125.548 68.8335C125.529 68.6847 125.501 68.4893 125.473 68.3404C125.454 68.2381 125.417 68.0985 125.389 67.9961C125.352 67.8473 125.287 67.6612 125.231 67.5216C125.203 67.4379 125.147 67.3262 125.11 67.2425C125.045 67.1029 124.943 66.9168 124.85 66.7959C124.757 66.6656 124.626 66.4981 124.524 66.3772C124.468 66.3121 124.384 66.2376 124.329 66.1818C124.273 66.126 124.198 66.0608 124.143 66.0236C124.04 65.9492 123.901 65.8561 123.789 65.791C122.868 65.2514 121.593 65.3165 120.188 66.0888C117.304 67.6891 114.922 71.7179 114.866 75.086C114.838 76.8259 115.443 78.0541 116.429 78.6124C116.494 78.6496 116.578 78.6961 116.653 78.724C116.736 78.7612 116.848 78.8078 116.941 78.845C117.081 78.9008 117.285 78.938 117.434 78.9752C117.555 79.0032 117.723 79.0218 117.844 79.0218C117.983 79.0218 118.169 79.0218 118.309 79.0218C118.402 79.0218 118.523 79.0032 118.616 78.9939C118.793 78.9659 119.034 78.9287 119.211 78.8729C119.425 78.8078 119.714 78.7054 119.918 78.6217C120.086 78.5472 120.3 78.4356 120.467 78.3519C120.588 78.2867 120.663 78.1379 120.672 77.9239C118.141 79.3288 116.122 78.0634 116.169 75.1046C116.215 72.1459 118.299 68.6102 120.83 67.2146C123.361 65.8096 125.38 67.075 125.334 70.0338C125.287 72.9926 123.203 76.5282 120.672 77.9239C120.672 78.1379 120.588 78.2867 120.467 78.3519L120.458 78.3425Z" fill="url(#paint26_linear_788_7363)"/>
<path d="M117.463 75.8212C117.416 75.6723 117.379 75.5234 117.333 75.3839C117.277 75.1885 117.212 75.0024 117.165 74.807C117.36 74.7419 117.556 74.6581 117.761 74.5372C119.5 73.5695 120.933 71.1411 120.961 69.1314C120.961 68.8429 120.943 68.5824 120.887 68.3405C121.11 68.3219 121.324 68.2661 121.538 68.2009C121.659 68.173 121.78 68.1451 121.892 68.1172L122.041 68.2009C122.152 68.2661 122.245 68.3405 122.338 68.4335L122.673 68.6289C123.25 68.9639 123.594 69.6803 123.585 70.6945C123.557 72.6949 122.143 75.0861 120.422 76.0445C119.575 76.519 118.812 76.5562 118.254 76.2306C118.17 76.184 118.086 76.1282 118.021 76.0631C117.863 76.0259 117.714 75.97 117.574 75.8863C117.537 75.8677 117.5 75.8398 117.463 75.8212Z" fill="url(#paint27_linear_788_7363)"/>
<path d="M117.249 74.7698C117.416 74.7046 117.584 74.6302 117.76 74.5279C119.5 73.5602 120.933 71.1318 120.961 69.1221C120.961 68.8429 120.942 68.5824 120.887 68.3498C121.073 68.3312 121.259 68.2568 121.426 68.2102C121.547 68.173 121.668 68.1451 121.789 68.1172C122.347 68.4521 122.692 69.1686 122.682 70.1641C122.654 72.1646 121.24 74.5558 119.519 75.5141C118.672 75.9886 117.909 76.0259 117.351 75.7002C117.323 75.6816 117.304 75.6723 117.276 75.6537C117.258 75.3559 117.239 75.0675 117.249 74.7698Z" fill="url(#paint28_linear_788_7363)"/>
<path d="M119.193 72.3221L118.616 71.9871L118.197 71.1218C118.262 71.0102 118.328 70.9078 118.402 70.8055C118.579 70.545 118.765 70.2937 118.97 70.0518C119.072 69.9309 119.174 69.8192 119.286 69.7169C119.332 69.661 119.388 69.6145 119.435 69.568C119.453 69.5494 119.463 69.5401 119.481 69.5215C119.593 69.5866 119.686 69.6424 119.695 69.6517L118.97 70.4891L119.193 72.3221Z" fill="url(#paint29_linear_788_7363)"/>
<path d="M119.193 72.3218L119.276 73.0661L118.709 74.9177L118.458 75.755C118.374 75.9411 118.625 76.3505 118.513 76.3319C118.318 76.2947 117.843 76.0156 117.592 75.8388C117.574 75.8202 117.564 75.7923 117.555 75.7737C117.509 75.6899 117.462 75.6062 117.425 75.5131C117.425 75.4666 117.443 75.4294 117.471 75.3829L117.536 75.1782L118.579 72.0984L118.625 71.9961L119.202 72.331L119.193 72.3218Z" fill="url(#paint30_linear_788_7363)"/>
<path d="M122.691 69.5582C122.645 69.5303 122.58 69.5396 122.505 69.5768L119.733 70.7492L119.658 70.7957V72.2844L120.272 71.9308L122.57 71.0283C122.71 70.9446 122.831 70.7492 122.84 70.5817C122.859 70.256 123.361 70.1816 123.296 69.9025C123.287 69.8467 122.738 69.5768 122.701 69.5582H122.691Z" fill="url(#paint31_linear_788_7363)"/>
<path d="M119.77 73.5038L118.56 71.0288C118.504 70.9265 118.542 70.7404 118.644 70.5915C118.756 70.4333 118.876 70.2845 119.007 70.1356C119.137 69.9867 119.267 69.8565 119.398 69.7262C119.528 69.6052 119.658 69.5959 119.723 69.6983L120.933 72.1732L119.77 73.5038Z" fill="#DFDFE3"/>
<path d="M120.226 72.6195V71.1308L120.309 71.0843L123.082 69.912C123.203 69.8375 123.315 69.8747 123.343 70.005C123.408 70.2841 123.426 70.5912 123.408 70.9168C123.408 71.0843 123.287 71.2797 123.138 71.3634L120.84 72.266L120.226 72.6195Z" fill="#DFDFE3"/>
<path d="M118.039 76.0905C117.956 76.0254 117.956 75.8672 118.039 75.709L119.156 72.4246L119.202 72.3223L120.235 72.62L119.863 73.4016L119.035 76.0905C118.951 76.2766 118.784 76.3976 118.672 76.3696C118.439 76.3231 118.235 76.2301 118.049 76.0905H118.039Z" fill="#DFDFE3"/>
<path d="M118.653 75.9971C118.653 75.9971 118.681 75.9599 118.7 75.932L119.546 73.2058L120.607 71.987L122.961 71.0565C122.961 71.0565 123.045 70.9542 123.054 70.8983C123.054 70.7029 123.054 70.5262 123.036 70.3494L120.17 71.5776L119.537 70.0889C119.453 70.1819 119.36 70.2749 119.277 70.368C119.156 70.5076 119.044 70.6471 118.932 70.796C118.904 70.8332 118.895 70.8611 118.886 70.889L119.537 72.4149L118.337 75.8762C118.43 75.932 118.532 75.9785 118.644 76.0064L118.653 75.9971Z" fill="#4B4A4B"/>
<path d="M122.17 72.3405C122.17 72.3405 122.133 72.3032 122.114 72.2939C122.235 72.3405 122.347 72.4056 122.421 72.4893L122.17 72.3405Z" fill="url(#paint32_linear_788_7363)"/>
<path d="M120.3 68.3214C121.231 67.8004 122.068 67.7631 122.682 68.1167L122.896 68.2377C122.282 67.8841 121.445 67.9213 120.514 68.4423C118.616 69.4937 117.062 72.1362 117.034 74.332C117.025 75.4485 117.407 76.2394 118.039 76.6022L117.825 76.4813C117.193 76.1184 116.811 75.3276 116.82 74.211C116.848 72.0152 118.402 69.3821 120.3 68.3214Z" fill="url(#paint33_linear_788_7363)"/>
<path d="M120.514 68.4521C122.412 67.4007 123.92 68.3219 123.892 70.5177C123.864 72.7135 122.31 75.3466 120.412 76.4073C118.514 77.4587 117.007 76.5376 117.035 74.3418C117.062 72.1459 118.616 69.5128 120.514 68.4521ZM117.351 74.165C117.323 76.1654 118.7 77.0028 120.421 76.0445C122.143 75.0861 123.557 72.6856 123.585 70.6945C123.613 68.694 122.236 67.8567 120.514 68.815C118.793 69.7733 117.379 72.1739 117.351 74.165Z" fill="#E3E3E4"/>
<path d="M113.499 62.042V62.6654L125.204 55.9012V55.2871L113.499 62.042Z" fill="#171717"/>
<path d="M97.8301 72.3322V72.7136L101.412 70.6481V70.2666L97.8301 72.3322Z" fill="#171717"/>
<path d="M64.8748 91.9917C63.8513 93.4339 63.1348 97.9651 62.9395 98.1698L65.0236 97.4068L69.0245 95.1924C70.4015 92.5407 72.4113 90.2146 74.6536 88.9213C78.8219 86.5208 82.2087 88.5863 82.218 93.5455V95.3134L112.569 77.142V76.0255C112.55 71.0663 115.918 65.1022 120.087 62.6924C124.255 60.2919 127.642 62.3575 127.651 67.3167V67.8842L131.624 64.4788L132.936 62.6645L133.401 61.0269V56.7656L132.173 56.5329V56.1422L131.866 49.043H131.14C131.075 49.0802 130.303 49.6478 130.061 49.7966C129.931 49.8804 129.772 49.9827 129.586 50.0944C129.382 50.2246 129.158 50.3642 128.898 50.5224C128.749 50.6154 128.581 50.7177 128.414 50.8201C128.144 50.9876 127.856 51.1644 127.558 51.3597C127.511 51.3877 127.474 51.4156 127.428 51.4435C123.092 54.1603 115.955 59.1382 113.76 60.478C110.708 62.3388 87.7634 76.6489 81.2504 80.9568C74.7373 85.2647 66.9868 90.3821 66.624 90.6798L65.0236 91.787L64.8748 91.9824V91.9917ZM113.499 62.6645V62.0411L125.204 55.2769V55.9003L113.499 62.6645ZM83.5113 90.2332L83.0368 89.1911L110.801 72.22L110.019 74.4159L83.5113 90.2239V90.2332Z" fill="#2067AF"/>
<path d="M65.0234 91.7969C65.0234 91.7969 67.2099 89.75 67.2937 89.6755C70.9503 86.3353 78.1146 81.0318 78.4496 80.7248C78.9055 80.0456 85.9116 66.0984 87.6236 64.2561C89.3263 62.4139 95.6812 58.5526 96.0161 58.3572L110.326 49.8437L122.775 42.6143L124.264 42.1025L125.753 42.2979L131.354 47.9177L131.866 49.0436H131.14C131.028 49.1087 130.368 49.6576 129.707 50.095C126.181 52.4396 116.337 58.9155 113.769 60.4879C110.717 62.3487 87.7725 76.6588 81.2595 80.9667C74.7465 85.2746 66.996 90.392 66.6331 90.6897L65.498 91.4527L65.0234 91.7969Z" fill="#2883DE"/>
<path d="M133.401 61.027L132.936 62.6646L131.624 64.4789L127.651 67.8843L127.297 67.3726C127.297 65 126.86 63.2228 125.595 62.3482L133.401 56.7656L133.448 57.0075L133.401 61.027Z" fill="#1D5C9C"/>
<path d="M119.556 62.1534C115.388 64.5539 112.569 71.067 112.578 76.0262V77.1427L113.388 76.6589L114.03 76.2774V75.1981C114.011 71.3368 116.737 66.6288 120.096 64.6842C116.728 66.6288 114.011 71.3368 114.02 75.1981V76.2774L113.388 76.6589V75.561C113.369 71.2903 116.374 66.0892 120.096 63.9399C123.818 61.7906 126.832 63.5212 126.851 67.7918V68.4711L127.66 67.8942V67.3266C127.642 62.3674 123.715 59.7622 119.556 62.1627V62.1534Z" fill="#2372C1"/>
<path d="M120.096 63.9308C116.374 66.0801 113.378 71.2812 113.388 75.5519V76.6498L114.03 76.2684V75.189C114.011 71.3278 116.737 66.6198 120.096 64.6752C123.464 62.7306 126.2 64.2937 126.209 68.155V68.9272L126.851 68.4713V67.7921C126.832 63.5214 123.818 61.8001 120.096 63.9401V63.9308Z" fill="#144270"/>
<path d="M112.578 77.133V76.0164C112.578 74.0812 113.08 71.9784 113.955 70.0059L81.3525 89.8799C81.9015 90.8103 82.2178 92.0385 82.2178 93.5365V95.3043L112.569 77.133H112.578ZM110.801 72.2203L110.019 74.4161L83.5111 90.2242L83.0366 89.1821L110.801 72.211V72.2203Z" fill="#1D5C9C"/>
<path d="M132.173 56.5428L131.698 57.4639L125.576 62.3487L125.725 62.6651L132.359 57.9012L133.401 56.7754L132.843 55.9753L132.154 55.417L132.173 56.5428Z" fill="#2372C1"/>
<path d="M131.68 49.5733L130.749 50.5782L130.554 53.3137L130.768 57.3517L132.042 56.505L132.173 56.1422L132.07 49.4803L131.875 49.043L131.68 49.5733Z" fill="#A80A02"/>
<path d="M125.762 42.2978L123.947 40.6044L121.966 39.1622L118.383 36.4082L112.27 32.8446L106.874 30.379L104.473 29.2717L101.822 28.3785L100.333 28.1738L124.264 42.1024L125.762 42.2978Z" fill="#2067AF"/>
<path d="M124.264 42.1024L123.129 40.7905L121.315 39.0692L118.272 36.6315L112.234 32.9842L104.399 29.3648L101.943 28.5181L100.333 28.1738L98.8447 28.6856L122.775 42.6048L124.264 42.1024Z" fill="#5BADFB"/>
<path d="M122.775 42.6048L98.8448 28.6855L85.5303 35.4126L110.326 49.8343L122.775 42.6048Z" fill="#5BADFB"/>
<path d="M110.801 72.2295L83.0371 89.2006L83.5116 90.2334L110.02 74.4253L110.801 72.2295Z" fill="#171717"/>
<path d="M110.326 49.8338L85.5302 35.4121L71.2295 43.9256L96.0255 58.3473L110.326 49.8338Z" fill="#5BADFB"/>
<path d="M113.043 49.2946C112.504 49.6109 100.269 56.6264 96.3049 59.1758C92.3413 61.7344 88.8894 64.0977 87.5217 65.4283C86.1539 66.7588 81.9018 77.0866 81.6692 77.5239C81.4366 77.9612 81.0831 80.2407 81.0645 80.3617L113.555 60.2085L125.009 52.458C125.093 52.3371 126.609 50.1227 126.609 49.9552C126.609 49.7877 122.776 44.3168 122.245 44.4842C121.715 44.6517 113.602 49.0154 113.053 49.2946H113.043Z" fill="#0C100F"/>
<path d="M87.6327 64.2557L62.8367 49.834C61.134 51.6762 50.7504 63.6695 50.2852 64.3487L78.4586 80.715C78.9146 80.0358 85.9207 66.0886 87.6327 64.2464V64.2557Z" fill="#0C100F"/>
<path d="M77.5654 79.2641L85.93 63.9771C85.93 63.9771 86.3301 64.0329 87.0093 63.9771C87.6885 63.9212 88.2933 63.6328 88.2933 63.6328C88.2933 63.6328 86.5999 65.9496 85.6044 67.8942C84.6088 69.8388 78.468 80.7156 78.468 80.7156L77.5747 79.2548L77.5654 79.2641Z" fill="#3594F2"/>
<path d="M74.6625 90.1594C70.9501 92.3087 67.9448 97.5098 67.9541 101.78V103.744C68.2053 103.623 68.4286 103.52 68.6054 103.437V101.408C68.5868 97.547 71.3037 92.839 74.6718 90.8944C78.04 88.9498 80.7755 90.5129 80.7848 94.3742V96.17L81.4268 95.7885V94.0021C81.4082 89.7314 78.3843 88.0101 74.6718 90.1501L74.6625 90.1594Z" fill="#144270"/>
<path d="M74.1228 88.3819C71.8804 89.6752 70.4103 92.5503 69.0333 95.1927L69.2287 95.0531L68.6797 96.8489L68.1401 97.1838C67.5074 98.8679 67.1445 100.617 67.1445 102.245V104.134C67.433 103.995 67.7121 103.864 67.9633 103.753C68.2145 103.632 68.4378 103.529 68.6053 103.446C68.4378 103.529 68.2238 103.632 67.9726 103.753V101.789C67.954 97.5188 70.9593 92.3177 74.681 90.1684C78.4028 88.0191 81.4174 89.7497 81.436 94.0204V95.8068L80.8033 96.1883L81.4453 95.8068L82.2547 95.323V93.5551C82.2361 88.5959 78.3097 85.9907 74.1414 88.3912L74.1228 88.3819Z" fill="#2372C1"/>
<path d="M61.7482 99.398C61.6645 99.5841 62.0832 103.873 62.26 104.041C62.4368 104.208 63.1439 104.981 63.3486 104.99C63.4695 104.999 65.8421 104.757 67.1541 104.134V102.245C67.1448 100.617 67.5076 98.8677 68.1403 97.1836L63.1253 99.305L61.7576 99.398H61.7482Z" fill="#1D5C9C"/>
<path d="M36.422 90.0752L37.7432 91.7686L39.6971 93.676L42.1534 95.5276L48.6013 99.2772L51.5229 100.803L55.7191 102.683L60.1759 104.534L63.2463 104.953C62.9765 104.795 62.409 104.181 62.2601 104.041C62.0833 103.874 61.6646 99.5843 61.7483 99.3982L35.4357 84.502C35.352 84.688 35.566 88.4563 35.7428 88.6238C35.8916 89.0704 36.2545 89.8147 36.4313 90.0752H36.422Z" fill="#1D5C9C"/>
<path d="M69.2198 95.0625L69.0244 95.1928L65.0236 97.4072L62.9394 98.1701L61.2646 99.6588L64.8561 98.9796L68.1405 97.1839L68.6709 96.8582L69.2198 95.0625Z" fill="#3594F2"/>
<path d="M62.9391 98.1707L56.7424 95.7515L38.3664 85.0702L36.4218 82.7627C36.2171 82.986 35.5193 84.3258 35.4355 84.5119L35.8356 86.1123L36.4311 87.1543L38.8968 89.3967L41.6881 91.3506L44.6375 93.3789L50.4062 96.4214L55.4026 98.1893L57.8683 98.9801L61.2736 99.678C61.3574 99.4919 62.7437 98.4033 62.9484 98.1893L62.9391 98.1707Z" fill="#3594F2"/>
<path d="M66.3725 90.6804L38.934 75.9424C37.9757 76.2773 36.6266 82.5391 36.4219 82.7531L37.0639 84.1581L37.771 85.7491L39.9668 87.917L42.1812 89.4616L45.4192 91.7876L51.039 94.6069L56.1377 96.4212L60.0176 97.547L62.9299 98.1611C63.1346 97.9471 65.256 91.8528 66.3632 90.6711L66.3725 90.6804Z" fill="#3594F2"/>
<path d="M66.373 90.6801L63.5445 91.2477L57.6456 90.308L52.2677 88.2331L47.9318 86.1582L44.5078 83.6647L41.3258 81.0129L38.7764 78.2682L38.3763 77.0214L38.4507 76.2119C37.8832 77.1237 36.6178 82.5389 36.4131 82.7529L37.0551 84.1578L37.7622 85.7488L39.958 87.9167L42.1725 89.4613L45.4104 91.7873L51.0302 94.6066L56.1289 96.4209L60.0089 97.5467L62.9211 98.1608C63.1258 97.9468 65.2472 91.8525 66.3544 90.6708L66.373 90.6801Z" fill="#2067AF"/>
<path d="M50.2854 64.3487L78.4589 80.715C78.1239 81.022 66.5866 90.4566 66.3726 90.6799C66.3726 90.6799 63.5533 90.987 62.5392 90.8381C61.1156 90.6241 56.7054 89.0331 56.7054 89.0331L50.1179 86.2976L45.6797 83.7203L40.6368 79.859L38.9248 77.4957V75.9233C39.1202 75.7186 49.9411 64.6278 50.2761 64.3301L50.2854 64.3487Z" fill="#3594F2"/>
<path d="M85.4374 63.8557L82.4135 62.5345L78.1894 60.5247L74.9235 59.2128L67.9732 55.1654L65.9635 53.593L64.419 52.2439L63.0605 50.8203C61.4416 52.5695 51.7186 63.7254 51.2812 64.3767L52.956 67.0936L54.7239 69.5406L58.4084 72.0435L62.5767 74.4626L65.9449 76.0536L72.2997 78.3239L77.9847 79.887C78.422 79.2357 83.8185 65.5863 85.4374 63.8464V63.8557Z" fill="#0C100F"/>
<path d="M85.4371 63.8555L82.4132 62.5343L78.189 60.5246L74.9232 59.2127L67.9729 55.1653L65.9631 53.5929L64.4186 52.2437L62.9951 50.6992C61.6552 52.1414 55.2725 59.7151 52.8161 62.6274C52.2393 63.3066 52.109 64.2556 52.4812 65.0651L53.1976 66.6375L54.9654 69.0846L58.6499 71.5874L62.8183 74.0065L66.1864 75.5976L72.5413 77.8678L75.4349 78.6122C76.384 78.8541 77.3702 78.4168 77.8261 77.5422C79.6777 73.9879 84.1345 65.2512 85.4557 63.8276L85.4371 63.8555Z" fill="#1E2329"/>
<path d="M70.8201 58.8684L72.0669 59.5941C72.7647 59.9942 73.4532 60.4501 74.1325 60.9526C74.3558 61.1107 74.4767 61.4457 74.4116 61.7248L74.2534 62.4506C74.1976 62.7297 73.9743 62.8599 73.7417 62.7576C73.0253 62.4506 72.3181 62.097 71.611 61.6876L70.3642 60.9619C69.6664 60.5618 68.9779 60.1059 68.2987 59.6034C68.0754 59.4453 67.9544 59.1103 68.0195 58.8312L68.1777 58.1054C68.2335 57.8263 68.4568 57.696 68.6894 57.7984C69.4059 58.1054 70.113 58.459 70.8201 58.8684Z" fill="#313942"/>
<path d="M70.55 59.7988C70.5686 59.4452 70.643 58.459 70.643 58.459L71.8898 58.4869C71.8898 58.4869 71.7502 59.8825 71.7316 59.9384C71.6572 60.1617 71.3595 60.4222 71.2292 60.4036C70.9221 60.3757 70.5407 60.1896 70.55 59.8081V59.7988Z" fill="#313942"/>
<path d="M70.7455 58.1515C70.5594 58.412 70.6338 58.7563 70.9223 58.9238C71.2107 59.0913 71.5922 59.0168 71.7876 58.747C71.9736 58.4865 71.8992 58.1422 71.6108 57.9747C71.3223 57.8073 70.9409 57.8817 70.7455 58.1515Z" fill="#3A434F"/>
<path d="M82.9248 76.7894C82.9248 76.7894 86.7582 67.3176 87.9491 65.9592C88.9726 64.7868 106.139 53.9752 111.35 51.0443C116.56 48.1135 121.873 45.1826 121.873 45.1826L125.176 49.751L124.059 52.0678L82.9248 78.2502V76.7894Z" fill="#1E2329"/>
<path d="M85.9212 63.9771C85.9212 63.9771 84.1627 66.238 81.3528 71.9416C78.5429 77.6544 77.7427 79.0687 77.5566 79.2548C77.3705 79.4409 74.9142 79.2641 72.002 78.2313C76.7844 80.1573 78.4498 80.7156 78.4498 80.7156L86.9168 64.1539L85.9212 63.9678V63.9771Z" fill="#3594F2"/>
<path d="M50.2852 64.3487C55.6072 57.4449 62.8367 49.834 62.8367 49.834L63.7299 50.355C63.7299 50.355 63.4229 49.8526 63.0879 50.0666C62.753 50.2806 55.4118 58.5428 51.5226 63.9393C51.29 64.2557 51.8855 65.2792 51.8855 65.2792L50.2945 64.3487H50.2852Z" fill="#449FFB"/>
<path d="M96.0254 58.3475L71.2294 43.9258C70.8945 44.1305 64.5396 47.9825 62.8369 49.8247L64.2047 51.1273L67.1262 53.4906L69.1639 54.9049L76.1142 58.9523L79.1846 60.5061L83.4088 62.5158L87.6329 64.2464C89.3356 62.4042 95.6905 58.5429 96.0254 58.3475Z" fill="#5BADFB"/>
<path d="M83.8457 62.6924C83.8457 62.6924 85.6042 63.4181 85.7531 63.5763C85.9113 63.7345 85.9206 63.9764 85.9206 63.9764L86.9161 64.1625L87.3348 63.1948L83.8457 62.7017V62.6924Z" fill="#5BADFB"/>
<path d="M52.4258 63.3167C52.5746 63.2143 52.7142 63.0933 52.8351 62.9259L55.431 61.8838L57.599 62.2932L65.7309 67.0198L66.4939 70.5554L78.2359 76.78C78.0871 77.0591 77.9568 77.329 77.8265 77.5616C77.3706 78.4269 76.3844 78.8735 75.4353 78.6316L72.5417 77.8872L66.1868 75.617L62.8187 74.0259L58.6503 71.6068L54.9658 69.1039L53.198 66.6569L52.4816 65.0845C52.2211 64.5169 52.2118 63.8842 52.4164 63.326L52.4258 63.3167Z" fill="#272E36"/>
<g style="mix-blend-mode:screen">
<path d="M75.761 59.0088C75.761 59.0088 69.7224 66.75 65.2471 75.738C76.3006 79.2643 77.6869 79.0782 77.6869 79.0782L85.7538 63.5772C85.7538 63.5772 78.8035 61.3721 75.761 59.0088Z" fill="#0B0E0F"/>
</g>
<path d="M96.1465 59.8739L97.0025 69.6155L99.0308 68.3781L97.2351 59.2412L96.1465 59.8739Z" fill="#0C100F"/>
<path d="M81.418 94.3926L113.388 75.1699V76.6493L81.418 95.7976V94.3926Z" fill="#144270"/>
<path d="M66.7078 91.015L67.08 92.0478V94.3738C67.08 94.3738 66.0937 96.0858 65.9262 96.3929C65.7495 96.6999 63.4792 97.8536 63.0605 97.9467C62.6418 98.0397 59.6272 97.3233 59.6272 97.3233L56.3242 96.3184C56.3242 96.3184 56.0451 95.8067 56.0265 95.3508C56.0078 94.8949 59.0783 91.2569 59.9808 91.0336C60.874 90.801 61.851 91.2662 63.5443 91.2662C65.2377 91.2662 65.7309 90.9033 66.0751 90.9033C66.4194 90.9033 66.7078 91.0243 66.7078 91.0243V91.015Z" fill="#AACCF7"/>
<path d="M59.9808 91.0248C60.874 90.7922 61.851 91.2574 63.5443 91.2574C65.2377 91.2574 65.7309 90.8945 66.0751 90.8945C66.4194 90.8945 66.7078 91.0155 66.7078 91.0155L67.08 92.0483V94.3743C67.08 94.3743 66.2705 95.7886 65.9914 96.2724C65.8146 96.3469 65.7123 96.3934 65.7123 96.3934L63.5164 96.505L59.3667 95.6397C59.3667 95.6397 57.8315 95.5374 56.3242 96.3189C56.3242 96.3189 56.0451 95.8072 56.0265 95.342C56.0078 94.8768 59.0783 91.2481 59.9808 91.0248Z" fill="#9AB9E0"/>
<path d="M59.3662 95.6303C59.3662 95.6303 59.9896 93.0437 60.6316 91.7969C61.6179 92.0109 64.0835 92.3179 64.0835 92.3179C64.0835 92.3179 63.5159 96.2629 63.2368 96.3839C62.9577 96.5142 59.3662 95.6303 59.3662 95.6303Z" fill="#D9E7F7"/>
<path d="M65.0235 90.8101C66.5029 90.3728 78.4497 80.7242 78.4497 80.7242C78.4497 80.7242 67.8428 89.8518 66.3634 90.6892C64.884 91.5266 62.1578 91.4986 58.6873 90.745C55.2168 89.9913 52.2487 90.2239 49.0015 88.3445C45.7543 86.4743 41.4557 81.6175 40.4043 80.3242C39.3529 79.0309 38.7295 78.4912 38.5434 78.0167C38.3574 77.5422 38.1527 77.3282 38.2736 76.6769C38.3946 76.0256 39.1668 74.4717 50.2762 64.3486L38.5527 76.3605C38.5527 76.3605 38.5062 77.3002 38.7388 77.7376C38.9714 78.1749 40.3485 79.9055 40.3485 79.9055L45.4379 84.2227C45.4379 84.2227 48.62 86.251 49.7458 86.8093C51.3276 87.5815 53.1512 88.3166 56.5008 89.4889C59.2735 90.4566 61.4786 90.7636 62.3718 90.8287C62.3718 90.8287 64.1303 90.9497 65.0235 90.8194V90.8101Z" fill="#2883DE"/>
<path d="M40.4136 80.5475C40.4136 80.4731 40.5066 80.4359 40.5532 80.4917C41.6697 81.6734 45.1123 84.4833 48.2013 86.3348C51.4392 88.2794 58.1383 90.2892 58.2314 90.345C58.3244 90.4008 58.6873 90.7451 58.6873 90.7451C58.6873 90.7451 55.989 93.4061 55.0772 94.5692L54.3329 95.1274C54.3329 95.1274 51.709 94.411 49.9226 93.5364C48.1362 92.6618 46.9266 92.1314 45.2332 91.1173C43.9306 90.3357 42.1721 88.9587 41.4185 88.3539C41.1766 88.1585 40.9998 87.8887 40.9253 87.5816C40.8137 87.1164 40.6648 86.3721 40.5904 85.5254C40.4601 84.0739 40.4136 81.3384 40.4043 80.5475H40.4136Z" fill="#171717"/>
<path d="M40.5532 80.4824C40.7393 80.6778 40.9812 80.9104 41.2789 81.1802C41.3068 82.3433 41.3533 83.925 41.4371 84.9206C41.5115 85.758 41.6697 86.5116 41.772 86.9768C41.8465 87.2839 42.0139 87.5537 42.2652 87.7491C43.0188 88.3539 44.7773 89.7309 46.0799 90.5125C47.7733 91.5266 48.9829 92.057 50.7693 92.9316C52.4069 93.7318 54.7423 94.4017 55.1237 94.5133C55.1051 94.5319 55.0958 94.5506 55.0772 94.5692L54.3329 95.1274C54.3329 95.1274 51.709 94.411 49.9226 93.5364C48.1362 92.6618 46.9266 92.1314 45.2332 91.1173C43.9306 90.3357 42.1721 88.9587 41.4185 88.3539C41.1766 88.1585 40.9998 87.8887 40.9253 87.5816C40.8137 87.1164 40.6648 86.3721 40.5904 85.5254C40.4601 84.0739 40.4136 81.3384 40.4043 80.5475C40.4043 80.4731 40.4973 80.4359 40.5439 80.4917L40.5532 80.4824Z" fill="#144270"/>
<path d="M38.4592 76.2119C38.4127 76.6492 38.3104 76.8353 38.6918 77.8681C39.0733 78.9009 39.7897 79.2265 39.9107 79.7196C40.0317 80.2128 39.6688 84.1857 40.1154 86.2234C39.7432 87.2934 39.2501 86.8095 38.9337 86.5397C38.6174 86.2699 38.1615 85.5814 37.8172 85.0231C37.473 84.4648 36.6356 83.1622 36.589 82.2969C36.5425 81.4316 37.9103 77.4959 38.1522 76.9377C38.4034 76.3701 38.4592 76.2119 38.4592 76.2119Z" fill="#AACCF7"/>
<path d="M38.7943 78.1104C39.1944 78.957 39.7992 79.2734 39.9108 79.72C40.0318 80.2131 39.6689 84.1861 40.1155 86.2237C40.1155 86.2237 38.45 84.5396 38.2453 83.4417C38.0406 82.3438 38.7199 79.3478 38.785 78.1104H38.7943Z" fill="#D9E7F7"/>
<path d="M65.6838 91.4808C65.6838 91.4808 66.0094 91.2854 66.0652 91.304C66.1211 91.3226 66.7072 91.7227 66.7631 92.039C66.8282 92.3554 66.8003 93.8813 66.7631 94.1697C66.7259 94.4582 65.7768 96.1236 65.7024 96.2446C65.6279 96.3655 65.3674 96.533 65.0139 96.7191C64.6603 96.8959 64.0648 97.1471 64.0648 97.1471C64.0648 97.1471 63.5066 97.1657 63.5438 96.8866C63.7299 95.5933 64.3439 92.2437 64.3905 92.0576C64.4091 91.9925 64.7999 91.6762 64.9487 91.6482C65.293 91.5924 65.6652 91.4808 65.6652 91.4808H65.6838Z" fill="#D08800"/>
<path d="M38.2918 76.668C38.2638 77.0867 38.3104 77.3379 38.2918 77.4961C38.2731 77.6542 37.1659 81.2271 37.0543 82.2971C36.9333 82.8739 36.7286 82.2971 36.7286 82.2971C36.7286 82.2971 36.6914 81.8319 36.6914 81.5434C36.6914 81.2457 37.4916 78.38 38.2918 76.668Z" fill="#D08800"/>
<path d="M94.7319 74.0446C94.5179 74.5749 94.7505 74.9378 94.8622 75.068C94.9831 75.2076 97.0208 73.9794 97.2254 73.7933C97.4301 73.5979 97.2999 73.0676 97.2627 72.9373C97.2254 72.8071 94.7319 74.0446 94.7319 74.0446Z" fill="#144270"/>
<path d="M96.4537 72.9186L95.0581 73.7188C94.8813 73.8211 94.7324 74.0724 94.7324 74.2863V74.3608C94.7324 74.5655 94.8813 74.6492 95.0581 74.5469L96.9748 73.4397C97.1888 73.3187 97.3004 72.9558 97.1515 72.8628C96.9655 72.7511 96.7142 72.7698 96.4537 72.9186Z" fill="#2372C1"/>
<path d="M94.8065 74.6121C94.7321 74.5656 94.6855 74.4819 94.6855 74.3609V74.2865C94.6855 74.0632 94.8437 73.7933 95.0391 73.6817L96.4348 72.8815C96.7139 72.7233 96.993 72.6954 97.1884 72.8257C97.2535 72.8629 97.2815 72.9373 97.2815 73.0304C97.2815 73.1792 97.1791 73.3932 97.0116 73.4956L95.0949 74.6028C95.0391 74.64 94.974 74.6586 94.9275 74.6586C94.8902 74.6586 94.853 74.6493 94.8158 74.6307L94.8065 74.6121ZM96.4813 72.9652L95.0856 73.7654C94.9182 73.8585 94.7879 74.0911 94.7879 74.2865V74.3609C94.7879 74.4446 94.8158 74.5005 94.853 74.5284C94.8995 74.5563 94.9647 74.547 95.0298 74.5098L96.9465 73.4026C97.0768 73.3281 97.1605 73.1513 97.1698 73.0304C97.1698 73.0025 97.1698 72.9373 97.1233 72.9187C97.0582 72.8722 96.9744 72.8536 96.8814 72.8536C96.7604 72.8536 96.6208 72.9001 96.472 72.9746L96.4813 72.9652Z" fill="#144270"/>
<path d="M99.7846 70.9176C99.5706 71.448 99.8032 71.8108 99.9149 71.9411C100.036 72.0806 102.073 70.8525 102.278 70.6664C102.483 70.471 102.353 69.9406 102.315 69.8104C102.278 69.6801 99.7846 70.9176 99.7846 70.9176Z" fill="#144270"/>
<path d="M101.506 69.7917L100.111 70.5918C99.934 70.6942 99.7852 70.9454 99.7852 71.1594V71.2338C99.7852 71.4385 99.934 71.5223 100.111 71.4199L102.028 70.3127C102.242 70.1918 102.353 69.8289 102.204 69.7358C102.018 69.6242 101.767 69.6428 101.506 69.7917Z" fill="#2372C1"/>
<path d="M99.8592 71.4852C99.7848 71.4386 99.7383 71.3549 99.7383 71.2339V71.1595C99.7383 70.9362 99.8965 70.6664 100.092 70.5547L101.487 69.7546C101.767 69.5964 102.046 69.5685 102.241 69.6987C102.306 69.7359 102.334 69.8104 102.334 69.9034C102.334 70.0523 102.232 70.2663 102.064 70.3686L100.148 71.4759C100.092 71.5131 100.027 71.5317 99.9802 71.5317C99.943 71.5317 99.9058 71.5224 99.8685 71.5038L99.8592 71.4852ZM101.534 69.8383L100.138 70.6385C99.9709 70.7315 99.8406 70.9641 99.8406 71.1595V71.2339C99.8406 71.3177 99.8685 71.3735 99.9058 71.4014C99.9523 71.4293 100.017 71.42 100.083 71.3828L101.999 70.2756C102.129 70.2012 102.213 70.0244 102.223 69.9034C102.223 69.8755 102.223 69.8104 102.176 69.7918C102.111 69.7453 102.027 69.7266 101.934 69.7266C101.813 69.7266 101.674 69.7732 101.525 69.8476L101.534 69.8383Z" fill="#144270"/>
<path d="M83.7253 78.11C83.7253 78.11 83.2321 78.0356 83.0274 77.8681C82.8227 77.7006 82.9716 77.0865 83.3252 76.8725C83.6694 76.6585 84.6371 77.1423 84.7953 77.0586C84.9534 76.9749 85.9397 77.3936 85.9397 77.3936L85.6233 78.1007H83.7253V78.11Z" fill="#1D5C9C"/>
<path d="M85.6787 75.5607C84.7669 75.3281 83.8364 75.6352 83.7155 76.668C83.5666 77.924 84.1156 78.1287 84.4505 78.2776C84.7855 78.4358 86.0323 78.9754 87.6047 78.994C89.1864 79.0126 89.3725 78.1659 89.3725 77.6077C89.3725 77.524 89.3725 77.5333 89.3725 77.4588C89.326 76.6586 89.0376 76.4167 88.4979 76.2586C87.3349 75.9143 85.6694 75.5607 85.6694 75.5607H85.6787Z" fill="#1D5C9C"/>
<path d="M84.0699 76.0822C84.5909 75.9147 85.6795 76.1287 86.7402 76.3613C87.8102 76.594 88.6104 76.5753 88.6941 77.6081C88.7779 78.6409 88.4429 78.8921 87.9963 78.9666C87.5497 79.0317 86.7123 79.0317 85.4469 78.6595C84.1815 78.2873 84.0048 78.0826 83.8094 77.7384C83.614 77.3941 83.5395 76.2497 84.0606 76.0822H84.0699Z" fill="#2372C1"/>
<path d="M52.7142 98.5332C53.8307 98.9519 55.5892 99.6962 56.0358 100.748C56.4824 101.799 57.0686 102.413 57.1337 102.767C57.1989 103.12 49.2437 99.2589 48.3877 98.7193C47.5317 98.1796 42.5259 95.4349 42.4329 95.3418C42.3399 95.2488 40.1161 93.5368 40.1161 93.5368C40.1161 93.5368 40.0231 91.8062 40.4139 91.7969C40.7953 91.7969 43.1121 93.695 43.1121 93.695C43.1121 93.695 49.4391 97.2957 52.7142 98.5332Z" fill="#171717"/>
<path d="M40.4139 91.7969C40.6 91.7969 41.2233 92.2249 41.8281 92.6808V93.0902C41.8281 93.0902 42.8423 94.1416 43.2424 94.4207C43.6425 94.6998 49.4391 97.7889 51.4023 98.7937C52.3513 99.2775 54.2773 100.041 56.0172 100.72C56.0172 100.729 56.0265 100.738 56.0358 100.757C56.4824 101.808 57.0686 102.422 57.1337 102.776C57.1989 103.13 49.2437 99.2682 48.3877 98.7286C47.5317 98.1889 42.5259 95.4442 42.4329 95.3511C42.3399 95.2581 40.1161 93.5461 40.1161 93.5461C40.1161 93.5461 40.0231 91.8155 40.4139 91.8062V91.7969Z" fill="#144270"/>
<path d="M47.8193 87.1914C46.3027 86.2331 41.511 82.7998 41.0272 82.0554C40.5433 81.3111 40.4131 80.5388 40.4131 80.5388C40.4131 80.5388 40.441 80.5109 40.4968 80.4551C40.5154 80.4551 40.5433 80.4551 40.562 80.483C41.6785 81.6646 45.1211 84.4745 48.2101 86.3261C51.448 88.2707 58.1471 90.2804 58.2402 90.3363L58.6961 90.7364C58.6961 90.7364 56.4258 90.541 55.9141 90.4479C55.4023 90.3549 49.3452 88.1404 47.8193 87.1821V87.1914Z" fill="#D6D6D6"/>
<path d="M131.15 49.0433C131.15 49.0433 131.122 48.2617 130.377 47.5825C129.633 46.9033 125.855 42.6512 125.046 42.1953L125.762 42.2884C125.762 42.2884 131.01 47.322 131.364 47.9082C131.717 48.4943 131.875 49.034 131.875 49.034H131.15V49.0433Z" fill="#2067AF"/>
<path d="M87.5771 26.0238C87.3259 25.7167 87.0188 25.4562 86.656 25.2422L78.5798 20.5714C78.3286 20.4226 78.0681 20.3574 77.8076 20.3574C77.6122 20.3574 77.4168 20.3946 77.24 20.4691C77.0911 20.5249 76.9609 20.6086 76.8399 20.7017L75.9746 21.2041L76.1421 21.446L76.5701 22.0787L77.1097 22.8789V32.5368C77.1097 33.7556 77.7517 34.8722 78.8031 35.4769L84.1531 38.5753L86.107 41.4689L87.5492 40.6408C87.5492 40.6408 87.5678 40.6408 87.5771 40.6222H87.605V40.6036C88.0423 40.3431 88.3494 39.8686 88.3494 39.2824V28.1731C88.3494 27.9218 88.3214 27.6706 88.2656 27.4287C88.1447 26.9077 87.9121 26.4238 87.5678 26.0145L87.5771 26.0238Z" fill="#FF634E"/>
<path d="M86.656 25.2422L78.5798 20.5714C78.3286 20.4226 78.0681 20.3574 77.8076 20.3574C77.6122 20.3574 77.4168 20.3946 77.24 20.4691C77.0911 20.5249 76.9609 20.6086 76.8399 20.7017L75.9746 21.2041L76.1421 21.446C80.2732 23.7907 81.7526 24.5537 81.7526 24.563C81.5479 24.6839 81.4083 24.8979 81.4083 25.1678V28.2475L82.5435 30.6294L88.2563 27.4287C88.1354 26.9077 87.9027 26.4238 87.5585 26.0145C87.3073 25.7074 87.0002 25.4469 86.6374 25.2329L86.656 25.2422Z" fill="#FF7460"/>
<path d="M86.656 25.2422L78.5798 20.5714C78.3286 20.4226 78.0681 20.3574 77.8076 20.3574C77.6122 20.3574 77.4168 20.3946 77.24 20.4691C77.0911 20.5249 76.9609 20.6086 76.8399 20.7017L75.9746 21.2041L76.1421 21.446L76.5701 22.0787L81.4176 26.4052L83.7902 28.1079L87.5678 26.0145C87.3166 25.7074 87.0095 25.4469 86.6467 25.2329L86.656 25.2422Z" fill="#FF998C"/>
<path d="M85.4276 25.9682L77.3515 21.2975C76.3187 20.702 75.0254 21.4463 75.0254 22.6373V33.7467C75.0254 34.9562 75.6767 36.082 76.7188 36.6868L84.7949 41.3576C85.8277 41.9531 87.121 41.2087 87.121 40.0178V28.9084C87.121 27.6988 86.4697 26.573 85.4276 25.9682Z" fill="#F54A33"/>
<path d="M82.8316 33.4395C82.8781 32.6951 82.8595 31.8949 82.8316 31.0948C82.7664 29.4665 82.1244 27.7917 81.194 26.7404C81.1475 26.6938 81.1009 26.638 81.0637 26.5822C80.98 25.5587 80.8404 25.1772 80.4869 24.9725C80.1519 24.7771 80.003 25.0191 79.9565 25.903C79.4448 25.8192 79.0075 25.9774 78.6725 26.4705C78.3655 26.9171 78.1887 27.5312 78.1794 28.3314C78.1701 29.3735 78.1794 30.4249 78.1701 31.4576C78.1701 31.6065 78.1143 31.7554 78.0491 31.8391C77.9189 32.0066 77.7793 32.1648 77.6211 32.2764C77.435 32.3974 77.4164 32.6672 77.463 33.0394C79.4913 34.2769 81.5103 35.5236 83.548 36.7704C83.5945 36.4262 83.5573 36.1005 83.3712 35.7655C82.9432 35.0119 82.785 34.2676 82.8408 33.4395H82.8316Z" fill="white"/>
<path d="M80.4962 37.0217C80.8963 37.2636 81.2033 36.9473 81.2033 36.296C80.7288 36.0075 80.2636 35.7191 79.7891 35.4307C79.7891 36.082 80.1054 36.7891 80.4962 37.0217Z" fill="white"/>
<path d="M83.3154 26.2754C82.2919 25.5589 81.4824 26.0335 81.4824 27.364C81.4824 28.6666 82.2733 30.2762 83.2782 30.9834C84.2644 31.6812 85.0739 31.1787 85.0832 29.8761C85.0832 28.5828 84.2923 26.9546 83.3247 26.2754H83.3154Z" fill="#F7DA00"/>
<path d="M103.404 20.0882C103.227 20.0231 103.032 19.9766 102.836 19.9766C102.576 19.9766 102.315 20.0417 102.064 20.1906L93.9878 24.8613C93.6343 25.066 93.3179 25.3265 93.0667 25.6429C92.7225 26.0523 92.4899 26.5361 92.3689 27.0572C92.3131 27.2991 92.2852 27.5503 92.2852 27.8015V38.9109C92.2852 39.4877 92.5922 39.9622 93.0295 40.2321L93.0574 40.2507C93.0574 40.2507 93.076 40.2507 93.0853 40.2693L94.5275 41.0974L96.4814 38.2037L101.831 35.1054C102.883 34.5006 103.525 33.3841 103.525 32.1652V22.5073L104.064 21.7072L104.492 21.0745L104.66 20.8326L103.795 20.3301C103.674 20.2371 103.543 20.1533 103.395 20.0975L103.404 20.0882Z" fill="#FFC500"/>
<path d="M103.404 20.0882C103.227 20.0231 103.032 19.9766 102.837 19.9766C102.576 19.9766 102.315 20.0417 102.064 20.1906L93.9881 24.8613C93.6345 25.066 93.3182 25.3265 93.067 25.6429C92.7227 26.0523 92.4901 26.5361 92.3691 27.0572L98.082 30.2578L99.2171 27.8759V24.7962C99.2171 24.5264 99.0776 24.3124 98.8729 24.1914C98.8729 24.1821 100.352 23.4192 104.483 21.0745L104.651 20.8326L103.786 20.3301C103.665 20.2371 103.534 20.1533 103.385 20.0975L103.404 20.0882Z" fill="#FFD900"/>
<path d="M103.404 20.0882C103.227 20.0231 103.031 19.9766 102.836 19.9766C102.575 19.9766 102.315 20.0417 102.064 20.1906L93.9875 24.8613C93.634 25.066 93.3176 25.3265 93.0664 25.6429L96.844 27.7364L99.2166 26.0337L104.064 21.7072L104.492 21.0745L104.66 20.8326L103.794 20.3301C103.673 20.2371 103.543 20.1533 103.394 20.0975L103.404 20.0882Z" fill="#FFE300"/>
<path d="M103.292 20.9068L95.2158 25.5776C94.1645 26.1824 93.5225 27.3082 93.5225 28.5178V39.6271C93.5225 40.8181 94.8158 41.5624 95.8485 40.967L103.925 36.2962C104.976 35.6914 105.618 34.5656 105.618 33.356V22.2467C105.618 21.0557 104.325 20.3114 103.292 20.9068Z" fill="#FFA000"/>
<path d="M102.669 25.9684C102.222 25.8102 101.738 25.773 101.226 25.8474C100.817 25.9126 100.398 26.0428 99.9703 26.2475C99.3562 26.5546 98.7422 26.9732 98.1374 27.5408C97.6722 27.9781 97.2256 28.4805 96.8069 29.0481C96.3882 29.6064 96.0067 30.2205 95.6531 30.8718C95.467 31.2253 95.2623 31.5696 95.2158 31.979V32.2488C95.2623 32.3605 95.2903 32.4907 95.3554 32.5745C95.5694 32.8629 95.9881 32.6582 96.2765 32.1465C96.4626 31.8022 96.6487 31.4486 96.8441 31.1137C97.2349 30.4531 97.6722 29.8855 98.1467 29.4017C98.6584 28.8713 99.1795 28.4712 99.7098 28.1921C100.129 27.9688 100.529 27.8386 100.919 27.792C101.385 27.7362 101.813 27.8013 102.194 28.006C102.343 28.0805 102.473 28.1828 102.613 28.2665C102.976 28.4899 103.515 27.9409 103.655 27.2059C103.655 27.1593 103.673 27.1221 103.683 27.0756V26.8244C103.646 26.6569 103.59 26.508 103.497 26.4336C103.245 26.2382 102.976 26.08 102.678 25.9777L102.669 25.9684Z" fill="white"/>
<path d="M101.72 29.6902C101.403 29.4762 101.041 29.3832 100.64 29.4111C100.25 29.439 99.8496 29.5879 99.4402 29.8298C98.9284 30.1554 98.4446 30.5927 97.9887 31.1789C97.6258 31.6441 97.3002 32.1652 97.0304 32.742C96.7977 33.2352 96.8443 33.812 97.1048 33.9516C97.3281 34.0632 97.6072 33.9237 97.8398 33.5794C97.9422 33.4305 98.0166 33.2631 98.1097 33.1049C98.3888 32.6118 98.7051 32.2117 99.068 31.8953C99.4495 31.5604 99.8217 31.3929 100.185 31.3557C100.464 31.3278 100.696 31.4208 100.91 31.5697C101.124 31.7279 101.394 31.6162 101.655 31.2812C101.915 30.9463 102.055 30.4159 101.98 30.0624C101.943 29.8577 101.831 29.7553 101.72 29.6716V29.6902Z" fill="white"/>
<path d="M99.4307 32.9837C98.8817 33.328 98.4537 34.2026 98.463 34.9656C98.463 35.7192 98.9096 36.0635 99.44 35.7378C99.989 35.4029 100.426 34.5189 100.417 33.756C100.417 32.993 99.9703 32.6488 99.4307 32.993V32.9837Z" fill="white"/>
<path d="M87.875 7.5179C87.6237 7.21085 87.3167 6.95033 86.9538 6.73633L78.8777 2.06556C78.6265 1.91669 78.3659 1.85156 78.1054 1.85156C77.91 1.85156 77.7146 1.88878 77.5378 1.96321C77.389 2.01904 77.2587 2.10278 77.1378 2.19582L76.2725 2.69826L76.4399 2.94017L76.8679 3.57286L77.4076 4.37303V14.0309C77.4076 15.2498 78.0496 16.3663 79.101 16.9711L84.451 20.0694L86.4049 22.9631L87.847 22.135C87.847 22.135 87.8656 22.135 87.875 22.1164H87.9029V22.0978C88.3402 21.8372 88.6472 21.3627 88.6472 20.7766V9.66719C88.6472 9.41598 88.6193 9.16476 88.5635 8.92285C88.4425 8.40181 88.2099 7.91798 87.8656 7.50859L87.875 7.5179Z" fill="#B623D6"/>
<path d="M86.9538 6.7461L78.8777 2.07533C78.6265 1.92646 78.3659 1.86133 78.1054 1.86133C77.91 1.86133 77.7146 1.89855 77.5378 1.97298C77.389 2.02881 77.2587 2.11254 77.1378 2.20559L76.2725 2.70802L76.4399 2.94993C80.5711 5.29462 82.0504 6.05758 82.0504 6.06688C81.8457 6.18784 81.7062 6.40184 81.7062 6.67166V9.75139L82.8413 12.1333L88.5542 8.93261C88.4332 8.41157 88.2006 7.92775 87.8563 7.51836C87.6051 7.21131 87.2981 6.95079 86.9352 6.73679L86.9538 6.7461Z" fill="#D236EF"/>
<path d="M86.9538 6.7461L78.8777 2.07533C78.6265 1.92646 78.3659 1.86133 78.1054 1.86133C77.91 1.86133 77.7146 1.89855 77.5378 1.97298C77.389 2.02881 77.2587 2.11254 77.1378 2.20559L76.2725 2.70802L76.4399 2.94993L76.8679 3.58263L81.7155 7.90914L84.0881 9.61183L87.875 7.51836C87.6237 7.21131 87.3167 6.95079 86.9538 6.73679V6.7461Z" fill="#D652F7"/>
<path d="M85.7255 7.46238L77.6493 2.79161C76.6165 2.19613 75.3232 2.94048 75.3232 4.13143V15.2408C75.3232 16.4504 75.9745 17.5762 77.0166 18.181L85.0928 22.8517C86.1256 23.4472 87.4189 22.7029 87.4189 21.5119V10.4025C87.4189 9.19298 86.7676 8.06716 85.7255 7.46238Z" fill="#8207A8"/>
<path d="M81.6505 14.1613C82.0878 14.4591 82.5251 14.7382 82.981 15.0359C82.981 14.9708 82.9717 14.9336 82.9624 14.8964C82.5623 13.0076 82.1715 11.1188 81.7808 9.23004C81.7435 9.04395 81.6691 8.96952 81.5109 8.87647C80.7294 8.42056 79.9385 7.96465 79.1569 7.49013C78.9523 7.36917 78.9709 7.4343 79.0453 7.62039C79.6129 9.08117 80.1804 10.5326 80.7387 11.9934C80.7759 12.0772 80.8317 12.1795 80.8131 12.2632C80.1897 11.8632 79.5756 11.4538 78.915 11.0258C80.1246 13.7705 81.3156 16.4781 82.5344 19.2415C82.5623 19.1205 82.5344 19.0368 82.5158 18.9624C82.1715 17.3899 81.8273 15.8268 81.4737 14.2544C81.4272 14.0311 81.4644 14.0218 81.6598 14.152L81.6505 14.1613Z" fill="#F7DA00"/>
<path d="M102.529 0.111652C102.352 0.0465216 102.157 0 101.961 0C101.701 0 101.44 0.0651303 101.189 0.213999L93.1128 4.88477C92.7593 5.08947 92.4429 5.34999 92.1917 5.66633C91.8475 6.07572 91.6149 6.55955 91.4939 7.08059C91.4381 7.3225 91.4102 7.57372 91.4102 7.82494V18.9343C91.4102 19.5112 91.7172 19.9857 92.1545 20.2555L92.1824 20.2741C92.1824 20.2741 92.201 20.2741 92.2103 20.2927L93.6525 21.1208L95.6064 18.2272L100.956 15.1288C102.008 14.524 102.65 13.4075 102.65 12.1887V2.52147L103.189 1.7213L103.617 1.08861L103.785 0.846694L102.92 0.34426C102.799 0.251217 102.668 0.167478 102.52 0.111652H102.529Z" fill="#AFE726"/>
<path d="M102.529 0.111652C102.352 0.0465216 102.157 0 101.962 0C101.701 0 101.44 0.0651303 101.189 0.213999L93.1131 4.88477C92.7595 5.08946 92.4432 5.34999 92.192 5.66633C91.8477 6.07572 91.6151 6.55955 91.4941 7.08059L97.207 10.2813L98.3421 7.89937V4.81964C98.3421 4.54981 98.2026 4.33581 97.9979 4.21486C97.9979 4.20555 99.4772 3.4426 103.608 1.09791L103.776 0.855998L102.911 0.353564C102.79 0.260521 102.659 0.176782 102.51 0.120956L102.529 0.111652Z" fill="#BFF938"/>
<path d="M102.529 0.111652C102.352 0.0465216 102.156 0 101.961 0C101.7 0 101.44 0.0651303 101.189 0.213999L93.1125 4.88477C92.759 5.08946 92.4426 5.34999 92.1914 5.66633L95.969 7.75981L98.3416 6.05711L103.189 1.7306L103.617 1.09791L103.785 0.855998L102.919 0.353564C102.798 0.260521 102.668 0.176782 102.519 0.120956L102.529 0.111652Z" fill="#D2FF55"/>
<path d="M102.417 0.930744L94.3408 5.60151C93.2895 6.20629 92.6475 7.33212 92.6475 8.54168V19.651C92.6475 20.842 93.9408 21.5863 94.9735 20.9909L103.05 16.3201C104.101 15.7153 104.743 14.5895 104.743 13.3799V2.27987C104.743 1.08892 103.45 0.344571 102.417 0.940048V0.930744Z" fill="#98C408"/>
<path d="M101.468 5.0332C100.649 4.55868 99.6161 4.64242 98.5554 5.2565C96.1921 6.62424 94.2754 10.2715 94.2754 13.3885C94.2754 15.054 94.8244 16.3286 95.792 16.8869C96.1456 17.0916 96.5363 17.1846 96.9457 17.1846C97.4947 17.1846 98.0995 17.0079 98.7042 16.6543C101.068 15.2866 102.984 11.6393 102.984 8.52232C102.984 6.85685 102.435 5.58216 101.468 5.0239V5.0332ZM98.5554 16.4031C97.5877 16.9613 96.6573 17.0451 95.9409 16.6264C95.0756 16.124 94.5731 14.9516 94.5731 13.3978C94.5731 10.3739 96.4247 6.84754 98.7042 5.52633C99.2625 5.20068 99.8115 5.0425 100.314 5.0425C100.677 5.0425 101.021 5.12624 101.319 5.30303C102.184 5.80546 102.686 6.98711 102.686 8.54093C102.686 11.5648 100.835 15.0912 98.5554 16.4124V16.4031Z" fill="white"/>
<path d="M99.6628 5.23754C99.3185 5.04215 98.937 5.05145 98.5556 5.26545C97.253 6.0191 96.2295 9.09883 96.2295 12.2716C96.2295 14.514 96.7598 16.2073 97.6065 16.7005C97.774 16.7935 97.9415 16.84 98.1183 16.84C98.3137 16.84 98.5091 16.7842 98.7138 16.6726C100.026 15.9189 101.049 12.8392 101.049 9.6664C101.049 7.42405 100.519 5.73067 99.6721 5.23754H99.6628ZM98.5556 16.4027C98.2764 16.5609 98.0066 16.5795 97.7554 16.4306C97.0111 16.0026 96.5272 14.3651 96.5272 12.2623C96.5272 9.2384 97.5042 6.21449 98.7044 5.51667C98.8533 5.43293 99.0022 5.38641 99.1417 5.38641C99.2627 5.38641 99.3837 5.42362 99.5046 5.48876C100.249 5.91675 100.733 7.55432 100.733 9.65709C100.733 12.681 99.7558 15.7049 98.5556 16.4027Z" fill="white"/>
<path d="M102.296 7.20139C101.477 6.72687 100.081 6.96878 98.5554 7.85269C96.1921 9.22042 94.2754 11.7047 94.2754 13.3981C94.2754 14.0122 94.5173 14.4681 94.9732 14.7286C95.2523 14.8868 95.5873 14.9705 95.9781 14.9705C96.741 14.9705 97.6994 14.6635 98.7042 14.0866C101.068 12.7189 102.984 10.2346 102.984 8.54121C102.984 7.92712 102.742 7.47121 102.286 7.21069L102.296 7.20139ZM98.5554 13.8261C97.1504 14.6355 95.8385 14.8868 95.1221 14.4774C94.7592 14.2727 94.5824 13.9098 94.5824 13.4074C94.5824 11.807 96.434 9.43442 98.7136 8.12251C100.119 7.31304 101.44 7.06182 102.147 7.47121C102.51 7.67591 102.686 8.03878 102.686 8.54121C102.686 10.1416 100.835 12.5142 98.5554 13.8261Z" fill="white"/>
<path d="M98.7875 5.39648H98.4805V16.5338H98.7875V5.39648Z" fill="white"/>
<path d="M94.3496 13.2675L94.4985 13.528L102.91 8.66189L102.761 8.40137L94.3496 13.2675Z" fill="white"/>
</g>
<defs>
<linearGradient id="paint0_linear_788_7363" x1="156.493" y1="84.0182" x2="0.385528" y2="84.0182" gradientUnits="userSpaceOnUse">
<stop stop-color="#616161"/>
<stop offset="0.04" stop-color="#747474"/>
<stop offset="0.62" stop-color="#747474"/>
<stop offset="0.63" stop-color="#868686"/>
<stop offset="0.65" stop-color="#979797"/>
<stop offset="0.67" stop-color="#9D9D9D"/>
<stop offset="0.71" stop-color="#CCCCCC"/>
<stop offset="0.98" stop-color="#CCCCCC"/>
<stop offset="1" stop-color="#E7E7E7"/>
</linearGradient>
<linearGradient id="paint1_linear_788_7363" x1="156.494" y1="81.3102" x2="0.432617" y2="81.3102" gradientUnits="userSpaceOnUse">
<stop stop-color="#1C1C1C"/>
<stop offset="0.04" stop-color="#262626"/>
<stop offset="0.62" stop-color="#272727"/>
<stop offset="0.65" stop-color="#383838"/>
<stop offset="0.67" stop-color="#3E3E3E"/>
<stop offset="0.71" stop-color="#595959"/>
<stop offset="0.98" stop-color="#595959"/>
<stop offset="1" stop-color="#686868"/>
</linearGradient>
<linearGradient id="paint2_linear_788_7363" x1="68.2242" y1="103.325" x2="75.6305" y2="90.4945" gradientUnits="userSpaceOnUse">
<stop stop-color="#181818"/>
<stop offset="0.27" stop-color="#262626"/>
<stop offset="0.77" stop-color="#2E2E2E"/>
</linearGradient>
<linearGradient id="paint3_linear_788_7363" x1="75.0911" y1="99.9848" x2="71.9556" y2="94.5604" gradientUnits="userSpaceOnUse">
<stop stop-color="#2A2A2A"/>
<stop offset="0.02" stop-color="#282828"/>
<stop offset="0.23" stop-color="#202020"/>
<stop offset="0.58" stop-color="#1E1E1E"/>
<stop offset="0.64" stop-color="#1C1C1C"/>
<stop offset="1" stop-color="#1A1A1A"/>
</linearGradient>
<linearGradient id="paint4_linear_788_7363" x1="71.6108" y1="101.631" x2="75.8628" y2="94.2715" gradientUnits="userSpaceOnUse">
<stop offset="0.23" stop-color="#383838"/>
<stop offset="0.73" stop-color="#292929"/>
<stop offset="1" stop-color="#262626"/>
</linearGradient>
<linearGradient id="paint5_linear_788_7363" x1="73.6582" y1="102.804" x2="77.9009" y2="95.4443" gradientUnits="userSpaceOnUse">
<stop offset="0.23" stop-color="#383838"/>
<stop offset="0.73" stop-color="#292929"/>
<stop offset="1" stop-color="#262626"/>
</linearGradient>
<linearGradient id="paint6_linear_788_7363" x1="76.9793" y1="102.115" x2="72.9971" y2="95.2208" gradientUnits="userSpaceOnUse">
<stop stop-color="#2A2A2A"/>
<stop offset="0.02" stop-color="#282828"/>
<stop offset="0.23" stop-color="#202020"/>
<stop offset="0.58" stop-color="#1E1E1E"/>
<stop offset="0.64" stop-color="#1C1C1C"/>
<stop offset="1" stop-color="#1A1A1A"/>
</linearGradient>
<linearGradient id="paint7_linear_788_7363" x1="76.6815" y1="101.809" x2="72.9225" y2="95.3051" gradientUnits="userSpaceOnUse">
<stop offset="0.18" stop-color="#1A1A1A"/>
<stop offset="0.65" stop-color="#1D1D1D"/>
<stop offset="0.66" stop-color="#1E1E1E"/>
</linearGradient>
<linearGradient id="paint8_linear_788_7363" x1="77.2031" y1="102.404" x2="72.9603" y2="95.0445" gradientUnits="userSpaceOnUse">
<stop offset="0.34" stop-color="#1F1F1F"/>
<stop offset="0.4" stop-color="#1D1D1D"/>
<stop offset="0.82" stop-color="#1A1A1A"/>
</linearGradient>
<linearGradient id="paint9_linear_788_7363" x1="77.3791" y1="102.702" x2="72.7828" y2="94.7372" gradientUnits="userSpaceOnUse">
<stop stop-color="#161616"/>
<stop offset="0.3" stop-color="#1A1A1A"/>
<stop offset="0.79" stop-color="#1D1D1D"/>
<stop offset="0.8" stop-color="#1E1E1E"/>
</linearGradient>
<linearGradient id="paint10_linear_788_7363" x1="77.2307" y1="103.102" x2="71.8529" y2="93.788" gradientUnits="userSpaceOnUse">
<stop stop-color="#141414"/>
<stop offset="0.44" stop-color="#1E1E1E"/>
<stop offset="0.78" stop-color="#202020"/>
<stop offset="0.98" stop-color="#282828"/>
<stop offset="1" stop-color="#2A2A2A"/>
</linearGradient>
<linearGradient id="paint11_linear_788_7363" x1="72.9598" y1="102.646" x2="77.4073" y2="94.9512" gradientUnits="userSpaceOnUse">
<stop stop-color="#D7D7D9"/>
<stop offset="0.19" stop-color="#E2E2E2"/>
<stop offset="0.21" stop-color="#DBDBDD"/>
<stop offset="0.29" stop-color="#CDCDD2"/>
<stop offset="0.38" stop-color="#C5C5CB"/>
<stop offset="0.53" stop-color="#C3C3CA"/>
<stop offset="0.87" stop-color="#B3B4BE"/>
<stop offset="0.88" stop-color="#A5A7B3"/>
</linearGradient>
<linearGradient id="paint12_linear_788_7363" x1="72.513" y1="102.385" x2="76.9604" y2="94.6906" gradientUnits="userSpaceOnUse">
<stop stop-color="#B3B3B5"/>
<stop offset="0.19" stop-color="#BEBEBE"/>
<stop offset="0.21" stop-color="#B8B8B9"/>
<stop offset="0.28" stop-color="#AAAAAE"/>
<stop offset="0.37" stop-color="#A2A2A7"/>
<stop offset="0.53" stop-color="#A0A0A6"/>
<stop offset="0.87" stop-color="#91929A"/>
<stop offset="0.88" stop-color="#84858F"/>
</linearGradient>
<linearGradient id="paint13_linear_788_7363" x1="74.4489" y1="97.2487" x2="72.6718" y2="97.7604" gradientUnits="userSpaceOnUse">
<stop stop-color="#ADAEB8"/>
<stop offset="0.08" stop-color="#BABBC5"/>
<stop offset="0.2" stop-color="#C9CBD3"/>
<stop offset="0.34" stop-color="#D2D4DC"/>
<stop offset="0.55" stop-color="#D5D7DF"/>
<stop offset="0.66" stop-color="#C0C1CA"/>
<stop offset="1" stop-color="#868490"/>
</linearGradient>
<linearGradient id="paint14_linear_788_7363" x1="73.6206" y1="100.616" x2="72.1785" y2="100.03" gradientUnits="userSpaceOnUse">
<stop stop-color="#ADAEB8"/>
<stop offset="0.08" stop-color="#BABBC5"/>
<stop offset="0.2" stop-color="#C9CBD3"/>
<stop offset="0.34" stop-color="#D2D4DC"/>
<stop offset="0.55" stop-color="#D5D7DF"/>
<stop offset="0.66" stop-color="#C0C1CA"/>
<stop offset="1" stop-color="#868490"/>
</linearGradient>
<linearGradient id="paint15_linear_788_7363" x1="76.0494" y1="97.686" x2="75.2213" y2="96.2438" gradientUnits="userSpaceOnUse">
<stop stop-color="#ADAEB8"/>
<stop offset="0.08" stop-color="#BABBC5"/>
<stop offset="0.2" stop-color="#C9CBD3"/>
<stop offset="0.34" stop-color="#D2D4DC"/>
<stop offset="0.55" stop-color="#D5D7DF"/>
<stop offset="0.66" stop-color="#C0C1CA"/>
<stop offset="1" stop-color="#868490"/>
</linearGradient>
<linearGradient id="paint16_linear_788_7363" x1="76.6074" y1="98.5604" x2="76.6167" y2="98.5324" gradientUnits="userSpaceOnUse">
<stop stop-color="#B3B3B5"/>
<stop offset="0.19" stop-color="#BEBEBE"/>
<stop offset="0.21" stop-color="#B8B8B9"/>
<stop offset="0.28" stop-color="#AAAAAE"/>
<stop offset="0.37" stop-color="#A2A2A7"/>
<stop offset="0.53" stop-color="#A0A0A6"/>
<stop offset="0.87" stop-color="#91929A"/>
<stop offset="0.88" stop-color="#84858F"/>
</linearGradient>
<linearGradient id="paint17_linear_788_7363" x1="71.0805" y1="102.013" x2="75.9094" y2="93.6388" gradientUnits="userSpaceOnUse">
<stop offset="0.12" stop-color="#A5A7B3"/>
<stop offset="0.13" stop-color="#B3B4BE"/>
<stop offset="0.47" stop-color="#C3C3CA"/>
<stop offset="0.57" stop-color="#E3E3E3"/>
<stop offset="0.58" stop-color="#E5E6E8"/>
<stop offset="0.63" stop-color="#EBEFF3"/>
<stop offset="0.67" stop-color="#EEF2F7"/>
<stop offset="0.74" stop-color="#ECF0F4"/>
<stop offset="0.78" stop-color="#E7E9EC"/>
<stop offset="0.81" stop-color="#E2E2E2"/>
<stop offset="1" stop-color="#D7D7D9"/>
</linearGradient>
<linearGradient id="paint18_linear_788_7363" x1="113.88" y1="77.1704" x2="121.296" y2="64.3305" gradientUnits="userSpaceOnUse">
<stop stop-color="#181818"/>
<stop offset="0.27" stop-color="#262626"/>
<stop offset="0.77" stop-color="#2E2E2E"/>
</linearGradient>
<linearGradient id="paint19_linear_788_7363" x1="120.746" y1="73.83" x2="117.611" y2="68.3963" gradientUnits="userSpaceOnUse">
<stop stop-color="#2A2A2A"/>
<stop offset="0.02" stop-color="#282828"/>
<stop offset="0.23" stop-color="#202020"/>
<stop offset="0.58" stop-color="#1E1E1E"/>
<stop offset="0.64" stop-color="#1C1C1C"/>
<stop offset="1" stop-color="#1A1A1A"/>
</linearGradient>
<linearGradient id="paint20_linear_788_7363" x1="117.276" y1="75.4676" x2="121.519" y2="68.1172" gradientUnits="userSpaceOnUse">
<stop offset="0.23" stop-color="#383838"/>
<stop offset="0.73" stop-color="#292929"/>
<stop offset="1" stop-color="#262626"/>
</linearGradient>
<linearGradient id="paint21_linear_788_7363" x1="119.323" y1="76.64" x2="123.566" y2="69.2896" gradientUnits="userSpaceOnUse">
<stop offset="0.23" stop-color="#383838"/>
<stop offset="0.73" stop-color="#292929"/>
<stop offset="1" stop-color="#262626"/>
</linearGradient>
<linearGradient id="paint22_linear_788_7363" x1="122.644" y1="75.9605" x2="118.662" y2="69.0567" gradientUnits="userSpaceOnUse">
<stop stop-color="#2A2A2A"/>
<stop offset="0.02" stop-color="#282828"/>
<stop offset="0.23" stop-color="#202020"/>
<stop offset="0.58" stop-color="#1E1E1E"/>
<stop offset="0.64" stop-color="#1C1C1C"/>
<stop offset="1" stop-color="#1A1A1A"/>
</linearGradient>
<linearGradient id="paint23_linear_788_7363" x1="122.337" y1="75.6535" x2="118.588" y2="69.1498" gradientUnits="userSpaceOnUse">
<stop offset="0.18" stop-color="#1A1A1A"/>
<stop offset="0.65" stop-color="#1D1D1D"/>
<stop offset="0.66" stop-color="#1E1E1E"/>
</linearGradient>
<linearGradient id="paint24_linear_788_7363" x1="122.868" y1="76.2401" x2="118.625" y2="68.8804" gradientUnits="userSpaceOnUse">
<stop offset="0.34" stop-color="#1F1F1F"/>
<stop offset="0.4" stop-color="#1D1D1D"/>
<stop offset="0.82" stop-color="#1A1A1A"/>
</linearGradient>
<linearGradient id="paint25_linear_788_7363" x1="123.044" y1="76.547" x2="118.448" y2="68.5732" gradientUnits="userSpaceOnUse">
<stop stop-color="#161616"/>
<stop offset="0.3" stop-color="#1A1A1A"/>
<stop offset="0.79" stop-color="#1D1D1D"/>
<stop offset="0.8" stop-color="#1E1E1E"/>
</linearGradient>
<linearGradient id="paint26_linear_788_7363" x1="122.896" y1="76.9376" x2="117.518" y2="67.6333" gradientUnits="userSpaceOnUse">
<stop stop-color="#141414"/>
<stop offset="0.44" stop-color="#1E1E1E"/>
<stop offset="0.78" stop-color="#202020"/>
<stop offset="0.98" stop-color="#282828"/>
<stop offset="1" stop-color="#2A2A2A"/>
</linearGradient>
<linearGradient id="paint27_linear_788_7363" x1="118.626" y1="76.4911" x2="123.073" y2="68.7871" gradientUnits="userSpaceOnUse">
<stop stop-color="#D7D7D9"/>
<stop offset="0.19" stop-color="#E2E2E2"/>
<stop offset="0.21" stop-color="#DBDBDD"/>
<stop offset="0.29" stop-color="#CDCDD2"/>
<stop offset="0.38" stop-color="#C5C5CB"/>
<stop offset="0.53" stop-color="#C3C3CA"/>
<stop offset="0.87" stop-color="#B3B4BE"/>
<stop offset="0.88" stop-color="#A5A7B3"/>
</linearGradient>
<linearGradient id="paint28_linear_788_7363" x1="118.179" y1="76.2213" x2="122.626" y2="68.5266" gradientUnits="userSpaceOnUse">
<stop stop-color="#B3B3B5"/>
<stop offset="0.19" stop-color="#BEBEBE"/>
<stop offset="0.21" stop-color="#B8B8B9"/>
<stop offset="0.28" stop-color="#AAAAAE"/>
<stop offset="0.37" stop-color="#A2A2A7"/>
<stop offset="0.53" stop-color="#A0A0A6"/>
<stop offset="0.87" stop-color="#91929A"/>
<stop offset="0.88" stop-color="#84858F"/>
</linearGradient>
<linearGradient id="paint29_linear_788_7363" x1="120.105" y1="71.0846" x2="118.328" y2="71.5964" gradientUnits="userSpaceOnUse">
<stop stop-color="#ADAEB8"/>
<stop offset="0.08" stop-color="#BABBC5"/>
<stop offset="0.2" stop-color="#C9CBD3"/>
<stop offset="0.34" stop-color="#D2D4DC"/>
<stop offset="0.55" stop-color="#D5D7DF"/>
<stop offset="0.66" stop-color="#C0C1CA"/>
<stop offset="1" stop-color="#868490"/>
</linearGradient>
<linearGradient id="paint30_linear_788_7363" x1="119.286" y1="74.4524" x2="117.843" y2="73.8756" gradientUnits="userSpaceOnUse">
<stop stop-color="#ADAEB8"/>
<stop offset="0.08" stop-color="#BABBC5"/>
<stop offset="0.2" stop-color="#C9CBD3"/>
<stop offset="0.34" stop-color="#D2D4DC"/>
<stop offset="0.55" stop-color="#D5D7DF"/>
<stop offset="0.66" stop-color="#C0C1CA"/>
<stop offset="1" stop-color="#868490"/>
</linearGradient>
<linearGradient id="paint31_linear_788_7363" x1="121.714" y1="71.5214" x2="120.886" y2="70.0886" gradientUnits="userSpaceOnUse">
<stop stop-color="#ADAEB8"/>
<stop offset="0.08" stop-color="#BABBC5"/>
<stop offset="0.2" stop-color="#C9CBD3"/>
<stop offset="0.34" stop-color="#D2D4DC"/>
<stop offset="0.55" stop-color="#D5D7DF"/>
<stop offset="0.66" stop-color="#C0C1CA"/>
<stop offset="1" stop-color="#868490"/>
</linearGradient>
<linearGradient id="paint32_linear_788_7363" x1="122.272" y1="72.3963" x2="122.282" y2="72.3684" gradientUnits="userSpaceOnUse">
<stop stop-color="#B3B3B5"/>
<stop offset="0.19" stop-color="#BEBEBE"/>
<stop offset="0.21" stop-color="#B8B8B9"/>
<stop offset="0.28" stop-color="#AAAAAE"/>
<stop offset="0.37" stop-color="#A2A2A7"/>
<stop offset="0.53" stop-color="#A0A0A6"/>
<stop offset="0.87" stop-color="#91929A"/>
<stop offset="0.88" stop-color="#84858F"/>
</linearGradient>
<linearGradient id="paint33_linear_788_7363" x1="116.746" y1="75.8486" x2="121.575" y2="67.4747" gradientUnits="userSpaceOnUse">
<stop offset="0.12" stop-color="#A5A7B3"/>
<stop offset="0.13" stop-color="#B3B4BE"/>
<stop offset="0.47" stop-color="#C3C3CA"/>
<stop offset="0.57" stop-color="#E3E3E3"/>
<stop offset="0.58" stop-color="#E5E6E8"/>
<stop offset="0.63" stop-color="#EBEFF3"/>
<stop offset="0.67" stop-color="#EEF2F7"/>
<stop offset="0.74" stop-color="#ECF0F4"/>
<stop offset="0.78" stop-color="#E7E9EC"/>
<stop offset="0.81" stop-color="#E2E2E2"/>
<stop offset="1" stop-color="#D7D7D9"/>
</linearGradient>
<clipPath id="clip0_788_7363">
<rect width="169.246" height="130" fill="white" transform="translate(0.376953)"/>
</clipPath>
</defs>
</svg>
