<svg width="120" height="120" viewBox="0 0 120 120" fill="none" xmlns="http://www.w3.org/2000/svg">
<g clip-path="url(#clip0_788_6921)">
<path d="M63.4109 59.6196L90.9873 75.5699L87.6377 81.383L60.0613 65.4326C59.636 65.1845 59.3701 64.6528 59.3701 63.8907C59.3701 62.3843 60.4335 60.5411 61.745 59.7791C62.4007 59.4069 62.9855 59.3714 63.4286 59.6196H63.4109Z" fill="#303033"/>
<path d="M89.3211 75.729C88.0096 76.491 86.9463 78.3165 86.9463 79.8406C86.9463 81.3648 88.0096 81.9673 89.3211 81.2053C90.6326 80.4432 91.696 78.6178 91.696 77.0936C91.696 75.5695 90.6326 74.9669 89.3211 75.729Z" fill="#121214"/>
<path d="M89.7824 76.757C89.8356 76.8988 89.871 77.0583 89.871 77.2355C89.871 78.0862 89.2685 79.1141 88.5418 79.5394C88.3823 79.628 88.2228 79.6812 88.0811 79.7167C88.276 80.1952 88.7545 80.3192 89.3216 80.0002C90.0483 79.5749 90.6508 78.547 90.6508 77.6963C90.6508 77.0405 90.2964 76.6861 89.7824 76.757Z" fill="#303033"/>
<path d="M89.7822 76.7578C89.6404 76.7755 89.4809 76.8287 89.3214 76.935C88.5948 77.3604 87.9922 78.3883 87.9922 79.239C87.9922 79.4162 88.0276 79.5934 88.0808 79.7175C88.2226 79.6998 88.3821 79.6466 88.5416 79.5403C89.2682 79.1149 89.8708 78.087 89.8708 77.2363C89.8708 77.0414 89.8353 76.8819 89.7822 76.7578Z" fill="black"/>
<path d="M88.0637 73.6557L84.9268 75.4634V73.8507L88.0637 72.043V73.6557Z" fill="#121214"/>
<path d="M88.0637 72.043L84.9268 73.8507L63.9609 61.7462L67.0978 59.9385L88.0637 72.043Z" fill="#121214"/>
<path d="M84.9268 75.4634L63.9609 63.3589V61.7461L84.9268 73.8507V75.4634Z" fill="#81888F"/>
<path d="M87.7277 68.5693C87.7277 68.392 87.6037 68.1616 87.4441 68.073L67.7011 56.6774C67.7011 56.6774 67.5593 56.6242 67.5062 56.6596L66.3896 57.3154L66.62 57.7407L66.7264 57.6876L66.4605 60.3282L86.6289 71.972L86.9656 72.6986L88.0822 72.0606L87.7631 68.587L87.7277 68.5693Z" fill="#121214"/>
<path d="M66.5842 57.3155L86.3272 68.7112C86.4867 68.7998 86.6107 69.0124 86.6107 69.2074L86.9298 72.681L65.9639 60.5765L66.2829 57.475C66.2829 57.2978 66.4069 57.2269 66.5664 57.3155H66.5842Z" fill="#535359"/>
<path d="M114.895 45.7781C114.895 43.2969 113.141 40.2663 110.996 39.0257L44.3239 0.532156C43.2428 -0.088136 42.2503 -0.141304 41.5414 0.284039L40.6553 0.797996C40.8148 0.709383 40.9743 0.656215 41.1338 0.603047C41.1338 0.603047 41.1692 0.603047 41.2047 0.603047C41.2224 0.603047 41.2401 0.603047 41.2756 0.603047C41.311 0.603047 41.3287 0.603047 41.3642 0.603047C41.3819 0.603047 41.4173 0.603047 41.4351 0.603047C41.4528 0.603047 41.4882 0.603047 41.506 0.603047C41.5414 0.603047 41.5946 0.603047 41.63 0.603047H41.6832C41.6832 0.603047 41.7718 0.603047 41.8072 0.603047C41.825 0.603047 41.8427 0.603047 41.8604 0.603047C41.9136 0.603047 41.949 0.603047 42.0022 0.603047C42.4275 0.656215 42.906 0.815719 43.4023 1.117L110.075 39.6106C112.219 40.8512 113.974 43.8817 113.974 46.3629L118.458 87.4972C118.458 88.4719 118.192 89.2163 117.731 89.6948C117.607 89.8543 117.359 90.0138 117.359 90.0138L118.369 89.4112C118.989 88.9681 119.379 88.1352 119.379 86.9832L114.895 45.849V45.7781Z" fill="#47474D"/>
<path opacity="0.2" d="M115.48 89.1634L39.8222 45.4771C37.6778 44.2365 35.9232 41.2059 35.9232 38.7248L40.4248 2.78326C40.4248 1.82623 40.6906 1.08188 41.1337 0.621094C40.159 0.851488 39.5209 1.82623 39.5209 3.31494L35.0371 39.2565C35.0371 41.7376 36.7917 44.7682 38.9361 46.0088L114.576 89.6774C115.888 90.4394 117.04 90.3508 117.749 89.6242C117.111 89.7837 116.331 89.6419 115.48 89.1634Z" fill="#174666"/>
<path d="M113.974 46.2918L118.458 87.4261C118.458 89.9073 116.703 90.9174 114.559 89.6769L38.9185 46.0083C36.7741 44.7677 35.0195 41.7371 35.0195 39.2559L39.5034 3.31444C39.5034 0.833266 41.2579 -0.176925 43.4023 1.06366L110.075 39.5572C112.219 40.7978 113.974 43.8284 113.974 46.3096V46.2918Z" fill="#81888F"/>
<path d="M43.2255 6.82324L39.043 40.2304L114.435 83.7395L110.253 45.5118L43.2255 6.82324Z" fill="#E6DAB0"/>
<path d="M59.5485 52.0512L57.1914 50.7043V14.8691L59.5485 16.2338V52.0512Z" fill="#059FF9"/>
<path d="M111.05 81.7895L96.3584 56.3398L98.0243 55.3828L114.382 83.7036L111.05 81.7895Z" fill="#059FF9"/>
<path d="M49.5879 46.3089L57.758 41.5947L59.4417 44.4658L52.9197 48.223L49.5879 46.3089Z" fill="#059FF9"/>
<path d="M77.9446 42.8354L41.3651 21.71L40.9043 25.3254L77.9446 46.7166V42.8354Z" fill="#059FF9"/>
<path d="M93.965 54.0182C93.965 59.6008 90.0483 61.8693 85.2101 59.0692C80.3895 56.2867 76.4551 49.4812 76.4551 43.8986C76.4551 38.3159 80.3895 36.0652 85.2101 38.8476C90.0306 41.6301 93.965 48.4356 93.965 54.0005V54.0182ZM90.9699 52.2991C90.9699 48.6305 88.3824 44.1644 85.2101 42.3213C82.0377 40.4958 79.4502 41.9845 79.4502 45.6531C79.4502 49.3217 82.0377 53.8055 85.2101 55.631C88.3824 57.4564 90.9699 55.9677 90.9699 52.2991Z" fill="#059FF9"/>
<path d="M112.113 62.5612L92.459 51.2188V55.1L112.574 66.7083L112.113 62.5612Z" fill="#059FF9"/>
<path d="M88.7372 51.0054C88.7372 48.7546 87.1599 46.0076 85.2104 44.8911C83.2609 43.7569 81.6836 44.6784 81.6836 46.9292C81.6836 49.18 83.2609 51.927 85.2104 53.0435C87.1599 54.1778 88.7372 53.2562 88.7372 51.0054Z" fill="#16A89F"/>
<path d="M72.3442 25.3784L61.8701 19.335V31.4218L72.3442 37.4829V25.3784Z" fill="#6D7D8C"/>
<path d="M49.9775 12.459L55.2589 15.525V27.5941L49.9775 24.5281V12.459Z" fill="#BCBEC0"/>
<path d="M43.0131 8.4541L48.4717 11.591V23.6778L41.6484 19.7257L43.0131 8.4541Z" fill="#6D7D8C"/>
<path d="M99.3527 40.9747L95.3828 38.6885V51.2716L99.3527 53.5578V40.9747Z" fill="#BCBEC0"/>
<path d="M97.368 39.1141C95.8615 38.2457 94.6387 38.9546 94.6387 40.6914C94.6387 42.4283 97.368 48.3653 97.368 48.3653C97.368 48.3653 100.115 45.6006 100.115 43.8638C100.115 42.127 98.8921 40.0003 97.368 39.1318V39.1141ZM97.368 43.7752C96.6945 43.3853 96.1451 42.446 96.1451 41.6485C96.1451 40.8509 96.6945 40.5497 97.368 40.9396C98.0414 41.3295 98.5908 42.2865 98.5908 43.0663C98.5908 43.8461 98.0414 44.1651 97.368 43.7752Z" fill="#E31B25"/>
<path d="M107.506 45.6889L101.392 42.1621V54.7452L107.506 58.2543V45.6889Z" fill="#6D7D8C"/>
<path d="M74.5059 31.0142L92.9197 41.6301V37.2526L74.5059 26.6367V31.0142Z" fill="#BCBEC0"/>
<path d="M67.0983 56.4111L61.8701 53.3983V39.167L67.0983 42.1976V56.4111Z" fill="#BCBEC0"/>
<path d="M82.5166 61.976L69.5791 54.4971V57.8466L82.5166 65.3079V61.976Z" fill="#BCBEC0"/>
<path d="M48.7727 44.1647L41.4355 39.929L42.7825 28.1611L54.5149 34.9312V40.8505L48.7727 44.1647Z" fill="#16A89F"/>
<path d="M103.093 73.4246L84.6787 62.791V66.5659L106.389 79.0958L103.093 73.4246Z" fill="#16A89F"/>
<path d="M98.644 63.0572L93.5576 60.1152V66.1055L98.644 69.0474V63.0572Z" fill="#6D7D8C"/>
<path d="M114.045 80.177L103.996 63.0215L112.716 68.0724L114.045 80.177Z" fill="#16A89F"/>
<path d="M74.2045 42.6055L70.4827 38.9015L71.0853 40.4965L58.1123 33.0176V51.2187L58.6263 51.5377V33.9214L71.0853 41.0991L70.4827 42.0207L74.2045 42.6055Z" fill="#BD52FF"/>
<path d="M85.7064 69.7212C85.7064 69.544 85.5823 69.3136 85.4228 69.225L65.6798 57.8293C65.6798 57.8293 65.5203 57.7761 65.4848 57.8293L64.3506 58.4673L64.581 58.8927L64.6873 58.8395L64.4215 61.4802L84.5898 73.1239L84.9266 73.8506L86.0431 73.2125L85.7241 69.7389L85.7064 69.7212Z" fill="#121214"/>
<path d="M64.5637 58.4854L84.3067 69.8811C84.4662 69.9697 84.5902 70.2001 84.5902 70.3773L84.9092 73.8509L63.9434 61.7464L64.2624 58.6449C64.2624 58.4677 64.3864 58.3968 64.5459 58.4854H64.5637Z" fill="#81888F"/>
<path d="M111.777 96.2696L38.9187 54.1961C36.7743 52.9555 33.2652 52.9555 31.1208 54.1961L3.50891 75.0911L0.620117 74.2049V78.352C0.63784 79.1495 1.16952 79.9471 2.23288 80.5674L68.9054 119.061C71.0499 120.302 74.559 120.302 76.7034 119.061L114.577 102.384C115.658 101.764 116.189 100.948 116.189 100.133V95.986L111.794 96.2696H111.777Z" fill="#5F5F66"/>
<path d="M68.9059 114.913L2.23333 76.4199C0.0888901 75.1793 0.0888901 73.1589 2.23333 71.9183L31.1212 50.0486C33.2657 48.808 36.7748 48.808 38.9192 50.0486L114.559 93.7349C116.704 94.9755 116.704 96.9959 114.559 98.2365L76.6861 114.913C74.5417 116.154 71.0326 116.154 68.8882 114.913H68.9059Z" fill="#81888F"/>
<path d="M3.40234 72.5922L32.2902 50.7402L43.8986 55.3304L100.327 88.4186L113.389 97.5634L75.5335 114.24L54.2663 103.536L14.9575 80.851L3.40234 72.5922Z" fill="#121214"/>
<path d="M7.12402 73.3894L33.9738 53.0615L109.348 96.5883L74.1688 112.096L7.12402 73.3894Z" fill="#E6DAB0"/>
<path d="M54.4793 64.8998L52.1222 63.5352L21.0898 81.4527L23.447 82.8174L54.4793 64.8998Z" fill="#059FF9"/>
<path d="M105.963 94.6387H76.5967V96.5527H109.295L105.963 94.6387Z" fill="#059FF9"/>
<path d="M44.5186 59.1582V68.5866H47.8504V61.0722L44.5186 59.1582Z" fill="#059FF9"/>
<path d="M55.6842 85.4589L19.0869 64.3335L22.0111 62.1182L59.0515 83.5094L55.6842 85.4589Z" fill="#059FF9"/>
<path d="M55.8615 93.7171C51.041 90.9346 51.041 86.3976 55.8615 83.6152C60.6821 80.8327 68.5509 80.8327 73.3715 83.6152C78.192 86.3976 78.192 90.9346 73.3715 93.7171C68.5509 96.4995 60.6998 96.4995 55.8615 93.7171ZM70.3764 85.3343C67.204 83.5088 62.029 83.5088 58.8566 85.3343C55.6843 87.1774 55.6843 90.1548 58.8566 91.9802C62.029 93.8234 67.204 93.8234 70.3764 91.9802C73.5487 90.1371 73.5487 87.1597 70.3764 85.3343Z" fill="#059FF9"/>
<path d="M89.8536 105.184L70.1992 93.8411L73.5665 91.8916L93.664 103.5L89.8536 105.184Z" fill="#059FF9"/>
<path d="M68.1604 90.7218C66.2109 91.8383 63.0386 91.8383 61.0891 90.7218C59.1396 89.5876 59.1396 87.7621 61.0891 86.6456C63.0386 85.5114 66.2109 85.5114 68.1604 86.6456C70.1099 87.7799 70.1099 89.6053 68.1604 90.7218Z" fill="#16A89F"/>
<path d="M37.7661 89.3223L27.292 83.2789L37.7661 77.2178L48.2402 83.2789L37.7661 89.3223Z" fill="#6D7D8C"/>
<path d="M15.4004 76.4027L20.6817 79.4509L31.1381 73.4252L25.8567 70.377L15.4004 76.4027Z" fill="#BCBEC0"/>
<path d="M8.43555 72.3966L13.8941 75.5335L24.3505 69.5078L17.5273 65.5557L8.43555 72.3966Z" fill="#6D7D8C"/>
<path d="M64.7755 104.918L60.8057 102.631L71.7051 96.3398L75.675 98.6261L64.7755 104.918Z" fill="#BCBEC0"/>
<path d="M67.6647 104.049C69.1711 103.181 70.199 99.4238 70.199 99.4238C70.199 99.4238 63.6948 100.026 62.1884 100.895C60.682 101.763 60.682 103.181 62.1884 104.049C63.6948 104.918 66.1406 104.918 67.6647 104.049ZM66.2292 103.128C65.5557 103.518 64.4569 103.518 63.7834 103.128C63.11 102.738 63.11 102.1 63.7834 101.71C64.4569 101.32 65.5557 101.32 66.2292 101.71C66.9026 102.1 66.9026 102.738 66.2292 103.128Z" fill="#E31B25"/>
<path d="M72.9278 109.614L66.8135 106.105L77.7129 99.8135L83.8272 103.323L72.9278 109.614Z" fill="#6D7D8C"/>
<path d="M43.7214 88.3828L62.1352 99.0164L58.3425 101.196L39.9287 90.5804L43.7214 88.3828Z" fill="#BCBEC0"/>
<path d="M62.029 69.2599L56.7831 66.2471L44.4658 73.3538L49.7117 76.3667L62.029 69.2599Z" fill="#BCBEC0"/>
<path d="M74.541 79.8402L61.6035 72.3612L64.4923 70.6953L77.4476 78.1565L74.541 79.8402Z" fill="#BCBEC0"/>
<path d="M42.2507 59.5121L34.9135 55.2764L25.3965 62.33L37.1112 69.1L42.2507 66.1403V59.5121Z" fill="#16A89F"/>
<path d="M94.7447 91.9272L76.3486 81.2936L79.6096 79.415L101.302 91.9449L94.7447 91.9272Z" fill="#16A89F"/>
<path d="M83.5444 93.274L78.458 90.332L83.6507 87.3369L88.7371 90.2789L83.5444 93.274Z" fill="#6D7D8C"/>
<path d="M106.069 98.0412L86.1846 97.8994L94.9218 102.933L106.069 98.0412Z" fill="#16A89F"/>
<path d="M53.6109 82.3217L51.2538 79.3797L50.7576 80.3545L38.3163 73.1768L53.5578 64.3687L53.0261 64.0674L37.2529 73.1768L50.2259 80.6735L48.5423 80.9571L53.6109 82.3217Z" fill="#BD52FF"/>
<path d="M75.5334 114.24C74.027 115.108 71.5813 115.108 70.0749 114.24L3.40228 75.7464C1.89585 74.878 1.89585 73.4602 3.40228 72.5918L75.5334 114.24Z" fill="black"/>
<path d="M32.29 50.7402C33.7965 49.8718 36.2422 49.8718 37.7486 50.7402L113.389 94.4088C114.895 95.2772 114.895 96.695 113.389 97.5634L32.29 50.7402Z" fill="black"/>
</g>
<defs>
<clipPath id="clip0_788_6921">
<rect width="118.759" height="120" fill="white" transform="translate(0.620117)"/>
</clipPath>
</defs>
</svg>
