<svg width="60" height="60" viewBox="0 0 60 60" fill="none" xmlns="http://www.w3.org/2000/svg">
<mask id="path-1-inside-1_729_4216" fill="white">
<path d="M60 30C60 13.4315 46.5685 0 30 0V0C13.4315 0 0 13.4315 0 30V30C0 46.5685 13.4315 60 30 60V60C46.5685 60 60 46.5685 60 30V30Z"/>
</mask>
<path d="M60 30C60 13.4315 46.5685 0 30 0V0C13.4315 0 0 13.4315 0 30V30C0 46.5685 13.4315 60 30 60V60C46.5685 60 60 46.5685 60 30V30Z" fill="#B42535"/>
<g clip-path="url(#clip0_729_4216)">
<path d="M23 30L37 30" stroke="white" stroke-width="2" stroke-linecap="round" stroke-linejoin="round"/>
<path d="M30 37L23 30L30 23" stroke="white" stroke-width="2" stroke-linecap="round" stroke-linejoin="round"/>
</g>
<path d="M60 0L0 0L60 0ZM0 34C0 50.5685 13.4315 64 30 64C46.5685 64 60 50.5685 60 34V30C60 44.3594 46.5685 56 30 56C13.4315 56 0 44.3594 0 30V34ZM60 60L60 0L60 60ZM0 0L0 60L0 0Z" fill="#701721" mask="url(#path-1-inside-1_729_4216)"/>
<defs>
<clipPath id="clip0_729_4216">
<rect width="24" height="24" fill="white" transform="matrix(-1 0 0 1 42 18)"/>
</clipPath>
</defs>
</svg>
