<svg width="19" height="18" viewBox="0 0 19 18" fill="none" xmlns="http://www.w3.org/2000/svg">
<g clip-path="url(#clip0_754_4983)">
<path d="M18.3843 10.4427C19.1807 5.53638 15.8489 0.91338 10.9426 0.116967C6.03625 -0.679445 1.41325 2.65231 0.616836 7.55866C-0.179576 12.465 3.15218 17.088 8.05853 17.8844C12.9649 18.6808 17.5879 15.3491 18.3843 10.4427Z" fill="#5AB1C7"/>
<path d="M15.1671 4.19611C15.259 4.24537 15.3452 4.30411 15.4409 4.34674C15.5442 4.39222 15.529 4.34864 15.5205 4.3259C15.5281 4.33537 15.5347 4.34485 15.5423 4.35527C15.5451 4.33822 15.547 4.32495 15.5754 4.31643L15.5735 4.31169C15.5666 4.2719 15.5773 4.23558 15.6057 4.20274C15.5991 4.24064 15.6124 4.27948 15.6029 4.31832C15.5972 4.31927 15.5906 4.32116 15.5858 4.32306C15.5858 4.32306 15.5849 4.32306 15.5839 4.32306C15.5972 4.37895 15.5953 4.38369 15.5906 4.40264C15.5858 4.40264 15.5792 4.40264 15.5745 4.39979C15.5745 4.39979 15.5735 4.39885 15.5726 4.3979C15.601 4.43485 15.6474 4.44432 15.6815 4.47274C15.6796 4.49453 15.6626 4.60537 15.5262 4.65937C15.6863 4.7939 15.8037 5.02222 15.9667 5.33864C15.9591 5.32285 15.9547 5.31148 15.9534 5.30453C15.9534 5.30453 16.1041 5.51674 16.1022 5.63043C16.1003 5.63232 16.0984 5.63422 16.0965 5.63611C16.0472 5.60769 16.0538 5.54516 16.0178 5.50916C16.0159 5.512 16.0141 5.51485 16.0122 5.51769C16.0169 5.53664 16.0283 5.55274 16.0311 5.57169C16.0216 5.56285 16.0134 5.55874 16.0065 5.55937C16.0084 5.59064 16.0311 5.61906 16.0197 5.65127C16.0036 5.64748 15.9648 5.61622 15.9847 5.58969C15.9809 5.5859 15.9743 5.58211 15.9686 5.58022C15.9601 5.59158 15.9544 5.59916 15.9781 5.65695C15.961 5.65222 15.9544 5.65127 15.9307 5.65222H15.9222C15.8947 5.65222 15.8909 5.65032 15.8729 5.64369C15.8757 5.65979 15.8852 5.70716 15.8738 5.76969C15.8577 5.84169 15.8198 5.78674 15.8066 5.76969C15.7933 5.75074 15.7867 5.73937 15.7696 5.71C15.7734 5.7299 15.7772 5.74979 15.781 5.76969C15.781 5.77443 15.7829 5.78011 15.7838 5.7839C15.7895 5.81801 15.7962 5.85211 15.8018 5.88622C15.7696 5.86253 15.7545 5.85874 15.7459 5.87106C15.7403 5.87864 15.7403 5.90327 15.7403 5.91464C15.7403 5.95443 15.7403 5.962 15.7346 5.97906C15.6825 5.91843 15.6361 5.88622 15.5754 5.86916C15.6256 5.86632 15.6465 5.83601 15.6749 5.76874C15.6995 5.70811 15.7099 5.68632 15.7403 5.66453C15.6702 5.57832 15.4542 5.66169 15.4229 5.74411C15.4428 5.75074 15.4485 5.75358 15.4693 5.76874C15.5745 5.85495 15.637 6.02643 15.6493 6.09085C15.6664 6.1799 15.6275 6.16664 15.6171 6.15811C15.5356 6.09558 15.4977 5.9999 15.4333 5.92411C15.4333 5.92411 15.4311 5.92253 15.4267 5.91937C15.4267 5.91937 15.4238 5.92411 15.4219 5.9459C15.4125 5.92032 15.4068 5.91085 15.3755 5.87864C15.3386 5.84074 15.3329 5.81895 15.3471 5.76779C15.3689 5.69958 15.4864 5.36611 15.7043 5.49116C15.5783 5.24769 15.6332 5.24579 15.6664 5.24579C15.7317 5.24485 15.7327 4.94358 15.4911 4.71527C15.5214 4.73611 15.5574 4.74937 15.5839 4.77495C15.5738 4.75979 15.5517 4.73074 15.5176 4.68779C15.5176 4.68779 15.5176 4.68969 15.5176 4.69632C15.5101 4.7039 15.5053 4.70864 15.4712 4.69632C15.4684 4.69537 15.2116 4.56558 15.3594 4.48601C15.3424 4.47937 15.3206 4.46422 15.3111 4.44906C15.2666 4.37801 15.2401 4.29653 15.1965 4.22548C15.1879 4.21601 15.1766 4.20369 15.1681 4.19516L15.1671 4.19611ZM5.95205 1.23464C5.97763 1.23085 6.00605 1.21664 6.07331 1.18253C6.15573 1.14085 6.1671 1.13611 6.18226 1.1399C6.18605 1.14748 6.18226 1.16453 6.12068 1.19769C6.13395 1.20432 6.15195 1.20337 6.2031 1.19295C6.24195 1.18443 6.24668 1.18443 6.26658 1.18253C6.27416 1.1579 6.2751 1.15127 6.26563 1.13706C6.25142 1.11716 6.22584 1.11432 6.20689 1.10106C6.24289 1.09916 6.31016 1.09632 6.42952 1.07643C6.52426 1.06032 6.49395 1.00916 6.49395 1.00916C6.48258 1.00158 6.457 1.00158 6.44279 1.00253C6.34616 1.00916 6.259 1.03664 6.23247 1.05085C6.23247 1.05179 6.23247 1.05274 6.23247 1.05369C6.21921 1.05558 6.205 1.05369 6.19268 1.05843C6.187 1.06032 6.18605 1.06885 6.17942 1.06979C6.18605 1.07264 6.19079 1.07453 6.20689 1.07548C6.20121 1.07737 6.19458 1.08022 6.18889 1.08306C6.16426 1.07074 6.14058 1.07927 6.10742 1.11243C6.10552 1.09822 6.08373 1.08685 6.097 1.07074C6.08563 1.07548 6.05152 1.09158 6.02405 1.08022C6.02026 1.07832 6.01458 1.08022 6.01173 1.08116C5.99752 1.08969 5.99279 1.10958 5.97668 1.11622C5.97858 1.11053 5.97858 1.10611 5.97668 1.10295C5.96437 1.10295 5.94731 1.13043 5.95205 1.13706C5.95963 1.14843 5.96531 1.13706 5.97289 1.1219C6.00984 1.13232 6.04868 1.11622 6.08468 1.13137C5.97289 1.17432 5.91479 1.19958 5.91037 1.20716C5.91605 1.22327 5.95395 1.23369 5.95489 1.23369L5.95205 1.23464ZM3.80816 2.03611C3.86121 2.00295 4.10563 1.83622 4.10752 1.83432C4.10468 1.83716 4.10184 1.84 4.099 1.84285C4.12552 1.83906 4.13216 1.83811 4.21363 1.79169C4.29321 1.74148 4.405 1.74716 4.45616 1.64864C4.43437 1.65053 4.41447 1.66 4.39363 1.66569C4.43342 1.642 4.47321 1.61832 4.51394 1.59653C4.49879 1.61264 4.48079 1.62685 4.46373 1.64106C4.49594 1.63632 4.57647 1.58422 4.5831 1.57664C4.57552 1.57948 4.5651 1.58516 4.55847 1.58895C4.5831 1.57474 4.60773 1.56148 4.63142 1.54443C4.62384 1.54822 4.61437 1.5539 4.60679 1.55769C4.60679 1.55769 4.64279 1.52453 4.71479 1.45822C4.72616 1.46106 4.75458 1.46769 4.76879 1.43453C4.76973 1.43832 4.77068 1.44211 4.77258 1.4459C4.81142 1.45822 4.83037 1.42127 4.86068 1.41179C4.84931 1.41243 4.83479 1.41748 4.8171 1.42695C4.88531 1.38432 4.88816 1.38337 4.9431 1.37295C5.01226 1.35022 5.05679 1.28864 5.12026 1.25737C5.11647 1.25737 5.11173 1.25927 5.10889 1.26022C5.10889 1.25643 5.10889 1.25074 5.10984 1.24695C5.15247 1.22137 5.20742 1.23085 5.24626 1.19579C5.24247 1.19579 5.23868 1.19579 5.23489 1.19579C5.2491 1.18822 5.26616 1.18443 5.27847 1.17306C5.27216 1.17306 5.25668 1.17685 5.23205 1.18443C5.38079 1.10674 5.54468 1.06695 5.69816 1.00253C5.70858 0.997794 5.72184 0.99211 5.73226 0.987373C5.69373 0.977268 5.61068 0.994952 5.4831 1.04043C5.54089 0.952321 5.69247 1.02906 5.72752 0.900216C5.719 0.897373 5.70763 0.894531 5.6991 0.894531C5.65647 0.900215 5.60058 0.916321 5.57689 0.925794C5.57405 0.927689 5.57121 0.928637 5.56742 0.930531L5.57216 0.928637H5.57026L5.56363 0.932426C5.56363 0.932426 5.56173 0.932426 5.56173 0.933373H5.56363V0.931479H5.56458C5.56458 0.931479 5.57216 0.926742 5.57595 0.925794C5.53173 0.9359 5.48626 0.9539 5.43952 0.979794C5.4471 0.973479 5.45942 0.964952 5.47647 0.954215C5.45847 0.960847 5.44237 0.971268 5.42437 0.9779C5.42816 0.976005 5.43194 0.973163 5.43573 0.971268C5.42721 0.975058 5.41584 0.980742 5.40731 0.984531C5.41584 0.979794 5.42816 0.973163 5.43668 0.969373C5.41584 0.979794 5.39026 0.993058 5.36373 1.00632C4.95068 1.22043 4.55658 1.46485 4.18426 1.73864C3.97489 1.89211 3.77216 2.05506 3.577 2.22653C3.6651 2.15074 3.83184 2.01053 3.88205 1.97927C3.85931 2.00106 3.83279 2.01906 3.80816 2.03895V2.03611ZM15.1737 4.09948C15.1482 4.06064 15.1245 4.03506 15.0051 3.92706C14.8981 3.83043 14.8782 3.80864 14.8687 3.78211C14.8696 3.78022 14.8715 3.77643 14.8725 3.77453C14.8886 3.77074 14.8971 3.76979 14.9549 3.78779C14.9397 3.74516 14.9255 3.71485 14.8564 3.65895C14.7531 3.57558 14.6224 3.53864 14.5163 3.46C14.4064 3.37948 14.3239 3.26864 14.2159 3.18716C14.1809 3.16064 14.1288 3.12937 14.0843 3.13032C14.0729 3.13127 14.0701 3.13222 14.0587 3.136C14.0918 3.17485 14.1439 3.19 14.1752 3.23169C14.341 3.33779 14.7048 3.71958 14.8791 3.90432C15.0307 4.06348 15.0686 4.10137 15.1027 4.12695C15.0733 4.08906 15.0582 4.06443 15.0392 4.02179C15.0474 4.02369 15.0648 4.03411 15.0913 4.05306C15.1302 4.08053 15.1643 4.10327 15.1737 4.09853V4.09948ZM7.05952 1.60127C7.06142 1.60695 7.06426 1.61264 7.087 1.61927C7.09173 1.61548 7.09742 1.60979 7.10026 1.60411C7.09837 1.60032 7.09458 1.59653 7.09173 1.59369C7.09363 1.5899 7.09742 1.58422 7.10121 1.58137C7.15995 1.67137 7.22816 1.68843 7.30963 1.63253C7.28879 1.5899 7.25373 1.55674 7.23573 1.51316C7.29447 1.498 7.34847 1.44969 7.36458 1.39948C7.39584 1.41464 7.43373 1.3919 7.52373 1.33885C7.62037 1.282 7.735 1.29527 7.83731 1.26401C7.84963 1.26022 7.86668 1.25264 7.879 1.2479C7.80795 1.23653 7.73784 1.23085 7.66868 1.23274C7.62794 1.23558 7.60995 1.23653 7.57773 1.246C7.55689 1.25264 7.54268 1.27064 7.52184 1.27727C7.44984 1.3019 7.3731 1.31232 7.3011 1.33979C7.31342 1.35685 7.30773 1.36348 7.25752 1.38811C7.25563 1.38906 7.03016 1.53211 7.03395 1.56243C7.05195 1.57285 7.07468 1.57095 7.09079 1.58327C7.06805 1.59085 7.06426 1.59179 7.05952 1.60032V1.60127ZM15.1368 5.61527C15.1368 5.61527 15.1387 5.61811 15.1406 5.62001C15.1396 5.61811 15.1387 5.61622 15.1368 5.61527ZM3.20184 3.24022C3.157 3.2699 3.09321 3.33148 3.01047 3.42495C3.01047 3.42495 2.9991 3.46379 3.03226 3.46379C3.05405 3.46379 3.08342 3.44579 3.09573 3.43822C3.08247 3.44864 3.07584 3.45432 3.06542 3.46095C3.20563 3.3899 3.23405 3.42306 3.24352 3.45906C3.26152 3.39843 3.32405 3.38137 3.36005 3.33779C3.40647 3.2819 3.36384 3.28569 3.34205 3.28853C3.32973 3.28948 3.32879 3.28948 3.3231 3.28853C3.34963 3.25727 3.38942 3.21085 3.38089 3.19C3.415 3.20232 3.469 2.95979 3.46805 2.95695C3.4671 2.95411 3.46237 2.95127 3.46047 2.94843C3.5391 2.91527 3.66889 2.80253 3.67363 2.76274C3.66321 2.75043 3.6471 2.75801 3.577 2.78927C3.65342 2.73243 3.70142 2.6939 3.721 2.67369C3.71247 2.68222 3.70016 2.69358 3.69068 2.70211C3.59121 2.77601 3.52395 2.79495 3.505 2.79969C3.50973 2.79116 3.51637 2.78264 3.51921 2.77316C3.51826 2.77316 3.51637 2.77316 3.51542 2.77316C3.55237 2.74569 3.57794 2.72201 3.59879 2.69358C3.58268 2.69358 3.57226 2.70306 3.5391 2.73243C3.50563 2.76085 3.48889 2.77601 3.48889 2.7779C3.45668 2.80443 3.43679 2.83095 3.433 2.83569C3.45195 2.81769 3.46994 2.79779 3.48889 2.77885C3.48889 2.77979 3.48889 2.78169 3.48889 2.78358C3.48984 2.78358 3.49079 2.78548 3.49173 2.78643C3.49552 2.78579 3.49963 2.78422 3.50405 2.78169C3.469 2.81485 3.45005 2.84611 3.45005 2.84611C3.45952 2.8499 3.46331 2.84232 3.47089 2.82906C3.47089 2.83001 3.47089 2.8319 3.47184 2.83285C3.47847 2.83285 3.48226 2.83285 3.505 2.81769C3.50405 2.81769 3.37142 2.93043 3.36384 2.93895C3.36384 2.93895 3.44152 2.89537 3.46805 2.87358C3.45542 2.88685 3.42984 2.90958 3.39131 2.94179C3.39131 2.94179 3.40173 2.93232 3.40552 2.92853C3.37016 2.9519 3.34142 2.97622 3.31931 3.00148C3.33447 2.99106 3.34395 2.98348 3.36005 2.97022C3.35152 2.97874 3.32879 3.00243 3.31931 3.02422C3.32405 3.02422 3.33447 3.02422 3.40079 2.96074C3.34773 3.01948 3.33826 3.03179 3.33637 3.05358C3.34395 3.06116 3.34395 3.06116 3.3771 3.06211C3.34868 3.08295 3.31079 3.12464 3.30131 3.14927C3.30226 3.15022 3.30321 3.15116 3.30416 3.15306C3.307 3.15306 3.30984 3.15116 3.31268 3.15022C3.27289 3.1919 3.25773 3.20422 3.20373 3.24022H3.20184ZM15.6323 4.01706C15.6323 4.01137 15.6266 3.99527 15.6143 3.96969C15.6143 3.96874 15.6133 3.96779 15.6124 3.96685C15.6124 3.96779 15.6124 3.96874 15.6124 3.96969C15.6114 3.97632 15.6095 3.98769 15.6133 4.00095C15.6114 4.00001 15.6086 3.99811 15.6067 3.99716C15.6133 4.00474 15.6313 4.02653 15.6323 4.01706ZM4.17668 1.96695C4.15679 1.97264 4.135 1.96316 4.1151 1.97169C4.08858 1.98306 4.07152 1.99537 4.03742 2.02569C4.05542 2.00769 4.06205 1.99916 4.063 1.99253C4.05258 1.98685 4.0071 2.01243 3.94458 2.05979C4.045 1.96979 4.05637 1.95464 4.06395 1.94516C4.063 1.94516 4.06205 1.94516 4.0611 1.94516C4.04595 1.95558 4.02416 1.97358 3.99763 1.99822C4.00331 1.99064 4.00331 1.98969 4.00426 1.9859C4.00047 1.9859 3.99668 1.984 3.94742 2.02948C3.94742 2.02853 3.94931 2.02664 3.94931 2.02474C3.94552 2.02474 3.94363 2.02474 3.91142 2.04748C3.91331 2.04748 3.91521 2.04748 3.91616 2.04748C3.9171 2.05222 3.91521 2.05695 3.91616 2.06169C3.91616 2.06169 3.91805 2.06264 3.919 2.06358C3.91426 2.06643 3.90858 2.07116 3.90384 2.074C3.901 2.07874 3.901 2.07874 3.901 2.08158C3.901 2.08158 3.90289 2.08253 3.90289 2.08348C3.90289 2.08348 3.829 2.1119 3.82995 2.13274C3.83373 2.13369 3.83373 2.13464 3.84037 2.13274C3.72763 2.21422 3.77689 2.22748 3.77784 2.22748C3.79868 2.23222 3.87826 2.20853 3.95689 2.15927C3.973 2.14979 3.99289 2.13558 4.00805 2.12516C4.03458 2.10527 4.05542 2.07874 4.08573 2.06358C4.08479 2.06358 4.08289 2.06169 4.08195 2.06074C4.08479 2.05316 4.09047 2.03801 4.17858 1.96885L4.17668 1.96695ZM3.53247 2.26158H3.53152L3.52584 2.26822C3.54289 2.25306 3.56089 2.2379 3.57795 2.22274C3.559 2.23885 3.54289 2.25306 3.53342 2.26158H3.53247ZM8.7231 1.07358C8.7231 1.07358 8.7231 1.07264 8.7231 1.07169C8.75626 1.06222 8.78563 1.05843 8.84247 1.05464C8.80079 1.05937 8.79226 1.06979 8.78374 1.08495C8.84626 1.10579 8.90026 1.14558 8.96563 1.15695C9.02152 1.16737 9.05468 1.14558 9.06795 1.13706C9.07173 1.13422 9.08216 1.12664 9.09352 1.11337C9.09352 1.11337 9.08689 1.11053 9.07363 1.10485C9.05184 1.09632 9.05373 1.09064 9.07363 1.07643C9.00542 1.07832 8.977 1.06316 8.94195 1.04516C8.90026 1.02337 8.86805 1.01295 8.79416 1.0139C8.76763 1.0139 8.75152 1.01579 8.72595 1.01769C8.72973 1.03569 8.73068 1.05464 8.69563 1.048C8.72121 1.05369 8.73731 1.05558 8.76194 1.05843C8.73352 1.05843 8.71647 1.05843 8.69184 1.05558C8.69658 1.06127 8.70984 1.07643 8.7231 1.07453V1.07358ZM10.9968 1.31706C10.9936 1.31832 10.9905 1.31895 10.9873 1.31895C11.0091 1.32179 11.0318 1.3199 11.0536 1.32274C11.1304 1.33222 11.2043 1.35779 11.281 1.36537C11.3312 1.37011 11.3663 1.36537 11.3738 1.35685C11.3663 1.33885 11.2365 1.31895 11.2355 1.31895C11.2033 1.31611 11.1721 1.30664 11.1398 1.30285C11.0811 1.30569 11.0356 1.26022 10.9778 1.26211C10.9608 1.26306 10.9589 1.26874 10.9579 1.27348C10.9674 1.29148 10.9892 1.29906 10.9977 1.318L10.9968 1.31706ZM9.157 1.17779H9.15889C9.25173 1.17685 9.31237 1.156 9.33984 1.14274C9.34363 1.14085 9.34742 1.13895 9.35121 1.13706C9.31805 1.10769 9.23658 1.07927 9.18731 1.08022C9.12289 1.084 9.11437 1.15316 9.13521 1.16927C9.14468 1.17685 9.15416 1.17685 9.15794 1.17685L9.157 1.17779ZM11.6618 1.34927C11.6618 1.34927 11.6628 1.34548 11.6637 1.34358C11.5974 1.3019 11.5425 1.28579 11.4733 1.28769C11.4439 1.28958 11.4241 1.29337 11.3928 1.30569C11.4013 1.30379 11.4212 1.31043 11.4601 1.32369C11.533 1.34927 11.6429 1.38716 11.6618 1.34832V1.34927ZM15.4854 3.71106C15.4854 3.71106 15.4854 3.70632 15.4826 3.70253C15.4759 3.69022 15.4542 3.66369 15.4437 3.6599C15.4456 3.66748 15.4579 3.68643 15.4674 3.69685C15.4722 3.70253 15.4835 3.71485 15.4864 3.71106H15.4854ZM15.5612 3.856C15.5612 3.856 15.5612 3.85506 15.5612 3.85316C15.5603 3.84937 15.5527 3.84653 15.547 3.84464V3.84653C15.5489 3.85979 15.5593 3.85885 15.5612 3.856ZM15.6266 4.09095C15.6266 4.09095 15.6256 4.08811 15.6247 4.08716C15.6209 4.0859 15.6181 4.08558 15.6162 4.08622C15.6086 4.08906 15.6057 4.09853 15.6076 4.11558C15.6076 4.11369 15.6057 4.11179 15.6048 4.1099C15.6048 4.11179 15.6048 4.11369 15.6285 4.1639C15.6389 4.15727 15.6503 4.14211 15.6256 4.0919L15.6266 4.09095ZM15.5849 3.90053C15.5849 3.90053 15.5887 3.90053 15.5887 3.89579C15.583 3.89011 15.5754 3.88253 15.5726 3.88348C15.5697 3.88537 15.5792 3.89958 15.5849 3.90148V3.90053ZM7.36647 1.048L7.41289 1.05937C7.42616 1.06127 7.43942 1.05843 7.44416 1.05748C7.44416 1.05179 7.44416 1.05085 7.43942 1.04706C7.44321 1.04706 7.44795 1.04516 7.45079 1.04422C7.47795 1.05495 7.51868 1.04864 7.573 1.02527C7.57931 1.04422 7.63047 1.03727 7.72647 1.00443C7.72647 1.00443 7.72268 1.012 7.72079 1.01485C7.71131 1.02432 7.71037 1.02527 7.70942 1.02811C7.71226 1.02811 7.72173 1.02811 7.73594 1.02337L7.74068 1.0139V1.01106C7.74542 0.999689 7.74447 0.998742 7.74352 0.994005C7.72647 0.986426 7.72173 0.985479 7.67816 0.989268C7.68384 0.983584 7.69237 0.976952 7.69805 0.972216C7.66963 0.972216 7.64405 0.986426 7.61563 0.987373C7.61563 0.988321 7.61752 1.00064 7.645 0.998742C7.62889 1.00443 7.61089 1.00727 7.59479 1.01295C7.58531 1.01295 7.57016 1.01485 7.50763 1.03C7.50763 1.0319 7.50952 1.03474 7.50952 1.03758C7.4991 1.03569 7.49058 1.03569 7.47826 1.03569C7.49721 1.03 7.50858 1.02527 7.52373 1.01864C7.501 1.012 7.48394 1.01011 7.45552 1.00916C7.46973 1.00727 7.49247 1.00158 7.50573 0.996847C7.52373 1.00158 7.56731 1.012 7.57205 0.994005C7.5711 0.99211 7.56921 0.990215 7.56731 0.989268C7.555 0.985479 7.54173 0.988321 7.53037 0.982637C7.4991 0.968426 7.49531 0.969373 7.49152 0.970321C7.49152 0.970321 7.49279 0.975689 7.49531 0.986426C7.45458 0.994005 7.41573 1.012 7.3731 1.00916L7.36458 1.0139C7.36647 1.01958 7.36647 1.01958 7.36552 1.02337C7.36268 1.02527 7.36079 1.02622 7.34847 1.02053C7.34847 1.02527 7.34847 1.02527 7.35037 1.0319C7.35037 1.0319 7.34847 1.0319 7.34752 1.0319C7.33426 1.02906 7.32005 1.02622 7.29163 1.02811C7.29163 1.03569 7.29163 1.04043 7.29163 1.04895C7.339 1.04706 7.36331 1.04643 7.36458 1.04706L7.36647 1.048ZM15.5119 3.76032C15.5091 3.75558 15.5053 3.75179 15.5034 3.7499H15.5025C15.5025 3.7499 15.5025 3.75937 15.5138 3.77927C15.5167 3.77548 15.5167 3.7679 15.5119 3.76032ZM7.06521 1.03474C7.08416 1.0319 7.11826 1.02716 7.1571 1.03C7.14131 1.03253 7.13247 1.03443 7.13058 1.03569C7.13058 1.03569 7.13058 1.03758 7.13247 1.03853C7.11542 1.04232 7.10594 1.04422 7.09268 1.04422C7.10121 1.06316 7.12584 1.06506 7.18837 1.0499C7.18363 1.05179 7.17794 1.05369 7.17416 1.05558C7.17984 1.05748 7.18552 1.05748 7.19216 1.05653C7.18647 1.06316 7.17605 1.07548 7.20258 1.07264C7.21773 1.07074 7.24142 1.06411 7.24995 1.06127C7.25184 1.06127 7.25374 1.06032 7.25468 1.06032C7.23668 1.05179 7.21963 1.05085 7.19595 1.05558C7.20542 1.05369 7.21016 1.05085 7.21963 1.04516C7.21773 1.04516 7.21394 1.04422 7.21205 1.04327C7.23195 1.03853 7.25089 1.03285 7.27079 1.02811C7.26984 1.01579 7.26795 0.994005 7.20068 0.994952C7.15331 0.997794 7.10121 1.00916 7.04721 1.03C7.05763 1.0319 7.06237 1.03285 7.0671 1.03285L7.06521 1.03474ZM14.7711 16.1803C14.7408 16.1964 14.7124 16.2144 14.6821 16.2305C14.7421 16.1895 14.773 16.1655 14.7749 16.1585C14.7673 16.1604 14.7578 16.1623 14.7512 16.1642C14.5902 16.2533 14.4443 16.367 14.2747 16.4418C14.1155 16.5119 14.0145 16.559 13.9715 16.583C13.8427 16.6559 13.8294 16.6739 13.8275 16.6853C13.8863 16.708 14.5485 16.3328 14.7247 16.2116C14.7389 16.2021 14.7578 16.1888 14.7711 16.1794V16.1803ZM14.6868 16.2457C14.7294 16.2428 15.1027 15.9918 15.2287 15.8866C15.2306 15.8847 15.2325 15.8828 15.2344 15.8819C15.2059 15.8914 15.1889 15.917 15.1614 15.9283C15.1671 15.9201 15.2221 15.8708 15.3263 15.7805C15.3026 15.7995 15.2779 15.8175 15.2543 15.8364C15.2656 15.826 15.2761 15.8156 15.2874 15.8052C15.1339 15.9359 14.6915 16.2419 14.6858 16.2457H14.6868ZM15.5252 15.5816C15.4513 15.6432 15.3841 15.7123 15.3121 15.7767C15.3215 15.7711 15.3291 15.7635 15.3386 15.7578C15.3367 15.7606 15.3329 15.7644 15.3291 15.7682C15.4002 15.701 15.4712 15.6337 15.5451 15.5683C15.5394 15.5721 15.5318 15.5778 15.5262 15.5816H15.5252ZM14.3704 2.08727C14.3704 2.08727 14.3694 2.08727 14.3685 2.08632C14.3685 2.08632 14.3694 2.08632 14.3704 2.08727ZM14.3666 2.08537C14.3666 2.08537 14.3675 2.08537 14.3685 2.08632C14.3685 2.08632 14.3675 2.08632 14.3666 2.08537ZM2.88352 3.44011C2.90626 3.43064 3.02752 3.37285 3.217 3.14169C3.23689 3.118 3.29563 3.046 3.25489 3.04695C3.25205 3.04695 3.24921 3.04695 3.24637 3.0479C3.17247 3.07158 3.12226 3.136 3.05121 3.16632C3.03889 3.19948 3.02658 3.21464 2.9991 3.23169C3.01331 3.24779 2.98773 3.27716 2.92142 3.34348C2.88637 3.37853 2.77931 3.48369 2.88352 3.44011ZM14.1231 15.6905C14.1231 15.6905 14.1231 15.6905 14.1241 15.6896C14.1222 15.6905 14.1203 15.6924 14.1193 15.6943C14.1203 15.6934 14.1222 15.6924 14.1231 15.6905ZM15.9733 14.5688C15.9781 14.5632 15.9828 14.5575 15.9875 14.5518C15.9828 14.5575 15.979 14.5632 15.9743 14.5688H15.9733ZM15.3282 15.7682C15.3149 15.7805 15.3016 15.7928 15.2884 15.8052C15.3064 15.79 15.3196 15.7777 15.3282 15.7682ZM13.9687 16.1917C13.9469 16.1917 13.9261 16.1879 13.9043 16.1879C13.8825 16.1888 13.837 16.1907 13.7593 16.241C13.6703 16.2987 13.5964 16.3755 13.5121 16.4399C13.6134 16.4219 13.6257 16.4143 13.7423 16.3357C13.8531 16.2618 13.9412 16.2031 13.9621 16.1936C13.9639 16.1936 13.9668 16.1917 13.9677 16.1917H13.9687ZM6.32626 6.73222C6.35279 6.736 6.35942 6.73411 6.36131 6.73222C6.36416 6.72843 6.35373 6.72274 6.34331 6.72369C6.33289 6.72369 6.3291 6.72843 6.32721 6.73316L6.32626 6.73222ZM2.86458 4.77022V4.77401C2.86173 4.78727 2.857 4.80243 2.84089 4.84979C2.81152 4.93695 2.76226 5.0819 2.80395 5.05537C2.84184 5.03169 2.91195 4.91137 2.9451 4.83843C2.98679 4.74748 2.96216 4.74843 2.95363 4.74937C2.94889 4.74937 2.93279 4.75411 2.89394 4.7759C2.86458 4.79295 2.86458 4.79106 2.86363 4.77116L2.86458 4.77022ZM1.86605 5.05158C1.86605 5.05158 1.86794 5.04969 1.86889 5.04779C1.86889 5.04779 1.867 5.04969 1.86605 5.05158ZM2.94889 4.72001C2.96216 4.70106 3.00195 4.64516 3.04363 4.55895C3.05784 4.52864 3.06826 4.504 3.07205 4.49453C3.06921 4.49548 3.06542 4.49737 3.06352 4.49832C3.00858 4.53622 2.95458 4.63664 2.95647 4.64327C2.93847 4.68306 2.93658 4.70106 2.94795 4.72001H2.94889ZM15.2808 9.38485C15.2855 9.31948 15.2618 9.27874 15.2486 9.25506C15.2467 9.2579 15.2448 9.26264 15.2429 9.26548C15.2268 9.30148 15.2012 9.36495 15.2107 9.37822C15.2164 9.37632 15.2192 9.37443 15.2363 9.35169C15.1605 9.47958 15.0781 9.61032 15.0705 9.62074L15.0601 9.6359C15.0335 9.67853 15.0203 9.70601 15.0023 9.75527C15.1122 9.69748 15.2704 9.53643 15.2817 9.3839L15.2808 9.38485ZM15.7886 10.8571C15.7933 10.841 15.7914 10.8173 15.7886 10.8002C15.7734 10.8031 15.7545 10.8078 15.7393 10.8106C15.6095 10.8372 15.4769 10.8447 15.3471 10.876C15.3111 10.8845 15.2846 10.9006 15.2685 10.9243C15.2581 10.9385 15.2524 10.9527 15.2467 10.9641C15.2183 11.0285 15.2069 11.0977 15.1842 11.164C15.1415 11.29 15.0439 11.3876 15.0061 11.5164C14.9682 11.6453 14.9985 11.7798 14.9776 11.9096C15.0212 11.8954 15.0534 11.8954 15.0904 11.9077C15.0904 11.9039 15.1624 11.5505 15.2211 11.4927C15.2476 11.5306 15.2514 11.5363 15.2372 11.6538C15.2164 11.8186 15.3054 11.7874 15.3234 11.7798C15.3158 11.7968 15.2941 11.849 15.3016 11.9115C15.3045 11.9134 15.3083 11.9153 15.3111 11.9172C15.3632 11.8925 15.4077 11.759 15.4058 11.7097C15.3859 11.7163 15.3736 11.723 15.3556 11.7391C15.3774 11.6045 15.3187 11.4776 15.3149 11.345C15.3983 11.4511 15.4456 11.201 15.5451 11.1754C15.4362 11.1555 15.3263 11.219 15.2183 11.1678C15.1756 11.1479 15.1936 11.1138 15.2817 11.0503C15.3774 10.9821 15.4371 10.9897 15.5555 11.0039C15.6588 11.0172 15.6664 11.0096 15.7099 10.967C15.7052 10.9736 15.6986 10.9831 15.6929 10.9897C15.7516 10.9202 15.7835 10.876 15.7886 10.8571ZM15.9818 11.5051C15.9335 11.5079 15.8644 11.5344 15.9212 11.5846C15.9288 11.5913 15.9383 11.597 15.9449 11.6017C15.9411 11.6045 15.9411 11.6045 15.9402 11.6064C15.9402 11.6064 15.9402 11.6064 15.9411 11.6064C15.943 11.6064 15.9439 11.6055 15.9458 11.6017C16.0292 11.6472 16.1145 11.6519 16.1401 11.6112C16.1581 11.5827 16.1334 11.5562 16.1287 11.5534C16.1287 11.5638 16.1391 11.5752 16.1438 11.5846C16.0974 11.507 16.0008 11.5041 15.9818 11.5051ZM15.5129 9.17074C15.5129 9.17074 15.5129 9.16885 15.5119 9.16885C15.5119 9.16885 15.5119 9.17074 15.5129 9.17074ZM15.5527 11.1773C15.5498 11.1754 15.5479 11.1744 15.5461 11.1744C15.5479 11.1744 15.5498 11.1763 15.5527 11.1773ZM15.4977 9.40001C15.5186 9.44548 15.601 9.37064 15.6019 9.36969C15.6162 9.35643 15.6247 9.34222 15.6256 9.32895C15.6275 9.30906 15.6199 9.29958 15.5963 9.27306C15.5442 9.21432 15.5318 9.19632 15.5224 9.18022C15.5186 9.18211 15.5167 9.18022 15.5119 9.1698C15.5119 9.1698 15.5119 9.17169 15.5119 9.17264C15.5119 9.18211 15.5101 9.19064 15.5053 9.22379C15.4968 9.27779 15.4835 9.36969 15.4968 9.40001H15.4977ZM15.2306 12.2971L15.2732 12.3094C15.2732 12.3094 15.2713 12.3141 15.2704 12.317C15.2562 12.3207 15.2382 12.3245 15.2239 12.3274C15.2296 12.3337 15.2426 12.3406 15.2628 12.3482L15.2666 12.3454C15.2969 12.3368 15.3244 12.3226 15.3537 12.3132C15.3518 12.3179 15.349 12.3236 15.3471 12.3274C15.3585 12.3255 15.3746 12.3236 15.3831 12.317C15.3945 12.3084 15.3954 12.2933 15.4058 12.2847C15.4077 12.2828 15.4106 12.2819 15.4134 12.281C15.4115 12.281 15.4087 12.2791 15.4068 12.2781H15.4058C15.3926 12.2762 15.3803 12.2838 15.367 12.28C15.3386 12.2828 15.3244 12.2857 15.3073 12.2914C15.2742 12.2535 15.2258 12.2895 15.2258 12.2895C15.1415 12.2648 15.007 12.2753 14.9378 12.2876C14.8924 12.2961 14.8545 12.3245 14.8081 12.3312C14.7739 12.3359 14.7427 12.3226 14.7095 12.3198C14.7171 12.3312 14.7218 12.3368 14.737 12.3425C14.7086 12.3634 14.6963 12.3473 14.6745 12.3188C14.6224 12.3188 14.6015 12.3264 14.5873 12.3321C14.5712 12.281 14.5447 12.2696 14.5333 12.2696C14.4859 12.2847 14.5182 12.3245 14.5655 12.3861L14.5684 12.3842C14.6451 12.4051 14.7218 12.37 14.7986 12.3833C14.7758 12.3255 15.0667 12.3577 15.0695 12.3586C15.0686 12.3605 15.0667 12.3634 15.0648 12.3662C15.1207 12.3444 15.1709 12.3132 15.2296 12.2971H15.2306ZM13.7887 12.2165H13.7915C13.6314 12.1834 13.5301 12.1493 13.3766 12.0782C13.4581 12.0536 13.5177 11.9901 13.5954 11.9588C13.7262 11.9399 13.8057 12.0744 13.9308 12.0697C14.0388 12.0659 14.1411 12.0157 14.251 12.0271C14.2586 12.0271 14.269 12.029 14.2766 12.0299C14.3505 12.0451 14.3599 12.0811 14.3675 12.1123C14.3258 12.1407 14.2785 12.1635 14.2178 12.1398C14.2491 12.19 14.2548 12.1995 14.3533 12.2146C14.503 12.2374 14.4869 12.2961 14.4784 12.3132C14.4765 12.316 14.4736 12.3207 14.4717 12.3236C14.4528 12.3444 14.3552 12.3833 14.3552 12.2866C14.3372 12.3548 14.1989 12.3198 13.7887 12.2156H13.7896L13.7887 12.2165ZM13.7991 12.2165C13.8048 12.2165 13.8162 12.2165 13.8181 12.2156C13.8181 12.2156 13.7915 12.2118 13.7896 12.2137C13.7896 12.2137 13.7906 12.2146 13.7982 12.2175L13.7991 12.2165ZM15.6086 12.2904C15.6162 12.2743 15.6001 12.2753 15.5811 12.2772C15.3499 12.3312 15.2041 12.5282 15.1671 12.6002C15.1804 12.5955 15.2126 12.586 15.3158 12.5292C15.4106 12.4771 15.5858 12.3368 15.6076 12.2904H15.6086ZM14.6735 11.6225C14.6735 11.6225 14.7607 11.5951 14.6906 11.6813C14.7114 11.6576 14.737 11.6235 14.7512 11.5951C14.7919 11.5145 14.7815 11.4198 14.8204 11.3383C14.8677 11.2388 14.9577 11.1687 15.0023 11.0674C15.0335 10.9963 15.0307 10.966 15.0269 10.9139C15.0837 10.985 15.1084 10.9442 15.1159 10.9234C15.1358 10.8713 15.1292 10.7671 14.9909 10.5662C15.0035 10.5744 15.0139 10.5804 15.0222 10.5842C15.0222 10.5842 15.0231 10.5795 14.9786 10.5065C14.9975 10.5084 15.0582 10.5084 15.0411 10.444C15.043 10.4459 15.0449 10.4497 15.0458 10.4516C15.0477 10.4506 15.0515 10.4487 15.0534 10.4478C15.0534 10.4393 15.0506 10.4222 15.0402 10.3872C15.0875 10.4298 15.1178 10.3748 15.115 10.3398C15.115 10.3294 15.1084 10.3161 15.1046 10.3066L15.1065 10.3047C15.1216 10.2877 15.2533 10.138 15.1794 10.1361C15.1538 10.1361 15.1055 10.157 15.0828 10.1683C15.0954 10.1601 15.1036 10.1522 15.1074 10.1446C15.0973 10.1402 15.0781 10.1396 15.0496 10.1427C15.0961 10.0395 15.0174 9.98927 14.9975 9.99116C14.9833 9.9959 14.9805 9.99874 14.9701 10.0111C14.9701 10.0082 14.9701 10.0044 14.9701 10.0016C14.9691 10.0016 14.8308 10.0092 14.7758 10.354C14.773 10.3227 14.7692 10.3161 14.7493 10.2962C14.7237 10.3464 14.7124 10.3786 14.6991 10.4336C14.6536 10.4232 14.6697 10.3587 14.6252 10.3474C14.5731 10.4923 14.3353 10.6913 14.3031 10.6411C14.3012 10.6392 14.3012 10.6354 14.3003 10.6325C14.2681 10.7083 14.2567 10.7585 14.2529 10.8381C14.2065 10.8012 14.1013 10.8192 14.1079 10.7358C14.0265 10.8163 13.9924 10.8504 14.0047 11.0162C14.0047 11.0219 14.0786 11.5619 14.1705 11.5676C14.1989 11.5695 14.2245 11.524 14.2368 11.5022C14.2529 11.5941 14.4509 11.6036 14.5087 11.5733C14.4784 11.7002 14.6138 11.651 14.6735 11.6235V11.6225ZM14.3581 7.51285C14.3581 7.51285 14.3533 7.51948 14.3514 7.52327C14.3543 7.52043 14.3562 7.51758 14.3581 7.51285ZM15.0752 7.19927C15.1131 7.13106 15.1264 7.10453 15.1188 7.07611C15.1188 7.07422 15.1169 7.07137 15.1159 7.06948C15.1235 7.08179 15.133 7.09885 15.1349 7.13769C15.1377 7.1879 15.1245 7.25043 15.1131 7.30537C15.0923 7.40864 15.0818 7.46453 15.0989 7.51758C15.0793 7.49358 15.0601 7.47432 15.0411 7.45979C15.0411 7.45979 15.0439 7.46169 15.0458 7.46264C15.0395 7.45758 15.0357 7.4538 15.0345 7.45127C15.0345 7.45127 15.0421 7.45506 15.0449 7.45695C14.9871 7.3859 15.0089 7.31674 15.0743 7.19927H15.0752ZM15.0648 7.47685L15.0496 7.46169C15.0496 7.46169 15.0496 7.46264 15.0496 7.46358L15.061 7.47306L15.0648 7.47685ZM15.1273 7.55358C15.1273 7.55358 15.1273 7.55358 15.1283 7.55358C15.1188 7.54127 15.1093 7.52801 15.0979 7.51569C15.0979 7.51569 15.0979 7.51664 15.0979 7.51758C15.1027 7.52801 15.1103 7.54222 15.1264 7.55264L15.1273 7.55358ZM13.3936 12.0583C13.3879 12.0517 13.3842 12.0479 13.3823 12.0479C13.3823 12.0479 13.3813 12.0479 13.3813 12.0498C13.3813 12.0526 13.387 12.065 13.3936 12.0593V12.0583ZM12.3885 8.45643C12.3828 8.4479 12.3752 8.43653 12.3705 8.42706C12.2669 8.49401 12.2003 8.50822 12.1706 8.46969C12.109 8.38822 12.0919 8.26411 12.0834 8.20443C12.0484 7.94864 11.839 7.79895 11.7168 7.59527C11.7026 7.57158 11.6855 7.53843 11.6704 7.51474C11.6562 7.49106 11.6334 7.46264 11.6183 7.4399C11.5965 7.44179 11.5671 7.44464 11.5453 7.44558C11.5365 7.51632 11.5178 7.5678 11.4894 7.60001C11.4771 7.58295 11.4629 7.55737 11.4534 7.53843C11.443 7.55548 11.425 7.57537 11.4079 7.58579C11.3881 7.58011 11.3596 7.57632 11.3388 7.57727C11.3322 7.58579 11.3227 7.59811 11.3151 7.60664C11.3085 7.60001 11.299 7.59053 11.2924 7.58295C11.2838 7.58864 11.2734 7.59527 11.2649 7.60095C11.2507 7.58674 11.2403 7.56022 11.2384 7.54032C11.0745 7.91832 10.6406 8.06611 10.4748 8.44127C10.3147 8.80411 10.4217 9.22095 10.2408 9.58C10.2143 9.63306 10.1792 9.71264 10.128 9.74295C9.92058 9.86801 8.977 8.16558 9.27163 7.60001C9.26216 7.59337 9.24984 7.58485 9.24037 7.57822C9.23847 7.55832 9.23279 7.53179 9.22521 7.51285C9.21573 7.51 9.20247 7.50622 9.193 7.50432C9.19868 7.51664 9.2091 7.5318 9.21195 7.54506C9.23847 7.64927 9.09921 7.75632 9.01773 7.74401C8.8671 7.72127 8.89363 7.54222 8.78752 7.48158C8.89268 7.46927 8.90594 7.43801 8.91826 7.40674C8.82731 7.41148 8.75058 7.39632 8.62647 7.30253C8.43794 7.14337 8.41237 7.04579 8.40384 7.01358C8.06279 6.83169 7.67531 7.132 7.339 6.91032C7.30584 6.88853 7.26226 6.85822 7.22816 6.83737C7.06994 6.74358 6.88426 6.8459 6.72416 6.76916C6.52142 6.67158 6.54131 6.37885 6.31394 6.30306C6.30068 6.29832 6.28173 6.30022 6.26752 6.29832C6.26752 6.29832 6.21826 6.35611 6.13773 6.41011C6.21731 6.43 6.22868 6.44801 6.26279 6.60432L6.50437 7.12253C6.63605 7.26937 7.12205 7.25706 7.14479 6.86011C7.23668 6.95864 7.16184 7.10169 7.23763 7.20401C7.31342 7.30632 7.46973 7.28169 7.53889 7.39443C7.56068 7.42948 7.56447 7.49011 7.55595 7.53085C7.52942 7.66253 7.34468 8.01874 6.83121 8.42422C6.82079 8.4318 5.8251 9.21527 5.60437 9.00401L4.77921 6.83927C4.76973 6.81464 4.75742 6.78148 4.74889 6.75685C4.69584 6.59864 4.70816 6.50579 4.72237 6.39779C4.621 6.53422 4.62194 6.58064 4.62573 6.67443C4.52626 6.538 4.49405 6.46032 4.48173 6.32769C4.37942 6.50485 4.36995 6.63653 4.57363 6.99843C4.67595 7.18032 4.80416 7.5479 4.95826 8.10116C5.05679 8.45453 5.161 8.64306 5.33058 8.77474C5.41016 8.83632 5.55984 8.9519 5.59205 9.02958C5.63468 9.13095 5.58921 9.16695 5.50679 9.23232C5.78721 9.3378 5.96247 9.38011 6.03258 9.35927C6.39763 9.25001 6.58205 9.20516 6.58584 9.22474C6.59058 9.24843 6.68152 9.82253 5.81184 10.9139C4.95068 11.9948 5.58921 12.5964 5.59679 12.6012C5.59489 12.6144 5.593 12.6315 5.59205 12.6447C5.60626 12.856 5.74458 13.0332 5.75595 13.2454C5.77016 13.5106 5.46889 13.559 5.39689 13.7645C5.30405 14.0307 5.63279 14.188 5.57121 14.4457C5.54847 14.5423 5.46889 14.6011 5.42626 14.6323C5.55321 14.7526 5.67352 14.8663 5.51437 15.2879C5.35995 15.6962 5.00373 15.5939 4.99995 15.592C4.93079 15.5607 4.10279 14.6806 4.06773 14.6427C3.8091 14.3671 3.26721 13.5476 3.26437 13.5419C3.11847 13.2605 3.15731 12.9299 3.03037 12.6428L3.0171 12.6173C3.01426 12.6116 2.69121 12.0725 2.75752 11.939C2.54721 11.8357 2.12468 11.3213 2.28763 11.0323C2.10573 10.8353 2.29616 10.5179 2.0631 10.3379C2.05458 10.3464 2.04226 10.3578 2.03279 10.3673C2.02047 10.3635 2.00531 10.3578 1.993 10.354C1.97879 10.372 1.94942 10.3881 1.92668 10.3919C1.71005 10.1746 1.5711 10.0887 1.50984 10.1342C1.07405 10.4573 1.021 10.3332 0.931945 10.1257C0.93005 10.121 0.723524 9.52601 0.668577 8.69611C0.64584 8.3579 0.782261 8.03485 0.77184 7.69758C0.769945 7.7099 0.767103 7.72695 0.765208 7.73927C0.815419 7.02685 1.58089 5.77443 1.58847 5.764C1.70595 5.59348 1.759 5.52716 1.79216 5.5139C1.83952 5.494 1.87079 5.53569 1.91058 5.54327C1.94658 5.55085 1.96173 5.54516 2.10573 5.44569C2.23742 5.35474 2.28858 5.32822 2.36721 5.30832C2.38931 5.30264 2.51373 5.29158 2.74047 5.27516C2.81626 5.27327 2.86647 5.27137 2.79542 5.43148C2.74616 5.54232 2.659 5.63706 2.64479 5.764C2.67794 5.99706 3.2331 6.43474 3.33637 6.10032C3.38373 5.9459 3.44247 5.91274 3.48321 5.91274C3.50026 5.91274 3.52394 5.91085 3.541 5.91369C3.70868 5.94495 3.81005 6.10127 3.97205 6.1439C4.12931 6.18558 4.26668 6.05485 4.42394 6.0899C4.43531 6.11358 4.45426 6.1439 4.47037 6.16379C4.70152 6.13537 4.80195 5.92979 4.88342 5.764C5.03784 5.43148 4.98384 5.36327 4.96394 5.35095C4.96394 5.35095 4.585 5.36137 4.50447 5.36706C4.34247 5.37748 4.24963 5.34622 4.21931 5.33674C4.225 5.32727 4.23163 5.314 4.23731 5.30453C4.21363 5.2979 4.18047 5.29316 4.15584 5.29316C4.16721 5.23064 4.16058 5.16527 4.18995 5.10653C4.08952 4.99853 4.23258 4.90095 4.21931 4.79485C4.14921 4.74748 4.08952 4.72948 4.00331 4.78443C4.00142 4.81 4.0071 4.84411 4.01752 4.86685C3.99479 4.86685 3.96447 4.87158 3.94173 4.87727C3.93984 4.88864 3.937 4.90379 3.9351 4.91611C3.92468 4.89053 3.90763 4.85737 3.89152 4.83464C3.86405 4.95116 3.95216 5.05348 3.93416 5.16906C3.92752 5.15958 3.91805 5.14632 3.91142 5.1359C3.91142 5.15674 3.90005 5.18611 3.88489 5.20127C3.86784 5.188 3.83752 5.17948 3.81668 5.18137C3.82426 5.19179 3.83468 5.20506 3.84226 5.21548C3.82426 5.23158 3.80058 5.25148 3.78163 5.26664C3.77973 5.29411 3.77594 5.33106 3.7731 5.35758C3.76268 5.36422 3.74942 5.37274 3.739 5.37937C3.58931 5.2799 3.68026 5.16337 3.70963 5.12548C3.685 5.12358 3.63479 5.12074 3.62058 5.04874C3.60447 4.96348 3.63195 4.83085 3.63195 4.82895C3.66226 4.68969 3.56468 4.58074 3.54573 4.45379C3.541 4.42064 3.51731 4.3799 3.51447 4.34674C3.51163 4.31643 3.52395 4.27474 3.54005 4.25011C3.53437 4.23874 3.52773 4.22453 3.52205 4.21411C3.51163 4.2179 3.49742 4.22264 3.487 4.22643C3.47658 4.22074 3.46237 4.21411 3.45195 4.20843C3.3411 4.288 3.29942 4.31832 3.31647 4.47843C3.33352 4.64232 3.49647 4.73422 3.52205 4.89337C3.46994 4.91327 3.42163 4.87916 3.37047 4.882L3.36858 4.8839C3.36858 4.8839 3.35342 5.08948 3.25868 5.20032C3.18005 5.19085 3.12889 5.26853 3.05216 5.26474C2.98963 5.15579 3.19426 5.15674 3.24731 5.08285C3.41121 4.85358 3.16868 4.43864 3.16679 4.4339C3.08342 4.30222 2.947 4.4339 2.8371 4.432C2.8371 4.432 2.83616 4.43201 2.80963 4.4339C2.80773 4.4339 2.45152 4.72095 2.26489 5.04306C2.14079 5.25906 2.011 5.38411 1.86794 5.42485C1.81584 5.38695 1.82247 5.32064 1.79026 5.27232C1.77889 5.27516 1.76373 5.27895 1.75331 5.28274C1.80258 5.17158 1.83921 5.09264 1.86321 5.0459C1.86321 5.0459 1.85752 5.05253 1.85563 5.05632C2.047 4.65085 2.22384 4.45158 2.38616 4.45853C2.51405 4.46327 2.83237 4.0739 2.70921 3.8579C2.78216 3.81243 2.78594 3.81148 2.89773 3.78211C2.97068 3.59927 3.74373 3.17106 3.75131 3.16822C3.75984 3.17579 3.77026 3.18622 3.77784 3.19379C3.8631 3.1019 3.91237 2.98443 3.99668 2.89253C4.01089 2.87832 4.02984 2.86032 4.045 2.848L4.04879 2.84611C4.11416 2.79211 4.14163 2.78832 4.17858 2.78264C4.11416 2.85179 4.06868 2.93895 3.98626 2.99295C3.99858 2.99201 4.01563 2.99011 4.02889 2.98916C4.0011 3.03148 3.97016 3.05422 3.93605 3.05737C3.94079 3.04506 3.94837 3.02895 3.9531 3.01664C3.91047 3.08579 3.91331 3.09053 3.93605 3.13222C3.93605 3.13222 4.00426 3.12464 4.0971 3.11706C4.08763 3.12369 4.07531 3.13222 4.06584 3.1379C4.07152 3.14832 4.08005 3.16253 4.08573 3.17295C4.08952 3.17295 4.441 3.14074 4.51584 3.09243C4.62668 2.92664 4.72142 2.81864 4.79721 2.77127C4.8171 2.78264 4.83889 2.80443 4.85121 2.82337C4.97721 2.80916 4.94784 2.67179 5.01605 2.61116C5.0451 2.58527 5.17616 2.56537 5.40921 2.55148C5.40542 2.53727 5.40068 2.51927 5.39595 2.50506C5.38363 2.49843 5.36752 2.49085 5.35616 2.48422C5.35426 2.47664 5.35237 2.46622 5.35142 2.45769C5.143 2.49495 5.01952 2.50695 4.981 2.49369C5.04416 2.39769 5.19573 2.25716 5.43573 2.07211C5.28984 1.96885 5.2491 2.09295 5.23584 2.13369C4.74795 2.32222 4.77258 2.47001 4.78395 2.54106C4.43595 2.84422 4.21931 2.99864 4.13405 3.00432C4.13879 2.99106 4.14447 2.97306 4.14921 2.95979C4.0791 3.03179 4.03363 3.07569 4.01279 3.09148C4.00237 3.08674 3.98816 3.08011 3.97773 3.07537C4.02194 3.05895 4.04752 3.02453 4.05447 2.97211C4.20037 3.00053 4.29321 2.70969 4.33205 2.58558C4.2231 2.67369 4.17668 2.69927 4.09142 2.73053C4.08194 2.7239 4.06963 2.71537 4.0611 2.70969C4.06773 2.6699 4.09426 2.63579 4.09521 2.59506C4.18426 2.51169 4.23542 2.39043 4.35479 2.33737C4.43342 2.30043 4.44384 2.29569 4.51016 2.26348C4.70247 2.16874 4.87489 2.0399 5.06058 1.93379H5.06437C5.14868 1.87885 5.16858 1.86558 5.18658 1.84948C5.19226 1.84474 5.197 1.83906 5.20458 1.83148C5.179 1.83811 5.143 1.84379 5.11647 1.84569C5.18563 1.804 5.26237 1.78222 5.33342 1.74527C5.32584 1.75379 5.31637 1.76516 5.30879 1.77369C5.39879 1.76706 5.46605 1.70169 5.54942 1.67706C5.54942 1.68843 5.54847 1.70264 5.54752 1.714C5.60879 1.69822 5.64447 1.68558 5.65458 1.67611C5.66689 1.67801 5.68395 1.68085 5.69626 1.68274C5.73037 1.63727 5.73605 1.62874 5.81847 1.60032C5.82889 1.606 5.84216 1.61453 5.85258 1.62022C5.83079 1.63348 5.80142 1.65337 5.78058 1.66853C5.85731 1.63158 5.93405 1.62022 5.96721 1.61453C5.95773 1.62116 5.94637 1.62969 5.93689 1.63632C5.95016 1.63253 5.96816 1.62685 5.98142 1.62306C5.99279 1.62969 6.00795 1.63822 6.01931 1.64485C5.99279 1.65337 5.95868 1.66569 5.93216 1.67422C6.01363 1.6799 6.05942 1.68337 6.06952 1.68464C6.07142 1.69506 6.07426 1.71022 6.0771 1.72064C6.28268 1.76516 6.35942 1.78127 6.38121 1.83337C6.41058 1.90253 6.28647 1.98779 6.22773 1.99916C6.11689 2.02095 6.03542 1.93569 5.9331 1.92243C5.97605 2.09611 6.02184 2.17695 6.07047 2.16495C6.06479 2.14222 6.05247 2.1119 6.0411 2.09201C6.19079 2.08727 6.30258 1.96032 6.4551 1.96506C6.46268 1.97453 6.47216 1.9859 6.47879 1.99537C6.51668 1.91011 6.53942 1.85295 6.547 1.8239C6.54131 1.81443 6.53373 1.80116 6.5271 1.79169C6.62658 1.74053 6.67773 1.76043 6.68058 1.85327C6.59342 1.85706 6.57731 1.8599 6.56405 1.92622C6.76774 1.94327 6.91173 1.7519 7.11447 1.76611C7.09458 1.78032 7.06805 1.80116 7.0491 1.81727C7.35416 1.80211 7.39868 1.77937 7.45552 1.74906C7.453 1.7459 7.41447 1.71622 7.33994 1.66001C7.67468 1.76043 7.84868 1.80843 7.86195 1.804C7.79942 1.73864 7.77384 1.67706 7.78426 1.62211C7.80226 1.53495 7.915 1.52737 7.93489 1.44211C7.95858 1.444 7.98984 1.45064 8.01258 1.45916C8.01258 1.45916 8.01258 1.45916 8.01921 1.45916C8.02963 1.46295 8.04479 1.46769 8.05521 1.47148C8.10731 1.58422 8.08647 1.71495 8.14426 1.82485C8.113 1.90727 8.10921 1.91579 7.99931 1.96222C8.257 1.94516 8.22858 1.84474 8.21437 1.79074C8.32426 1.7339 8.3811 1.84758 8.46731 1.86843C8.34889 1.76611 8.185 1.72064 8.10258 1.57379C8.14047 1.54916 8.16447 1.51695 8.17458 1.47716C8.18405 1.48379 8.19637 1.49327 8.20584 1.4999C8.20679 1.52927 8.21152 1.56716 8.21816 1.59558C8.23395 1.60316 8.28858 1.61011 8.38205 1.61643C8.37321 1.60316 8.335 1.57979 8.26742 1.54632C8.27784 1.54916 8.293 1.552 8.30342 1.55485C8.31195 1.54822 8.32331 1.53874 8.33184 1.53116C8.32237 1.52548 8.31005 1.51695 8.30058 1.51127C8.30058 1.51127 8.47489 1.55011 8.58289 1.55485C8.53173 1.48379 8.50331 1.46674 8.41426 1.45253C8.41426 1.45253 8.41426 1.45253 8.43131 1.44495C8.52889 1.42032 8.6331 1.44874 8.72879 1.40895C8.71837 1.40422 8.70416 1.39853 8.69279 1.39379C8.67195 1.29337 8.72405 1.29432 8.94384 1.29811C8.95994 1.28106 8.98837 1.26685 9.0111 1.26211C9.0111 1.26211 9.07268 1.28011 9.22616 1.27253C9.21668 1.26495 9.20437 1.25548 9.19489 1.24885C9.20531 1.24885 9.21858 1.24885 9.229 1.24885C9.25489 1.21537 9.28521 1.19485 9.31995 1.18727C9.76142 1.17779 10.1176 1.50748 10.5591 1.4999C10.5648 1.49137 10.5733 1.47906 10.579 1.47053C10.5762 1.45916 10.5714 1.44495 10.5686 1.43358C10.7855 1.48758 10.9731 1.65432 11.2175 1.60506C11.2137 1.59274 11.209 1.57569 11.2052 1.56337C11.3151 1.52737 11.4174 1.58327 11.5226 1.59274C11.5226 1.59274 11.5226 1.59274 11.4979 1.58706C11.4904 1.58043 11.479 1.57095 11.4714 1.56337C11.4986 1.56211 11.5355 1.564 11.5823 1.56906C11.5567 1.55769 11.5226 1.54348 11.4961 1.53211C11.4923 1.52169 11.4866 1.50748 11.4828 1.49706C11.8902 1.46295 11.9186 1.48569 12.0247 1.57C12.2094 1.71874 12.4235 1.61643 12.6234 1.64106C12.7987 1.66285 12.9758 1.66569 13.1521 1.68748C13.1738 1.69032 13.2013 1.70358 13.2193 1.71495C13.2089 1.71211 13.1956 1.70737 13.1852 1.70453C13.3302 1.75758 13.3538 1.76137 13.4221 1.77274C13.3172 1.72853 13.2585 1.69379 13.2458 1.66853C13.5916 1.64958 14.4338 1.88074 14.5712 2.03232C14.5598 2.03232 14.5447 2.03232 14.5333 2.03232C14.5504 2.0399 14.6375 2.08158 14.7095 2.13748C14.5087 2.24264 14.3969 2.03516 14.2349 2.002C14.2892 2.038 14.3258 2.06327 14.3448 2.07779C14.3391 2.08632 14.3306 2.09864 14.3249 2.10716C14.4651 2.18106 14.6157 2.23316 14.7465 2.326C14.7001 2.308 14.6915 2.30516 14.6252 2.29948C14.6337 2.31369 14.6442 2.33358 14.6517 2.34874C14.6442 2.35822 14.6347 2.37053 14.6271 2.37906C14.6707 2.41885 14.6802 2.42737 14.7285 2.50979C14.7237 2.51927 14.7171 2.53158 14.7114 2.54106C14.539 2.50316 14.4964 2.51358 14.4594 2.52306C14.4736 2.61495 14.7133 2.75137 14.7152 2.75232C14.7171 2.75327 14.9909 2.91716 15.1311 3.08011C15.1302 3.09337 15.1283 3.11137 15.1264 3.12558C15.1491 3.15337 15.1933 3.19979 15.259 3.26485C15.259 3.26485 15.259 3.26485 15.2429 3.27148C15.2647 3.35579 15.3282 3.41737 15.3689 3.49127C15.3765 3.49979 15.385 3.54337 15.3926 3.58127C15.3841 3.57179 15.3727 3.55948 15.3642 3.55095H15.3632C15.3575 3.53769 15.3661 3.51779 15.3689 3.50548C15.0932 3.20706 14.7256 3.02327 14.4244 2.75611H14.4263C14.4338 2.74474 14.4443 2.72958 14.4518 2.71822C14.3353 2.40179 14.1184 2.30232 14.0558 2.30327C14.1203 2.35064 14.1373 2.362 14.197 2.39801C14.1866 2.39801 14.1714 2.39895 14.161 2.3999C14.1676 2.42737 14.1818 2.46243 14.1942 2.488C14.0075 2.362 13.9876 2.35727 13.9033 2.33643C13.8967 2.344 13.8872 2.35443 13.8796 2.36295C13.8853 2.4059 13.969 2.49401 14.1307 2.62727C14.0473 2.74285 13.9535 2.65948 13.9355 2.64148C13.9441 2.63485 13.9554 2.62632 13.9639 2.61969C13.9639 2.61969 13.9639 2.61969 13.9592 2.61685C13.9384 2.614 13.9099 2.61116 13.8891 2.61116H13.8777C13.8777 2.61116 13.8768 2.61116 13.8531 2.61116C13.8275 2.61116 13.7934 2.60737 13.7688 2.60358C13.7697 2.60453 13.7716 2.60643 13.7735 2.60737C13.6608 2.63674 13.5386 2.51169 13.4315 2.62822C13.3463 2.72106 13.3387 3.17106 13.7394 3.17864C13.6617 3.10853 13.6185 3.06116 13.6096 3.03653C13.6096 3.03653 13.765 3.13316 13.7934 3.21369C13.8105 3.20327 13.8361 3.1919 13.855 3.18622C13.8379 3.17106 13.819 3.14548 13.8114 3.12369C13.9024 3.12369 14.0322 3.14927 14.1383 3.26958C14.1278 3.26769 14.1136 3.26579 14.1032 3.26485C14.7162 3.62958 14.8706 4.31927 14.7758 4.52485C14.7635 4.52958 14.7474 4.53527 14.7351 4.53906C14.7042 4.5239 14.6723 4.49832 14.6394 4.46232C14.6328 4.4699 14.6233 4.48032 14.6157 4.48885C14.6101 4.48032 14.6025 4.46801 14.5968 4.45948C14.6082 4.48411 14.6157 4.52106 14.6138 4.54853C14.6025 4.54664 14.5873 4.54474 14.5759 4.54285C14.7323 4.67643 14.5873 4.882 14.6906 5.02885C14.7815 5.15769 14.9596 5.188 15.0345 5.33579C15.0541 5.37495 15.0787 5.46243 15.1084 5.59822C15.0875 5.60106 15.061 5.60864 15.0411 5.61622C15.0411 5.62664 15.0411 5.6399 15.0411 5.65032C14.8384 5.728 14.7578 5.34337 14.7635 5.30737C14.7721 5.314 14.7834 5.32253 14.7919 5.33011C14.7825 5.27137 14.7758 5.25337 14.6839 5.20601L14.6877 5.20316H14.6783C14.6783 5.20316 14.6811 5.20506 14.6821 5.20506C14.6148 5.18232 14.5437 5.17664 14.4784 5.14822C14.4727 5.12643 14.4746 5.09327 14.4859 5.07432C14.4045 5.03548 14.3694 4.92558 14.2614 4.92558C14.1619 4.92558 14.2122 5.07811 14.1127 5.07622C14.1013 5.07622 14.0881 5.06864 14.0776 5.06579C14.0672 4.98243 14.0568 4.97958 14.0142 4.96632C14.0208 4.954 14.035 4.93979 14.0369 4.92558C14.0407 4.89622 13.9914 4.76453 13.8995 4.80148C13.8967 4.80243 13.6343 4.98337 13.7603 5.12264C13.9156 5.29411 14.1449 5.17758 14.3211 5.26948C14.3041 5.36137 14.2008 5.41727 14.2141 5.52148C14.2188 5.56222 14.2226 5.59348 14.3827 5.77064C14.521 5.91843 14.6309 6.01979 14.7379 6.09937C14.7294 6.10506 14.719 6.11264 14.7105 6.11832C14.6555 6.09369 14.6214 6.0359 14.5598 6.02169C14.5655 6.02453 14.7038 6.08422 14.7218 6.26327C14.7152 6.27085 14.7067 6.28032 14.7001 6.28695C14.8017 6.30906 14.8624 6.35737 14.8819 6.4319C14.8791 6.44137 14.8677 6.45085 14.8621 6.45937C14.9009 6.54274 14.8999 6.55127 14.8924 6.60622C14.8819 6.60811 14.8677 6.61 14.8573 6.61095C14.8403 6.66211 14.8185 6.90274 14.863 7.00222C14.863 7.00222 14.863 7.00222 14.8744 6.99085C14.8535 7.12537 14.8497 7.14622 14.7484 7.24664C14.6366 7.35653 14.4793 7.39348 14.3628 7.49485C14.3514 7.45601 14.3467 7.4418 14.2993 7.41053C14.3372 7.48727 14.3438 7.50053 14.2529 7.61706C14.251 7.61516 14.0397 7.44937 13.9943 7.82548C14.071 7.88895 14.1032 7.94769 14.0672 8.09453C14.0322 8.20443 13.9251 8.22811 13.8635 8.23285C13.8758 8.21106 13.8919 8.18074 13.9033 8.15801C13.9122 7.95969 13.9324 7.85074 13.9639 7.83116C13.9639 7.78853 13.9639 7.68811 13.8995 7.65969C13.8645 7.64358 13.4742 7.67864 13.5007 7.89843C13.5499 8.30958 13.9933 8.50853 14.0502 8.91495C14.071 9.0599 14.0113 9.55822 13.7953 9.39811C13.7887 9.50516 13.6892 9.78843 13.5443 9.71169C13.5585 9.68895 13.5784 9.65769 13.5926 9.63495C13.513 9.31569 13.1568 9.21243 13.0384 8.92253C12.7845 9.09211 12.865 9.50327 12.8754 9.54969C12.9162 9.73916 13.0857 9.83769 13.1852 9.98548C13.3557 10.2394 13.3027 10.5558 13.4221 10.8239C13.4277 10.8362 13.4467 10.8447 13.4562 10.8542C13.2042 10.9006 13.1123 10.6951 13.0128 10.2451C12.9285 9.86706 12.8868 9.7439 12.7485 9.8538C12.7144 9.72685 12.7011 9.67379 12.7305 9.44832C12.8082 8.85148 12.5419 8.41001 12.4586 8.28969C12.4624 8.42611 12.433 8.43843 12.3894 8.45832L12.3885 8.45643ZM6.19079 4.38085C6.20721 4.38843 6.22584 4.38811 6.24668 4.3799C6.16331 4.50874 6.18037 4.56843 6.34142 4.69822C6.44184 4.77969 6.46552 4.80906 6.475 4.86211C6.36226 4.84506 6.30826 5.04874 6.31679 5.1179C6.33005 5.22874 6.42858 5.28179 6.50816 5.32443C6.53184 5.33674 6.53184 5.34053 6.53468 5.34906H6.53752V5.3519C6.64837 5.41916 6.74121 5.30548 6.84826 5.32064H6.85016C6.84542 4.92369 6.84163 4.68495 6.67205 4.51822C6.55268 4.40169 6.54889 4.37422 6.54226 4.32969C6.55647 4.31169 6.58868 4.30032 6.61142 4.29558C6.59247 4.2539 6.64679 4.22011 6.77437 4.19422C6.745 4.17053 6.73931 4.16485 6.75447 4.09948C6.76489 4.05306 6.78005 3.9839 6.637 3.97727C6.48068 3.96969 6.42479 4.14306 6.28837 4.17148C6.26942 4.17053 6.25805 4.1639 6.24479 4.14874C6.24384 4.23022 6.17468 4.29653 6.19268 4.38179L6.19079 4.38085ZM5.143 4.0919C5.10889 4.15064 5.1771 4.162 5.359 4.19327C5.3751 4.15158 5.40068 4.08243 5.44994 4.10137C5.44994 4.07864 5.449 4.07579 5.42437 4.06253C5.40163 4.05116 5.40068 4.04737 5.40163 4.02274C5.44426 4.02843 5.48594 4.01611 5.53047 3.98485C5.53521 3.98106 5.54184 3.97632 5.54658 3.97253C5.45658 3.92516 5.29173 3.9839 5.17521 4.06537C5.17963 4.06095 5.18247 4.05779 5.18373 4.0559C5.18373 4.0559 5.1591 4.0739 5.14773 4.08622C5.15152 4.08337 5.15626 4.07864 5.16005 4.07579L5.14773 4.08716H5.14584L5.14205 4.09095L5.143 4.0919ZM5.34573 4.78064C5.49447 4.7939 5.57594 4.69822 5.59679 4.66885C5.67542 4.5599 5.52384 4.37327 5.33247 4.25579C5.19605 4.17243 5.05868 4.3259 4.92226 4.25579C4.91721 4.23622 4.95542 4.19106 5.03689 4.12032C4.93647 4.06537 4.86826 4.03506 4.77542 4.08148L4.7631 4.06727L4.76973 4.07958L4.77352 4.08243C4.68637 4.12885 4.62858 4.22927 4.56226 4.34579C4.48552 4.48032 4.45616 4.50495 4.38605 4.56274C4.41352 4.58264 4.42394 4.59022 4.44668 4.63474C4.46563 4.67169 4.49405 4.72853 4.52437 4.73516C4.69489 4.77401 4.81331 4.58927 4.98289 4.62811C5.11268 4.65748 5.20742 4.76927 5.34479 4.78158L5.34573 4.78064ZM10.5686 9.70127C10.5638 9.70222 10.5582 9.70695 10.5468 9.72022C10.5582 9.74485 10.561 9.74769 10.5619 9.74485C10.5619 9.74295 10.5619 9.73727 10.561 9.73348C10.5619 9.73348 10.5638 9.73253 10.5648 9.73158L10.5676 9.72874C10.5714 9.72306 10.5743 9.71737 10.5743 9.71169C10.5743 9.70885 10.5743 9.70032 10.5686 9.70127ZM17.5497 11.7277L17.5478 11.7286C17.5895 11.5846 17.5791 11.4444 17.5403 11.4492C17.5308 11.452 17.5251 11.4577 17.5137 11.4738C17.5156 11.4814 17.5156 11.488 17.5166 11.507C17.5156 11.506 17.5137 11.5041 17.5118 11.5041C17.5043 11.5098 17.5014 11.5174 17.5014 11.5212C17.5014 11.5212 17.5062 11.5186 17.5156 11.5136C17.5204 11.5572 17.5099 11.6955 17.5099 11.6964C17.5071 11.705 17.4957 11.7116 17.491 11.7192C17.4664 11.758 17.4503 11.8006 17.4218 11.8366C17.4048 11.8584 17.3953 11.8556 17.3887 11.8499C17.3603 11.8281 17.3461 11.8167 17.3025 11.8603C17.2974 11.8647 17.2895 11.8976 17.2788 11.9588C17.2835 11.9617 17.4086 12.0252 17.509 11.7334C17.5071 11.7779 17.509 11.7921 17.5137 11.7997C17.5147 11.7997 17.5166 11.7997 17.5175 11.7997V11.8025C17.5336 11.7855 17.5384 11.7751 17.545 11.7561L17.5516 11.74V11.7334L17.5497 11.7362C17.5497 11.7343 17.5516 11.7324 17.5516 11.7305L17.5497 11.7277ZM10.5477 9.73537C10.5563 9.90495 10.5506 10.0281 10.5297 10.102C10.4805 10.2811 10.3677 10.1172 10.3668 10.1153C10.3185 10.031 10.3403 9.93148 10.3649 9.8159C10.3914 9.69464 10.4047 9.616 10.363 9.54969C10.3564 9.54969 10.3412 9.54495 10.3374 9.52316L10.3478 9.52979C10.3478 9.52979 10.3441 9.52506 10.3431 9.52316C10.3516 9.51653 10.3573 9.51464 10.3687 9.51369C10.381 9.51369 10.4454 9.51653 10.5222 9.61127C10.5421 9.6359 10.5714 9.68327 10.5439 9.71927C10.543 9.72116 10.5411 9.72211 10.5477 9.73443V9.73537ZM10.4179 9.56295C10.3999 9.54116 10.3905 9.55253 10.3905 9.55348C10.3905 9.55348 10.3857 9.56579 10.4009 9.56579C10.4028 9.56579 10.4075 9.56579 10.416 9.5639C10.416 9.5639 10.4161 9.5639 10.417 9.5639L10.4179 9.56295ZM16.8525 11.3175C16.6876 11.3203 16.6715 11.5316 16.5209 11.5553C16.4603 11.5647 16.4953 11.3753 16.4953 11.3734C16.4944 11.3762 16.4925 11.3791 16.4915 11.3819C16.5114 11.2066 16.5199 11.1261 16.4025 11.1375C16.3513 11.1517 16.3058 11.1754 16.2481 11.2455C16.2575 11.1905 16.2386 11.1782 16.231 11.1725C16.2206 11.1763 16.2168 11.1782 16.2045 11.1991C16.2746 11.3194 16.3352 11.4236 16.4479 11.3914C16.4063 11.4454 16.3343 11.4406 16.2831 11.4766C16.357 11.5401 16.2642 11.6187 16.303 11.6851C16.3172 11.686 16.3276 11.687 16.3835 11.5771C16.3778 11.6273 16.375 11.6547 16.4006 11.6917C16.4299 11.7334 16.4839 11.7381 16.519 11.7713C16.5739 11.8234 16.5739 11.83 16.5872 12.1786C16.5796 12.1606 16.5559 12.1057 16.4432 12.3245C16.501 12.299 16.5673 12.3008 16.6251 12.2753C16.5654 12.4439 16.6895 12.4373 16.6999 12.4316C16.7123 12.425 16.8165 12.3435 16.7994 12.3037C16.7966 12.3037 16.7937 12.3027 16.7918 12.3018C16.8291 12.2835 16.8518 12.2705 16.8601 12.263C16.8601 12.263 16.8601 12.2554 16.8601 12.2525L16.8629 12.2611C16.8762 12.244 16.8847 12.2326 16.8989 12.1928C16.9131 12.245 16.969 12.2715 16.9813 12.3245C17.0022 12.4088 16.9567 12.496 16.9936 12.5803C17.0382 12.6826 17.0903 12.6324 17.0912 12.6324C17.1102 12.6125 17.1121 12.5718 17.1168 12.5453C17.1319 12.4458 17.0865 12.3492 17.1007 12.2497C17.1149 12.1464 17.1841 12.0621 17.1973 11.9588C17.2011 11.9295 17.1973 11.8897 17.1926 11.8603C17.1916 11.8546 17.0457 11.3184 16.8544 11.3213L16.8525 11.3175ZM13.3567 11.9295C13.3504 11.9131 13.3463 11.9014 13.3444 11.8944C13.3444 11.8944 13.3453 11.8944 13.3463 11.8944C13.3785 11.8783 13.4164 11.8916 13.4476 11.8717C13.4808 11.8508 13.5215 11.8111 13.5338 11.7741C13.5841 11.6301 13.5376 11.4899 13.513 11.4141C13.6039 11.5695 13.6257 11.6055 13.7138 11.5572C13.6826 11.5259 13.7044 11.4946 13.7167 11.4899C13.7224 11.4937 13.7309 11.4984 13.7356 11.4946L13.7205 11.4795H13.7252C13.7252 11.4795 13.7195 11.4738 13.7176 11.4719H13.7167C13.603 11.362 13.525 11.3216 13.4827 11.3506C13.4287 11.254 13.3576 11.1659 13.3178 11.0617C13.2951 11.0011 13.3084 10.9328 13.2781 10.8741C13.2572 10.8315 13.2345 10.8239 13.1909 10.8097C13.1776 10.8324 13.1767 10.8372 13.1795 10.858C13.1577 10.8296 13.1426 10.8154 13.1161 10.7983C13.1281 10.8034 13.1385 10.8046 13.1473 10.8021C13.1644 10.7396 13.0753 10.6657 13.0744 10.6647C13.0024 10.607 12.9133 10.5757 12.8423 10.517C12.7513 10.4421 12.6926 10.336 12.595 10.2678C12.5618 10.2451 12.4927 10.1967 12.4017 10.1977C12.3932 10.1977 12.3856 10.1977 12.3771 10.1996C12.5154 10.2271 12.7295 10.6704 13.0081 11.327C13.2004 11.7788 13.2875 11.9759 13.3557 11.9323L13.3567 11.9295ZM16.2793 11.4785C16.2793 11.4785 16.2822 11.4766 16.2831 11.4757C16.2831 11.4757 16.2803 11.4776 16.2793 11.4785ZM16.6422 12.6485C16.4309 12.9204 16.3475 13.2719 16.0993 13.5201C15.9553 13.6641 15.9203 13.3733 15.9203 13.3704C15.9165 13.3123 16.0008 13.1238 16.1732 12.8048C16.1625 12.8162 16.141 12.8374 16.1088 12.8683C16.1088 12.8371 16.1287 12.8105 16.1315 12.7793C16.1107 12.8247 16.0216 12.7985 15.8644 12.7006C15.8037 12.8175 15.7579 12.88 15.727 12.8882C15.6275 12.9147 15.4902 13.0275 15.4305 13.2605C15.385 13.2368 15.3784 13.235 15.313 13.2605C15.3215 13.1762 15.2277 13.1535 15.2088 13.0853C15.1965 13.1004 14.953 13.3496 14.8317 13.3979C14.8261 13.451 14.8223 13.4652 14.7967 13.5211C14.7948 13.5154 14.7919 13.5078 14.7901 13.5021C14.7774 13.5147 14.7648 13.5353 14.7522 13.5637C14.7522 13.5362 14.7522 13.5078 14.7721 13.4197C14.7124 13.4566 14.665 13.486 14.5418 13.631C14.4215 13.7721 14.3808 13.8024 14.3173 13.8375C14.2103 13.8972 14.0852 13.9085 13.9744 13.9578C13.8351 14.0203 13.7347 14.1577 13.5698 14.1728C13.5689 14.1567 13.5736 14.134 13.5822 14.1198C13.3434 14.242 13.2724 14.513 13.2421 14.6285C13.2319 14.6683 13.2203 14.6948 13.207 14.7081C13.2079 14.6958 13.207 14.6797 13.2032 14.6683C13.0516 14.8455 13.1056 15.0994 12.9739 15.2832C12.8925 15.3959 12.7598 15.4603 12.6916 15.5854C12.6869 15.5939 12.6888 15.6081 12.6878 15.6176C12.7579 15.6754 12.955 15.5967 13.099 15.5399C13.1085 15.5361 14.0521 15.1894 14.2254 15.3182C14.2273 15.3397 14.1717 15.4471 14.0587 15.6403C14.1866 15.5522 14.3258 15.4812 14.4452 15.3817C14.3675 15.5333 14.1998 15.5693 14.0805 15.6659C14.1307 15.6593 14.1477 15.647 14.2842 15.5484C14.281 15.5528 14.2279 15.5996 14.125 15.6886C14.125 15.6886 14.1269 15.6877 14.1269 15.6867C14.1326 15.6886 14.1402 15.6915 14.1458 15.6934C14.107 15.8118 13.9526 15.8468 13.9384 15.9833C13.951 15.9934 14.0363 15.9735 14.1942 15.9236C14.1739 15.9425 14.1541 15.9564 14.1345 15.9653C14.1411 15.9653 14.1496 15.9653 14.1563 15.9653C14.1499 15.983 14.1345 16.006 14.1098 16.0344C15.1122 15.5645 15.7156 14.8919 15.9288 14.6247C15.9174 14.6371 15.9032 14.6551 15.8928 14.6674C15.9136 14.6418 15.9354 14.6162 15.9563 14.5897C15.9525 14.5944 15.9468 14.6011 15.943 14.6067L15.9496 14.5982L15.9534 14.5935C15.9591 14.5868 15.9667 14.5774 15.9724 14.5698C15.9686 14.5745 15.9638 14.5812 15.9601 14.5859C15.9856 14.5508 16.0652 14.4428 16.1173 14.3055C16.1618 14.1871 16.2177 14.0724 16.2585 13.9521C16.2935 13.846 16.2679 13.7295 16.3191 13.6262C16.4562 13.3527 16.5266 13.168 16.5304 13.072C16.5408 12.8162 16.5891 12.7414 16.6497 12.6457C16.6497 12.6457 16.6497 12.6457 16.6478 12.6457C16.6469 12.6457 16.6459 12.6457 16.6441 12.6476L16.6422 12.6485ZM15.7422 11.633C15.7715 11.65 15.8198 11.6311 15.8322 11.5988C15.835 11.5922 15.835 11.5865 15.835 11.5818C15.8312 11.5486 15.7933 11.5221 15.7545 11.525C15.7232 11.5325 15.7204 11.5562 15.7194 11.5638C15.7175 11.578 15.7137 11.6168 15.7431 11.633H15.7422ZM15.2249 8.10306V8.10116C15.2249 8.10116 15.2249 8.10022 15.2239 8.09927C15.2239 8.09927 15.2239 8.10022 15.2239 8.10116V8.10306H15.2249ZM15.5423 9.96179C15.5366 9.96843 15.5309 9.97506 15.5271 9.9779C15.5347 9.97032 15.5394 9.96558 15.5413 9.96179H15.5423ZM15.9203 9.97601C15.925 10.066 15.9278 10.0688 15.9449 10.0831C15.9515 10.0584 15.9601 10.0253 15.9629 9.99969C15.9629 9.9959 16.0084 9.66053 15.8899 9.51843C15.8899 9.51843 15.8909 9.51653 15.8918 9.51558C15.9001 9.51116 15.9026 9.47548 15.8994 9.40853C15.8918 9.42843 15.8833 9.44832 15.8757 9.46916C15.8776 9.47769 15.8795 9.48811 15.8814 9.49664C15.8549 9.47895 15.8385 9.40853 15.8322 9.28537C15.9136 9.31948 15.889 9.19443 15.8653 9.13853C15.8341 9.06464 15.8246 9.06558 15.7516 9.07506C15.715 8.94874 15.6888 8.88432 15.673 8.88179C15.6572 8.87927 15.6509 8.89064 15.6541 8.9159C15.6398 8.8278 15.5404 8.82779 15.5195 8.84579C15.511 8.85337 15.5082 8.86948 15.5063 8.88085C15.5006 8.84864 15.4977 8.8259 15.4968 8.78137C15.4968 8.78137 15.4968 8.78137 15.4977 8.78137C15.5006 8.76527 15.5006 8.75674 15.5006 8.73969C15.5006 8.73495 15.4987 8.72832 15.4987 8.72358C15.4911 8.56822 15.5404 8.41001 15.4788 8.25653C15.4333 8.14285 15.2761 8.21769 15.2277 8.10874L15.2249 8.10306C15.2249 8.10306 15.2277 8.11253 15.2296 8.11537C15.2476 8.2499 15.1908 8.38916 15.2552 8.52085C15.2448 8.518 15.2315 8.52464 15.2221 8.52937C15.2012 8.60801 15.241 8.75769 15.3149 8.81453C15.3414 8.79937 15.3452 8.78137 15.3282 8.75106C15.3534 8.76748 15.3604 8.81927 15.349 8.90643C15.3414 8.90737 15.331 8.90927 15.3234 8.91022C15.3035 8.96137 15.331 8.99264 15.4343 9.10916C15.4949 9.03527 15.4229 8.9538 15.3746 8.91211C15.3964 8.90548 15.4219 8.89979 15.4759 8.90737C15.4646 8.93958 15.4807 8.9519 15.4968 8.95948C15.5082 8.95474 15.5195 8.94906 15.5063 8.91495C15.5707 8.93674 15.5934 9.00401 15.6455 9.04001C15.6361 8.99074 15.6114 8.97274 15.6038 8.96801C15.6057 8.94811 15.6095 8.88843 15.6711 8.95379C15.7081 8.99264 15.7403 9.05327 15.7497 9.07316C15.7469 9.07316 15.7431 9.07316 15.7403 9.07316C15.7346 9.10853 15.7598 9.16632 15.8161 9.24653C15.7981 9.26169 15.7857 9.26548 15.7715 9.24653C15.7744 9.24653 15.7791 9.24464 15.7819 9.24369C15.7832 9.23043 15.7801 9.21716 15.7725 9.2039C15.7639 9.21243 15.7602 9.21622 15.7677 9.2399L15.7621 9.22853C15.7459 9.27211 15.7459 9.30906 15.7649 9.37158C15.763 9.37158 15.7611 9.37064 15.7592 9.36969C15.7592 9.36969 15.769 9.38801 15.7886 9.42464L15.8738 9.57622C15.8618 9.61727 15.8107 9.68769 15.7204 9.78748C15.7223 9.78274 15.7242 9.77611 15.7261 9.77137C15.7071 9.73822 15.5953 9.74485 15.5745 9.81969C15.5612 9.86516 15.565 9.91443 15.5442 9.95895C15.5877 9.90401 15.5982 9.87748 15.6029 9.86422C15.6446 9.92106 15.7554 9.81969 15.7564 9.89358C15.7564 9.94758 15.7213 9.9978 15.7384 10.0546C15.7554 10.1096 15.8142 10.1257 15.8426 10.1712C15.8426 10.0944 15.9051 10.0442 15.9222 9.97506L15.9203 9.97601ZM15.5821 9.59611C15.6019 9.59706 15.6446 9.5279 15.6635 9.49001C15.6635 9.49001 15.6739 9.43127 15.6758 9.40285C15.6834 9.31001 15.6408 9.31853 15.6408 9.31853C15.5972 9.35264 15.547 9.59327 15.583 9.59611H15.5821ZM15.637 9.16032C15.6616 9.10822 15.6739 9.07695 15.6739 9.05232C15.6739 9.05137 15.6739 9.04948 15.6739 9.04758C15.7052 9.07601 15.7355 9.13001 15.7317 9.18022C15.7308 9.19348 15.727 9.20295 15.7251 9.20864C15.6995 9.15085 15.6702 9.14327 15.6285 9.18306V9.18495C15.6285 9.18116 15.6304 9.17548 15.6304 9.17169C15.6304 9.15464 15.6323 9.15369 15.6342 9.1518C15.6351 9.1518 15.6361 9.15274 15.6389 9.15937L15.637 9.16032ZM15.6436 9.15748H15.6465V9.1518L15.6427 9.15748H15.6436ZM15.223 8.10022C15.223 8.10022 15.223 8.10022 15.223 8.09927C15.223 8.09927 15.223 8.09927 15.223 8.10022ZM16.0548 10.8807C16.0482 10.8902 16.0415 10.9006 16.0339 10.9101C16.0396 10.8665 16.0339 10.822 16.0415 10.7784C16.0453 10.7544 16.0523 10.7377 16.0624 10.7282C16.0624 10.7282 16.0557 10.732 16.0529 10.7339C16.0235 10.7566 15.9923 10.7993 15.9781 10.9385C15.9768 10.9347 15.9755 10.9319 15.9743 10.93C15.9686 10.948 15.9762 11.0967 15.9828 11.1299C15.9951 11.1981 16.0112 11.201 16.0226 11.1972C15.9818 11.0247 16.0936 11.0285 16.0955 11.0285C16.0804 10.9651 16.0823 10.9338 16.1183 10.8211C16.0965 10.8144 16.0529 10.8656 16.0557 10.8807H16.0548ZM10.5601 9.76095C10.5601 9.76095 10.5619 9.76379 10.5629 9.76569C10.5572 9.75053 10.5515 9.73632 10.5458 9.72211C10.5458 9.72685 10.5468 9.73253 10.5477 9.73727C10.5515 9.7458 10.5563 9.75337 10.561 9.76095H10.5601ZM6.80373 13.234L6.7971 13.2198C6.7971 13.2198 6.799 13.2245 6.799 13.2274C6.78858 13.2037 6.78858 13.2037 6.77626 13.1971C6.7731 13.2053 6.77058 13.2596 6.76868 13.36C6.75352 13.3344 6.75068 13.3278 6.74216 13.2994C6.70237 13.397 6.70142 13.4453 6.73173 13.6935C6.76868 14.0023 6.71089 14.6048 6.53373 14.6181C6.47216 14.6228 6.34995 14.5338 6.30731 14.3898C6.26658 14.2543 6.21447 13.5495 6.21542 13.5447C6.2211 13.4491 6.31489 13.4225 6.36037 13.3581C6.37458 13.3382 6.37931 13.3145 6.39352 13.2956C6.40016 13.2861 6.41247 13.2747 6.421 13.2662C6.4911 13.1942 6.49963 13.091 6.55079 13.0095C6.5811 12.9602 6.59247 12.9005 6.63605 12.8598C6.69005 12.8446 6.73268 12.9716 6.75921 13.0805C6.7791 13.1658 6.78668 13.1942 6.80468 13.234H6.80373ZM6.78858 13.199C6.78573 13.1933 6.78479 13.1866 6.781 13.181C6.781 13.1838 6.78289 13.1866 6.78384 13.1895C6.78479 13.1923 6.78668 13.1961 6.78858 13.199ZM15.2258 8.10685L15.2239 8.10022C15.2239 8.10022 15.2249 8.10495 15.2258 8.10685Z" fill="#2F6E24"/>
<g style="mix-blend-mode:multiply">
<path d="M14.4179 1.46094C15.3425 2.87441 15.8807 4.56452 15.8807 6.37967C15.8807 11.3505 11.8515 15.3797 6.88065 15.3797C5.06549 15.3797 3.37634 14.8416 1.96191 13.9179C3.56865 16.3754 6.34444 17.9991 9.50012 17.9991C14.471 17.9991 18.5001 13.97 18.5001 8.99915C18.5001 5.84346 16.8763 3.06862 14.4179 1.46094Z" fill="#DBDBDB"/>
</g>
<g style="mix-blend-mode:screen">
<path d="M0.76709 6.81573C0.963195 6.83468 1.1612 6.8451 1.36204 6.8451C4.66741 6.8451 7.34656 4.16594 7.34656 0.860572C7.34656 0.65973 7.33614 0.46173 7.3172 0.265625C4.09993 1.06805 1.56856 3.59941 0.76709 6.81573Z" fill="#262626"/>
</g>
</g>
<defs>
<clipPath id="clip0_754_4983">
<rect width="18" height="18" fill="white" transform="translate(0.5)"/>
</clipPath>
</defs>
</svg>
