<svg width="190" height="110" viewBox="0 0 190 110" fill="none" xmlns="http://www.w3.org/2000/svg">
<g clip-path="url(#clip0_788_7156)">
<path opacity="0.3" d="M189.285 62.5231L107.44 110L0.713867 48.0967L82.5595 0.620117L189.285 62.5231Z" fill="black"/>
<path d="M189.285 61.9029L107.44 109.368L0.713867 47.471L82.5595 0L189.285 61.9029Z" fill="#F2F2F2"/>
<path d="M79.4272 8.71387L58.8643 20.6473L70.7091 27.5111L91.2776 15.5889L79.4272 8.71387Z" fill="#B5AFA7"/>
<path d="M100.853 21.1449L37.1723 58.0798L34.2959 56.4142L97.9765 19.4736L100.853 21.1449Z" fill="#B5AFA7"/>
<path d="M107.257 24.8558L43.5704 61.7964L40.6885 60.1251L104.375 23.1846L107.257 24.8558Z" fill="#B5AFA7"/>
<path d="M113.654 28.5677L49.9737 65.5083L47.0918 63.837L110.772 26.8965L113.654 28.5677Z" fill="#B5AFA7"/>
<path d="M120.058 32.2845L56.3715 69.2195L53.4951 67.5482L117.176 30.6133L120.058 32.2845Z" fill="#B5AFA7"/>
<path d="M148.694 48.8967L123.624 63.4348L122.689 62.8926L147.764 48.3545L148.694 48.8967Z" fill="#B5AFA7"/>
<path d="M113.649 70.9746L104.719 72.3608L98.1765 76.156L95.7842 81.3374L98.1821 86.5188L104.719 90.3085L113.654 91.7002L122.584 90.3085L129.127 86.5188L131.525 81.3374L129.132 76.156L122.589 72.3608L113.654 70.9746H113.649ZM126.896 76.8994L128.943 81.343L126.896 85.7754L121.299 89.0229L113.654 90.2078L106.004 89.0229L100.408 85.7754L98.3601 81.343L100.408 76.905L106.004 73.6519L113.649 72.467L121.293 73.6519L126.89 76.8994H126.896Z" fill="#6CB5C4"/>
<path d="M109.833 77.4919L107.029 79.124L106.005 81.3374L107.029 83.5508L109.833 85.1774L113.649 85.7754L117.477 85.1774L120.275 83.5508L121.299 81.3374L120.275 79.1184L117.477 77.4919L113.649 76.8994L109.833 77.4919Z" fill="#6CB5C4"/>
<path d="M107.635 75.2896L103.229 77.844L101.615 81.3374L103.229 84.8252L107.635 87.3851L113.655 88.3186L119.675 87.3851L124.081 84.8252L125.694 81.3318L124.081 77.844L119.675 75.2896L113.655 74.3506L107.635 75.2896ZM123.341 78.0955L124.838 81.3374L123.341 84.5737L119.246 86.9492L113.655 87.8211L108.069 86.9492L103.974 84.5737L102.478 81.3374L103.974 78.0955L108.069 75.72L113.66 74.8536L119.252 75.72L123.347 78.0955H123.341Z" fill="#6CB5C4"/>
<path d="M100.18 51.2386L62.7758 72.9312L59.8994 71.2656L97.2977 49.5674L100.18 51.2386Z" fill="#B5AFA7"/>
<path opacity="0.3" d="M67.6377 93.858L51.7871 84.6634L67.6377 75.4688L83.4939 84.6634L67.6377 93.858Z" fill="black"/>
<path d="M83.7053 62.5966L81.3408 62.5742V68.8288L82.5426 71.2378L83.7053 70.5615V62.5966Z" fill="#231F20"/>
<path d="M82.5428 63.2669L66.4141 53.9102V61.8807L82.5428 71.2374V63.2669Z" fill="#414042"/>
<path d="M65.418 53.335V75.43L80.3895 84.1104L80.9014 79.8736V61.434L65.418 53.335Z" fill="#857F79"/>
<path d="M67.293 75.0277L67.4543 91.8966L80.6288 84.2559V67.4932L67.293 75.0333V75.0277ZM79.2658 81.3102L78.2532 83.0821L69.2013 88.3306L68.1831 87.7437V76.3133L69.2013 74.5414L78.2532 69.293L79.2658 69.8798V81.3102Z" fill="#D8D1C7"/>
<path d="M53.7568 62.5967V84.6917L67.6435 92.7405L68.1553 88.5037V70.0642L53.7568 62.5967Z" fill="#D8D1C7"/>
<path d="M61.4788 86.5869V87.2911L59.832 86.3354V68.6504L60.444 69.0081L60.7667 85.3013L61.4788 86.5869Z" fill="#A39C95"/>
<path d="M61.4792 69.6059V86.5866L60.4443 85.9885V69.0078L61.4792 69.6059Z" fill="#E6E1DD"/>
<path d="M67.6377 70.651V92.746L81.4465 84.7308V62.6357L67.6377 70.651ZM80.089 81.7907L79.0708 83.5626L70.0189 88.811L69.0008 88.2242V76.7882L70.0189 75.0163L79.0708 69.7679L80.089 70.3547V81.7907Z" fill="#A39C95"/>
<path d="M51.4424 44.4309L54.6414 38.875L57.1895 40.5854L54.9419 45.6382L51.4424 44.4309Z" fill="#6D6E71"/>
<path d="M80.506 38.875L83.705 44.4309L81.5186 45.5767L78.1025 41.4685L80.506 38.875Z" fill="#6D6E71"/>
<path d="M72.2444 47.0078H63.3594V54.302H72.2444V47.0078Z" fill="#6D6E71"/>
<path d="M83.7056 44.4304L80.5065 42.5859L76.9236 43.3014L70.7814 48.2369L67.5713 53.7927L65.9912 64.6698L67.5713 71.9528L83.7056 62.5961V44.4304Z" fill="#231F20"/>
<path d="M68.7281 71.2821L66.3691 71.2598V77.5143L67.5709 79.9178L68.7281 79.2471V71.2821Z" fill="#231F20"/>
<path d="M67.5712 53.7935L64.3832 48.2376L54.6414 42.5811L51.4424 44.4312V70.5617L67.5712 79.9184V53.7935Z" fill="#414042"/>
<path d="M58.0625 67.5315L58.5243 67.2744L60.4103 68.3699L59.9319 69.4319L58.0625 67.5315Z" fill="#808285"/>
<path d="M59.9326 68.6272L60.4111 68.3701L61.7408 70.6674L61.2623 73.1211L59.9326 68.6272Z" fill="#6D6E71"/>
<path d="M61.2617 70.9521L61.7402 70.667V72.8748L61.2617 73.1208V70.9521Z" fill="#231F20"/>
<path d="M59.9323 73.9367L61.262 73.1207V70.952L59.9323 68.6268L58.063 67.5312L56.6943 68.3361V70.4937L58.063 72.8077L59.9323 73.9367Z" fill="#58595B"/>
<path d="M57.5674 68.5713L58.1237 68.2471L59.6259 69.1134L59.0695 70.0636L57.5674 68.5713Z" fill="#FA5C52"/>
<path d="M59.0703 69.4375L59.6267 69.1133L60.7004 70.9746L60.1496 73.0538L59.0703 69.4375Z" fill="#AB281F"/>
<path d="M60.1494 71.2988L60.7002 70.9746V72.7129L60.1494 73.0539V71.2988Z" fill="#8A1C14"/>
<path d="M59.0699 73.6856L60.1492 73.054V71.2989L59.0699 69.4377L57.5677 68.5713L56.5273 69.1917V70.9468L57.5677 72.8025L59.0699 73.6856Z" fill="#C84030"/>
<path d="M80.5066 42.5862V38.8748L70.7815 33.2295H64.3834L54.6416 38.8748V42.5862L64.3834 48.2371H70.7815L80.5066 42.5862Z" fill="#58595B"/>
</g>
<defs>
<clipPath id="clip0_788_7156">
<rect width="188.571" height="110" fill="white" transform="translate(0.713867)"/>
</clipPath>
</defs>
</svg>
