<svg width="152" height="110" viewBox="0 0 152 110" fill="none" xmlns="http://www.w3.org/2000/svg">
<g clip-path="url(#clip0_788_7727)">
<path d="M114.648 34.0296C115.101 33.4309 117.917 30.8419 118.273 31.1331C119.017 31.7318 118.661 34.5474 117.998 35.68C117.383 36.7318 114.681 39.5797 114.567 39.2399C114.341 38.5927 114.098 34.7415 114.648 34.0296Z" fill="url(#paint0_linear_788_7727)"/>
<path d="M10.7494 43.512C9.13126 44.4505 9.63288 51.7159 10.6038 54.7903L20.0374 49.3858L26.1539 63.0265C37.1571 63.9327 55.7656 21.7159 57.3837 20.7773L10.7494 43.512Z" fill="#262523"/>
<path d="M83.387 83.2204C81.7203 84.1912 81.4776 93.7705 82.5456 96.4728L91.1216 91.2301L98.565 105.049C105.458 103.22 126.122 59.9679 127.772 58.9971L83.387 83.2204Z" fill="#262523"/>
<path d="M35.7323 51.408C34.9071 49.4662 33.7582 47.6054 32.4152 46.0196C31.2825 44.6928 29.988 43.5439 28.6288 42.7348C26.2178 41.2947 24.0009 41.1329 22.399 42.039L16.3958 45.4209C14.7938 46.3109 13.7906 48.2526 13.742 51.0196C13.645 56.586 17.4637 63.4306 22.2696 66.2947C24.7615 67.7834 27.0268 67.9128 28.645 66.9096C28.5964 66.942 28.5641 66.9743 28.5155 66.9905L34.5187 63.6086C36.1045 62.7187 37.1077 60.7769 37.1563 58.0099C37.1887 55.8902 36.6708 53.5924 35.7323 51.408ZM29.1142 60.9225C28.92 60.8255 28.742 60.7284 28.5479 60.6151C24.8424 58.3983 21.8974 53.1232 21.9621 48.8352C21.9621 48.5924 21.9783 48.3497 22.0107 48.1232C22.2048 48.2203 22.3828 48.3174 22.577 48.4306C26.2825 50.6475 29.2275 55.9225 29.1466 60.2106C29.1466 60.4533 29.1304 60.696 29.098 60.9225H29.1142Z" fill="url(#paint1_linear_788_7727)"/>
<path d="M22.6255 46.117C17.8197 43.2529 13.8391 45.4374 13.742 51.0038C13.645 56.5701 17.4637 63.4148 22.2696 66.2788C27.0754 69.1429 31.056 66.9584 31.153 61.3921C31.2501 55.8258 27.4314 48.9811 22.6255 46.117ZM29.1142 60.9228C28.92 60.8258 28.742 60.7287 28.5479 60.6154C24.8424 58.3986 21.8974 53.1235 21.9621 48.8355C21.9621 48.5928 21.9783 48.35 22.0107 48.1235C22.2048 48.2206 22.3828 48.3177 22.577 48.4309C26.2825 50.6478 29.2275 55.9228 29.1466 60.2109C29.1466 60.4536 29.1304 60.6963 29.098 60.9228H29.1142Z" fill="#313131"/>
<g style="mix-blend-mode:screen" opacity="0.6">
<path d="M22.6097 46.9906C18.2246 44.3692 14.6 46.3757 14.503 51.4566C14.4059 56.5375 17.901 62.7834 22.2861 65.4048C26.6712 68.0262 30.2958 66.0197 30.3929 60.9388C30.49 55.8579 26.9949 49.6119 22.6097 46.9906ZM22.3023 64.4177C18.3864 62.0715 15.2797 56.5051 15.3444 51.9582C15.4253 47.4113 18.6615 45.6313 22.5774 47.9776C26.4932 50.3239 29.6 55.8902 29.5191 60.4372C29.4382 64.9841 26.202 66.764 22.2861 64.4177H22.3023Z" fill="#313131"/>
</g>
<path d="M28.5476 60.5991C24.8421 58.3823 21.8971 53.1072 21.9619 48.8192C21.9619 48.5765 21.9781 48.3338 22.0104 48.1072C18.5638 46.392 15.7968 48.1072 15.7321 52.1849C15.6512 56.4891 18.5962 61.7642 22.3179 63.9648C25.813 66.0522 28.7418 64.6768 29.1302 60.9066C28.936 60.8095 28.758 60.7124 28.5638 60.5991H28.5476Z" fill="#888888"/>
<path d="M26.6709 60.3242C26.4768 60.6155 26.0075 61.4245 25.7324 61.6025L26.7518 61.0038C27.0269 60.842 27.2696 60.6155 27.48 60.3242H26.6709Z" fill="#525252"/>
<path d="M26.7358 59.4669C26.3636 62.0236 24.163 62.5899 21.8167 60.7452C19.4866 58.9006 17.8847 55.3245 18.2568 52.7679C18.629 50.2113 20.8297 49.6449 23.1759 51.4896C25.5222 53.3342 27.108 56.9103 26.7358 59.4669Z" fill="#5B5B5B"/>
<path d="M26.4441 60.1791C25.9587 61.1176 25.279 61.4736 24.5023 61.5059C24.47 61.5059 24.4214 61.5059 24.3891 61.5059C23.8227 61.5059 23.1917 61.3118 22.5282 60.9234C22.1075 60.6807 21.6868 60.3571 21.2985 60.0011C21.2661 59.9687 21.2176 59.9202 21.1852 59.8878C20.1658 58.9007 19.3244 57.5739 18.8227 56.2147C18.8066 56.1661 18.7904 56.1014 18.758 56.0528C18.4829 55.2438 18.3211 54.4185 18.3211 53.658C18.3211 53.1726 18.3858 52.7357 18.5153 52.3473C18.5153 52.315 18.5477 52.2664 18.5477 52.2341C18.9036 51.2632 19.6318 50.713 20.5703 50.6807C20.6027 50.6807 20.6512 50.6807 20.6836 50.6807C21.2499 50.6807 21.881 50.8749 22.5444 51.2632C22.8842 51.4574 23.2078 51.7001 23.5315 51.9752L23.3697 51.4897C23.0946 51.2794 22.8195 51.0852 22.5444 50.9234C20.0525 49.4833 18.0299 50.6483 18.0137 53.5124C18.0137 56.3765 20.0201 59.8716 22.5121 61.3117C24.1949 62.2826 25.6998 62.0399 26.4765 60.9234L26.6544 60.6321L26.4279 60.2114L26.4441 60.1791Z" fill="#A8A8A8"/>
<path d="M20.8619 53.7221C20.8619 53.7221 20.9266 53.6735 20.9752 53.6412L20.8134 53.5441L18.548 52.2334C18.548 52.2334 18.5156 52.3143 18.5156 52.3467L20.7325 53.625L20.8619 53.7059V53.7221Z" fill="#3D3D3D"/>
<path d="M23.8877 54.9028V53.0743L23.7744 52.7021V54.7248V54.9352C23.823 54.9837 23.8553 55.0484 23.8877 55.1132V54.9028Z" fill="#3D3D3D"/>
<path d="M22.1889 57.4759H22.2213L26.0563 59.6928L26.0077 59.5148L23.2893 57.9452L23.2569 57.9128V57.8805L24.6808 57.0714H24.7132L25.1177 56.8287L25.0692 56.6669L24.697 56.8772H24.6647L23.9527 57.2979H23.9203L23.9041 57.2494V55.1135C23.9041 55.1135 23.8232 55.0002 23.7909 54.9355V55.9387L23.7585 55.9549H23.7423L23.0465 54.7413L22.9495 54.7899H22.9656L23.6776 56.0358L23.7262 56.0034H23.7423V56.052V57.2009L23.8071 57.2494L23.8394 57.2818V57.3141L23.1274 57.7187L23.176 57.7996V57.8319H23.1598L22.1566 57.2494V57.3303L22.1404 57.3465L22.1242 57.3141L21.4122 56.0844L21.3637 56.1167H21.3475V56.0682V54.9193L21.2828 54.8708L21.2504 54.8384V54.806L21.9786 54.4015L22.0757 54.3368L22.9656 54.8546V54.7737L22.9818 54.7575L23.0789 54.6928L22.4964 53.6895L22.3346 53.4144L20.7326 50.6475C20.7326 50.6475 20.6517 50.6475 20.6194 50.6475L22.1889 53.3659L22.3346 53.6248L22.9333 54.6442V54.6928H22.9171L22.2051 54.2721L21.0401 53.5924C21.0401 53.5924 20.9592 53.641 20.9268 53.6733L21.8491 54.2073L21.8815 54.2397V54.2721L18.8232 56.0196C18.8232 56.052 18.8556 56.1005 18.8556 56.1329C18.8556 56.1491 18.8556 56.1653 18.8718 56.1814L21.2019 54.8546H21.2342L21.2504 54.9031V59.8546C21.2504 59.8546 21.3152 59.9355 21.3637 59.9679V56.1976L21.4122 56.1814H21.4284L24.4705 61.4565C24.5029 61.4565 24.5514 61.4565 24.5838 61.4565L22.2698 57.4598V57.4112L22.1889 57.4759ZM21.8977 54.3206L22.0109 54.3853L21.9139 54.4339L21.8653 54.353V54.3044H21.8815L21.8977 54.3206Z" fill="#3D3D3D"/>
<path d="M23.5641 50.308C22.3182 49.5799 21.1693 49.5152 20.3602 50.0006L19.3408 50.5993C20.1661 50.1301 21.2987 50.1948 22.5447 50.9068C22.8198 51.0686 23.111 51.2627 23.3699 51.4731L24.3894 50.8744C24.1143 50.664 23.8392 50.4699 23.5641 50.308Z" fill="#4A4A4A"/>
<path d="M28.2896 55.0653C28.241 54.952 28.1925 54.8388 28.1439 54.7255C27.707 53.7223 27.1083 52.7999 26.4449 52.0394C25.8462 51.3436 25.1666 50.7935 24.5032 50.4051C24.4546 50.3728 24.4061 50.3404 24.3413 50.3242L22.8203 51.2142C22.8203 51.2142 22.9174 51.2789 22.9821 51.2951C23.6617 51.6834 24.3252 52.2498 24.9239 52.9294C25.5873 53.6899 26.186 54.6122 26.6229 55.6155C26.6714 55.7287 26.72 55.842 26.7685 55.9553C27.61 58.0912 27.5614 60.0491 26.7685 61.1333L28.2896 60.2433C29.0824 59.143 29.131 57.2012 28.2896 55.0653Z" fill="#A52F29"/>
<path d="M26.7681 55.9393C25.9429 53.8681 24.4704 52.1368 22.9655 51.2792C22.917 51.2468 22.8684 51.2144 22.8037 51.1982L26.7519 61.1335C27.5448 60.0332 27.5934 58.0914 26.7519 55.9555L26.7681 55.9393Z" fill="#C94039"/>
<mask id="mask0_788_7727" style="mask-type:luminance" maskUnits="userSpaceOnUse" x="15" y="47" width="15" height="18">
<path d="M22.3021 63.9805C25.7972 66.0678 28.726 64.6924 29.1144 60.9222C29.1306 60.6957 29.1468 60.453 29.1629 60.2102C29.2438 55.906 26.2989 50.631 22.5934 48.4303C22.3992 48.317 22.205 48.22 22.027 48.1229C18.5804 46.4077 15.8134 48.1229 15.7487 52.2005C15.6678 56.5047 18.6128 61.7798 22.3345 63.9805H22.3021Z" fill="white"/>
</mask>
<g mask="url(#mask0_788_7727)">
<path d="M15.7808 53.9485C16.4766 58.0909 19.3407 62.2333 22.4637 64.0294C23.2242 64.4663 23.9847 64.7738 24.7452 64.9032C25.7485 65.0812 26.6222 64.9194 27.318 64.4987L27.852 64.1912C29.4378 63.2689 30.2145 61.0197 29.7129 58.0747C29.0171 53.9323 26.1692 49.7899 23.03 47.9776C22.2695 47.5407 21.509 47.2333 20.7323 47.1038C19.7452 46.942 18.8714 47.0877 18.1756 47.4922L17.6417 47.7996C17.6417 47.7996 17.7064 47.7673 17.7226 47.7673C16.0721 48.6572 15.263 50.9388 15.7646 53.9323L15.7808 53.9485ZM28.6773 58.2689L25.0203 56.1977C24.5025 55.8903 24.1465 55.0812 24.3569 54.6605L25.6999 51.8288C25.6999 51.8288 25.7808 51.8611 25.8132 51.8773C25.9265 51.942 26.0559 52.0553 26.1692 52.2009C27.4475 53.9485 28.386 56.0197 28.7743 58.0585C28.7905 58.1556 28.7905 58.2365 28.7743 58.3174C28.742 58.3174 28.7258 58.3174 28.6934 58.2851L28.6773 58.2689ZM24.1951 57.9938C24.1951 57.9938 24.3083 58.0424 24.3731 58.0747C24.3892 58.0747 24.4216 58.1071 24.4378 58.1071L28.1109 60.599C28.4993 60.8579 28.7582 61.4566 28.6449 61.8288C28.386 62.7026 27.9167 63.3822 27.3019 63.8352C26.9782 63.9809 26.6546 64.0941 26.2663 64.1427C26.1692 64.1427 26.0559 64.1265 25.9426 64.0618C25.6837 63.9161 25.441 63.5925 25.3601 63.2365L24.1789 58.4954C24.1303 58.3013 24.1303 58.1394 24.1789 58.01L24.1951 57.9938ZM23.564 50.3401L22.496 53.5602C22.496 53.5602 22.3666 53.5278 22.3019 53.4954C22.14 53.3983 21.9621 53.2365 21.8326 53.01L19.1465 48.7705C18.9523 48.4631 18.9038 48.1394 18.9685 47.9291C20.0203 47.7511 21.2501 48.0424 22.4799 48.7543C22.6578 48.8676 22.852 48.9809 23.03 49.0941C23.4184 49.353 23.6773 49.9517 23.5478 50.3239L23.564 50.3401ZM18.4993 58.01L21.1692 57.2818C21.2986 57.2495 21.4443 57.2818 21.5899 57.3627C21.9135 57.5569 22.221 57.9776 22.3019 58.4145L23.1433 63.0909C23.1595 63.188 23.1433 63.2689 23.1433 63.3336C23.1109 63.3336 23.0947 63.3336 23.0624 63.3013C23.03 63.2851 22.9977 63.2689 22.9815 63.2527C21.3633 62.3304 19.8423 60.7284 18.6611 58.8514C18.4669 58.544 18.4184 58.2042 18.4993 57.9938V58.01ZM17.0591 49.6443C17.0591 49.6443 17.14 49.6767 17.1724 49.6928C17.3019 49.7576 17.4151 49.8708 17.5284 50.0327L20.4572 54.1265C20.7161 54.4987 20.8132 54.9194 20.7161 55.1945L17.7711 55.5343C17.674 55.5343 17.5608 55.5181 17.4475 55.4534C17.1886 55.3077 16.9459 54.9841 16.865 54.6281C16.3957 52.6864 16.4766 50.9388 17.0591 49.6605V49.6443Z" fill="#9E9E9E"/>
<path d="M15.7813 53.949C16.4771 58.0914 19.3412 62.2337 22.4641 64.0299C23.2247 64.4668 23.9852 64.7742 24.7457 64.9037C27.9658 65.4538 29.8751 62.6545 29.1794 58.3988C28.4836 54.2564 25.6357 50.114 22.4965 48.3017C21.736 47.8648 20.9593 47.5574 20.2149 47.4279C16.9949 46.8778 15.0855 49.6933 15.7813 53.9328V53.949ZM28.1438 58.5768L24.4868 56.5056C23.969 56.2143 23.613 55.3891 23.8234 54.9684L25.2311 51.9748C25.3282 51.7645 25.5709 51.7321 25.7975 51.8778C25.9107 51.9425 26.0402 52.0558 26.1535 52.2014C27.4318 53.949 28.3703 56.0202 28.7586 58.059C28.8557 58.5606 28.5645 58.8195 28.1599 58.593L28.1438 58.5768ZM24.3735 58.0752C24.3735 58.0752 24.4221 58.1075 24.4383 58.1075L28.1114 60.5994C28.4997 60.8583 28.7586 61.457 28.6454 61.8292C28.1923 63.3341 27.1567 64.2888 25.7489 64.4506C25.6518 64.4506 25.5386 64.4344 25.4253 64.3697C25.1664 64.224 24.9237 63.9004 24.8428 63.5444L23.6616 58.8033C23.4997 58.1561 23.8719 57.8163 24.3573 58.0914L24.3735 58.0752ZM23.5645 50.3405L22.4803 53.6253C22.3832 53.9328 22.092 53.9813 21.7845 53.8033C21.6227 53.7062 21.4447 53.5444 21.3153 53.3179L18.6292 49.0784C18.3379 48.6092 18.3541 48.0752 18.6777 47.9943C19.7942 47.6868 21.1373 47.9781 22.4965 48.7548C22.6745 48.8681 22.8687 48.9813 23.0467 49.0946C23.435 49.3535 23.6939 49.9522 23.5645 50.3244V50.3405ZM18.1923 58.1075L21.1696 57.2985C21.2991 57.2661 21.4447 57.2985 21.5904 57.3794C21.914 57.5736 22.2214 57.9943 22.3023 58.4312L23.1438 63.1075C23.2247 63.6092 22.9334 63.8519 22.545 63.6253C22.5127 63.6091 22.4803 63.593 22.4641 63.5768C20.846 62.6545 19.325 61.0525 18.1438 59.1755C17.8525 58.7062 17.8687 58.1884 18.1923 58.1075ZM16.6065 49.7904C16.7198 49.58 16.9463 49.5638 17.1729 49.6933C17.3023 49.758 17.4156 49.8713 17.5289 50.0331L20.4577 54.127C20.8784 54.7095 20.846 55.4214 20.4091 55.47L17.2538 55.826C17.1567 55.826 17.0434 55.8098 16.9302 55.7451C16.6713 55.5994 16.4285 55.2758 16.3476 54.9198C15.8622 52.8972 15.9593 51.0849 16.6065 49.7904Z" fill="#DDDDDD"/>
<path d="M21.3313 56.1168C21.574 56.7317 21.9947 57.2495 22.4478 57.4922C22.6743 57.6216 22.8847 57.6864 23.095 57.6702C23.7099 57.6216 23.9203 56.8288 23.5805 55.9226C23.3378 55.3077 22.917 54.7899 22.464 54.531C22.2536 54.4016 22.0271 54.3368 21.8167 54.353C21.2018 54.4016 20.9753 55.1945 21.3313 56.1006V56.1168ZM21.8653 54.4987C22.0433 54.4825 22.2536 54.5472 22.4478 54.6605C22.8685 54.9032 23.2568 55.3724 23.4834 55.9388C23.807 56.7802 23.6128 57.5084 23.0465 57.5569C22.8523 57.5731 22.6581 57.5084 22.4478 57.3951C22.0433 57.1524 21.6387 56.6831 21.4284 56.1168C21.1047 55.2754 21.2989 54.5472 21.8653 54.4987Z" fill="url(#paint2_linear_788_7727)"/>
<path d="M21.1533 54.2074C21.1533 54.353 21.0562 54.4177 20.9267 54.3368C20.7973 54.2559 20.7002 54.0779 20.7002 53.9323C20.7002 53.7866 20.7973 53.7219 20.9267 53.8028C21.0562 53.8837 21.1533 54.0617 21.1533 54.2074Z" fill="#E5E5E5"/>
<path d="M20.7646 53.7863L20.8941 53.7054C20.8941 53.7054 20.9912 53.6893 21.0559 53.7054C21.1854 53.7863 21.2824 53.9643 21.2824 54.11C21.2824 54.1747 21.2501 54.2394 21.2177 54.2556L21.0883 54.3365C21.0883 54.3365 21.153 54.2556 21.153 54.1909C21.153 54.0452 21.0559 53.8673 20.9265 53.7863C20.8617 53.754 20.797 53.754 20.7646 53.7863Z" fill="url(#paint3_linear_788_7727)"/>
<path d="M21.0078 56.5208C21.0078 56.6665 20.9107 56.7312 20.7812 56.6503C20.6518 56.5694 20.5547 56.3914 20.5547 56.2457C20.5547 56.1001 20.6518 56.0354 20.7812 56.1163C20.9107 56.1972 21.0078 56.3752 21.0078 56.5208Z" fill="#E5E5E5"/>
<path d="M20.6035 56.1164L20.733 56.0355C20.733 56.0355 20.8301 56.0193 20.8948 56.0355C21.0242 56.1164 21.1213 56.2944 21.1213 56.44C21.1213 56.5048 21.089 56.5695 21.0566 56.5857L20.9271 56.6666C20.9271 56.6666 20.9919 56.5857 20.9919 56.5209C20.9919 56.3753 20.8948 56.1973 20.7653 56.1164C20.7006 56.0841 20.6359 56.0841 20.6035 56.1164Z" fill="url(#paint4_linear_788_7727)"/>
<path d="M23.0136 58.4798C23.0136 58.6254 22.9165 58.6902 22.7871 58.6093C22.6576 58.5284 22.5605 58.3504 22.5605 58.2047C22.5605 58.0591 22.6576 57.9944 22.7871 58.0753C22.9165 58.1562 23.0136 58.3342 23.0136 58.4798Z" fill="#E5E5E5"/>
<path d="M22.625 58.0588L22.7544 57.9779C22.7544 57.9779 22.8515 57.9617 22.9163 57.9779C23.0457 58.0588 23.1428 58.2368 23.1428 58.3824C23.1428 58.4472 23.1104 58.5119 23.0781 58.5281L22.9486 58.609C22.9486 58.609 23.0133 58.5281 23.0133 58.4633C23.0133 58.3177 22.9163 58.1397 22.7868 58.0588C22.7221 58.0264 22.6574 58.0264 22.625 58.0588Z" fill="url(#paint5_linear_788_7727)"/>
<path d="M24.5185 57.4281C24.5185 57.5737 24.4214 57.6384 24.292 57.5575C24.1625 57.4766 24.0654 57.2986 24.0654 57.153C24.0654 57.0073 24.1625 56.9426 24.292 57.0235C24.4214 57.1044 24.5185 57.2824 24.5185 57.4281Z" fill="#E5E5E5"/>
<path d="M24.1299 57.007L24.2593 56.9261C24.2593 56.9261 24.3564 56.91 24.4211 56.9261C24.5506 57.007 24.6477 57.185 24.6477 57.3307C24.6477 57.3954 24.6153 57.4601 24.583 57.4763L24.4535 57.5572C24.4535 57.5572 24.5182 57.4763 24.5182 57.4116C24.5182 57.2659 24.4211 57.0879 24.2917 57.007C24.227 56.9747 24.1622 56.9747 24.1299 57.007Z" fill="url(#paint6_linear_788_7727)"/>
<path d="M23.2568 54.5306C23.2568 54.6762 23.1597 54.7409 23.0302 54.66C22.9008 54.5791 22.8037 54.4011 22.8037 54.2555C22.8037 54.1099 22.9008 54.0452 23.0302 54.1261C23.1597 54.207 23.2568 54.385 23.2568 54.5306Z" fill="#E5E5E5"/>
<path d="M22.8525 54.1262L22.982 54.0453C22.982 54.0453 23.0791 54.0291 23.1438 54.0453C23.2733 54.1262 23.3703 54.3042 23.3703 54.4498C23.3703 54.5145 23.338 54.5793 23.3056 54.5954L23.1762 54.6763C23.1762 54.6763 23.2409 54.5954 23.2409 54.5307C23.2409 54.3851 23.1438 54.2071 23.0144 54.1262C22.9496 54.0938 22.8849 54.0938 22.8525 54.1262Z" fill="url(#paint7_linear_788_7727)"/>
</g>
<path d="M15.3443 51.9581C15.2634 56.505 18.3702 62.0714 22.3022 64.4177C26.2181 66.7639 29.4543 64.9678 29.5353 60.4371C29.6162 55.8902 26.5094 50.3238 22.5935 47.9775C18.6777 45.6313 15.4414 47.4274 15.3605 51.9581H15.3443ZM15.7165 52.1847C15.7812 48.107 18.5482 46.3756 21.9948 48.107C22.189 48.2041 22.367 48.3012 22.5611 48.4144C26.2666 50.6313 29.2116 55.9063 29.1307 60.1944C29.1307 60.4371 29.1145 60.6798 29.0822 60.9063C28.6938 64.6766 25.765 66.052 22.2699 63.9646C18.5644 61.7478 15.6194 56.4727 15.6841 52.1847H15.7165Z" fill="#DDDDDD"/>
<path d="M73.7422 78.3501L43.0303 60.2109L32.2212 60.2595C32.2212 60.2595 32.027 65.7287 31.6387 67.0071L82.6095 96.4893V89.2077L73.7584 78.3501H73.7422Z" fill="url(#paint8_linear_788_7727)"/>
<path d="M106.461 92.2498C105.636 90.308 104.487 88.4472 103.144 86.8614C102.011 85.5346 100.717 84.3857 99.3573 83.5766C96.9463 82.1365 94.7295 81.9747 93.1275 82.8808L87.1243 86.2627C85.5223 87.1527 84.5191 89.0944 84.4706 91.8614C84.3735 97.4278 88.1922 104.272 92.9981 107.137C95.49 108.625 97.7554 108.755 99.3735 107.751C99.3249 107.784 99.2926 107.816 99.244 107.832L105.247 104.45C106.833 103.56 107.836 101.619 107.885 98.8517C107.917 96.732 107.399 94.4342 106.461 92.2498ZM99.8427 101.764C99.6486 101.667 99.4706 101.57 99.2764 101.457C95.5709 99.2401 92.6259 93.965 92.6906 89.677C92.6906 89.4342 92.7068 89.1915 92.7392 88.965C92.9333 89.0621 93.1113 89.1592 93.3055 89.2724C97.011 91.4893 99.956 96.7643 99.8751 101.052C99.8751 101.295 99.8589 101.538 99.8265 101.764H99.8427Z" fill="url(#paint9_linear_788_7727)"/>
<path d="M93.3541 86.9422C88.5482 84.0781 84.5676 86.2626 84.4706 91.8289C84.3735 97.3953 88.1922 104.24 92.9981 107.104C97.8039 109.968 101.784 107.784 101.882 102.217C101.979 96.651 98.1599 89.8063 93.3541 86.9422ZM99.8427 101.748C99.6486 101.651 99.4706 101.554 99.2764 101.441C95.5709 99.2238 92.6259 93.9487 92.6906 89.6607C92.6906 89.4179 92.7068 89.1752 92.7392 88.9487C92.9333 89.0458 93.1113 89.1429 93.3055 89.2561C97.011 91.473 99.956 96.748 99.8751 101.036C99.8751 101.279 99.8589 101.522 99.8265 101.748H99.8427Z" fill="#313131"/>
<g style="mix-blend-mode:screen" opacity="0.6">
<path d="M93.3377 87.8324C88.9526 85.211 85.328 87.2175 85.2309 92.2984C85.15 97.3793 88.6289 103.625 93.014 106.247C97.3992 108.868 101.024 106.861 101.121 101.781C101.218 96.6997 97.7228 90.4537 93.3377 87.8324ZM93.0302 105.26C89.1144 102.913 86.0076 97.3469 86.0723 92.8C86.137 88.2531 89.3895 86.4731 93.3053 88.8194C97.2212 91.1657 100.328 96.732 100.247 101.279C100.166 105.826 96.9299 107.606 93.014 105.26H93.0302Z" fill="#313131"/>
</g>
<path d="M99.2761 101.441C95.5706 99.2241 92.6257 93.949 92.6904 89.661C92.6904 89.4183 92.7066 89.1756 92.7389 88.949C89.2923 87.2338 86.5253 88.949 86.4606 93.0267C86.3797 97.3309 89.3247 102.606 93.0464 104.807C96.5415 106.894 99.4703 105.519 99.8587 101.748C99.6645 101.651 99.4865 101.554 99.2923 101.441H99.2761Z" fill="#888888"/>
<path d="M97.3995 101.166C97.2053 101.457 96.736 102.266 96.4609 102.444L97.4804 101.846C97.7554 101.684 97.9982 101.457 98.2085 101.166H97.3995Z" fill="#525252"/>
<path d="M97.4643 100.292C97.0922 102.849 94.8915 103.415 92.5452 101.57C90.2151 99.7258 88.6132 96.1497 88.9854 93.5931C89.3575 91.0365 91.5582 90.4701 93.9045 92.3148C96.2345 94.1594 97.8365 97.7355 97.4643 100.292Z" fill="#5B5B5B"/>
<path d="M97.1726 101.021C96.6872 101.959 96.0076 102.315 95.2309 102.348C95.1985 102.348 95.15 102.348 95.1176 102.348C94.5512 102.348 93.9202 102.154 93.2567 101.765C92.836 101.522 92.4153 101.199 92.027 100.843C91.9946 100.811 91.9461 100.762 91.9137 100.73C90.8943 99.7425 90.0529 98.4157 89.5512 97.0565C89.5351 97.0079 89.5189 96.9432 89.4865 96.8946C89.2114 96.0856 89.0496 95.2603 89.0496 94.4998C89.0496 94.0144 89.1144 93.5775 89.2438 93.1891C89.2438 93.1568 89.2762 93.1082 89.2762 93.0759C89.6322 92.105 90.3603 91.5548 91.2988 91.5225C91.3312 91.5225 91.3797 91.5225 91.4121 91.5225C91.9784 91.5225 92.6095 91.7167 93.2729 92.105C93.6127 92.2992 93.9364 92.5419 94.26 92.817L94.0982 92.3315C93.8231 92.1212 93.548 91.927 93.2729 91.7652C90.781 90.3251 88.7584 91.4901 88.7422 94.3542C88.7422 97.2183 90.7487 100.713 93.2406 102.154C94.9234 103.124 96.4283 102.898 97.205 101.765L97.383 101.474L97.1564 101.053L97.1726 101.021Z" fill="#A8A8A8"/>
<path d="M91.5904 94.5482C91.5904 94.5482 91.6551 94.4997 91.7037 94.4673L91.5419 94.3703L89.2765 93.0596C89.2765 93.0596 89.2441 93.1405 89.2441 93.1728L91.461 94.4512L91.5904 94.5321V94.5482Z" fill="#3D3D3D"/>
<path d="M94.6162 95.729V93.9005L94.5029 93.5283V95.551V95.7613C94.5515 95.8099 94.5838 95.8746 94.6162 95.9393V95.729Z" fill="#3D3D3D"/>
<path d="M92.9174 98.3021H92.9498L96.7848 100.519L96.7362 100.341L94.0178 98.7714L93.9854 98.739V98.7066L95.4094 97.8976H95.4417L95.8463 97.6549L95.7977 97.4931L95.4255 97.7034H95.3932L94.6812 98.1241H94.6488L94.6327 98.0756V95.9397C94.6327 95.9397 94.5518 95.8264 94.5194 95.7617V96.7649L94.487 96.7811H94.4708L93.7751 95.5675L93.678 95.616H93.6941L94.4061 96.862L94.4547 96.8296H94.4708V96.8782V98.027L94.5356 98.0756L94.5679 98.1079V98.1403L93.856 98.5448L93.9045 98.6257V98.6581H93.8883L92.8851 98.0756V98.1565L92.8689 98.1727L92.8527 98.1403L92.1408 96.9105L92.0922 96.9429H92.076V96.8943V95.7455L92.0113 95.6969L91.9789 95.6646V95.6322L92.7071 95.2277L92.8042 95.163L93.6941 95.6808V95.5999L93.7103 95.5837L93.8074 95.5189L93.2249 94.5157L93.0631 94.2406L91.4611 91.4736C91.4611 91.4736 91.3802 91.4736 91.3479 91.4736L92.9174 94.1921L93.0631 94.451L93.6618 95.4704V95.5189H93.6456L92.9336 95.0982L91.7686 94.4186C91.7686 94.4186 91.6877 94.4672 91.6553 94.4995L92.5776 95.0335L92.61 95.0659V95.0982L89.5518 96.8296C89.5518 96.862 89.5841 96.9105 89.5841 96.9429C89.5841 96.9591 89.5841 96.9753 89.6003 96.9914L91.9304 95.6646H91.9628L91.9789 95.7131V100.665C91.9789 100.665 92.0437 100.745 92.0922 100.778V97.0076L92.1246 96.9914H92.1408L95.1828 102.267C95.2152 102.267 95.2637 102.267 95.2961 102.267L92.9822 98.2698V98.2212L92.9174 98.3021ZM92.6262 95.1468L92.7395 95.2115L92.6424 95.26L92.5938 95.1791V95.1306H92.61L92.6262 95.1468Z" fill="#3D3D3D"/>
<path d="M94.2926 91.1498C93.0467 90.4217 91.8978 90.357 91.0887 90.8424L90.0693 91.4411C90.8946 90.9718 92.0273 91.0366 93.2732 91.7485C93.5483 91.9104 93.8396 92.1045 94.0985 92.3149L95.1179 91.7162C94.8428 91.5058 94.5677 91.3117 94.2926 91.1498Z" fill="#4A4A4A"/>
<path d="M99.0181 95.8905C98.9695 95.7772 98.921 95.664 98.8725 95.5507C98.4356 94.5475 97.8369 93.6251 97.1734 92.8646C96.5747 92.1688 95.8951 91.6187 95.2317 91.2303C95.1831 91.198 95.1346 91.1656 95.0699 91.1494L93.5488 92.0394C93.5488 92.0394 93.6459 92.1041 93.7106 92.1203C94.3903 92.5086 95.0537 93.075 95.6524 93.7546C96.3158 94.5151 96.9145 95.4374 97.3514 96.4407C97.4 96.5539 97.4485 96.6672 97.4971 96.7805C98.3385 98.9164 98.2899 100.874 97.4971 101.958L99.0181 101.069C99.811 99.9682 99.8595 98.0264 99.0181 95.8905Z" fill="#A52F29"/>
<path d="M97.4966 96.7802C96.6714 94.709 95.1989 92.9776 93.694 92.12C93.6455 92.0876 93.597 92.0552 93.5322 92.0391L97.4804 101.974C98.2733 100.874 98.3219 98.9323 97.4804 96.7963L97.4966 96.7802Z" fill="#C94039"/>
<mask id="mask1_788_7727" style="mask-type:luminance" maskUnits="userSpaceOnUse" x="86" y="88" width="14" height="18">
<path d="M93.0306 104.807C96.5258 106.894 99.4546 105.519 99.8429 101.748C99.8591 101.522 99.8753 101.279 99.8915 101.036C99.9724 96.7322 97.0274 91.4571 93.3219 89.2565C93.1277 89.1432 92.9335 89.0461 92.7555 88.949C89.3089 87.2338 86.5419 88.949 86.4772 93.0267C86.3963 97.3309 89.3413 102.606 93.063 104.807H93.0306Z" fill="white"/>
</mask>
<g mask="url(#mask1_788_7727)">
<path d="M86.5104 94.7903C87.2062 98.9327 90.0703 103.075 93.1933 104.871C93.9538 105.308 94.7143 105.616 95.4748 105.745C96.4781 105.923 97.3518 105.761 98.0476 105.34L98.5816 105.033C100.167 104.111 100.944 101.862 100.442 98.9165C99.7467 94.7741 96.8988 90.6317 93.7596 88.8194C92.9991 88.3825 92.2386 88.0751 91.4781 87.9456C90.491 87.7838 89.6172 87.9295 88.9214 88.334L88.3874 88.6414C88.3874 88.6414 88.4522 88.6091 88.4683 88.6091C86.8179 89.499 86.025 91.7806 86.5104 94.7741V94.7903ZM99.4069 99.1107L95.7499 97.0395C95.2321 96.7321 94.8761 95.923 95.0865 95.5023L96.4295 92.6706C96.4295 92.6706 96.5104 92.7029 96.5428 92.7191C96.6561 92.7838 96.7855 92.8971 96.8988 93.0427C98.1771 94.7903 99.1156 96.8615 99.5039 98.9003C99.5201 98.9974 99.5201 99.0783 99.5039 99.1592C99.4716 99.1592 99.4554 99.1592 99.423 99.1269L99.4069 99.1107ZM94.9247 98.8356C94.9247 98.8356 95.0379 98.8842 95.1026 98.9165C95.1188 98.9165 95.1512 98.9489 95.1674 98.9489L98.8405 101.441C99.2289 101.7 99.4878 102.298 99.3745 102.671C99.1156 103.544 98.6463 104.224 98.0315 104.677C97.7078 104.823 97.3842 104.936 96.9959 104.984C96.8988 104.984 96.7855 104.968 96.6722 104.904C96.4133 104.758 96.1706 104.434 96.0897 104.078L94.9085 99.3372C94.8599 99.1431 94.8599 98.9812 94.9085 98.8518L94.9247 98.8356ZM94.2936 91.1819L93.2256 94.402C93.2256 94.402 93.0962 94.3696 93.0315 94.3372C92.8696 94.2401 92.6916 94.0783 92.5622 93.8518L89.8761 89.6123C89.6819 89.3049 89.6334 88.9812 89.6981 88.7709C90.7499 88.5929 91.9797 88.8842 93.2094 89.5961C93.3874 89.7094 93.5816 89.8227 93.7596 89.9359C94.148 90.1948 94.4069 90.7935 94.2774 91.1657L94.2936 91.1819ZM89.2289 98.8518L91.8988 98.1236C92.0282 98.0913 92.1739 98.1236 92.3195 98.2045C92.6431 98.3987 92.9505 98.8194 93.0315 99.2563L93.8729 103.933C93.8891 104.03 93.8729 104.111 93.8729 104.175C93.8405 104.175 93.8243 104.175 93.792 104.143C93.7596 104.127 93.7273 104.111 93.7111 104.095C92.0929 103.172 90.5719 101.57 89.3907 99.6932C89.1965 99.3858 89.148 99.046 89.2289 98.8356V98.8518ZM87.7887 90.4861C87.7887 90.4861 87.8696 90.5023 87.902 90.5346C88.0315 90.5994 88.1447 90.7126 88.258 90.8744L91.1868 94.9683C91.4457 95.3405 91.5428 95.7612 91.4457 96.0363L88.5007 96.3761C88.4036 96.3761 88.2904 96.3599 88.1771 96.2952C87.9182 96.1495 87.6755 95.8259 87.5946 95.4699C87.1253 93.5282 87.2062 91.7806 87.7887 90.5023V90.4861Z" fill="#9E9E9E"/>
<path d="M86.5098 94.7908C87.2056 98.9332 90.0697 103.076 93.1927 104.872C93.9532 105.309 94.7137 105.616 95.4742 105.745C98.6943 106.296 100.62 103.496 99.9079 99.2406C99.2121 95.0982 96.3642 90.9558 93.225 89.1435C92.4645 88.7066 91.704 88.3992 90.9435 88.2697C87.7234 87.7196 85.814 90.5351 86.5098 94.7746V94.7908ZM98.8723 99.4186L95.2153 97.3474C94.6975 97.0399 94.3415 96.2309 94.5519 95.8102L95.9596 92.8166C96.0567 92.6063 96.2995 92.5739 96.526 92.7196C96.6393 92.7843 96.7687 92.8976 96.882 93.0432C98.1603 94.7908 99.0988 96.862 99.4872 98.9008C99.5842 99.4024 99.293 99.6613 98.8884 99.4348L98.8723 99.4186ZM95.102 98.917C95.102 98.917 95.1506 98.9493 95.1668 98.9493L98.8399 101.441C99.2283 101.7 99.4872 102.299 99.3739 102.671C98.9208 104.176 97.8852 105.131 96.4774 105.292C96.3804 105.292 96.2671 105.276 96.1538 105.211C95.8949 105.066 95.6522 104.742 95.5713 104.386L94.3901 99.6451C94.2283 98.9979 94.6004 98.6581 95.0859 98.9331L95.102 98.917ZM94.293 91.1823L93.2088 94.4671C93.1118 94.7746 92.8205 94.8231 92.513 94.6451C92.3512 94.548 92.1732 94.3862 92.0438 94.1597L89.3577 89.9202C89.0664 89.4509 89.0826 88.917 89.4063 88.8361C90.5228 88.5286 91.8658 88.8199 93.225 89.5966C93.403 89.7098 93.5972 89.8231 93.7752 89.9364C94.1635 90.1953 94.4224 90.794 94.293 91.1662V91.1823ZM88.9208 98.9493L91.8982 98.1403C92.0276 98.1079 92.1732 98.1403 92.3189 98.2212C92.6425 98.4154 92.9499 98.8361 93.0308 99.273L93.8723 103.949C93.9532 104.451 93.6619 104.694 93.2736 104.467C93.2412 104.451 93.2088 104.435 93.1927 104.419C91.5745 103.496 90.0535 101.894 88.8723 100.017C88.581 99.548 88.5972 99.0302 88.9208 98.9493ZM87.335 90.6322C87.4483 90.4218 87.6749 90.4056 87.9014 90.5351C88.0308 90.5998 88.1441 90.7131 88.2574 90.8749L91.1862 94.9687C91.6069 95.5513 91.5745 96.2632 91.1376 96.3118L87.9823 96.6678C87.8852 96.6678 87.7719 96.6516 87.6587 96.5869C87.3998 96.4412 87.1571 96.1176 87.0762 95.7616C86.5907 93.739 86.6878 91.9267 87.335 90.6322Z" fill="#DDDDDD"/>
<path d="M92.0598 96.9586C92.3025 97.5735 92.7232 98.0913 93.1763 98.334C93.4028 98.4634 93.6132 98.5282 93.8236 98.512C94.4384 98.4634 94.6488 97.6706 94.309 96.7644C94.0663 96.1495 93.6456 95.6317 93.1925 95.3728C92.9821 95.2434 92.7556 95.1786 92.5452 95.1948C91.9303 95.2434 91.7038 96.0362 92.0598 96.9424V96.9586ZM92.5938 95.3405C92.7718 95.3243 92.9821 95.389 93.1763 95.5023C93.597 95.745 93.9854 96.2142 94.2119 96.7806C94.5355 97.622 94.3413 98.3502 93.775 98.3987C93.5808 98.4149 93.3867 98.3502 93.1763 98.2369C92.7718 97.9942 92.3672 97.5249 92.1569 96.9586C91.8333 96.1172 92.0274 95.389 92.5938 95.3405Z" fill="url(#paint10_linear_788_7727)"/>
<path d="M91.8818 95.0492C91.8818 95.1948 91.7847 95.2595 91.6552 95.1786C91.5258 95.0977 91.4287 94.9197 91.4287 94.7741C91.4287 94.6284 91.5258 94.5637 91.6552 94.6446C91.7847 94.7255 91.8818 94.9035 91.8818 95.0492Z" fill="#E5E5E5"/>
<path d="M91.4932 94.6281L91.6226 94.5472C91.6226 94.5472 91.7197 94.531 91.7844 94.5472C91.9139 94.6281 92.011 94.8061 92.011 94.9518C92.011 95.0165 91.9786 95.0812 91.9462 95.0974L91.8168 95.1783C91.8168 95.1783 91.8815 95.0974 91.8815 95.0327C91.8815 94.887 91.7844 94.709 91.655 94.6281C91.5903 94.5958 91.5255 94.5958 91.4932 94.6281Z" fill="url(#paint11_linear_788_7727)"/>
<path d="M91.7363 97.3636C91.7363 97.5092 91.6392 97.574 91.5097 97.4931C91.3803 97.4122 91.2832 97.2342 91.2832 97.0885C91.2832 96.9429 91.3803 96.8782 91.5097 96.9591C91.6392 97.04 91.7363 97.218 91.7363 97.3636Z" fill="#E5E5E5"/>
<path d="M91.332 96.9426L91.4615 96.8617C91.4615 96.8617 91.5586 96.8455 91.6233 96.8617C91.7527 96.9426 91.8498 97.1206 91.8498 97.2662C91.8498 97.3309 91.8175 97.3957 91.7851 97.4118L91.6557 97.4928C91.6557 97.4928 91.7204 97.4118 91.7204 97.3471C91.7204 97.2015 91.6233 97.0235 91.4938 96.9426C91.4291 96.9102 91.3644 96.9102 91.332 96.9426Z" fill="url(#paint12_linear_788_7727)"/>
<path d="M93.7431 99.305C93.7431 99.4506 93.646 99.5154 93.5166 99.4345C93.3871 99.3536 93.29 99.1756 93.29 99.0299C93.29 98.8843 93.3871 98.8196 93.5166 98.9005C93.646 98.9814 93.7431 99.1594 93.7431 99.305Z" fill="#E5E5E5"/>
<path d="M93.3545 98.9006L93.4839 98.8197C93.4839 98.8197 93.581 98.8035 93.6458 98.8197C93.7752 98.9006 93.8723 99.0786 93.8723 99.2242C93.8723 99.2889 93.8399 99.3537 93.8076 99.3699L93.6781 99.4508C93.6781 99.4508 93.7428 99.3699 93.7428 99.3051C93.7428 99.1595 93.6458 98.9815 93.5163 98.9006C93.4516 98.8682 93.3869 98.8682 93.3545 98.9006Z" fill="url(#paint13_linear_788_7727)"/>
<path d="M95.248 98.2533C95.248 98.3989 95.1509 98.4636 95.0215 98.3827C94.892 98.3018 94.7949 98.1238 94.7949 97.9782C94.7949 97.8325 94.892 97.7678 95.0215 97.8487C95.1509 97.9296 95.248 98.1076 95.248 98.2533Z" fill="#E5E5E5"/>
<path d="M94.8594 97.8488L94.9888 97.7679C94.9888 97.7679 95.0859 97.7518 95.1506 97.7679C95.2801 97.8488 95.3772 98.0268 95.3772 98.1725C95.3772 98.2372 95.3448 98.3019 95.3124 98.3181L95.183 98.399C95.183 98.399 95.2477 98.3181 95.2477 98.2534C95.2477 98.1077 95.1506 97.9298 95.0212 97.8488C94.9565 97.8165 94.8917 97.8165 94.8594 97.8488Z" fill="url(#paint14_linear_788_7727)"/>
<path d="M93.9853 95.3734C93.9853 95.519 93.8882 95.5837 93.7588 95.5028C93.6293 95.4219 93.5322 95.2439 93.5322 95.0983C93.5322 94.9527 93.6293 94.8879 93.7588 94.9688C93.8882 95.0497 93.9853 95.2277 93.9853 95.3734Z" fill="#E5E5E5"/>
<path d="M93.5811 94.9524L93.7105 94.8714C93.7105 94.8714 93.8076 94.8553 93.8723 94.8714C94.0018 94.9524 94.0989 95.1303 94.0989 95.276C94.0989 95.3407 94.0665 95.4054 94.0341 95.4216L93.9047 95.5025C93.9047 95.5025 93.9694 95.4216 93.9694 95.3569C93.9694 95.2113 93.8723 95.0333 93.7429 94.9524C93.6781 94.92 93.6134 94.92 93.5811 94.9524Z" fill="url(#paint15_linear_788_7727)"/>
</g>
<path d="M86.0728 92.7999C85.9919 97.3468 89.0987 102.913 93.0308 105.259C96.9466 107.606 100.183 105.81 100.264 101.279C100.345 96.732 97.2379 91.1656 93.322 88.8193C89.4062 86.4731 86.1699 88.2692 86.089 92.7999H86.0728ZM86.445 93.0265C86.5097 88.9488 89.2767 87.2174 92.7233 88.9488C92.9175 89.0459 93.0955 89.143 93.2897 89.2562C96.9952 91.4731 99.9401 96.7481 99.8592 101.036C99.8592 101.279 99.8431 101.522 99.8107 101.748C99.4223 105.518 96.4935 106.894 92.9984 104.806C89.2929 102.59 86.3479 97.3145 86.4126 93.0265H86.445Z" fill="#DDDDDD"/>
<path d="M151.542 74.8061C151.526 74.531 151.429 74.2721 151.267 74.0618C150.992 73.7382 150.669 73.544 150.669 73.4631C150.474 71.2301 150.054 69.5149 149.714 68.7058C148.614 65.9873 146.526 62.5731 143.905 59.5796C142.804 58.3336 141.591 57.1524 140.296 56.1653L118.646 39.3854C118.338 39.0132 103.533 24.0941 98.7591 21.3271L73.84 6.95822C68.1443 3.67343 54.6653 3.73815 53.8724 3.83524C53.1443 3.91615 48.2413 0.793169 40.0213 0.0326508C36.7688 -0.274793 19.7786 8.07472 8.06334 16.6508C4.42256 19.3207 4.69765 30.5666 4.69765 30.5666C4.69765 30.5666 1.15396 31.3919 0.81415 31.8611C0.0536322 32.8967 0.668519 44.4825 1.25104 45.6475C3.54878 50.243 10.6362 54.7414 10.6362 54.7414C11.0083 49.0456 13.2575 38.6896 22.7074 44.1912C22.8206 44.256 22.9177 44.3207 23.031 44.3854C28.0148 47.4598 31.963 54.3854 32.2543 60.2915L82.6426 89.4339C82.9177 83.5763 87.1734 81.2948 92.2705 84.2398C92.3837 84.3045 92.4808 84.3692 92.5941 84.4339C97.5779 87.4922 103.241 95.5343 103.338 108.301C112.254 111.958 123.241 109.304 132.643 104.693C142.432 99.9032 149.649 93.8838 151.348 89.0941C151.526 88.6087 151.575 88.0909 151.575 87.5731C151.591 85.1621 151.639 75.8417 151.575 74.8223L151.542 74.8061ZM95.9436 27.7349C98.209 26.0359 99.6815 24.7252 100.361 24.078C104.762 27.8805 113.5 36.3919 115.361 38.8838L95.9436 27.7349Z" fill="url(#paint16_linear_788_7727)"/>
<g style="mix-blend-mode:multiply" opacity="0.3">
<path d="M151.574 78.6893C151.574 81.877 151.558 86.0517 151.542 87.5566C151.542 88.0744 151.493 88.5922 151.315 89.0776C149.616 93.8511 142.383 99.8705 132.61 104.676C123.209 109.288 112.222 111.958 103.306 108.285C103.209 96.3106 98.2247 88.5598 93.4998 85.097C112.416 99.466 128.597 95.5987 151.59 78.6893H151.574ZM5.18266 23.2686C4.58396 26.8932 4.68104 30.5339 4.68104 30.5339C4.68104 30.5339 1.13735 31.3592 0.797549 31.8284C0.0370307 32.864 0.651917 44.4498 1.23444 45.6148C3.53218 50.2103 10.6196 54.7087 10.6196 54.7087C10.9917 49.0129 13.2409 38.6569 22.6908 44.1585C22.804 44.2232 22.9011 44.288 23.0144 44.3527C27.9982 47.4271 31.9464 54.3527 32.2377 60.2589L82.626 89.4012C82.8526 84.7249 85.6196 82.3786 89.3089 83.1067C85.7976 81.3268 28.4351 53.8187 5.19884 23.2686H5.18266Z" fill="url(#paint17_linear_788_7727)"/>
</g>
<path d="M116.445 38.2367C110.944 32.7189 106.105 28.1234 100.976 23.7706C100.895 23.6897 100.766 23.6897 100.685 23.7706C100.62 23.8354 100.507 23.9486 100.377 24.0619C104.778 27.8645 113.516 36.3758 115.377 38.8677L95.9597 27.7189C91.4128 31.1331 83.7105 36.036 73.0309 39.9195C72.8853 39.9681 72.8206 40.1299 72.9015 40.2755L83.2413 59.2399C83.8885 60.4373 85.2801 60.8418 86.5908 60.4858C91.2995 59.2075 102.853 55.2108 114.018 45.2755C115.733 43.7545 118.274 40.0651 116.478 38.2367H116.445Z" fill="#101616"/>
<g style="mix-blend-mode:multiply" opacity="0.4">
<path d="M78.2893 60.2915L77.8038 60.4209C77.8038 60.4209 78.8071 64.1426 78.4996 65.9064C78.2084 67.573 76.3961 81.2138 76.0724 83.6734L49.422 68.3174V51.052L52.5288 44.8222L52.0757 44.5957L48.9365 50.874V68.6086L76.1372 84.2883L76.4608 84.4824L76.5093 84.1103C76.5255 83.9485 78.6776 67.7996 78.9851 65.9873C79.3087 64.1103 78.3216 60.4371 78.2731 60.2753L78.2893 60.2915Z" fill="#A9A9A9"/>
</g>
<path d="M151.558 75.1625C151.558 75.033 151.558 74.9197 151.542 74.8065C151.526 74.5314 151.429 74.2725 151.267 74.0621C150.992 73.7385 150.668 73.5443 150.668 73.4634C150.668 73.4149 150.668 73.3825 150.668 73.334C134.859 96.4246 105.231 96.1172 105.231 96.1657C105.231 96.1657 106.688 97.0557 110.442 97.1851C128.274 97.7838 148.662 82.5573 151.574 75.1463L151.558 75.1625Z" fill="url(#paint18_linear_788_7727)"/>
<g opacity="0.5">
<path d="M103.257 38.8673C100.652 39.7249 98.1277 42.2977 97.6261 44.6278C97.1407 46.9579 98.8559 48.1553 101.461 47.2977C104.066 46.4401 106.591 43.8673 107.092 41.5372C107.578 39.2071 105.862 38.0097 103.257 38.8673ZM103.192 39.6116C103.354 39.5631 103.5 39.5307 103.646 39.4984L102.4 43.123L99.487 42.2815C100.425 41.0841 101.785 40.0647 103.176 39.6116H103.192ZM106.493 41.9094C106.073 43.9158 103.904 46.1327 101.655 46.8608C99.406 47.589 97.9336 46.5534 98.3543 44.5631C98.4837 43.9644 98.775 43.3495 99.1633 42.767L102.756 43.8026L104.26 39.4175C105.879 39.288 106.849 40.2751 106.493 41.9255V41.9094Z" fill="#D3D3D3"/>
<path d="M115.506 41.8774C115.539 40.9875 116.558 40.7286 116.202 39.9357C116.121 39.7577 114.665 38.7383 114.519 38.7868C102.529 42.6218 89.8753 50.405 82.2539 57.6703C83.9529 61.8127 85.7814 58.9325 87.529 59.5797C87.5937 59.5635 104.228 53.7545 115.49 41.8613L115.506 41.8774Z" fill="#D3D3D3"/>
<path d="M110.959 40.0966C110.02 43.5917 102.108 47.5723 96.1855 47.3458C96.1855 47.3458 98.5318 44.2066 102.82 42.0383C107.852 39.4979 110.975 40.0966 110.975 40.0966H110.959Z" fill="#EAEAEA"/>
</g>
<path opacity="0.7" d="M100.684 23.7706C99.4544 24.9681 90.0208 33.7545 73.0143 39.9195C72.8687 39.9681 72.8039 40.1299 72.8849 40.2755L83.2247 59.2399C83.8719 60.4373 85.2635 60.8418 86.5742 60.4858C91.2829 59.2075 102.836 55.2108 114.001 45.2755C115.717 43.7545 118.257 40.0651 116.461 38.2367C110.959 32.7189 106.121 28.1234 100.992 23.7706C100.911 23.6897 100.781 23.6897 100.7 23.7706H100.684Z" fill="#334547"/>
<path d="M78.5483 60.5827L27.5127 31.2947C28.5321 29.7413 31.0726 28.0584 33.8234 26.7316C38.1761 24.6442 43.2732 24.8707 47.448 27.2656C54.0823 31.0682 63.0629 36.2623 66.9464 38.5115C68.0143 39.1264 68.8881 40.0164 69.503 41.0843C72.2052 45.8578 77.9819 58.4144 78.5483 60.5827Z" fill="#252F30"/>
<path d="M78.3861 60.8583L51.8165 45.6803L27.3505 31.5703C27.2049 31.4732 27.1563 31.2952 27.2372 31.1496V31.1172C28.1595 29.8066 29.454 28.9328 30.7162 28.1075C32.0107 27.3308 33.3537 26.5865 34.7615 26.0363C37.6256 24.936 40.8133 24.758 43.7583 25.5347C45.2307 25.9069 46.6547 26.538 47.9492 27.2985L51.8489 29.5477L57.6256 32.8648L65.4411 37.347C66.0883 37.7354 66.7356 38.0752 67.399 38.4797C68.0463 38.9004 68.6288 39.4344 69.1142 40.0493C69.6159 40.6642 69.9395 41.36 70.2955 42.0072L71.3473 44.0137C72.7065 46.6998 74.0171 49.402 75.2793 52.1367C75.9104 53.4959 76.5252 54.8713 77.1401 56.2467C77.7388 57.6383 78.3537 58.9813 78.823 60.4862C78.8715 60.648 78.7906 60.826 78.6288 60.8745C78.5479 60.9069 78.4508 60.8745 78.3861 60.8422V60.8583ZM77.9492 59.8713C77.5447 58.7548 77.0754 57.6221 76.6062 56.5056C76.0074 55.1302 75.3926 53.7548 74.7777 52.3956C73.5317 49.6609 72.2372 46.9587 70.8942 44.2726L69.8586 42.2823C69.4864 41.6189 69.179 40.9392 68.7259 40.3891C68.289 39.8227 67.7388 39.3211 67.1401 38.9328C66.5252 38.5444 65.8456 38.1723 65.2146 37.8001L57.4152 33.2855L51.6547 29.936L47.755 27.6706C46.4767 26.9101 45.1175 26.3114 43.6612 25.9716C40.7971 25.2434 37.7065 25.4376 34.9557 26.5056C33.5641 27.0557 32.2696 27.7677 31.0074 28.5606C29.7777 29.3697 28.5479 30.2758 27.755 31.4409L27.6417 31.004L52.1725 45.0007L77.933 59.8551L77.9492 59.8713Z" fill="#151B1C"/>
<path d="M14.2764 41.861C9.0984 37.3464 5.52235 33.8837 4.68093 32.6701V29.0293C4.68093 29.0293 0.845975 31.6992 0.78125 31.8286V31.8448C5.81361 36.3918 14.2926 41.861 14.2926 41.861H14.2764Z" fill="#C6C6C6"/>
<g opacity="0.6">
<path d="M72.2378 6.84531C78.1602 9.80648 96.6068 20.8421 100.442 23.3016C100.846 23.5605 101.299 24.0621 100.96 23.7871C100.879 23.7062 100.749 23.7062 100.668 23.7871C100.62 23.8356 100.539 23.9003 100.474 23.9651C100.361 23.8841 100.248 23.7871 100.15 23.7223C96.3155 21.2628 75.7492 8.73851 71.7524 7.03949C71.1213 6.78059 65.8624 5.50227 64.6812 5.40518C65.1019 5.29191 65.2637 5.29191 65.6521 5.21101C64.7298 5.04919 71.2184 6.35987 72.2378 6.86149V6.84531ZM72.8689 40.2757C72.8042 40.1463 72.8689 39.9845 72.9984 39.9197C73.0307 39.9197 73.0631 39.8874 73.0954 39.8874C72.61 39.0783 72.1893 38.4311 71.8657 37.978C69.4223 34.5314 46.9142 21.8453 42.6909 20.9715C42.0437 20.8421 41.2508 20.7288 40.3608 20.6317C40.3608 20.6317 40.3608 20.6317 40.3446 20.6317C40.1181 20.8421 39.843 20.9877 39.5518 21.0524C40.733 21.1657 41.7848 21.2952 42.5938 21.457C46.7848 22.3146 69.0501 34.855 71.4611 38.2531C72.1246 39.2078 72.8689 40.2596 72.8689 40.2596V40.2757Z" fill="#9D9D9D"/>
</g>
<g style="mix-blend-mode:screen" opacity="0.8">
<path d="M146.397 62.6703C145.749 61.6023 145.28 61.1493 143.905 59.5635C142.804 58.3175 141.591 57.1363 140.296 56.1492L118.646 39.3693C118.338 38.9971 103.533 24.078 98.7591 21.3111L73.84 6.94212C68.1442 3.65733 54.6653 3.72206 53.8724 3.81915C53.1442 3.90005 48.2413 0.777076 40.0213 0.016558C36.8336 -0.274704 20.6038 7.67028 8.93712 16.0036C8.53259 16.2949 8.56495 16.8936 8.96948 17.1687C13.6135 20.3078 16.5585 22.1201 22.1248 22.201C27.3028 22.2819 38.2575 22.201 42.675 23.091C46.7203 23.9162 69.2284 36.5052 71.6879 39.9842C73.8724 43.0748 81.1539 56.5214 85.4905 64.6282C88.1442 69.612 91.963 73.9001 96.6556 77.0069C98.9371 78.5117 101.267 79.9195 103.241 81.036C105.636 82.3952 108.355 83.0748 111.122 83.0748C130.41 83.0424 142.724 70.7447 146.364 65.1622C146.85 64.4017 146.882 63.447 146.413 62.6703H146.397ZM113.986 45.2755C102.821 55.1946 91.2672 59.2075 86.5585 60.4858C85.2478 60.8418 83.8562 60.4211 83.209 59.2399L72.8692 40.2755C72.8044 40.146 72.8692 39.9842 72.9986 39.9195C90.0051 33.7706 99.4387 24.968 100.669 23.7706C100.749 23.6897 100.879 23.6897 100.96 23.7706C106.089 28.1234 110.944 32.7188 116.429 38.2366C118.241 40.0489 115.701 43.7382 113.969 45.2755H113.986Z" fill="url(#paint19_linear_788_7727)"/>
</g>
<path d="M65.668 5.19411C59.3087 6.52097 48.2732 13.22 40.3605 20.6634C40.0531 20.9546 39.6324 21.1164 39.1955 21.1164L21.9787 21.0032C21.7683 21.0032 21.6388 20.7928 21.7359 20.6148C23.3055 17.6375 44.5515 5.79282 52.9657 4.48214C53.1761 4.44977 53.3702 4.43359 53.5806 4.43359C55.0369 4.43359 61.1858 4.44978 65.6518 5.19411H65.668Z" fill="#252F30"/>
<path d="M65.7168 5.3891C65.7168 5.3891 65.3447 5.48619 64.6651 5.648C63.9855 5.84218 63.0146 6.14962 61.7686 6.63506C60.555 7.15286 59.0825 7.78392 57.4482 8.65771C55.8139 9.51531 54.0016 10.5509 52.0923 11.7807C50.1829 13.0105 48.1602 14.4182 46.089 16.004C45.0534 16.7969 44.0178 17.6383 42.9822 18.5283C42.4644 18.9813 41.9304 19.4182 41.4288 19.8875L40.6521 20.5995C40.4094 20.8422 40.0696 21.1011 39.6974 21.1982C39.3091 21.3114 38.9369 21.2467 38.5971 21.2629H37.513C36.7848 21.2629 36.0567 21.2467 35.3285 21.2305C33.856 21.2305 32.3835 21.2305 30.8948 21.2143C29.4062 21.2143 27.9013 21.2143 26.3803 21.2143H24.1149H22.9822H22.4159H22.1246H21.9628C21.9628 21.2143 21.801 21.182 21.7363 21.1334C21.6068 21.0364 21.5259 20.8745 21.5421 20.7127C21.5421 20.6642 21.5421 20.6318 21.5745 20.5995C21.5745 20.5833 21.5745 20.5671 21.6068 20.5347V20.5024L21.7039 20.3891C21.801 20.2273 21.9466 20.0817 22.0761 19.9198C22.3512 19.6286 22.6262 19.3697 22.9337 19.127C23.5162 18.6415 24.1311 18.1723 24.746 17.7354C25.9919 16.8616 27.2541 16.0525 28.5324 15.2597C31.089 13.6901 33.6618 12.2661 36.1861 10.9554C41.2508 8.33409 46.1214 6.13344 50.5227 4.83894C51.0728 4.67713 51.623 4.54768 52.157 4.43441C52.4321 4.38587 52.7071 4.33732 52.9822 4.28878C53.2573 4.28878 53.4838 4.24023 53.7913 4.24023C54.8269 4.24023 55.8139 4.25642 56.7524 4.28878C58.6133 4.33732 60.2152 4.43441 61.5421 4.54768L66.6554 5.21111L65.7168 5.43765V5.3891ZM64.6003 5.24347C63.9045 5.14638 62.8528 5.03311 61.4935 4.91985C60.1667 4.82276 58.5647 4.72567 56.7201 4.67713C55.7978 4.66095 54.8107 4.64477 53.7751 4.64477C53.5486 4.64477 53.2573 4.67713 52.9984 4.69331C52.7395 4.74185 52.4968 4.7904 52.2379 4.83894C51.7201 4.95221 51.1699 5.08166 50.6359 5.24347C48.4677 5.87454 46.1699 6.76451 43.7751 7.80011C41.3965 8.85188 38.9045 10.0331 36.3803 11.3276C33.856 12.6221 31.2832 14.0461 28.7266 15.5833C27.4482 16.36 26.1861 17.1529 24.9401 18.0266C24.3253 18.4635 23.7104 18.9004 23.144 19.3859C22.8528 19.6286 22.5777 19.8713 22.3188 20.1302C22.1084 20.3567 21.7524 20.7775 21.9143 20.7775C24.9078 20.8098 27.9013 20.8584 30.8463 20.8907C32.335 20.8907 33.8236 20.9231 35.28 20.9393C36.0081 20.9393 36.7363 20.9393 37.4644 20.9393H38.5486C38.9045 20.9393 39.2767 20.9878 39.568 20.8907C39.8916 20.8098 40.1343 20.6156 40.3932 20.3567L41.1699 19.6448C41.6877 19.1593 42.2055 18.7224 42.7233 18.2694C43.7589 17.3794 44.8107 16.5218 45.8463 15.7289C47.9175 14.127 49.9401 12.703 51.8495 11.4732C53.7589 10.2273 55.5874 9.19169 57.2217 8.3179C58.856 7.42794 60.3447 6.78069 61.5745 6.26289C62.8204 5.77745 63.8236 5.43765 64.5194 5.24347C64.5194 5.24347 64.5518 5.24347 64.568 5.24347H64.6003Z" fill="#151B1C"/>
<path d="M116.833 38.4468C116.59 38.107 116.315 37.8804 116.073 37.6054C115.555 37.0876 115.053 36.5859 114.551 36.0843C110.587 32.1361 107.173 28.9484 104.729 26.7639C103.5 25.6798 102.545 24.8384 101.882 24.2558C101.542 23.9646 101.299 23.7542 101.121 23.6086C100.992 23.4791 100.781 23.463 100.684 23.5115C100.571 23.56 100.539 23.6086 100.539 23.6086C100.539 23.6086 99.2278 24.9193 96.6388 26.9096C94.066 28.8837 90.2311 31.5536 85.2958 34.1749C82.8363 35.4856 80.1178 36.8125 77.1566 38.0261C76.4285 38.3497 75.668 38.6409 74.9075 38.9322C74.5191 39.0778 74.1308 39.2235 73.7424 39.3691L73.1599 39.5956L73.0143 39.6442C73.0143 39.6442 72.9172 39.6604 72.8039 39.7413C72.6421 39.8707 72.5612 40.1134 72.6421 40.3076C73.4512 41.7963 74.2926 43.3173 75.134 44.8545C76.8168 47.929 78.5482 51.1005 80.312 54.3206C81.202 55.9387 82.0757 57.5568 82.9819 59.1911C83.4026 60.0973 84.3735 60.7122 85.3605 60.7769C85.846 60.8254 86.3638 60.7445 86.8168 60.6151C87.2699 60.4856 87.7068 60.3562 88.1599 60.2105C95.312 57.9613 101.995 54.4338 107.739 50.4209C108.451 49.9031 109.147 49.3853 109.843 48.8837C110.522 48.3497 111.186 47.8157 111.849 47.2979C113.111 46.1976 114.487 45.2267 115.474 43.916C115.975 43.2688 116.412 42.5892 116.736 41.8772C117.06 41.149 117.302 40.3723 117.238 39.5633C117.221 39.1588 117.076 38.7704 116.849 38.4306L116.833 38.4468ZM115.183 43.7219C114.244 44.984 112.885 45.9549 111.623 47.0714C110.959 47.5892 110.296 48.1231 109.632 48.6571C108.937 49.1587 108.241 49.6765 107.545 50.1943C101.849 54.2235 95.1502 57.6701 88.0304 59.8545C87.5935 60.0002 87.1405 60.1134 86.6874 60.2429C86.2505 60.3723 85.8136 60.4371 85.3767 60.3885C84.5029 60.3238 83.7101 59.806 83.3379 58.9969C82.4479 57.3626 81.5741 55.7445 80.7003 54.1264C78.9528 50.9063 77.2214 47.7186 75.5547 44.6442C74.7295 43.1231 73.9204 41.6183 73.1113 40.1458L73.3217 40.0649L73.9042 39.8384C74.2926 39.6927 74.6809 39.5471 75.0693 39.3853C75.846 39.094 76.5903 38.7866 77.3346 38.4791C80.312 37.2494 83.0466 35.9225 85.5062 34.5956C90.4576 31.9581 94.3088 29.2558 96.8977 27.2655C99.4867 25.2591 100.814 23.9322 100.814 23.9322C100.814 23.9322 100.781 23.916 100.846 23.9484C101.024 24.094 101.267 24.3044 101.606 24.5956C102.27 25.1782 103.225 26.0196 104.454 27.0876C106.898 29.2558 110.312 32.4274 114.293 36.3594C114.794 36.8448 115.296 37.3626 115.814 37.8643C116.073 38.1231 116.348 38.382 116.542 38.6409C116.72 38.916 116.849 39.2558 116.865 39.6118C116.946 41.052 116.121 42.4921 115.183 43.7219Z" fill="#151B1C"/>
<path d="M116.445 38.2367C116.186 37.9778 115.927 37.7189 115.669 37.46C117.368 45.4697 85.6038 61.1007 83.209 59.2237C83.8562 60.4211 85.2478 60.8257 86.5585 60.4697C91.2672 59.1914 102.821 55.1946 113.986 45.2593C115.701 43.7383 118.241 40.049 116.445 38.2205V38.2367Z" fill="#151B1C"/>
<path d="M57.9818 33.4303L55.2148 31.877L50.9268 44.5145L53.6776 46.1326L57.9818 33.4303Z" fill="#151B1C"/>
<path d="M37.7227 25.5186L36.4606 25.6642L33.4023 34.7095L34.4056 35.3082L37.7227 25.5186Z" fill="#151B1C"/>
<path d="M110.943 100.308C112.367 100.308 115.021 100.275 118.387 99.5471C118.694 99.4824 118.986 99.7089 118.986 100.016V104.79C118.986 105.016 118.84 105.211 118.613 105.259C116.914 105.696 112.869 106.052 110.927 105.987C110.668 105.987 110.458 105.761 110.458 105.502V100.793C110.458 100.518 110.668 100.308 110.927 100.308H110.943ZM150.474 80.0325C150.377 80.1782 150.329 80.34 150.329 80.5018C150.345 81.2623 150.312 85.8901 150.329 86.1005C150.62 85.7769 151.186 84.7575 151.429 83.8351C151.51 83.0584 151.542 78.5277 151.542 77.751C151.251 78.6895 150.798 79.4662 150.458 80.0164L150.474 80.0325ZM146.898 84.0778C141.655 89.5309 133.743 94.0131 126.283 97.0552C126.154 97.1037 126.073 97.2332 126.073 97.3626V102.88C126.073 103.091 126.251 103.269 126.461 103.22C129.665 102.541 144.6 94.0778 147.286 90.2591C147.432 90.0649 147.481 89.806 147.481 89.5633V84.2882C147.481 83.9808 147.108 83.8351 146.898 84.0617V84.0778Z" fill="#999999"/>
<path d="M118.986 103.593V104.774C118.986 105 118.84 105.194 118.613 105.243C116.914 105.68 112.869 106.036 110.927 105.971C110.668 105.971 110.458 105.745 110.458 105.486V104.304C110.458 104.563 110.668 104.79 110.927 104.79C112.869 104.855 116.914 104.499 118.613 104.062C118.824 104.013 118.986 103.819 118.986 103.593ZM151.477 82.6055C151.235 83.5278 150.636 84.5634 150.345 84.887C150.345 84.8708 150.345 84.7738 150.345 84.6928C150.345 85.4372 150.345 86.0035 150.345 86.0844C150.636 85.7608 151.202 84.7414 151.445 83.8191C151.51 83.2365 151.477 82.6864 151.461 82.6055H151.477ZM126.477 102.023C126.267 102.071 126.089 101.893 126.089 101.683V102.864C126.089 103.075 126.283 103.253 126.477 103.204C129.681 102.525 144.617 94.0618 147.303 90.243C147.448 90.0488 147.497 89.7899 147.497 89.5472V88.366C147.497 88.6087 147.432 88.8514 147.303 89.0618C144.617 92.8806 129.681 101.343 126.477 102.023Z" fill="url(#paint20_linear_788_7727)"/>
<path d="M73.0465 61.3757L75.5869 61.5051C76.7681 61.5698 77.9494 61.3271 79.0173 60.8255C78.5319 59.6281 78.0788 58.4469 77.561 57.2656L74.4866 58.641L73.0303 61.3757H73.0465Z" fill="#151B1C"/>
<path d="M74.5679 57.6543C73.8397 57.6058 68.4837 59.3372 68.5484 59.9844C68.6779 61.198 70.5711 62.7838 71.7038 63.0103C72.8041 63.2368 77.3672 61.7805 77.3834 61.3598C77.4319 60.5508 75.9271 57.7352 74.5517 57.6543H74.5679Z" fill="url(#paint21_linear_788_7727)"/>
<g style="mix-blend-mode:multiply" opacity="0.4">
<path d="M54.5193 56.7966L53.1924 56.0199C52.7394 55.761 52.3672 55.1623 52.3672 54.7093V53.0264C52.3672 52.5733 52.7394 52.4115 53.1924 52.6704L54.5193 53.4471C54.9724 53.706 55.3445 54.3047 55.3445 54.7578V56.4407C55.3445 56.8937 54.9724 57.0555 54.5193 56.7966Z" fill="#9D9D9D"/>
</g>
<path d="M55.5876 56.0849L52.141 54.0946C51.785 53.8843 51.4775 53.415 51.4775 53.059C51.4775 52.703 51.7688 52.5736 52.141 52.7839L55.5876 54.7742C55.9436 54.9846 56.251 55.4538 56.251 55.8098C56.251 56.1658 55.9597 56.2953 55.5876 56.0849Z" fill="#DDDDDD"/>
<path d="M147.448 64.3531C148.791 67.4438 145.814 70.9713 143.29 73.0425C142.545 73.6573 143.176 76.6023 143.71 77.4438C144.633 78.9486 148.5 74.434 149.455 71.6832C150.345 69.1428 147.675 64.3208 147.448 64.337V64.3531Z" fill="#CDE8E8"/>
<path d="M125.118 83.8679C116.72 87.0394 108.71 86.1656 106.898 85.9067C106.655 85.8743 106.413 85.9876 106.332 86.2141C105.846 87.7028 107.286 90.8905 108.209 91.6834C109.422 92.7513 120.458 92.0879 126.348 88.9326C126.882 88.6413 127.141 88.0103 127.06 87.4115C126.898 86.0361 126.38 83.3986 125.118 83.884V83.8679Z" fill="#CDE8E8"/>
<path d="M112.157 86.1495C109.6 86.1981 107.675 86.0039 106.898 85.9068C106.655 85.8744 106.413 85.9877 106.332 86.2142C105.846 87.7029 107.286 90.8906 108.209 91.6835C108.694 92.1042 110.765 92.2822 113.419 92.088C112.918 90.1463 112.497 88.1398 112.141 86.1495H112.157Z" fill="#FFA836"/>
<path d="M143.92 81.1492C142.48 77.9615 141.72 74.4664 141.704 70.6152C137.772 74.4178 131.914 78.6088 124.276 81.0521C127.189 83.1233 129.163 86.2787 130.474 90.1622C135.037 88.0262 139.681 85.1136 143.92 81.1654V81.1492Z" fill="#999999"/>
<mask id="mask2_788_7727" style="mask-type:luminance" maskUnits="userSpaceOnUse" x="124" y="70" width="20" height="21">
<path d="M143.92 81.1492C142.48 77.9615 141.72 74.4664 141.704 70.6152C137.772 74.4178 131.914 78.6088 124.276 81.0521C127.189 83.1233 129.163 86.2787 130.474 90.1622C135.037 88.0262 139.681 85.1136 143.92 81.1654V81.1492Z" fill="white"/>
</mask>
<g mask="url(#mask2_788_7727)">
<path d="M135.198 76.1816C132.609 77.8321 129.632 79.612 124.567 81.4081C124.389 81.1978 124.308 81.1007 124.146 80.9065C129.26 79.0942 132.253 77.2981 134.875 75.6314C137.496 73.9486 139.713 72.2172 141.703 70.6152C141.752 70.9227 141.768 71.0683 141.816 71.3758C139.972 72.8482 137.787 74.5473 135.214 76.1978L135.198 76.1816ZM142.625 75.6152C142.561 75.3725 142.545 75.2431 142.48 75.0003C141.379 75.8741 139.454 77.4761 137.091 79.0457C134.729 80.6314 131.865 82.4599 127.011 84.2884C127.189 84.5149 127.286 84.6282 127.447 84.8547C132.269 83.0101 135.117 81.1492 137.447 79.5635C139.778 77.9777 141.655 76.3919 142.625 75.6152ZM142.189 73.5926C142.14 73.3337 142.108 73.1881 142.059 72.9292C140.522 74.1427 138.451 75.777 135.943 77.379C133.435 78.9809 130.522 80.777 125.538 82.557C125.716 82.7673 125.813 82.8806 125.991 83.091C130.926 81.2948 133.839 79.4987 136.299 77.913C138.758 76.311 140.781 74.6929 142.172 73.6088L142.189 73.5926ZM144.066 80.7285C144.066 80.7285 142.302 82.4113 140.101 84.078C137.901 85.7447 135.02 87.8644 130.247 90.0003C130.312 90.2592 130.344 90.3725 130.376 90.6314C135.182 88.4469 138.111 86.311 140.328 84.6282C142.545 82.9453 144.26 81.3596 144.26 81.3596C144.179 81.1007 144.146 80.9874 144.066 80.7447V80.7285ZM143.111 77.5246C143.046 77.2819 143.014 77.1686 142.949 76.9421C142.269 77.5408 140.473 79.1104 138.208 80.7123C135.943 82.3143 133.127 84.2236 128.37 86.133C128.532 86.3596 128.613 86.489 128.758 86.7156C133.499 84.7738 136.315 82.8321 138.548 81.2301C140.781 79.6282 142.545 78.0424 143.111 77.5408V77.5246ZM143.661 79.4016C143.596 79.1589 143.548 79.0457 143.483 78.8029C143.159 79.1427 141.444 80.7123 139.244 82.3466C137.043 83.9809 134.227 85.9874 129.502 88.0101C129.616 88.2528 129.68 88.3822 129.778 88.6249C134.502 86.5537 137.334 84.5149 139.519 82.8806C141.703 81.2301 143.418 79.6444 143.645 79.4016H143.661Z" fill="url(#paint22_linear_788_7727)"/>
</g>
<path d="M8.49994 22.5413C7.39961 21.5057 6.96272 20.9394 6.18602 20.2112C4.84298 19.5963 3.80738 28.4636 4.69735 29.0462C5.79767 29.7905 6.88181 30.4216 7.62615 29.7581C8.43521 29.0138 8.88829 26.2468 9.26045 24.3698C9.3899 23.674 9.01773 23.0429 8.49994 22.5575V22.5413Z" fill="#A00000"/>
<path d="M86.4765 62.8648C88.0137 64.4344 94.5186 71.2791 113.418 81.0363C113.888 81.2791 114.405 81.4409 114.939 81.4894C120.473 81.8778 135.376 76.2305 144.082 66.3923C144.777 65.6156 144.842 64.4668 144.308 63.5768C142.383 60.3729 136.266 52.4765 120.069 42.9619C110.457 50.5671 98.9361 57.8325 86.5736 62.4603C86.3956 62.525 86.3471 62.7354 86.4603 62.8648H86.4765Z" fill="#262523"/>
<path d="M99.2601 37.6709L86.2666 62.6871L86.5417 62.9945L99.5352 37.9783L99.2601 37.6709Z" fill="#A3A3A3"/>
<path d="M130.716 18.4636C130.554 18.2856 130.198 18.2694 129.713 18.4312C126.687 19.4345 119.244 23.2694 112.14 27.6707C108.337 30.017 104.632 32.5251 101.768 34.8552C101.703 34.9037 101.638 34.9684 101.574 35.017C100.57 35.8584 99.6805 36.8778 99.2598 37.6707L99.5348 37.962C99.9556 37.1529 100.846 36.1497 101.849 35.3083C101.913 35.2597 101.978 35.195 102.043 35.1464C104.923 32.8325 108.613 30.3244 112.415 27.962C119.519 23.5607 126.962 19.7257 129.988 18.7225C130.473 18.5607 130.829 18.5769 130.991 18.7549L130.716 18.4636Z" fill="#D3D3D3"/>
<path d="M120.442 43.1888C112.998 47.2341 93.2087 60.0173 86.542 62.9947L99.5355 37.9785C99.9886 37.1209 100.959 36.0367 102.044 35.1629C110.296 28.5125 125.345 20.2762 129.989 18.739C130.943 18.4154 131.348 18.7714 130.943 19.7099L120.442 43.1888Z" fill="#B6B6B6"/>
<path d="M129.405 22.3467C129.373 22.2335 129.276 22.1526 129.147 22.1849C129.033 22.2173 128.952 22.3306 128.985 22.4438L135.279 53.1234C135.295 53.2205 135.393 53.2852 135.49 53.2852C135.49 53.2852 135.522 53.2852 135.538 53.2852C135.651 53.2529 135.732 53.1396 135.7 53.0263L129.405 22.3467Z" fill="#424243"/>
<mask id="mask3_788_7727" style="mask-type:luminance" maskUnits="userSpaceOnUse" x="86" y="42" width="59" height="40">
<path d="M86.4765 62.8648C88.0137 64.4344 94.5186 71.2791 113.418 81.0363C113.888 81.2791 114.405 81.4409 114.939 81.4894C120.473 81.8778 135.376 76.2305 144.082 66.3923C144.777 65.6156 144.842 64.4668 144.308 63.5768C142.383 60.3729 136.266 52.4765 120.069 42.9619C110.457 50.5671 98.9361 57.8325 86.5736 62.4603C86.3956 62.525 86.3471 62.7354 86.4603 62.8648H86.4765Z" fill="white"/>
</mask>
<g mask="url(#mask3_788_7727)">
<g style="mix-blend-mode:multiply" opacity="0.5">
<path d="M95.3438 70.2592C104.373 65.8741 112.771 60.3078 120.085 54.5311C130.489 60.6476 136.719 66.0683 140.36 70.0327C141.687 68.8838 142.949 67.6702 144.082 66.3757C144.777 65.599 144.842 64.4502 144.308 63.5602C142.383 60.3563 136.266 52.4599 120.069 42.9453C110.457 50.5505 98.9361 57.8159 86.5736 62.4437C86.3956 62.5084 86.3471 62.7188 86.4603 62.8482C87.3341 63.7382 89.8422 66.3595 95.3277 70.2592H95.3438Z" fill="#262523"/>
</g>
<path d="M128.79 75.7123C128.288 75.7123 127.803 75.4534 127.544 75.0003C127.14 74.3207 127.382 73.4308 128.078 73.0424L134.81 69.1589C135.586 68.7058 135.683 67.9615 135.683 67.6541C135.683 67.3466 135.602 66.6023 134.81 66.1492L117.366 56.0683C116.832 55.7609 116.169 55.7609 115.635 56.0683L105.085 62.1686C104.405 62.5731 103.515 62.3304 103.127 61.6508C102.722 60.9712 102.965 60.0812 103.661 59.6929L114.211 53.5926C115.635 52.7673 117.399 52.7673 118.822 53.5926L136.266 63.6735C137.706 64.4987 138.564 66.0036 138.564 67.6541C138.564 69.3045 137.706 70.8094 136.266 71.6346L129.534 75.5181C129.308 75.6476 129.065 75.7123 128.822 75.7123H128.79Z" fill="#969CA5"/>
<path d="M94.4217 80.5993L86.8975 76.2466V66.6025L94.4217 70.9553V80.5993Z" fill="#9091A2"/>
<path d="M112.432 70.2104L94.4219 80.5988V70.9548L112.432 60.5664V70.2104Z" fill="#424243"/>
<path d="M94.4217 70.955L86.8975 66.6022L104.891 56.2139L112.431 60.5666L94.4217 70.955Z" fill="#565656"/>
<path d="M94.5182 66.6513C93.968 66.975 93.078 66.975 92.5279 66.6513C91.9777 66.3277 91.9777 65.8261 92.5279 65.5025C93.078 65.1789 93.968 65.1789 94.5182 65.5025C95.0683 65.8261 95.0683 66.3277 94.5182 66.6513Z" fill="#E6EDED"/>
<path d="M94.939 66.0684V67.0554C94.939 67.2658 94.8096 67.4761 94.5345 67.6379C93.9843 67.9616 93.0943 67.9616 92.5442 67.6379C92.2691 67.4761 92.1396 67.2819 92.1396 67.0716V66.0845C92.1396 66.2949 92.2853 66.4891 92.5442 66.6509C93.0943 66.9745 93.9843 66.9745 94.5345 66.6509C94.8096 66.4891 94.9552 66.2787 94.939 66.0684Z" fill="#969CA5"/>
<path d="M98.5474 64.3369C97.9973 64.6605 97.1073 64.6605 96.5572 64.3369C96.007 64.0133 96.007 63.5117 96.5572 63.188C97.1073 62.8644 97.9973 62.8644 98.5474 63.188C99.0976 63.5117 99.0976 64.0133 98.5474 64.3369Z" fill="#E6EDED"/>
<path d="M98.9517 63.7539V64.741C98.9517 64.9513 98.8222 65.1617 98.5472 65.3235C97.997 65.6471 97.107 65.6471 96.5569 65.3235C96.2818 65.1617 96.1523 64.9675 96.1523 64.7571V63.7701C96.1523 63.9804 96.298 64.1746 96.5569 64.3364C97.107 64.66 97.997 64.66 98.5472 64.3364C98.8222 64.1746 98.9679 63.9643 98.9517 63.7539Z" fill="#969CA5"/>
<path d="M102.56 62.0068C102.01 62.3304 101.12 62.3304 100.57 62.0068C100.02 61.6832 100.02 61.1816 100.57 60.858C101.12 60.5343 102.01 60.5343 102.56 60.858C103.11 61.1816 103.11 61.6832 102.56 62.0068Z" fill="#E6EDED"/>
<path d="M102.981 61.4404V62.4275C102.981 62.6378 102.852 62.8482 102.576 63.01C102.026 63.3336 101.136 63.3336 100.586 63.01C100.311 62.8482 100.182 62.654 100.182 62.4437V61.4566C100.182 61.667 100.327 61.8611 100.586 62.023C101.136 62.3466 102.026 62.3466 102.576 62.023C102.852 61.8611 102.997 61.6508 102.981 61.4404Z" fill="#969CA5"/>
<path d="M106.589 59.6933C106.039 60.017 105.149 60.017 104.599 59.6933C104.049 59.3697 104.049 58.8681 104.599 58.5445C105.149 58.2209 106.039 58.2209 106.589 58.5445C107.14 58.8681 107.14 59.3697 106.589 59.6933Z" fill="#E6EDED"/>
<path d="M106.994 59.1104V60.0974C106.994 60.3078 106.864 60.5181 106.589 60.6799C106.039 61.0036 105.149 61.0036 104.599 60.6799C104.324 60.5181 104.194 60.3239 104.194 60.1136V59.1265C104.194 59.3369 104.34 59.5311 104.599 59.6929C105.149 60.0165 106.039 60.0165 106.589 59.6929C106.864 59.5311 107.01 59.3207 106.994 59.1104Z" fill="#969CA5"/>
<path d="M133.159 72.6702L118.337 64.0456L120.44 62.832L135.262 71.4566L133.159 72.6702Z" fill="#E6EDED"/>
<path d="M122.318 85.3729L107.496 76.7321L105.716 75.0654L120.538 83.7062L122.318 85.3729Z" fill="#969CA5"/>
<path d="M132.334 70.8904V68.3985C132.334 68.3985 132.334 68.3014 132.334 68.2852C132.334 68.3176 132.22 68.3176 132.042 68.4308L131.266 68.8839C130.958 69.0619 130.554 68.9486 130.376 68.6412C130.198 68.3337 130.311 67.9292 130.618 67.7512L131.395 67.2981C131.961 66.9583 132.56 66.926 133.013 67.1849C133.418 67.4114 133.644 67.8645 133.644 68.3985V70.8904C133.644 71.748 132.35 71.748 132.35 70.8904H132.334Z" fill="#424243"/>
<path d="M133.143 68.3828L118.321 59.7582L115.812 56.9912L130.618 65.6158L133.143 68.3828Z" fill="#6F1818"/>
<path d="M130.618 65.616L115.812 56.9914L117.512 54.0303L132.334 62.6549L130.618 65.616Z" fill="#B78020"/>
<path d="M120.618 53.0428L119.922 52.6383C119.599 52.4441 119.162 52.5088 118.725 52.7677C118.288 53.0105 117.867 53.4635 117.527 54.0299L132.333 62.6545C132.657 62.0881 133.094 61.6512 133.531 61.3923C133.967 61.1496 134.388 61.0849 134.728 61.2629L135.424 61.6674L120.618 53.0428Z" fill="#FFCA46"/>
<path d="M133.531 61.3919C133.968 61.1492 134.389 61.0845 134.729 61.2625L135.425 61.667C136.088 62.0392 136.088 63.269 135.425 64.4178L133.127 68.3822L130.603 65.6152L132.318 62.6541C132.641 62.0877 133.078 61.6508 133.515 61.3919H133.531Z" fill="#EDB53A"/>
<path d="M129.891 62.5411L115.085 53.9165C115.279 53.8032 115.457 53.787 115.603 53.8679L130.409 62.4925C130.279 62.4116 130.101 62.4278 129.907 62.5411H129.891Z" fill="#F0F3F4"/>
<path d="M118.418 81.1819L103.612 72.5573L105.716 71.3438L120.522 79.9683L118.418 81.1819Z" fill="#E6EDED"/>
<path d="M118.434 84.8877L103.612 76.2631V72.5576L118.418 81.1822L118.434 84.8877Z" fill="#969CA5"/>
<path d="M120.521 79.9688L105.715 71.3442L105.699 67.04L120.521 75.6646V79.9688Z" fill="#323233"/>
<path d="M120.521 75.664L105.699 67.0394L108.191 61.376L123.013 70.0006L120.521 75.664Z" fill="#6D6D6D"/>
<path d="M123.013 70.0006L108.191 61.376V58.7061L123.013 67.3307V70.0006Z" fill="#969CA5"/>
<path d="M123.725 66.101L108.903 57.4764L115.085 53.9004L129.89 62.5412L123.725 66.101Z" fill="#E6EDED"/>
<g style="mix-blend-mode:multiply" opacity="0.7">
<path d="M109.777 57.4768L115.085 54.4023L129.033 62.5415L123.726 65.5998L109.777 57.4768Z" fill="#E9ECED"/>
</g>
<g style="mix-blend-mode:multiply" opacity="0.7">
<path d="M115.085 55.082L128.45 62.8813L129.033 62.5415L115.085 54.4023L109.777 57.4768L110.36 57.8166L115.085 55.082Z" fill="#E9ECED"/>
</g>
<path d="M129.891 62.5416C130.296 62.315 130.603 62.493 130.603 62.9461V65.616L133.127 68.383V72.6872L135.247 71.4736V75.1791L133.143 76.3927L131.38 80.1306L122.286 85.3733L120.506 83.7066L118.402 84.8878V81.1823L120.506 79.9687V75.6645L122.998 70.0011V67.3312C122.998 66.8781 123.321 66.328 123.71 66.1014L129.891 62.5416Z" fill="#C8CACD"/>
<path d="M123.014 67.3309L108.208 58.7063C108.208 58.2533 108.532 57.7031 108.92 57.4766L123.726 66.1012C123.337 66.3277 123.014 66.8779 123.014 67.3309Z" fill="#F0F3F4"/>
<path d="M133.144 68.366L130.62 65.6152L123.014 70.0003L120.522 75.6638V79.968L133.16 72.6703L133.144 68.366Z" fill="#424243"/>
<path d="M117.188 79.6288V77.1368C117.188 76.1983 117.868 75.098 118.79 74.564L119.567 74.111C119.875 73.933 120.279 74.0462 120.457 74.3537C120.635 74.6611 120.522 75.0656 120.214 75.2436L119.438 75.6967C118.888 76.0042 118.483 76.7161 118.483 77.1368V79.6288C118.483 80.4864 117.188 80.4864 117.188 79.6288Z" fill="#424243"/>
<path d="M114.243 77.9295V75.4376C114.243 74.4991 114.923 73.3988 115.845 72.8648L116.622 72.4117C116.929 72.2337 117.334 72.347 117.512 72.6545C117.69 72.9619 117.577 73.3664 117.269 73.5444L116.492 73.9975C115.942 74.3049 115.538 75.0169 115.538 75.4376V77.9295C115.538 78.7871 114.243 78.7871 114.243 77.9295Z" fill="#424243"/>
<path d="M111.282 76.2309V73.739C111.282 72.8005 111.962 71.7002 112.884 71.1662L113.661 70.7131C113.968 70.5351 114.373 70.6322 114.551 70.9558C114.729 71.2633 114.616 71.6678 114.308 71.8458L113.531 72.2989C112.981 72.6063 112.577 73.3183 112.577 73.739V76.2309C112.577 77.0885 111.282 77.0885 111.282 76.2309Z" fill="#424243"/>
<path d="M108.337 74.5155V72.0236C108.337 71.085 109.017 69.9847 109.939 69.4507L110.716 68.9977C111.023 68.8197 111.428 68.9329 111.606 69.2404C111.784 69.5478 111.67 69.9524 111.363 70.1304L110.586 70.5834C110.036 70.8909 109.631 71.6028 109.631 72.0236V74.5155C109.631 75.3731 108.337 75.3731 108.337 74.5155Z" fill="#424243"/>
<path d="M105.376 72.8163V70.3243C105.376 69.3858 106.056 68.2855 106.978 67.7515L107.755 67.2985C108.062 67.1205 108.467 67.2337 108.645 67.5412C108.823 67.8486 108.709 68.2531 108.402 68.4311L107.625 68.8842C107.075 69.1917 106.67 69.9036 106.67 70.3243V72.8163C106.67 73.6739 105.376 73.6739 105.376 72.8163Z" fill="#424243"/>
<path d="M121.267 68.9976L106.461 60.373L108.176 61.3601L122.998 69.9847L121.267 68.9976Z" fill="#891D1D"/>
<path d="M118.192 71.5865L103.386 62.9619C102.723 64.0946 102.739 65.3244 103.386 65.7127L118.192 74.3373C117.528 73.9651 117.528 72.7354 118.192 71.5865Z" fill="#B78020"/>
<path d="M118.192 71.5862L103.37 62.9616L104.066 61.748L118.888 70.3888L118.192 71.5862Z" fill="#EDB53A"/>
<path d="M106.46 60.3727C106.137 60.1785 105.7 60.2432 105.263 60.5021C104.826 60.7448 104.405 61.1979 104.065 61.7642L118.871 70.3888C119.195 69.8225 119.632 69.3856 120.069 69.1267C120.506 68.884 120.926 68.8193 121.266 68.9973L106.46 60.3727Z" fill="#FFCA46"/>
<path d="M120.069 69.1263C120.506 68.8836 120.927 68.8189 121.266 68.9969L122.998 69.9839L120.49 75.6473L118.192 74.3367C117.528 73.9645 117.528 72.7347 118.192 71.5859L118.888 70.3723C119.211 69.8059 119.648 69.369 120.085 69.1101L120.069 69.1263Z" fill="#EDB53A"/>
<path d="M123.661 80.0813C123.661 78.0749 125.069 75.6477 126.8 74.6444C128.532 73.6412 129.939 74.4503 129.939 76.4567C129.939 78.4632 128.532 80.8904 126.8 81.8936C125.069 82.8969 123.661 82.0878 123.661 80.0813Z" fill="#C8CACD"/>
<path d="M125.344 80.1467C125.344 78.5286 126.476 76.5545 127.884 75.7454C129.292 74.9363 130.425 75.5998 130.425 77.2179C130.425 78.836 129.292 80.8101 127.884 81.6192C126.476 82.4282 125.344 81.7648 125.344 80.1467Z" fill="#424243"/>
<path d="M126.218 79.6447C126.218 78.5767 126.962 77.2984 127.884 76.7644C128.807 76.2304 129.551 76.6673 129.551 77.7191C129.551 78.7709 128.807 80.0654 127.884 80.5994C126.962 81.1334 126.218 80.6965 126.218 79.6447Z" fill="#C8CACD"/>
<path d="M126.105 81.813L125.182 81.279C124.713 81.0201 124.422 80.4375 124.422 79.6285C124.422 78.0104 125.555 76.0363 126.962 75.2272C127.658 74.8227 128.289 74.7903 128.742 75.033L129.665 75.567C129.212 75.3081 128.58 75.3566 127.885 75.7612C126.477 76.5702 125.344 78.5443 125.344 80.1625C125.344 80.9877 125.635 81.5541 126.105 81.813Z" fill="#323233"/>
<path d="M129.356 72.2345C129.356 71.393 129.939 70.3736 130.667 69.9529C131.395 69.5322 131.978 69.872 131.978 70.7134C131.978 71.5549 131.395 72.5743 130.667 72.995C129.939 73.4157 129.356 73.0759 129.356 72.2345Z" fill="#C8CACD"/>
<path d="M129.647 72.0558C129.647 71.4086 130.101 70.6319 130.651 70.3083C131.201 69.9846 131.654 70.2435 131.654 70.8908C131.654 71.538 131.201 72.3147 130.651 72.6384C130.101 72.962 129.647 72.7031 129.647 72.0558Z" fill="#424243"/>
<path d="M129.745 73.0918L129.259 72.8167C129.017 72.6873 128.871 72.3799 128.871 71.9591C128.871 71.1177 129.454 70.0983 130.182 69.6776C130.538 69.4672 130.861 69.451 131.104 69.5805L131.59 69.8556C131.347 69.7261 131.023 69.7423 130.667 69.9527C129.939 70.3734 129.357 71.3928 129.357 72.2342C129.357 72.6549 129.502 72.9624 129.745 73.0918Z" fill="#969CA5"/>
<path d="M133.418 74.7097C133.418 74.2728 133.725 73.7226 134.114 73.5123C134.502 73.2857 134.81 73.4637 134.81 73.9168C134.81 74.3699 134.502 74.9038 134.114 75.1142C133.725 75.3407 133.418 75.1627 133.418 74.7097Z" fill="#424243"/>
<path d="M133.628 75.1628L133.37 75.0172C133.24 74.9525 133.159 74.7906 133.159 74.5641C133.159 74.1272 133.467 73.577 133.855 73.3667C134.049 73.2534 134.211 73.2534 134.34 73.3181L134.599 73.4638C134.47 73.3991 134.308 73.3991 134.114 73.5123C133.726 73.7389 133.418 74.2728 133.418 74.7097C133.418 74.9363 133.499 75.0981 133.628 75.1628Z" fill="#323233"/>
<path d="M119.309 82.8483C119.309 82.4115 119.616 81.8613 120.004 81.6509C120.393 81.4244 120.7 81.6024 120.7 82.0555C120.7 82.5085 120.393 83.0425 120.004 83.2529C119.616 83.4794 119.309 83.3014 119.309 82.8483Z" fill="#424243"/>
<path d="M119.519 83.3015L119.26 83.1558C119.131 83.0911 119.05 82.9293 119.05 82.7028C119.05 82.2659 119.357 81.7157 119.746 81.5054C119.94 81.3921 120.102 81.3921 120.231 81.4568L120.49 81.6025C120.36 81.5377 120.199 81.5377 120.005 81.651C119.616 81.8775 119.309 82.4115 119.309 82.8484C119.309 83.0749 119.39 83.2368 119.519 83.3015Z" fill="#323233"/>
<path d="M116.897 82.5407C116.897 82.1038 116.59 81.5537 116.202 81.3433C115.813 81.1168 115.506 81.2948 115.506 81.7478C115.506 82.2009 115.813 82.7349 116.202 82.9453C116.59 83.1718 116.897 82.9938 116.897 82.5407Z" fill="#A9AFB5"/>
<path d="M116.687 82.9939L116.946 82.8482C117.075 82.7835 117.156 82.6217 117.156 82.3952C117.156 81.9583 116.849 81.4081 116.46 81.1977C116.266 81.0845 116.104 81.0845 115.975 81.1492L115.716 81.2948C115.845 81.2301 116.007 81.2301 116.201 81.3434C116.59 81.5699 116.897 82.1039 116.897 82.5408C116.897 82.7673 116.816 82.9291 116.687 82.9939Z" fill="#C8CACD"/>
<path d="M111.461 79.4021C111.461 78.9652 111.153 78.415 110.765 78.2046C110.377 77.9781 110.069 78.1561 110.069 78.6092C110.069 79.0622 110.377 79.5962 110.765 79.8066C111.153 80.0331 111.461 79.8551 111.461 79.4021Z" fill="#A9AFB5"/>
<path d="M111.25 79.8552L111.509 79.7096C111.639 79.6448 111.719 79.483 111.719 79.2565C111.719 78.8196 111.412 78.2694 111.024 78.0591C110.829 77.9458 110.668 77.9458 110.538 78.0105L110.279 78.1562C110.409 78.0914 110.571 78.0914 110.765 78.2047C111.153 78.4312 111.461 78.9652 111.461 79.4021C111.461 79.6287 111.38 79.7905 111.25 79.8552Z" fill="#C8CACD"/>
<path d="M106.023 76.2624C106.023 75.8255 105.716 75.2754 105.328 75.065C104.939 74.8385 104.632 75.0165 104.632 75.4695C104.632 75.9226 104.939 76.4566 105.328 76.6669C105.716 76.8935 106.023 76.7155 106.023 76.2624Z" fill="#A9AFB5"/>
<path d="M105.829 76.7155L106.088 76.5699C106.218 76.5052 106.299 76.3434 106.299 76.1168C106.299 75.6799 105.991 75.1298 105.603 74.9194C105.409 74.8062 105.247 74.8062 105.117 74.8709L104.858 75.0165C104.988 74.9518 105.15 74.9518 105.344 75.0651C105.732 75.2916 106.04 75.8256 106.04 76.2625C106.04 76.489 105.959 76.6508 105.829 76.7155Z" fill="#C8CACD"/>
<path d="M124.374 73.2038C124.374 72.1844 125.086 70.9385 125.976 70.4368C126.866 69.919 127.578 70.3397 127.578 71.3592C127.578 72.3786 126.866 73.6245 125.976 74.1262C125.086 74.644 124.374 74.2232 124.374 73.2038Z" fill="#C8CACD"/>
<path d="M124.973 72.8644C124.973 72.2172 125.426 71.4405 125.992 71.1169C126.558 70.7932 127.011 71.0521 127.011 71.6994C127.011 72.3466 126.558 73.1233 125.992 73.447C125.426 73.7706 124.973 73.5117 124.973 72.8644Z" fill="#424243"/>
<path d="M124.859 74.2561L124.276 73.9163C123.985 73.7545 123.791 73.3823 123.791 72.8807C123.791 71.8612 124.503 70.6153 125.393 70.1137C125.83 69.8548 126.218 69.8386 126.509 70.0004L127.092 70.3402C126.801 70.1784 126.412 70.2108 125.975 70.4535C125.086 70.9713 124.374 72.2011 124.374 73.2205C124.374 73.7383 124.552 74.0943 124.859 74.2561Z" fill="#969CA5"/>
<path d="M123.839 62.9457C124.309 63.2208 125.053 63.2208 125.522 62.9457C125.991 62.6707 125.991 62.2499 125.522 61.9749C125.053 61.6998 124.309 61.6998 123.839 61.9749C123.37 62.2499 123.37 62.6707 123.839 62.9457Z" fill="#FFCA46"/>
<path d="M123.499 62.4443V63.2858C123.499 63.4638 123.613 63.6417 123.839 63.7712C124.308 64.0463 125.053 64.0463 125.522 63.7712C125.749 63.6417 125.862 63.4638 125.862 63.2858V62.4443C125.862 62.6223 125.749 62.7841 125.522 62.9298C125.053 63.2049 124.308 63.2049 123.839 62.9298C123.613 62.8003 123.483 62.6223 123.499 62.4443Z" fill="#B78020"/>
<path d="M120.441 60.9721C120.91 61.2472 121.654 61.2472 122.124 60.9721C122.593 60.697 122.593 60.2763 122.124 60.0012C121.654 59.7262 120.91 59.7262 120.441 60.0012C119.972 60.2763 119.972 60.697 120.441 60.9721Z" fill="#FFCA46"/>
<path d="M120.101 60.4863V61.3278C120.101 61.5057 120.214 61.6837 120.441 61.8132C120.91 62.0883 121.655 62.0883 122.124 61.8132C122.35 61.6837 122.464 61.5057 122.464 61.3278V60.4863C122.464 60.6643 122.35 60.8261 122.124 60.9718C121.655 61.2468 120.91 61.2468 120.441 60.9718C120.198 60.8423 120.085 60.6643 120.101 60.4863Z" fill="#B78020"/>
<path d="M117.043 59.0141C117.513 59.2892 118.257 59.2892 118.726 59.0141C119.195 58.739 119.195 58.3183 118.726 58.0432C118.257 57.7681 117.513 57.7681 117.043 58.0432C116.574 58.3183 116.574 58.739 117.043 59.0141Z" fill="#FFCA46"/>
<path d="M116.687 58.5283V59.3697C116.687 59.5477 116.8 59.7257 117.027 59.8552C117.496 60.1303 118.24 60.1303 118.71 59.8552C118.936 59.7257 119.049 59.5477 119.049 59.3697V58.5283C119.049 58.7063 118.936 58.8681 118.71 59.0138C118.24 59.2888 117.496 59.2888 117.027 59.0138C116.8 58.8843 116.671 58.7063 116.687 58.5283Z" fill="#B78020"/>
<path d="M113.628 57.0561C114.098 57.3312 114.842 57.3312 115.311 57.0561C115.78 56.781 115.78 56.3603 115.311 56.0852C114.842 55.8101 114.098 55.8101 113.628 56.0852C113.159 56.3603 113.159 56.781 113.628 57.0561Z" fill="#FFCA46"/>
<path d="M113.289 56.5547V57.3961C113.289 57.5741 113.402 57.7521 113.628 57.8815C114.098 58.1566 114.842 58.1566 115.311 57.8815C115.538 57.7521 115.651 57.5741 115.651 57.3961V56.5547C115.651 56.7327 115.538 56.8945 115.311 57.0401C114.842 57.3152 114.098 57.3152 113.628 57.0401C113.386 56.9107 113.272 56.7327 113.289 56.5547Z" fill="#B78020"/>
</g>
</g>
<defs>
<linearGradient id="paint0_linear_788_7727" x1="117.836" y1="30.6962" x2="114.729" y2="39.2885" gradientUnits="userSpaceOnUse">
<stop stop-color="#FF513F"/>
<stop offset="1" stop-color="#E14132"/>
</linearGradient>
<linearGradient id="paint1_linear_788_7727" x1="19.3943" y1="43.696" x2="31.4733" y2="65.3317" gradientUnits="userSpaceOnUse">
<stop stop-color="#212121"/>
<stop offset="0.66" stop-color="#201F1D"/>
<stop offset="1" stop-color="#1B1B1B"/>
</linearGradient>
<linearGradient id="paint2_linear_788_7727" x1="23.7423" y1="56.0197" x2="21.1695" y2="56.0197" gradientUnits="userSpaceOnUse">
<stop stop-color="#B2B2B2"/>
<stop offset="1" stop-color="#C1C1C1"/>
</linearGradient>
<linearGradient id="paint3_linear_788_7727" x1="20.9216" y1="53.6957" x2="21.242" y2="54.2653" gradientUnits="userSpaceOnUse">
<stop stop-color="#C1C1C1"/>
<stop offset="1" stop-color="#B2B2B2"/>
</linearGradient>
<linearGradient id="paint4_linear_788_7727" x1="20.7621" y1="56.0274" x2="21.0825" y2="56.5792" gradientUnits="userSpaceOnUse">
<stop stop-color="#C1C1C1"/>
<stop offset="1" stop-color="#B2B2B2"/>
</linearGradient>
<linearGradient id="paint5_linear_788_7727" x1="22.7722" y1="57.9682" x2="23.0926" y2="58.5378" gradientUnits="userSpaceOnUse">
<stop stop-color="#C1C1C1"/>
<stop offset="1" stop-color="#B2B2B2"/>
</linearGradient>
<linearGradient id="paint6_linear_788_7727" x1="24.2674" y1="56.918" x2="24.5878" y2="57.4876" gradientUnits="userSpaceOnUse">
<stop stop-color="#C1C1C1"/>
<stop offset="1" stop-color="#B2B2B2"/>
</linearGradient>
<linearGradient id="paint7_linear_788_7727" x1="23.0046" y1="54.034" x2="23.325" y2="54.6035" gradientUnits="userSpaceOnUse">
<stop stop-color="#C1C1C1"/>
<stop offset="1" stop-color="#B2B2B2"/>
</linearGradient>
<linearGradient id="paint8_linear_788_7727" x1="58.904" y1="75.7773" x2="56.0885" y2="80.664" gradientUnits="userSpaceOnUse">
<stop offset="0.13" stop-color="#B4B4B4"/>
<stop offset="0.16" stop-color="#D3D3D3"/>
</linearGradient>
<linearGradient id="paint9_linear_788_7727" x1="90.1144" y1="84.5272" x2="102.193" y2="106.163" gradientUnits="userSpaceOnUse">
<stop stop-color="#212121"/>
<stop offset="0.66" stop-color="#201F1D"/>
<stop offset="1" stop-color="#1B1B1B"/>
</linearGradient>
<linearGradient id="paint10_linear_788_7727" x1="94.4708" y1="96.8615" x2="91.898" y2="96.8615" gradientUnits="userSpaceOnUse">
<stop stop-color="#B2B2B2"/>
<stop offset="1" stop-color="#C1C1C1"/>
</linearGradient>
<linearGradient id="paint11_linear_788_7727" x1="91.6388" y1="94.5456" x2="91.9592" y2="95.0974" gradientUnits="userSpaceOnUse">
<stop stop-color="#C1C1C1"/>
<stop offset="1" stop-color="#B2B2B2"/>
</linearGradient>
<linearGradient id="paint12_linear_788_7727" x1="91.4793" y1="96.8601" x2="91.8175" y2="97.4118" gradientUnits="userSpaceOnUse">
<stop stop-color="#C1C1C1"/>
<stop offset="1" stop-color="#B2B2B2"/>
</linearGradient>
<linearGradient id="paint13_linear_788_7727" x1="93.5082" y1="98.8003" x2="93.8286" y2="99.3699" gradientUnits="userSpaceOnUse">
<stop stop-color="#C1C1C1"/>
<stop offset="1" stop-color="#B2B2B2"/>
</linearGradient>
<linearGradient id="paint14_linear_788_7727" x1="95.0034" y1="97.7501" x2="95.3238" y2="98.3197" gradientUnits="userSpaceOnUse">
<stop stop-color="#C1C1C1"/>
<stop offset="1" stop-color="#B2B2B2"/>
</linearGradient>
<linearGradient id="paint15_linear_788_7727" x1="93.7396" y1="94.8666" x2="94.06" y2="95.4362" gradientUnits="userSpaceOnUse">
<stop stop-color="#C1C1C1"/>
<stop offset="1" stop-color="#B2B2B2"/>
</linearGradient>
<linearGradient id="paint16_linear_788_7727" x1="55.9436" y1="82.7187" x2="100.96" y2="26.7802" gradientUnits="userSpaceOnUse">
<stop stop-color="#BFBFBF"/>
<stop offset="0.51" stop-color="#CBCBCB"/>
<stop offset="1" stop-color="#D3D3D3"/>
</linearGradient>
<linearGradient id="paint17_linear_788_7727" x1="121.429" y1="66.6343" x2="99.7458" y2="66.6343" gradientUnits="userSpaceOnUse">
<stop offset="0.41" stop-color="white"/>
<stop offset="0.71" stop-color="white"/>
<stop offset="0.78" stop-color="white"/>
<stop offset="1" stop-color="#AFAFAF"/>
</linearGradient>
<linearGradient id="paint18_linear_788_7727" x1="106.558" y1="98.5767" x2="152.594" y2="77.3469" gradientUnits="userSpaceOnUse">
<stop stop-color="#E1E1E1"/>
<stop offset="0.52" stop-color="white"/>
<stop offset="1" stop-color="white"/>
</linearGradient>
<linearGradient id="paint19_linear_788_7727" x1="118.678" y1="18.8353" x2="52.4484" y2="56.845" gradientUnits="userSpaceOnUse">
<stop stop-color="#E3E3E3"/>
<stop offset="1" stop-color="#848484"/>
</linearGradient>
<linearGradient id="paint20_linear_788_7727" x1="111.914" y1="105.34" x2="171.542" y2="78.1718" gradientUnits="userSpaceOnUse">
<stop stop-color="#CFCFCF"/>
<stop offset="0.28" stop-color="#DCDCDC"/>
<stop offset="1" stop-color="#FBFBFB"/>
</linearGradient>
<linearGradient id="paint21_linear_788_7727" x1="75.7814" y1="58.0427" x2="70.9918" y2="62.444" gradientUnits="userSpaceOnUse">
<stop stop-color="#EBEBEB"/>
<stop offset="1" stop-color="#D3D3D3"/>
</linearGradient>
<linearGradient id="paint22_linear_788_7727" x1="123.629" y1="88.2366" x2="143.305" y2="76.1492" gradientUnits="userSpaceOnUse">
<stop stop-color="#BFBFBF"/>
<stop offset="0.51" stop-color="#CBCBCB"/>
<stop offset="1" stop-color="#D3D3D3"/>
</linearGradient>
<clipPath id="clip0_788_7727">
<rect width="151.149" height="110" fill="white" transform="translate(0.425781)"/>
</clipPath>
</defs>
</svg>
