<svg width="148" height="124" viewBox="0 0 148 124" fill="none" xmlns="http://www.w3.org/2000/svg">
<g clip-path="url(#clip0_655_8454)">
<path d="M111.478 46.0356L109.416 47.3121C109.416 47.3121 108.82 46.6763 108.458 46.1448C106.774 43.6762 105.755 43.0205 105.875 43.9096C106.083 45.4544 105.805 44.9925 106.416 48.5837C106.908 51.4746 107.782 53.3373 108.865 52.1005C109.297 51.6037 110.022 49.6864 110.022 49.6864L112.868 47.7939L111.473 46.0356H111.478Z" fill="black"/>
<path d="M111.915 42.6579C111.915 42.6579 118.362 40.9542 119.147 42.2506C119.937 43.547 118.645 44.9776 117.935 45.6332C116.37 47.0687 111.363 49.5672 111.363 49.5672C111.363 49.5672 111.016 49.2593 110.047 47.8238C109.749 47.3866 109.411 46.9297 108.984 46.2293C107.256 43.398 111.915 42.6579 111.915 42.6579Z" fill="#58595B"/>
<path d="M108.239 44.6249C108.294 42.0221 113.564 40.3184 115.824 39.7024C116.45 39.5336 117.126 39.7124 117.573 40.1793C118.154 40.7853 118.909 41.6446 119.147 42.2556C119.455 43.5023 117.727 44.2772 116.982 44.8037C115.377 45.9362 110.728 47.5903 110.047 47.8287C109.655 47.4115 108.22 45.365 108.234 44.6249H108.239Z" fill="#6D6E71"/>
<g style="mix-blend-mode:multiply" opacity="0.33">
<path d="M137.168 91.9122C140.272 93.7053 140.292 96.6161 137.203 98.4092L96.5316 122.088C93.447 123.881 86.0211 125.172 81.3073 122.361L3.72035 79.8718C0.615883 78.0787 0.943716 75.8584 4.03328 74.0652L50.0639 50.1086C53.1535 48.3155 58.1752 48.3155 61.2847 50.1086L137.173 91.9172L137.168 91.9122Z" fill="#1D1D1F"/>
</g>
<path d="M94.8525 91.2814L140.848 65.7502C140.848 65.7502 143.004 65.3628 143.362 67.2801C143.625 68.6858 143.521 76.6134 143.521 76.6134C143.521 76.6134 143.516 78.8734 142.622 80.0258C141.464 81.5209 135.543 86.0112 135.543 86.0112L94.8575 91.2814H94.8525Z" fill="#222224"/>
<path d="M123.111 52.4978C127.492 55.1751 137.794 62.5513 141.852 65.477C142.905 66.237 143.849 67.5185 143.849 67.5185L141.912 72.2721L137.67 70.9607L113.465 53.8588C113.465 53.8588 115.511 52.0607 116.972 51.42C118.531 50.7395 121.358 51.42 123.111 52.4929V52.4978Z" fill="#222224"/>
<path d="M66.1725 98.8364L68.1891 98.3844L92.1606 95.4587L92.707 77.2194L64.6426 78.4562L66.1725 98.8364Z" fill="#161C1C"/>
<path d="M94.6192 114.011C94.6192 114.011 93.8543 115.059 92.2896 116.346C89.6024 118.551 85.8522 121.208 81.5506 119.927C79.3105 119.256 68.9639 94.5497 68.9639 94.5497C68.9639 94.5497 69.6444 92.4139 75.302 90.278C78.7442 88.9816 80.6466 89.0362 82.3802 89.4336C86.5824 90.3922 91.475 92.7467 94.5944 101.842C96.9488 108.701 94.6192 114.011 94.6192 114.011Z" fill="#040505"/>
<path d="M89.4536 112.441C89.4387 116.822 87.4766 119.554 84.5112 120.106C82.7727 120.429 80.6865 120.001 78.4513 118.71C72.4063 115.218 67.4987 106.724 67.5186 99.7752C67.5385 92.8261 72.4758 90.0147 78.5209 93.5066C84.5659 96.9986 89.4734 105.492 89.4536 112.441Z" fill="#394747"/>
<path d="M77.9199 114.836C73.976 112.561 70.7771 107.017 70.792 102.487C70.802 99.1642 72.5405 97.0135 75.2227 97.0135C76.2907 97.0135 77.4282 97.3562 78.6004 98.0317C82.5443 100.312 85.7382 105.85 85.7283 110.38C85.7183 113.708 83.9798 115.854 81.2976 115.854C80.2296 115.854 79.0922 115.511 77.9199 114.836Z" fill="#9AAFAE"/>
<path d="M83.597 114.587C82.9762 115.099 82.1913 115.377 81.2923 115.377C80.3088 115.377 79.2558 115.054 78.158 114.418C74.3482 112.218 71.2586 106.868 71.2686 102.492C71.2735 100.456 71.9789 98.9059 73.1611 98.1062L73.2207 98.0864C73.2207 98.0864 72.6246 108.582 83.597 114.587Z" fill="#859392"/>
<path d="M75.9628 101.35C76.0969 101.578 76.0373 101.866 75.8237 101.996L74.8004 102.611C74.5869 102.741 74.3037 102.656 74.1696 102.428L72.302 99.6162C72.1629 99.3878 72.302 98.9357 72.5156 98.8116C72.5156 98.8116 73.4543 98.1112 74.2044 97.8479C74.4378 97.7635 74.7011 97.8032 74.8352 98.0317L75.9578 101.355L75.9628 101.35Z" fill="#374244"/>
<path d="M79.3251 102.711C79.2456 102.9 79.0221 103.004 78.7936 102.904L77.8349 102.373C77.6064 102.279 77.4823 102.045 77.5568 101.856L78.4161 99.2288C78.4956 99.0351 78.7787 98.8116 79.0072 98.9059L80.1844 99.8447C80.4775 100.033 80.6662 100.411 80.3732 100.838L79.3251 102.706V102.711Z" fill="#374244"/>
<path d="M81.4518 106.108C81.2879 106.193 81.0545 106.064 80.9352 105.825L80.4137 104.931C80.2945 104.693 80.061 104.628 80.4534 104.335L82.2416 102.875C82.4055 102.79 82.5992 102.616 82.9618 102.949L83.8659 104.464C84.0298 104.921 83.7914 105.145 83.6274 105.229L81.4568 106.108H81.4518Z" fill="#374244"/>
<path d="M72.2667 106.133C72.0978 106.153 71.9339 105.974 71.9041 105.726L71.6061 104.34C71.5763 104.092 71.7402 103.918 71.9041 103.898L74.1642 103.948C74.333 103.928 74.497 104.112 74.5268 104.36L74.646 105.383C74.6758 105.627 74.5665 105.845 74.3976 105.865L72.2617 106.138L72.2667 106.133Z" fill="#374244"/>
<path d="M81.6999 110.544C81.4913 110.504 81.3572 110.271 81.4068 110.027L81.5608 108.935C81.6055 108.691 81.8141 108.522 82.0228 108.562L84.4368 108.83C84.6454 108.87 85.0279 109.019 85.0279 109.397L84.9733 111.701C84.9236 111.95 84.7795 112.089 84.5709 112.049L81.7049 110.549L81.6999 110.544Z" fill="#374244"/>
<path d="M76.7772 110.311C76.8666 110.181 76.9958 109.978 76.812 109.824L75.8235 108.666C75.6398 108.512 75.2523 108.756 75.0785 108.93L73.9907 109.759C73.8963 109.888 73.8069 110.221 73.9907 110.38L75.0536 111.711C75.2424 111.87 75.4659 112.019 75.7043 111.746L76.7772 110.315V110.311Z" fill="#374244"/>
<path d="M78.6052 111.711C78.5655 111.493 78.6052 111.16 78.8436 111.115L79.9762 111.001C80.2096 110.961 80.453 111.19 80.4927 111.403L81.1782 114.597C81.2279 114.97 80.6815 115.089 80.448 115.129L79.4745 114.98C78.9529 114.85 78.8685 114.706 78.8287 114.493L78.6052 111.706V111.711Z" fill="#374244"/>
<path d="M77.756 111.095C75.6947 109.903 73.9462 106.918 73.9512 104.544C73.9512 102.855 74.9098 101.846 76.2559 101.846C76.8023 101.846 77.3885 102.025 77.9895 102.368C80.0558 103.56 81.7297 106.461 81.7198 108.83C81.7198 110.524 80.8406 111.617 79.4896 111.617C78.9432 111.617 78.362 111.443 77.756 111.09V111.095Z" fill="#AEC1BF"/>
<path d="M4.67875 64.424L7.53983 62.9289L25.5358 59.6803L8.70711 47.7244L3.92871 55.5973L4.67875 64.424Z" fill="#161C1C"/>
<path d="M32.0031 80.597C32.0031 80.597 31.2381 81.6451 29.6735 82.9266C26.9863 85.132 23.2361 87.7944 18.9345 86.5079C16.6943 85.8374 6.34277 61.1307 6.34277 61.1307C6.34277 61.1307 7.91239 57.1868 14.3498 56.6255C20.7873 56.0642 28.1436 61.6523 28.1436 61.6523L32.0031 80.597Z" fill="#040505"/>
<path d="M26.8422 79.0274C26.8273 83.4034 24.8653 86.1403 21.8999 86.6917C20.1614 87.0146 18.0752 86.5874 15.84 85.2959C9.79496 81.804 4.88742 73.3102 4.90729 66.3611C4.92716 59.4121 9.86451 56.6007 15.9095 60.0926C21.9546 63.5845 26.8621 72.0783 26.8422 79.0274Z" fill="#394747"/>
<path d="M15.3037 81.4216C11.3598 79.1466 8.16093 73.6033 8.17583 69.0732C8.18577 65.7502 9.92427 63.5994 12.6065 63.5994C13.6745 63.5994 14.8119 63.9421 15.9842 64.6177C19.9281 66.8976 23.122 72.436 23.1071 76.966C23.0972 80.294 21.3587 82.4398 18.6764 82.4398C17.6085 82.4398 16.471 82.0971 15.2987 81.4216H15.3037Z" fill="#9AAFAE"/>
<path d="M20.9857 81.1732C20.3599 81.6798 19.58 81.963 18.681 81.963C17.6975 81.963 16.6444 81.6401 15.5467 81.0043C11.7369 78.8039 8.64732 73.4542 8.65725 69.0782C8.66222 67.0417 9.36755 65.4919 10.5497 64.6922L10.6093 64.6723C10.6093 64.6723 10.0133 75.1679 20.9857 81.1732Z" fill="#859392"/>
<path d="M13.3513 67.9357C13.4855 68.1642 13.4259 68.4523 13.2172 68.5815L12.194 69.1974C11.9804 69.3216 11.6973 69.2421 11.5632 69.0136L9.69552 66.2022C9.55644 65.9737 9.69553 65.5267 9.90911 65.3975C9.90911 65.3975 10.8479 64.6972 11.5979 64.4339C11.8314 64.3495 12.0947 64.3892 12.2288 64.6177L13.3513 67.9407V67.9357Z" fill="#374244"/>
<path d="M16.7138 69.2967C16.6344 69.4855 16.4108 69.5898 16.1774 69.4954L15.2187 68.9639C14.9902 68.8696 14.8661 68.6361 14.9406 68.4474L15.7999 65.8197C15.8794 65.631 16.1575 65.4025 16.391 65.4969L17.5732 66.4357C17.8662 66.6244 18.055 66.997 17.7569 67.4291L16.7089 69.2967H16.7138Z" fill="#374244"/>
<path d="M18.8356 72.6943C18.6717 72.7787 18.4382 72.6496 18.319 72.4111L17.7975 71.5171C17.6783 71.2786 17.4448 71.2141 17.8372 70.921L19.6254 69.4607C19.7893 69.3762 19.983 69.2024 20.3456 69.5352L21.2497 71.0501C21.4136 71.5022 21.1751 71.7306 21.0112 71.8151L18.8406 72.6943H18.8356Z" fill="#374244"/>
<path d="M9.65537 72.7191C9.48649 72.739 9.32257 72.5602 9.29277 72.3118L8.99474 70.926C8.96494 70.6776 9.12886 70.5037 9.29277 70.4789L11.5528 70.5286C11.7217 70.5087 11.8856 70.6925 11.9154 70.9409L12.0346 71.9591C12.0644 72.2025 11.9552 72.4211 11.7863 72.4409L9.65041 72.7141L9.65537 72.7191Z" fill="#374244"/>
<path d="M19.0837 77.1299C18.8751 77.0902 18.741 76.8617 18.7906 76.6134L18.9446 75.5206C18.9893 75.2772 19.1979 75.1083 19.4066 75.148L21.8206 75.4163C22.0342 75.456 22.4117 75.605 22.4117 75.9825L22.357 78.2873C22.3123 78.5356 22.1633 78.6747 21.9547 78.635L19.0837 77.1349V77.1299Z" fill="#374244"/>
<path d="M14.166 76.8965C14.2554 76.7673 14.3846 76.5637 14.2008 76.4097L13.2123 75.2524C13.0285 75.0934 12.6361 75.3418 12.4623 75.5156L11.3745 76.3451C11.2801 76.4743 11.1907 76.8071 11.3745 76.966L12.4374 78.2972C12.6262 78.4562 12.8497 78.6052 13.0881 78.327L14.161 76.8965H14.166Z" fill="#374244"/>
<path d="M15.9939 78.2972C15.9542 78.0787 15.9939 77.7409 16.2323 77.7011L17.3648 77.5869C17.5983 77.5472 17.8417 77.7757 17.8814 77.9892L18.5669 81.1881C18.6166 81.5606 18.0702 81.6798 17.8367 81.7196L16.8631 81.5706C16.3466 81.4414 16.2572 81.2974 16.2224 81.0838L15.9989 78.2972H15.9939Z" fill="#374244"/>
<path d="M15.1496 77.6813C13.0882 76.4892 11.3348 73.5039 11.3448 71.1296C11.3448 69.4358 12.2985 68.4324 13.6495 68.4324C14.1959 68.4324 14.7771 68.6063 15.3831 68.954C17.4444 70.1461 19.1184 73.0469 19.1134 75.4163C19.1134 77.1101 18.2342 78.2028 16.8831 78.2028C16.3368 78.2028 15.7556 78.024 15.1496 77.6763V77.6813Z" fill="#AEC1BF"/>
<path d="M93.9737 94.3064V114.865C93.9737 114.865 95.4341 115.452 97.5749 112.819C99.7207 110.186 101.862 94.4951 101.862 94.4951L93.9688 94.3014L93.9737 94.3064Z" fill="#2B3636"/>
<path d="M8.67197 50.7593C5.945 49.5871 4.61381 52.0905 4.47969 54.1718L4.50453 64.0862C2.8902 62.9934 1.60868 61.3841 1.55404 59.432C1.43483 55.0112 1.10203 42.6331 1.86697 34.5962L7.75305 19.9332C7.75305 19.9332 8.46832 18.0953 8.63223 17.7874C9.51142 16.1283 10.2515 15.5323 11.2301 14.8965C13.1424 13.6547 16.4058 12.2639 21.8697 9.55679C27.3385 6.85963 41.7631 0.844409 43.9388 0.208614C45.3842 -0.213594 46.9339 0.0347635 48.2751 0.725198L102.546 26.9865C102.546 26.9865 105.795 28.5462 108.134 32.8329L116.449 49.2046C116.449 49.2046 128.663 56.2232 136.457 62.9785C136.457 62.9785 140.967 67.6675 140.967 74.5818C140.967 76.5339 140.967 81.0689 140.808 82.1766C140.441 84.7595 139.368 88.9816 138.459 89.6323C137.699 90.1786 95.92 114.692 94.8769 114.433C94.8769 114.433 97.6734 113.425 97.9963 107.579L98.1254 105.825C98.1254 105.825 90.6946 104.807 89.9892 100.808C89.5968 98.6029 86.5271 89.5428 85.8715 89.1902C85.8715 89.1902 77.9389 82.8521 72.788 81.8239C68.8888 81.044 68.5758 85.7231 68.5013 85.7231C68.5013 85.7231 67.9698 91.3261 67.2397 97.1575C67.0956 98.3248 65.68 99.0549 64.3637 98.3744L29.6532 79.3552C26.7971 77.5372 26.4196 72.5552 26.2756 72.0783C25.4758 69.4507 25.2374 60.9022 21.8598 58.0461C21.8598 58.0461 13.5447 52.8555 8.67197 50.7693V50.7593Z" fill="#222224"/>
<path d="M105.84 30.9702C105.259 29.793 103.803 29.3559 102.666 30.0115L70.9654 48.2658C69.7783 48.9562 69.3163 50.4365 69.8925 51.6832L76.4789 69.6941C77.0303 70.8713 78.9973 71.9641 80.1149 71.2985L114.075 51.1468C115.253 50.4464 115.695 48.9612 115.089 47.7343L105.84 30.9702Z" fill="#374651"/>
<path d="M3.25319 35.0085L2.13062 34.5217C2.13062 34.5217 1.43521 34.7999 1.43521 35.2519C1.43521 35.7039 1.02791 38.4855 0.963334 40.5618C0.898761 42.643 1.11235 46.423 1.11235 46.423C1.11235 46.423 1.16699 46.7608 1.54946 47.0389C2.08591 47.4313 2.57269 47.5257 2.57269 47.5257L3.25319 35.0035V35.0085Z" fill="#911E1A"/>
<path opacity="0.69" d="M1.43494 35.2519C1.43494 35.7039 1.02763 38.4855 0.963059 40.5618C0.963059 40.6859 0.958092 40.8201 0.953125 40.9591L2.87045 41.9774L3.25292 35.0035L2.13034 34.5167C2.13034 34.5167 1.43494 34.7949 1.43494 35.2469V35.2519Z" fill="#D0A8A8"/>
<path d="M68.1437 78.1482C68.1437 78.1482 68.9087 79.5142 70.8111 78.7939C72.495 78.1582 73.1407 70.3597 73.1407 70.3597L69.7581 57.4054L68.2232 52.016C67.19 48.7526 64.0309 46.5522 63.3703 46.1747C55.4725 41.6347 14.2601 19.4265 14.2601 19.4265C14.2601 19.4265 10.947 17.7675 9.87406 20.6932C8.80116 23.6188 3.15351 31.6408 2.86044 36.0268C2.56738 40.4128 2.56738 48.4049 2.56738 48.4049L15.7204 54.3506L27.5124 60.8774L28.3866 71.6959L31.6997 77.9346L65.1287 95.424L66.6834 82.415L68.2431 80.1748L68.1388 78.1482H68.1437Z" fill="#2B2628"/>
<path d="M63.7033 94.0928L34.556 78.6946C33.1007 77.8353 32.3109 75.6299 31.8986 72.3416C31.4416 68.7355 30.7909 62.3676 30.7909 62.3676C30.7909 62.3676 30.4333 54.9615 24.3932 52.1998C18.388 49.453 7.92713 43.5272 7.92713 43.5272C7.92713 43.5272 2.76129 43.0404 2.17517 46.9396C1.64865 50.4315 1.68839 58.5329 1.68839 58.5329C1.68839 58.5329 1.09233 64.419 4.68358 64.419C4.69352 64.419 5.48826 53.7595 5.48826 53.7595C5.48826 53.7595 5.29454 50.8338 8.70201 52.4929C9.45205 52.8555 18.9343 58.2448 21.0802 59.4121C21.0802 59.4121 24.587 61.5579 25.3668 66.0383C25.7592 68.2983 26.1765 70.5336 26.3404 71.7903C26.9364 76.3749 30.021 77.8551 34.0494 79.7476L63.44 95.0614L63.7033 94.0878V94.0928Z" fill="#424F4F"/>
<path d="M49.0357 40.3581C48.3503 39.916 47.4512 40.4177 47.4661 41.2323L47.3519 52.5574C46.6416 56.8044 48.2857 59.0595 51.8024 61.0562L67.3397 69.6693C70.7174 71.3035 71.1247 68.7504 70.8167 67.4192L67.6079 53.5856C67.0764 51.5441 66.1575 50.362 64.7717 49.4778L49.0407 40.3482L49.0357 40.3581Z" fill="#040505"/>
<path d="M47.5955 53.8092L47.675 42.0619C47.675 41.8781 47.5508 41.3913 48.0475 40.8995C48.5939 40.4823 49.0161 40.7406 49.1055 40.7952L64.4938 49.5623C65.9988 50.4762 66.9177 52.0955 67.3946 53.988L70.5239 66.833C71.0355 68.4275 69.3367 69.8282 67.8714 69.0236L51.46 60.1522C49.786 59.2979 47.1932 57.0378 47.5955 53.8042V53.8092Z" fill="#546472"/>
<path d="M45.9861 84.6651H45.5986V62.3179C45.5986 61.1208 45.6533 59.5959 45.8967 57.6041C46.3636 53.7893 46.5424 42.8566 46.6666 42.0718C47.3222 37.8894 48.6683 37.05 48.7081 37.0152L48.9614 37.3083C48.9614 37.3083 47.6749 38.1527 47.049 42.1314C46.9249 42.9162 46.7957 53.9532 46.3288 57.912C46.1202 59.6903 45.9861 61.245 45.9861 62.3179V84.6651Z" fill="#222224"/>
<path d="M65.3275 94.7385L34.556 78.6996C33.1007 77.8402 32.3109 75.6348 31.8986 72.3466C31.4416 68.7404 30.7909 62.3725 30.7909 62.3725C30.7909 62.3725 30.4333 54.9665 24.3932 52.2048C18.388 49.4579 7.92713 43.5321 7.92713 43.5321C7.92713 43.5321 2.76129 43.0453 2.17517 46.9445C1.64865 50.4365 1.68839 58.5379 1.68839 58.5379C1.68839 58.5379 1.09233 64.424 4.68358 64.424C4.69352 64.424 5.48826 53.7644 5.48826 53.7644C5.48826 53.7644 5.29454 50.8388 8.70201 52.4978C9.45205 52.8604 18.9343 58.2498 21.0802 59.4171C21.0802 59.4171 24.587 61.5629 25.3668 66.0433C25.7592 68.3033 26.1764 70.5385 26.3404 71.7952C26.9364 76.3799 30.021 77.8601 34.0494 79.7526L65.6504 96.3032L65.3226 94.7385H65.3275Z" fill="#383134"/>
<path d="M2.28009 45.8319L1.77344 51.3405C2.56818 46.5422 8.40955 47.8287 9.95434 48.5738C12.9744 50.0341 24.2349 56.6653 24.2349 56.6653C24.2349 56.6653 27.1606 58.3541 27.4188 61.9255C27.5679 63.9769 29.3312 71.6115 29.7882 73.8417C30.3693 76.668 32.1873 77.4528 34.4076 78.5853C33.0516 77.6614 32.2966 75.5156 31.8992 72.3466C31.4422 68.7404 30.7915 62.3725 30.7915 62.3725C30.7915 62.3725 30.5184 56.7497 26.4503 53.4764C25.8294 53.0194 25.1538 52.5823 24.3939 52.2048C18.3886 49.458 7.92774 43.5321 7.92774 43.5321C7.92774 43.5321 3.17417 42.4046 2.28009 45.827V45.8319Z" fill="#2B2628"/>
<path d="M98.2595 106.093C98.4532 105.999 92.9943 104.876 92.9943 102.686C92.9943 101.797 93.0092 100.585 93.0241 99.3977C93.0539 97.3413 82.7868 84.2379 79.3843 82.0722C76.6375 80.3288 74.5811 79.0025 74.5811 79.0025C74.5811 79.0025 70.806 77.0505 68.1436 78.1482C67.0012 78.6201 66.0674 79.6483 65.7147 81.6351C65.0094 85.6436 64.4183 93.1838 64.4183 93.1838C64.4183 93.1838 63.7924 95.3495 65.5856 96.3031C65.9879 96.5167 67.4383 97.2767 67.5327 97.1823C67.5327 97.1823 67.0956 96.6359 67.3886 94.9769C67.9151 91.9966 72.2117 84.9184 76.4189 86.95C80.6311 88.9816 83.1991 90.9982 85.2952 92.8907C85.2952 92.8907 87.9725 94.2567 88.4146 97.7138C88.6133 99.2884 92.1648 113.062 92.7012 116.917C92.8006 117.612 93.8039 105.393 94.0175 105.557L98.2545 106.093H98.2595Z" fill="#231F20"/>
<path d="M51.5142 68.4921C51.5242 68.9292 50.8735 68.656 50.5307 68.4474L47.6399 66.6542C47.1034 66.2767 47.0935 66.0333 47.1332 65.7701C47.2177 65.2287 47.7442 65.5515 48.0869 65.7601L50.6251 67.3298C50.9679 67.5384 51.4944 67.9407 51.5093 68.2934V68.4871L51.5142 68.4921Z" fill="#ACB6C1"/>
<path d="M139.442 81.3769C139.442 82.867 138.429 84.074 137.177 84.074C135.925 84.074 134.912 82.867 134.912 81.3769C134.912 79.8867 135.925 78.6847 137.177 78.6847C138.429 78.6847 139.442 79.8917 139.442 81.3769Z" fill="#040505"/>
<path d="M136.596 79.4198C135.925 79.4198 135.344 79.8718 135.041 80.5275C134.967 80.7957 134.917 81.0788 134.917 81.3769C134.917 82.0971 135.16 82.7478 135.543 83.2296C135.841 83.4879 136.199 83.6468 136.596 83.6468C137.579 83.6468 138.374 82.6981 138.374 81.5308C138.374 80.3636 137.579 79.4148 136.596 79.4148V79.4198Z" fill="#546472"/>
<path opacity="0.07" d="M74.1941 44.153C75.9226 43.2391 97.2168 31.611 103.903 27.9601C103.222 27.4733 102.78 27.2597 102.78 27.2597L47.0237 0.447039C47.0237 0.447039 45.618 0.0596014 44.1726 0.486777C42.9109 0.854346 35.2317 3.97868 29.0377 6.67585C24.5325 8.63787 20.8468 10.4509 20.8468 10.4509L11.6924 15.0356C12.2487 15.9694 13.6494 16.5307 15.2091 17.2559C17.1563 18.1649 67.4387 44.7987 67.4387 44.7987C67.4387 44.7987 69.7783 46.4876 74.1941 44.148V44.153Z" fill="white"/>
<path d="M92.7068 111.622L91.8574 104.722L99.934 103.058L145.324 76.6779L145.279 92.8907L141.559 95.866L141.524 95.0763L113.435 111.398L113.474 112.188L103.803 116.996C103.803 116.996 101.951 117.88 99.8943 118.049C99.0002 118.124 96.9587 118.402 96.1192 118.079L92.7118 116.922V111.622H92.7068Z" fill="#231F20"/>
<path opacity="0.17" d="M71.2734 76.8915C71.2734 76.8915 76.5982 76.8319 79.5885 78.1284C81.2674 78.8585 98.9504 93.7948 98.9504 93.7948L90.5063 94.818C90.5063 94.818 79.0172 81.7742 77.4377 80.8355C74.06 78.8238 71.795 77.0207 71.2734 76.8915Z" fill="white"/>
<path d="M113.394 99.7454L111.527 94.2964L111.581 90.735L110.518 91.3509C110.518 91.3509 102.367 96.8346 96.5856 92.6026C90.8038 88.3756 94.7328 97.5946 96.5856 97.987C98.4383 98.3844 99.3622 105.259 113.394 99.7454Z" fill="#AAAAAA"/>
<path d="M141.712 65.7502C144.822 67.5533 144.837 69.7636 144.837 69.7636V76.1762L141.712 76.8915L141.588 73.3996L140.734 69.7636C140.734 69.7636 138.603 63.9471 141.712 65.7502Z" fill="#222224"/>
<path d="M145.319 78.2873C144.539 82.1617 137.625 85.3556 137.625 85.3556L139.617 75.2275C139.617 75.2275 144.341 73.3003 144.773 69.3365C144.773 69.3365 146.029 74.7507 145.319 78.2823V78.2873Z" fill="#AAAAAA"/>
<path d="M113.533 90.0197C113.488 90.0495 112.614 90.586 112.207 91.4304C111.72 92.4437 111.735 93.7848 111.81 93.9636L114.189 99.7156C114.268 99.9093 114.472 99.949 114.69 99.8249L125.3 93.7004L135.91 87.5759C136.134 87.4467 136.332 87.1735 136.412 86.8904L138.751 78.4115C138.826 78.1482 138.831 76.7922 138.339 76.3402C137.932 75.9676 137.058 76.4395 137.013 76.4643L125.271 83.2445L113.528 90.0247L113.533 90.0197Z" fill="#171717"/>
<path d="M136.587 86.9848L136.249 86.7861C136.234 86.8407 136.214 86.8954 136.189 86.95L136.527 87.1487C136.552 87.094 136.572 87.0394 136.587 86.9848Z" fill="#E6E7E8"/>
<path d="M136.532 87.1437L136.194 86.945C136.139 87.0642 136.07 87.1785 135.985 87.2729L136.323 87.4716C136.408 87.3772 136.477 87.2629 136.532 87.1437Z" fill="#F5F5F6"/>
<path d="M136.323 87.4716L135.985 87.2729C135.916 87.3573 135.831 87.4219 135.752 87.4716L136.09 87.6702C136.174 87.6206 136.254 87.556 136.323 87.4716Z" fill="#E6E7E8"/>
<path d="M136.735 86.4533L136.392 86.2596L136.248 86.7861L136.586 86.9848L136.735 86.4533Z" fill="#D2D3D4"/>
<path d="M137.624 83.2246L137.286 83.026L136.586 85.5592L136.929 85.7529L137.624 83.2246Z" fill="#D2D3D4"/>
<path d="M138.519 79.991L138.181 79.7923L137.48 82.3256L137.818 82.5243L138.519 79.991Z" fill="#D2D3D4"/>
<path d="M138.925 78.5059L138.588 78.3072L138.374 79.092L138.712 79.2907L138.925 78.5059Z" fill="#D2D3D4"/>
<path d="M138.851 77.0803L138.514 76.8816C138.658 77.4429 138.638 78.1234 138.593 78.3022L138.931 78.5009C138.981 78.3221 139 77.6366 138.851 77.0803Z" fill="#E6E7E8"/>
<path d="M138.518 76.4345L138.181 76.2359C138.23 76.2806 138.275 76.3402 138.32 76.4047L138.658 76.6034C138.618 76.5389 138.573 76.4793 138.518 76.4345Z" fill="#E6E7E8"/>
<path d="M138.433 76.3749L138.096 76.1763C138.126 76.1961 138.155 76.216 138.18 76.2408L138.518 76.4395C138.493 76.4147 138.463 76.3948 138.433 76.3749Z" fill="#E6E7E8"/>
<path d="M139.616 74.5967L139.278 74.398C139.089 74.2887 138.826 74.3036 138.538 74.4725L138.876 74.6712C139.164 74.5023 139.427 74.4874 139.616 74.5967Z" fill="#E6E7E8"/>
<path d="M136.084 87.6702L135.747 87.4716L125.137 93.601L125.474 93.7947L136.084 87.6702Z" fill="#C6C7C8"/>
<path d="M136.929 85.7529L136.586 85.5592L125.132 92.1705L125.47 92.3692L136.929 85.7529Z" fill="#C6C7C8"/>
<path d="M137.818 82.5243L137.48 82.3256L125.127 89.4584L125.465 89.6571L137.818 82.5243Z" fill="#C6C7C8"/>
<path d="M138.712 79.2907L138.375 79.092L125.117 86.7463L125.455 86.945L138.712 79.2907Z" fill="#C6C7C8"/>
<path d="M138.658 76.6034L138.32 76.4097L125.112 84.0343L125.45 84.233L138.658 76.6034Z" fill="#C6C7C8"/>
<path d="M138.876 74.6712L138.534 74.4725L125.107 82.2262L125.445 82.4249L138.876 74.6712Z" fill="#C6C7C8"/>
<path d="M125.475 93.7947L125.137 93.601L114.527 99.7255L114.865 99.9242L125.475 93.7947Z" fill="#C6C7C8"/>
<path d="M114.865 99.9242L114.527 99.7255C114.383 99.81 114.244 99.8199 114.145 99.7603L114.482 99.959C114.582 100.019 114.721 100.009 114.865 99.9242Z" fill="#E6E7E8"/>
<path d="M113.618 100.57L113.28 100.371C113.345 100.535 113.449 100.654 113.578 100.729L113.916 100.928C113.787 100.853 113.688 100.734 113.618 100.57Z" fill="#E6E7E8"/>
<path d="M125.47 92.3692L125.132 92.1705L113.678 98.7867L114.016 98.9805L125.47 92.3692Z" fill="#C6C7C8"/>
<path d="M125.465 89.6571L125.127 89.4584L112.769 96.5913L113.106 96.7899L125.465 89.6571Z" fill="#C6C7C8"/>
<path d="M125.454 86.945L125.117 86.7464L111.859 94.4007L112.202 94.5945L125.454 86.945Z" fill="#C6C7C8"/>
<path d="M111.238 94.818L110.896 94.6193L113.28 100.371L113.618 100.57L111.238 94.818Z" fill="#888989"/>
<path d="M125.45 84.233L125.112 84.0343L111.904 91.6589L112.242 91.8576L125.45 84.233Z" fill="#C6C7C8"/>
<path d="M110.975 93.3725L110.638 93.1738C110.638 93.7202 110.727 94.207 110.896 94.6193L111.234 94.818C111.065 94.4057 110.975 93.9189 110.975 93.3725Z" fill="#E6E7E8"/>
<path d="M110.975 91.9768L110.638 91.7781V93.1738L110.975 93.3725V91.9768Z" fill="#B1B2B3"/>
<path d="M125.445 82.4249L125.107 82.2262L111.671 89.98L112.014 90.1787L125.445 82.4249Z" fill="#C6C7C8"/>
<path d="M125.445 82.4249L138.876 74.6712C139.452 74.3384 139.919 74.6066 139.919 75.2673V76.663C139.924 77.2094 139.84 77.7955 139.671 78.4065L137.331 86.8854C137.137 87.5858 136.636 88.2713 136.089 88.5892L125.48 94.7137L114.87 100.838C114.318 101.156 113.817 101.047 113.623 100.57L111.244 94.818C111.075 94.4057 110.985 93.9189 110.985 93.3725V91.9768C110.98 91.3161 111.447 90.5115 112.019 90.1787L125.45 82.4249H125.445ZM111.984 94.063L112.207 94.5994L125.465 86.945L138.717 79.2907L138.936 78.5058C138.985 78.327 139.005 77.6416 138.856 77.0852L125.455 84.8241L112.053 92.5629C111.909 93.2881 111.934 93.9487 111.984 94.0679V94.063ZM113.111 96.7899L125.465 89.6571L137.823 82.5243L138.523 79.991L125.465 87.5312L112.406 95.0713L113.116 96.7899H113.111ZM114.02 98.9805L125.475 92.3692L136.929 85.7579L137.629 83.2246L125.47 90.2432L113.31 97.2618L114.02 98.9805ZM138.523 76.4345C138.111 76.062 137.242 76.5289 137.197 76.5587L125.455 83.3389L113.712 90.119C113.668 90.1488 112.793 90.6853 112.386 91.5297C112.336 91.634 112.292 91.7483 112.252 91.8575L125.46 84.233L138.667 76.6084C138.628 76.5438 138.583 76.4842 138.528 76.4395L138.523 76.4345ZM114.368 99.8149C114.447 100.009 114.651 100.048 114.87 99.9242L125.48 93.7947L136.089 87.6702C136.313 87.5411 136.512 87.2679 136.591 86.9848L136.735 86.4583L125.475 92.9603L114.214 99.4623L114.363 99.8199L114.368 99.8149Z" fill="#7B7C7C"/>
<path d="M112.013 90.1787L111.676 89.98C111.512 90.0743 111.358 90.2085 111.224 90.3624L111.561 90.5611C111.7 90.4071 111.849 90.273 112.013 90.1787Z" fill="#E6E7E8"/>
<path d="M111.557 90.5611L111.219 90.3624C111.055 90.5462 110.916 90.7697 110.816 90.9982L111.154 91.1969C111.254 90.9684 111.393 90.7449 111.557 90.5611Z" fill="#F5F5F6"/>
<path d="M111.154 91.1969L110.817 90.9982C110.702 91.2565 110.638 91.5297 110.638 91.7781L110.975 91.9768C110.975 91.7284 111.04 91.4552 111.154 91.1969Z" fill="#E6E7E8"/>
<path d="M115.133 102.368C113.951 103.183 112.689 103.863 111.393 104.459C110.097 105.055 108.751 105.542 107.37 105.87C105.989 106.198 104.573 106.362 103.177 106.272C101.782 106.188 100.406 105.855 99.1689 105.234C97.9321 104.618 96.8343 103.734 95.9303 102.686C95.0213 101.633 94.2464 100.446 93.4914 99.2387C92.7364 98.0317 92.0062 96.7949 91.2413 95.5779C90.4764 94.361 89.6766 93.154 88.8322 91.9817C87.1434 89.6323 85.2658 87.402 83.1895 85.3754C81.1182 83.3389 78.8731 81.4861 76.5087 79.8072C75.3265 78.9628 74.1146 78.173 72.8777 77.418C72.5747 77.2293 72.2469 77.0455 71.9687 76.8667L71.0647 76.2905L69.2567 75.1331L62.0046 70.5087C57.1617 67.439 52.2988 64.3991 47.4062 61.4139C44.9574 59.9188 42.4986 58.4385 40.03 56.9832C37.5514 55.5328 35.0628 54.1022 32.5445 52.7164C31.2828 52.021 30.0211 51.3405 28.7396 50.6749L27.776 50.1782L27.6568 50.1186L27.5972 50.0888C27.5922 50.0888 27.6369 50.1136 27.5972 50.0888L27.5674 50.0739L27.3339 49.9447L26.867 49.6864L24.9994 48.6383C22.5108 47.2326 20.0372 45.8021 17.5884 44.3318C15.1346 42.8715 12.6957 41.3863 10.3612 39.7869C9.78 39.3845 9.20878 38.9772 8.66239 38.5501C8.52828 38.4458 8.39417 38.3365 8.26006 38.2272L7.86268 37.8894C7.58452 37.651 7.30636 37.4176 7.01827 37.1841C6.44704 36.7222 5.85595 36.2801 5.23506 35.8678C4.60423 35.4605 3.9585 35.0631 3.15382 34.7899C3.12402 34.78 3.09422 34.7651 3.06441 34.7651C2.96507 34.7651 2.79619 36.2056 2.84586 36.2304C3.35251 36.4341 3.88399 36.7669 4.39064 37.1146C4.95193 37.502 5.49832 37.9341 6.03477 38.3812C6.303 38.6047 6.57122 38.8332 6.83448 39.0666C6.96363 39.1809 7.10768 39.3051 7.25172 39.4292C7.39577 39.5485 7.53982 39.6677 7.68387 39.7819C8.26502 40.2439 8.85115 40.671 9.4472 41.0932C11.8215 42.7572 14.2653 44.2772 16.7191 45.7723C19.1828 47.2525 21.6664 48.693 24.1649 50.1086L26.0425 51.1666L26.5143 51.4299L26.7478 51.559L26.8322 51.6037L26.8918 51.6335L27.0111 51.6931L27.9598 52.1849C29.2214 52.8455 30.4781 53.5211 31.7249 54.2115C41.694 59.7946 51.4693 65.7701 61.1851 71.83L68.457 76.4047L70.275 77.5521L71.1889 78.1283C71.5167 78.332 71.8148 78.5009 72.1178 78.6847C73.3347 79.4148 74.5219 80.1847 75.6891 80.9894C78.0187 82.5988 80.2291 84.377 82.2706 86.3291C84.3121 88.2862 86.1996 90.4022 87.8984 92.6771C89.6071 94.9422 91.1122 97.3562 92.6917 99.7653C93.4865 100.962 94.311 102.169 95.3094 103.257C96.3128 104.345 97.5198 105.259 98.8708 105.875C100.217 106.496 101.692 106.814 103.157 106.838C104.623 106.868 106.078 106.64 107.469 106.252C108.865 105.86 110.206 105.314 111.487 104.658C112.769 104.002 113.996 103.247 115.133 102.373V102.368Z" fill="#231F20"/>
<path d="M115.119 102.88C115.243 102.88 115.367 102.85 115.481 102.78L137.546 90.0843C137.779 89.9502 137.908 89.7068 137.908 89.4534C137.908 89.3293 137.878 89.2051 137.809 89.0908C137.61 88.7431 137.163 88.6239 136.815 88.8226L114.751 101.519C114.518 101.653 114.389 101.896 114.389 102.149C114.389 102.274 114.418 102.398 114.488 102.512C114.622 102.746 114.866 102.88 115.119 102.88Z" fill="#F1F2F2"/>
<path d="M100.893 114.374C104.092 114.374 107.519 112.705 108.378 112.253V108.373C104.827 110.455 100.486 110.609 99.4674 109.918L99.4326 114.24C99.9045 114.329 100.396 114.369 100.893 114.369V114.374Z" fill="#F1F2F2"/>
<path d="M108.984 111.478L141.648 92.4685L141.713 89.066L108.984 108.006V111.478Z" fill="#58595B"/>
<path d="M139.909 92.5728C139.323 92.5728 138.811 92.8808 138.757 92.9106C115.809 106.769 116.688 106.262 115.257 107.107C112.451 108.771 112.625 111.577 112.63 111.667C112.63 111.677 112.689 110.822 112.764 112.536C113.017 112.392 113.211 112.357 113.469 112.213C113.409 110.748 113.409 111.677 113.409 111.637C113.409 111.612 113.26 109.198 115.699 107.752C117.085 106.933 116.211 107.44 139.164 93.5762C139.259 93.5166 139.596 93.3527 139.909 93.3527C140.411 93.3527 140.679 93.8444 140.714 94.818C140.734 95.4389 140.764 95.0663 140.783 96.323C141.052 96.1591 141.31 96.0101 141.553 95.8661C141.533 94.7186 141.509 95.3495 141.494 94.7931C141.429 92.8609 140.475 92.5728 139.909 92.5728Z" fill="#040505"/>
<path d="M140.764 95.5183L140.784 96.323L113.474 112.218L113.43 111.403L140.764 95.5183Z" fill="#231F20"/>
<path d="M111.72 83.319C105.636 75.5901 97.1071 70.7968 93.8288 69.1378L89.3633 71.8101L90.7143 72.4757C90.8286 72.5254 101.051 77.1598 107.901 85.5294L111.72 83.319Z" fill="#231F20"/>
<path d="M66.535 69.4656L68.959 69.4855C68.959 69.4855 69.1378 68.6312 69.1726 67.9904C69.3315 65.0051 69.863 63.9173 70.2206 64.7369C70.8465 66.1625 70.8465 65.626 72.1827 69.0136C73.2605 71.7406 73.4791 73.7871 71.9144 73.2903C71.2886 73.0917 69.6742 71.83 69.6742 71.83L66.2568 71.686L66.535 69.4607V69.4656Z" fill="black"/>
<path d="M64.4084 66.8082C64.4084 66.8082 58.0107 68.6957 58.0107 70.2157C58.0107 71.7356 59.8536 72.287 60.8023 72.4757C62.8835 72.893 68.4616 72.431 68.4616 72.431C68.4616 72.431 68.5957 71.984 68.6802 70.2604C68.705 69.7289 68.7597 69.1676 68.7597 68.348C68.7696 65.0349 64.4035 66.8132 64.4035 66.8132L64.4084 66.8082Z" fill="#58595B"/>
<path d="M68.5664 66.5797C67.1706 64.3842 61.7812 65.6608 59.5262 66.3065C58.9053 66.4854 58.4185 66.992 58.2794 67.6228C58.0956 68.4424 57.8969 69.565 58.0112 70.2157C58.3936 71.4376 60.2762 71.2091 61.1852 71.2687C63.1472 71.4028 67.9802 70.4044 68.6806 70.2554C68.7998 69.6991 68.9637 67.2056 68.5664 66.5797Z" fill="#6D6E71"/>
<path d="M32.9268 57.0875C32.9417 57.5246 32.2861 57.2564 31.9434 57.0477L29.0525 55.2546C28.511 54.8771 28.5061 54.6337 28.5458 54.3704C28.6352 53.829 29.1568 54.1519 29.4995 54.3605L32.0377 55.9301C32.3805 56.1388 32.907 56.5411 32.9268 56.8938V57.0875Z" fill="#ACB6C1"/>
<path d="M27.5771 29.783C27.7311 29.783 27.8801 29.8228 28.0142 29.9022L44.4108 39.315C45.1757 39.7571 45.6526 40.5767 45.6476 41.4608L45.6079 55.9748C45.6079 56.2331 45.3893 56.3921 45.1857 56.3921C45.1161 56.3921 45.0466 56.3722 44.9771 56.3325L23.1812 43.8053C22.5404 43.4377 22.2623 42.6678 22.5156 41.9774L26.7377 30.3592C26.8668 30.0115 27.1996 29.7731 27.5722 29.7731L27.5771 29.783ZM27.5771 29.1621C26.9662 29.1621 26.385 29.5347 26.1565 30.1556L21.9344 41.7737C21.5818 42.7473 21.9791 43.8401 22.8782 44.3567L44.6741 56.8838C44.8429 56.9782 45.0168 57.0229 45.1906 57.0229C45.7321 57.0229 46.2337 56.5908 46.2337 55.9848L46.2735 41.4707C46.2735 40.3631 45.6824 39.3349 44.7237 38.7835L28.3272 29.3708C28.0887 29.2317 27.8305 29.1671 27.5771 29.1671V29.1621Z" fill="black"/>
<path d="M45.1908 56.705C45.5435 56.705 45.921 56.4269 45.921 55.9749L45.9607 41.4608C45.9607 40.4674 45.4292 39.5385 44.5649 39.0418L28.1684 29.6291C27.9846 29.5248 27.7809 29.4701 27.5723 29.4701C27.0706 29.4701 26.6186 29.788 26.4448 30.2599L22.2227 41.8781C21.9197 42.7126 22.2575 43.6414 23.0274 44.0835L44.8232 56.6106C44.9375 56.6752 45.0567 56.71 45.1858 56.71L45.1908 56.705Z" fill="#546472"/>
<path d="M11.2701 21.0508C11.439 21.0508 11.5979 21.0955 11.7469 21.1799H11.7519L11.7618 21.1899L23.5836 27.5727C24.2194 27.9452 24.4976 28.7151 24.2443 29.4105L20.0073 41.0634C19.8781 41.4111 19.5453 41.6496 19.1728 41.6496C19.0188 41.6496 18.8698 41.6098 18.7307 41.5304H18.7208L18.7109 41.5204L9.65575 36.6129C9.45706 35.1873 8.65238 28.7896 8.52821 27.7714L10.217 21.7065C10.4406 21.3091 10.8578 21.0458 11.2651 21.0458L11.2701 21.0508ZM11.2701 20.4299C10.6094 20.4299 9.96868 20.8372 9.64085 21.478L7.90234 27.7266C7.90234 27.7266 9.05969 37.0003 9.09446 37.0152L18.4228 42.0668C18.6612 42.2059 18.9245 42.2705 19.1778 42.2705C19.7887 42.2705 20.3699 41.8979 20.5984 41.277L24.8354 29.6241C25.193 28.6456 24.7907 27.5528 23.8916 27.0312L12.0648 20.6435C11.8115 20.4994 11.5433 20.4299 11.28 20.4299H11.2701Z" fill="black"/>
<path d="M146.496 85.2711C147.256 86.5377 147.077 89.513 146.725 90.7846C146.283 92.399 145.229 92.9106 145.229 92.9106V83.8902C145.647 84.223 146.258 84.8787 146.491 85.2711H146.496Z" fill="#222224"/>
<path d="M142.428 88.6438V92.5728C142.428 92.5728 146.133 91.0777 146.993 89.066C146.993 89.066 147.107 88.6736 147.027 87.3474C146.948 86.0212 146.695 85.6983 146.695 85.6983C146.695 85.6983 143.461 88.7779 142.428 88.6438Z" fill="#F1F2F2"/>
<path d="M134.778 70.017C128.142 62.0298 119.872 57.9369 115.312 56.1437L110.916 58.8061C111.035 58.8359 122.688 62.0199 131.311 72.0237L134.783 70.017H134.778Z" fill="#231F20"/>
<g opacity="0.17">
<path d="M84.0839 33.9703C84.8439 34.3677 85.8075 34.4671 86.2645 34.2038L87.8043 33.2104C88.2464 32.9223 87.9781 32.3659 87.1983 31.9636L36.6774 5.70723C35.9174 5.30986 34.9538 5.21052 34.5018 5.47378L32.5447 6.25859C32.1026 6.54172 32.3758 7.103 33.1507 7.50534" fill="#828385"/>
<path d="M29.1524 8.70739C28.3875 8.31002 27.4288 8.21067 26.9719 8.47393L25.2234 9.25874C24.7813 9.54684 25.0545 10.1032 25.8294 10.5055L77.3885 37.5914C78.1484 37.9838 79.1121 38.0881 79.5641 37.8248L81.1039 36.8314C81.546 36.5483 81.2728 35.987 80.4979 35.5847" fill="#828385"/>
<path d="M19.4514 11.8864L17.7029 12.6712C17.2608 12.9543 17.534 13.5156 18.3089 13.9179L70.6925 41.2124C71.4525 41.6098 72.4161 41.7092 72.8731 41.4459L74.4129 40.4525C74.855 40.1693 74.5818 39.6081 73.8069 39.2057L21.6319 12.1198C20.872 11.7274 19.9083 11.6231 19.4563 11.8864H19.4514Z" fill="#828385"/>
</g>
<mask id="mask0_655_8454" style="mask-type:luminance" maskUnits="userSpaceOnUse" x="93" y="28" width="2" height="2">
<path d="M94.4898 29.5893C94.9319 29.3012 94.6587 28.7449 93.8838 28.3426C94.6587 28.7449 94.9319 29.3062 94.4898 29.5893Z" fill="white"/>
</mask>
<g mask="url(#mask0_655_8454)">
<path d="M94.4898 29.5893C94.9319 29.3012 94.6587 28.7449 93.8838 28.3426C94.6587 28.7449 94.9319 29.3062 94.4898 29.5893Z" fill="#546472"/>
</g>
<g opacity="0.17">
<path d="M41.5053 2.12096L39.8612 2.84119C39.4191 3.12432 39.4837 3.68561 40.2586 4.08795L90.7745 30.3443C91.5345 30.7417 92.4981 30.841 92.9501 30.5778L94.4899 29.5843C94.932 29.2962 94.6588 28.7399 93.884 28.3376L43.7853 2.49846C43.0253 2.10605 41.9573 1.8577 41.5053 2.12096Z" fill="#828385"/>
</g>
<path d="M19.1733 41.9575C19.675 41.9575 20.127 41.6396 20.3008 41.1678L24.5378 29.5148C24.8408 28.6754 24.503 27.7465 23.7331 27.2995L11.9113 20.9167C11.7076 20.7975 11.4941 20.7428 11.2705 20.7428C10.7341 20.7428 10.2125 21.0756 9.93437 21.5922L8.2207 27.7465C8.31011 28.4518 9.2191 35.7138 9.37805 36.8116L18.5722 41.7936C18.761 41.9029 18.9696 41.9575 19.1782 41.9575H19.1733Z" fill="#546472"/>
<path d="M30.7012 75.2424L31.1085 75.158C30.6217 72.7787 30.3237 70.3746 30.0356 68.05C29.5985 64.5382 29.1862 61.2251 28.1977 58.9452C26.802 55.7215 18.8347 51.3554 17.5382 50.6649L27.3732 26.3954L26.9858 26.2415L17.0117 50.8587L17.1756 50.9481C17.27 50.9977 26.3847 55.8109 27.8153 59.1141C28.7789 61.3394 29.1862 64.6276 29.6233 68.1046C29.9164 70.4392 30.2144 72.8532 30.7012 75.2474V75.2424Z" fill="#222224"/>
</g>
<defs>
<clipPath id="clip0_655_8454">
<rect width="146.104" height="124" fill="white" transform="translate(0.948242)"/>
</clipPath>
</defs>
</svg>
