<svg width="77" height="32" viewBox="0 0 77 32" fill="none" xmlns="http://www.w3.org/2000/svg">
<mask id="mask0_754_4941" style="mask-type:luminance" maskUnits="userSpaceOnUse" x="0" y="0" width="77" height="32">
<path d="M76.0193 0H0.5V32H76.0193V0Z" fill="white"/>
</mask>
<g mask="url(#mask0_754_4941)">
<path d="M48.7769 15.6333V19.5125C46.7544 18.9419 45.3809 18.5427 43.0687 18.5427C40.8571 18.5427 40.1305 19.1984 40.1305 20.2014C40.1305 20.8008 40.4678 21.3426 41.745 21.7418L45.8631 23.0257C48.7293 23.9103 49.8617 25.6497 49.8617 28.046C49.8617 31.7538 47.5494 33.9212 42.9249 33.9212C40.01 33.9212 38.2518 33.4369 36.5422 32.895V28.871C38.2009 29.3841 40.8051 30.0686 42.4671 30.0686C44.9475 30.0686 46.0057 29.6406 46.0057 28.4718C46.0057 27.6435 45.3068 26.959 43.8859 26.5311L39.9193 25.3324C37.5839 24.6191 36.3066 22.737 36.3066 20.2556C36.3066 16.5478 38.5713 14.6934 43.3396 14.6934C45.5258 14.6923 47.3802 15.2341 48.7769 15.6333Z" fill="white"/>
<path d="M72.231 14.1543C71.3962 20.5945 70.2328 28.1926 69.1348 34.4769H64.4141C63.7119 31.3806 62.5917 26.2541 62.0432 22.8769C61.4505 26.2541 60.2872 31.3817 59.5839 34.4769H54.9737C53.8757 28.1926 52.7123 20.5945 51.8564 14.1543H55.259C55.7865 19.2819 56.5982 25.0344 57.4331 29.5373C58.5521 25.0344 59.6945 19.8758 60.1976 16.931H63.9297C64.4351 19.8702 65.5763 25.0289 66.6743 29.5373C67.5081 25.0344 68.3209 19.2819 68.8473 14.1543H72.231Z" fill="white"/>
<path d="M15.2486 31.9839L7.95028 20.3729V31.9839H4.29004V14.7764H8.60271L15.2984 25.568V14.7764H18.9586V31.9839H15.2486Z" fill="white"/>
<path d="M15.2486 12.897L7.95028 2.8684V12.897H4.29004V-1.96289H8.60271L15.2984 7.35578V-1.96289H18.9586V12.897H15.2486Z" fill="white"/>
<path d="M33.3387 19.9736V23.6969C31.3151 23.144 29.9428 22.7658 27.6305 22.7658C25.4189 22.7658 24.6924 23.395 24.6924 24.3538C24.6924 24.9288 25.0296 25.4485 26.3057 25.8322L30.4249 27.0641C33.2901 27.9123 34.4224 29.582 34.4224 31.8821C34.4224 35.4406 32.1101 37.5218 27.4856 37.5218C24.5718 37.5218 22.8136 37.0573 21.104 36.5365V32.6772C22.7627 33.1693 25.3669 33.8262 27.0289 33.8262C29.5093 33.8262 30.5675 33.4159 30.5675 32.2935C30.5675 31.4995 29.8698 30.8427 28.4488 30.4324L24.4745 29.2824C22.1379 28.5979 20.8618 26.791 20.8618 24.4102C20.8618 20.8505 23.1254 19.0713 27.8948 19.0713C30.0876 19.0702 31.9421 19.5899 33.3387 19.9736Z" fill="white"/>
<path d="M33.3387 -0.255401V3.44686C31.3151 2.90169 29.9428 2.52129 27.6305 2.52129C25.4189 2.52129 24.6924 3.14718 24.6924 4.09929C24.6924 4.67099 25.0296 5.18852 26.3057 5.56892L30.4249 6.79415C33.2901 7.63789 34.4224 9.29772 34.4224 11.5845C34.4224 15.1231 32.1101 17.191 27.4856 17.191C24.5718 17.191 22.8136 16.7288 21.104 16.2113V12.3741C22.7627 12.864 25.3669 13.5164 27.0289 13.5164C29.5093 13.5164 30.5675 13.1083 30.5675 11.9926C30.5675 11.203 29.8698 10.555 28.4488 10.1414L24.4745 8.99915C22.1379 8.31797 20.8618 6.52212 20.8618 4.15458C20.8618 0.615979 23.1254 -1.15332 27.8948 -1.15332C30.0876 -1.15332 31.9421 -0.635801 33.3387 -0.255401Z" fill="white"/>
<path d="M48.7769 -3.37702V-0.37363C46.7544 -0.878986 45.3809 -0.796058 43.0687 -0.796058C40.8571 -0.796058 40.1305 -0.214398 40.1305 0.671357C40.1305 1.20325 40.4678 1.68317 41.745 2.03703L45.8631 3.17603C48.7293 3.96005 49.8617 5.49823 49.8617 7.62913C49.8617 10.9178 47.5494 12.8408 42.9249 12.8408C40.01 12.8408 38.2518 12.4107 36.5422 11.9296V8.36229C38.2009 8.81788 40.8051 9.42497 42.4671 9.42497C44.9475 9.42497 46.0057 9.04567 46.0057 8.00842C46.0057 7.27527 45.3068 6.66708 43.8859 6.28778L39.9193 5.2251C37.5839 4.59257 36.3066 2.92279 36.3066 0.72222C36.3066 -2.56647 38.5713 -4.21191 43.3396 -4.21191C45.5258 -4.21191 47.3802 -3.73088 48.7769 -3.37702Z" fill="white"/>
<path d="M72.1694 -3.37891C71.3345 1.58177 70.1712 7.43484 69.0731 12.2761H64.3579C63.6557 9.89085 62.5355 5.94088 61.9871 3.34001C61.3943 5.94088 60.2299 9.89085 59.5277 12.2761H54.9176C53.8195 7.43484 52.6562 1.58177 51.8003 -3.37891H55.2029C55.7304 0.571056 56.542 5.00205 57.3769 8.46988C58.496 5.00205 59.6372 1.02776 60.1414 -1.23584H63.8736C64.3789 1.02776 65.5201 5.00205 66.6182 8.46988C67.452 5.00205 68.2647 0.571056 68.7911 -3.37891H72.1694Z" fill="white"/>
</g>
</svg>
