<?xml version="1.0" standalone="no"?>
<!DOCTYPE svg PUBLIC "-//W3C//DTD SVG 20010904//EN"
 "http://www.w3.org/TR/2001/REC-SVG-20010904/DTD/svg10.dtd">
<svg version="1.0" xmlns="http://www.w3.org/2000/svg"
 width="1232.000000pt" height="1232.000000pt" viewBox="0 0 1232.000000 1232.000000"
 preserveAspectRatio="xMidYMid meet">
<metadata>
Created by potrace 1.14, written by Peter Selinger 2001-2017
</metadata>
<g transform="translate(0.000000,1232.000000) scale(0.100000,-0.100000)"
fill="#000000" stroke="none">
<path d="M689 8713 c-4 -29 -3 -2053 1 -2054 24 -5 564 -2 572 2 7 5 11 262
10 793 0 441 4 786 9 786 5 0 25 -25 45 -55 20 -30 40 -55 44 -55 4 0 11 -10
17 -22 6 -13 40 -62 77 -111 36 -48 66 -91 66 -96 0 -5 3 -11 8 -13 4 -1 25
-28 47 -58 22 -30 45 -61 52 -68 7 -7 13 -17 13 -21 0 -4 8 -16 18 -27 15 -17
144 -191 182 -247 17 -26 136 -188 148 -202 5 -6 24 -33 43 -60 29 -43 75
-106 102 -140 4 -5 29 -39 54 -75 47 -64 126 -174 189 -260 60 -82 30 -76 351
-74 158 1 290 3 293 3 3 1 5 463 4 1029 l0 1027 -292 3 -292 2 -1 -37 c0 -21
-1 -282 -1 -580 0 -299 -4 -543 -8 -543 -5 0 -17 15 -29 33 -11 17 -37 55 -58
84 -21 28 -67 93 -103 144 -36 50 -72 99 -80 109 -8 9 -19 24 -25 32 -22 35
-111 161 -120 172 -6 6 -55 74 -110 151 -55 77 -103 145 -107 150 -25 31 -71
96 -133 184 l-70 100 -457 1 c-252 0 -458 -3 -459 -7z"/>
<path d="M3624 8698 c-131 -98 -231 -252 -259 -399 -3 -13 -7 -35 -10 -49 -36
-168 -12 -406 55 -550 47 -101 122 -201 192 -255 21 -17 47 -38 59 -47 48 -39
195 -100 343 -144 88 -25 167 -47 175 -49 9 -2 57 -16 106 -31 50 -14 95 -27
100 -28 6 -1 37 -10 70 -20 33 -10 67 -20 75 -21 89 -20 233 -92 286 -143 102
-99 96 -248 -13 -323 -23 -16 -48 -29 -56 -29 -7 0 -17 -3 -21 -7 -3 -4 -12
-8 -19 -9 -56 -10 -84 -15 -97 -19 -47 -14 -280 -23 -302 -13 -12 6 -18 5 -18
-2 0 -6 -4 -9 -9 -6 -5 3 -40 8 -77 11 -38 3 -84 7 -102 10 -59 8 -107 15
-132 20 -14 3 -56 12 -95 20 -38 8 -81 17 -95 20 -30 7 -58 13 -85 19 -11 2
-47 11 -80 20 -33 9 -78 22 -100 28 -22 5 -51 14 -65 18 -14 5 -36 11 -50 14
l-25 5 0 -304 0 -305 25 -9 c33 -13 159 -49 190 -55 14 -2 25 -5 25 -6 0 -2
58 -16 105 -25 14 -3 36 -7 50 -10 75 -15 167 -28 305 -43 93 -9 493 -9 574 1
100 12 280 54 296 68 5 5 15 9 22 9 7 0 38 12 70 27 316 148 475 416 467 789
-3 155 -27 264 -81 362 -57 104 -171 222 -258 268 -11 6 -40 22 -65 36 -38 21
-143 65 -175 73 -5 1 -17 5 -25 8 -8 4 -55 18 -105 33 -49 14 -119 35 -155 46
-36 10 -87 26 -115 34 -27 8 -57 16 -65 19 -25 8 -124 36 -140 40 -8 2 -16 4
-17 5 -2 2 -6 3 -10 4 -49 12 -140 43 -189 66 -111 51 -156 114 -150 214 4 67
39 127 94 159 20 12 39 22 42 23 3 0 17 6 32 12 94 39 475 49 648 17 14 -2 43
-7 65 -10 78 -11 316 -65 435 -99 30 -8 56 -13 59 -10 3 3 5 126 6 274 l0 270
-841 0 -841 0 -29 -22z"/>
<path d="M5812 8603 c1 -64 5 -133 10 -152 36 -136 54 -180 110 -263 85 -127
223 -226 393 -283 44 -15 86 -28 95 -30 8 -2 42 -10 75 -19 33 -9 70 -19 82
-22 12 -2 34 -9 48 -14 14 -5 25 -6 25 -3 0 4 5 2 12 -5 7 -7 22 -12 34 -12
12 0 41 -7 64 -15 24 -8 55 -18 69 -21 37 -7 56 -12 56 -14 0 -1 7 -3 15 -5 8
-2 35 -8 60 -14 25 -7 56 -14 69 -17 14 -3 48 -14 75 -25 189 -77 258 -149
252 -264 -6 -103 -71 -156 -234 -191 -118 -25 -436 -25 -592 0 -14 2 -43 7
-65 10 -22 4 -62 11 -90 16 -27 5 -61 12 -75 14 -68 12 -176 37 -395 92 -66
17 -60 43 -58 -259 0 -149 1 -277 2 -284 1 -10 26 -23 56 -29 6 -1 39 -9 75
-19 36 -9 72 -18 80 -20 77 -20 253 -52 335 -61 22 -2 56 -6 75 -9 172 -23
589 -23 693 0 12 2 38 7 57 10 37 5 49 7 120 24 92 21 269 95 312 130 7 6 41
33 75 61 57 46 163 178 163 203 0 6 7 18 15 27 8 9 16 25 18 36 2 10 7 26 10
34 29 71 40 159 40 295 -1 229 -65 373 -231 518 -18 15 -34 27 -36 27 -3 0
-22 12 -43 26 -71 48 -268 128 -368 149 -45 9 -61 14 -85 23 -14 5 -28 10 -33
11 -17 2 -63 13 -77 18 -8 3 -24 8 -35 10 -11 2 -36 9 -55 15 -19 7 -37 13
-40 13 -102 26 -294 79 -345 97 -168 58 -233 147 -192 266 l15 42 -319 0 -318
0 1 -117z"/>
<path d="M8390 8703 c0 -10 7 -54 16 -98 8 -44 17 -91 20 -105 2 -14 7 -38 11
-55 3 -16 7 -37 8 -45 1 -8 17 -89 35 -180 18 -91 34 -175 35 -187 2 -11 6
-29 9 -40 3 -10 8 -36 12 -58 3 -22 8 -43 10 -46 2 -4 6 -24 10 -45 3 -22 17
-91 30 -154 13 -63 29 -137 34 -165 15 -74 16 -81 40 -190 12 -55 23 -111 26
-125 3 -14 9 -41 14 -60 5 -19 12 -51 15 -70 5 -28 26 -124 39 -175 3 -11 17
-80 22 -109 2 -11 8 -24 14 -30 11 -11 713 -17 729 -6 5 3 23 55 40 115 18 61
43 146 56 190 25 82 116 400 140 490 7 28 22 82 33 122 11 39 18 74 14 77 -3
3 -1 6 5 6 5 0 10 6 11 13 0 6 3 23 7 37 4 14 8 34 11 45 18 91 83 317 87 305
7 -17 29 -128 27 -132 -1 -2 3 -15 9 -31 6 -15 13 -38 15 -50 2 -12 9 -42 15
-67 7 -25 14 -56 17 -69 8 -37 63 -248 86 -326 11 -38 24 -86 28 -105 5 -19
11 -44 14 -55 3 -11 10 -36 15 -55 5 -19 19 -66 30 -105 23 -81 91 -315 95
-330 2 -5 6 -17 9 -25 3 -8 7 -24 9 -35 3 -19 12 -20 376 -20 206 0 378 2 382
5 5 3 11 21 14 40 3 19 16 85 30 147 25 110 31 136 41 191 3 15 10 43 15 62 5
19 12 50 15 68 3 18 12 65 21 105 9 39 18 81 19 92 2 11 7 31 10 45 3 14 8 39
11 55 3 17 10 47 15 68 6 21 12 50 14 65 2 15 6 38 9 52 3 14 10 45 15 70 5
25 19 95 31 155 13 61 24 117 25 125 1 8 5 29 8 45 8 37 16 80 23 120 11 63
12 70 18 85 3 8 8 33 11 55 3 22 12 74 20 115 15 78 21 112 31 168 l5 32 -263
0 c-251 0 -264 -1 -265 -19 -1 -10 -11 -70 -22 -133 -11 -63 -23 -133 -26
-154 -4 -21 -8 -46 -10 -54 -3 -8 -7 -33 -11 -55 -9 -60 -26 -150 -39 -205 -3
-14 -7 -38 -10 -55 -5 -31 -10 -60 -21 -105 -3 -14 -8 -38 -11 -55 -5 -32 -90
-419 -97 -445 -3 -8 -5 -23 -5 -32 -2 -44 -23 -10 -51 85 -18 56 -38 122 -47
147 -8 25 -33 106 -54 180 -22 74 -54 180 -70 235 -17 55 -32 110 -35 122 -2
12 -8 33 -13 45 -5 13 -9 26 -10 31 0 4 -1 8 -2 10 0 1 -2 9 -4 17 -2 8 -11
42 -21 75 -9 33 -17 65 -18 70 -1 6 -10 35 -19 65 -9 30 -18 66 -21 80 -3 14
-10 43 -16 65 -6 22 -14 50 -17 63 l-5 22 -347 0 -347 0 -18 -77 c-10 -43 -24
-96 -32 -118 -7 -22 -15 -51 -17 -65 -10 -51 -20 -85 -30 -97 -5 -7 -7 -13 -4
-13 2 0 -11 -53 -30 -117 -19 -65 -36 -125 -38 -134 -2 -9 -13 -47 -25 -85
-12 -38 -23 -78 -26 -89 -2 -11 -8 -31 -13 -45 -6 -14 -26 -81 -46 -150 -20
-69 -40 -134 -45 -145 -9 -20 -53 -164 -54 -177 -1 -4 -7 -13 -13 -19 -11 -11
-13 -8 -14 14 -2 29 -3 34 -12 57 -3 8 -9 33 -13 55 -4 22 -8 45 -10 50 -1 6
-4 22 -7 38 -3 15 -8 35 -11 45 -3 9 -7 28 -10 42 -2 14 -16 79 -30 145 -14
66 -27 131 -30 145 -19 103 -57 300 -61 320 -3 14 -8 41 -11 60 -2 19 -9 55
-14 80 -5 25 -14 74 -19 110 -6 36 -13 76 -16 90 -3 14 -6 37 -7 53 l-2 27
-263 0 c-244 0 -263 -1 -263 -17z"/>
<path d="M8316 6452 c-20 -4 -21 12 9 -202 11 -79 13 -97 19 -150 4 -30 9 -67
12 -82 7 -35 14 -85 18 -123 3 -27 11 -83 22 -155 3 -24 9 -64 20 -140 2 -19
9 -66 15 -105 6 -38 12 -83 14 -100 9 -62 26 -181 31 -205 8 -47 14 -85 18
-115 6 -48 17 -128 23 -155 7 -40 11 -62 18 -115 8 -65 14 -98 25 -165 5 -30
12 -75 15 -100 3 -25 8 -57 10 -72 3 -16 7 -40 9 -55 3 -16 12 -68 20 -118 9
-49 18 -106 20 -125 3 -19 7 -44 10 -55 2 -11 7 -42 11 -70 4 -27 9 -61 12
-75 2 -14 5 -36 8 -50 9 -62 16 -107 22 -135 4 -16 7 -39 8 -50 1 -11 6 -38 9
-60 4 -22 9 -47 10 -55 3 -13 62 -15 453 -18 356 -2 450 0 450 10 1 7 19 96
42 198 42 186 48 214 57 260 3 14 7 32 9 40 5 15 62 283 71 330 2 14 11 57 20
95 15 71 20 97 29 147 3 15 14 74 26 130 11 57 22 119 26 138 3 19 7 42 8 50
2 8 4 18 4 23 1 4 6 7 11 7 6 0 10 -6 8 -12 -2 -16 8 -82 32 -208 10 -52 21
-108 24 -125 9 -52 16 -89 26 -135 10 -44 14 -70 26 -140 3 -19 8 -39 11 -43
2 -4 6 -22 9 -40 2 -18 6 -41 8 -52 2 -11 18 -90 36 -175 17 -85 40 -191 50
-235 10 -44 21 -96 25 -115 3 -19 11 -60 18 -90 l14 -55 456 -3 c251 -1 457 1
458 5 1 11 7 46 24 143 8 47 17 101 19 120 3 19 9 60 15 90 6 30 13 73 16 95
3 23 7 52 10 65 3 13 7 42 11 65 3 22 14 92 24 155 29 176 31 193 36 225 2 17
5 39 7 50 3 11 8 45 12 75 4 30 9 64 11 75 4 18 32 202 39 250 1 11 6 39 9 63
4 24 9 58 11 75 2 18 8 61 14 97 6 36 13 81 15 100 3 19 7 49 10 65 3 17 8 50
11 75 3 25 7 56 9 70 2 14 7 45 11 70 3 25 8 56 10 70 3 14 7 48 10 75 3 28 7
59 9 70 2 11 7 45 11 75 4 30 9 62 10 71 2 9 6 38 9 65 4 27 9 65 12 84 2 19
7 55 9 80 3 25 11 84 18 133 7 48 11 91 8 95 -4 4 -125 8 -270 7 -256 0 -264
-1 -267 -20 -2 -11 -6 -49 -9 -85 -3 -36 -8 -76 -10 -90 -2 -14 -7 -49 -10
-77 -8 -78 -15 -143 -20 -183 -5 -34 -12 -98 -19 -170 -2 -19 -6 -48 -9 -65
-3 -16 -8 -57 -12 -90 -3 -33 -8 -67 -10 -75 -2 -8 -7 -42 -10 -75 -10 -86
-14 -116 -20 -155 -3 -19 -7 -53 -10 -75 -6 -46 -14 -106 -21 -150 -3 -16 -7
-43 -9 -60 -4 -33 -12 -90 -21 -145 -3 -19 -8 -51 -10 -70 -2 -19 -6 -46 -9
-60 -4 -22 -7 -40 -20 -125 -2 -11 -6 -40 -10 -65 -4 -25 -9 -56 -11 -70 -3
-14 -7 -38 -9 -55 -3 -16 -7 -41 -10 -55 -3 -14 -8 -43 -11 -65 -5 -42 -10
-74 -19 -115 -3 -14 -8 -41 -11 -60 -9 -60 -11 -74 -18 -110 -4 -19 -8 -43
-10 -52 -3 -24 -16 -35 -16 -15 0 23 0 22 -11 59 -6 18 -12 44 -15 58 -3 14
-9 39 -14 55 -5 17 -11 41 -14 55 -6 31 -8 40 -41 173 -14 60 -30 127 -35 150
-5 23 -18 83 -29 132 -62 273 -99 440 -106 480 -2 11 -7 31 -10 45 -15 64 -27
119 -35 160 -9 50 -12 64 -34 165 -8 39 -18 86 -21 105 -3 19 -8 42 -10 50 -2
8 -6 28 -9 44 -3 16 -10 52 -16 80 -5 28 -12 67 -14 86 -3 19 -6 36 -7 38 -3
3 -6 21 -8 37 -1 13 -41 15 -300 15 l-298 0 -11 -57 c-6 -32 -14 -71 -17 -88
-2 -16 -7 -41 -10 -55 -3 -14 -8 -41 -11 -60 -3 -19 -7 -42 -10 -50 -3 -8 -8
-28 -10 -45 -5 -31 -37 -189 -79 -380 -13 -60 -26 -124 -29 -142 -4 -17 -13
-58 -21 -90 -8 -32 -16 -69 -19 -83 -2 -14 -14 -68 -26 -120 -12 -52 -23 -102
-25 -110 -2 -8 -9 -37 -15 -65 -7 -27 -13 -57 -14 -65 -2 -8 -6 -25 -10 -37
-7 -21 -11 -42 -21 -95 -3 -15 -9 -37 -14 -50 -5 -13 -9 -26 -9 -31 0 -4 -3
-20 -6 -35 -4 -15 -8 -36 -11 -47 -2 -11 -13 -54 -24 -95 -20 -76 -29 -112
-38 -162 -3 -16 -10 -28 -15 -28 -6 0 -8 6 -5 14 3 7 2 17 -3 22 -4 5 -10 29
-14 54 -3 25 -10 72 -16 105 -6 33 -13 75 -16 94 -3 18 -8 43 -10 55 -2 11 -7
37 -10 56 -3 19 -14 91 -25 160 -11 69 -22 136 -24 150 -12 72 -37 239 -40
270 -2 19 -6 46 -9 60 -2 14 -7 45 -11 70 -3 25 -8 56 -10 70 -2 14 -9 66 -15
115 -12 93 -14 105 -24 165 -3 19 -8 58 -11 85 -2 28 -6 61 -9 75 -4 23 -10
74 -22 173 -2 20 -6 56 -9 80 -3 23 -8 62 -11 87 -2 25 -6 59 -9 75 -2 17 -7
57 -10 90 -3 33 -8 74 -10 90 -2 17 -7 59 -10 95 -9 87 -13 111 -20 119 -7 6
-486 9 -519 3z"/>
<path d="M6748 6364 c-2 -2 -31 -6 -63 -9 -70 -6 -120 -13 -155 -20 -14 -4
-36 -8 -50 -11 -60 -12 -140 -38 -198 -65 -35 -16 -66 -29 -69 -29 -3 0 -39
-23 -81 -52 -166 -111 -278 -296 -310 -513 -9 -59 -8 -314 1 -360 53 -271 186
-457 412 -577 44 -23 237 -93 283 -102 9 -1 24 -5 32 -8 8 -3 31 -10 50 -16
19 -6 81 -24 137 -42 56 -17 110 -33 120 -35 63 -13 259 -83 314 -111 78 -41
145 -103 170 -158 19 -44 20 -141 1 -187 -21 -52 -123 -116 -213 -134 -100
-20 -417 -28 -529 -12 -73 10 -302 54 -375 73 -11 3 -30 7 -43 10 -12 2 -91
24 -175 48 -83 24 -154 42 -156 40 -2 -2 -5 -114 -5 -249 l-1 -245 958 0 c754
0 961 3 971 13 37 37 145 217 130 217 -4 0 -2 6 4 13 15 18 50 153 60 232 5
39 8 120 7 180 -2 94 -6 133 -19 190 -1 6 -6 26 -10 45 -17 76 -95 214 -158
282 -144 152 -240 200 -684 337 -536 166 -557 174 -624 241 -22 22 -43 54 -48
72 -9 34 -9 108 1 143 3 11 6 23 6 27 2 17 67 81 100 98 48 24 133 48 196 55
96 11 349 6 463 -9 23 -3 60 -8 83 -11 23 -3 44 -7 48 -9 3 -2 27 -7 51 -11
25 -3 61 -10 80 -15 19 -5 64 -16 100 -25 36 -9 94 -24 130 -34 36 -11 76 -21
90 -25 l25 -5 0 306 c0 262 -2 307 -15 313 -21 11 -80 28 -112 34 -15 2 -31 7
-36 10 -5 3 -19 7 -33 10 -13 3 -42 10 -64 16 -22 6 -55 13 -74 15 -18 3 -36
7 -40 9 -3 3 -25 7 -47 10 -22 4 -51 9 -64 11 -28 6 -72 12 -175 24 -67 8
-390 12 -397 5z"/>
<path d="M688 6335 c-2 -11 -3 -630 -2 -1375 l0 -1355 287 -1 c187 -1 290 2
294 9 3 6 5 421 4 924 -1 502 0 913 3 913 4 0 60 -85 81 -122 6 -10 52 -84
103 -164 50 -80 92 -149 92 -155 0 -5 3 -9 8 -9 4 0 21 -23 37 -51 35 -60 45
-75 66 -109 87 -134 109 -170 109 -179 0 -5 4 -11 8 -13 4 -1 72 -106 151
-233 150 -239 186 -296 256 -405 23 -36 44 -72 48 -80 7 -16 86 -139 167 -260
16 -25 30 -50 30 -56 0 -8 88 -11 302 -10 l302 1 0 1363 c1 749 -1 1368 -4
1375 -4 9 -74 12 -292 12 l-288 0 -1 -50 c0 -27 -1 -413 -1 -857 0 -445 -2
-808 -3 -808 -2 0 -21 28 -43 63 -21 34 -52 82 -68 107 -15 25 -29 47 -29 50
-1 3 -18 32 -39 65 -21 33 -48 76 -60 95 -13 19 -39 61 -59 92 -20 32 -37 62
-37 68 0 5 -4 10 -9 10 -5 0 -11 6 -13 13 -2 6 -38 68 -81 137 -43 69 -84 134
-90 145 -7 11 -24 39 -39 62 -16 23 -28 44 -28 46 0 2 -22 38 -50 80 -27 42
-50 78 -50 81 0 2 -18 32 -40 65 -22 33 -40 63 -40 66 0 3 -5 11 -10 18 -16
18 -90 137 -90 143 0 3 -13 24 -29 47 -15 23 -54 85 -86 137 -32 52 -64 102
-72 110 -11 13 -65 15 -353 15 -332 0 -339 0 -342 -20z"/>
<path d="M4257 5664 c-1 -1 -29 -6 -62 -9 -78 -9 -105 -13 -135 -19 -14 -3
-41 -9 -60 -13 -46 -9 -49 -10 -55 -13 -3 -1 -8 -3 -12 -4 -46 -12 -99 -29
-112 -36 -9 -5 -42 -21 -73 -35 -201 -94 -342 -273 -387 -492 -12 -60 -24
-162 -24 -213 0 -55 14 -203 20 -214 3 -5 7 -19 8 -31 2 -12 17 -56 34 -99 82
-206 246 -358 466 -434 49 -17 381 -114 435 -128 8 -2 47 -13 85 -24 39 -12
77 -23 85 -25 43 -9 217 -70 230 -80 8 -6 28 -17 44 -25 44 -22 101 -81 125
-128 l21 -42 309 0 309 0 -3 73 c-9 183 -67 334 -175 450 -56 61 -159 144
-172 139 -5 -1 -8 2 -8 7 0 5 -11 12 -25 15 -14 4 -25 11 -25 16 0 6 -6 10
-14 10 -7 0 -42 13 -77 29 -57 25 -184 67 -232 76 -9 2 -22 7 -27 10 -5 3 -18
8 -27 10 -10 2 -47 13 -83 23 -36 11 -121 36 -190 56 -69 20 -141 43 -160 50
-19 8 -38 14 -43 15 -64 6 -200 72 -244 119 -74 78 -66 211 16 284 16 15 32
24 35 21 3 -4 6 -2 6 4 0 6 10 14 23 18 12 4 24 8 27 9 96 34 182 43 368 40
156 -3 216 -7 297 -19 74 -10 87 -12 115 -19 14 -3 39 -8 55 -11 49 -10 69
-14 85 -18 8 -2 29 -7 45 -11 87 -21 146 -36 195 -49 30 -9 57 -13 60 -11 6 7
6 585 -1 589 -3 2 -16 6 -30 9 -13 3 -67 17 -119 31 -52 14 -104 27 -115 30
-137 30 -228 45 -360 61 -55 6 -443 13 -448 8z"/>
</g>
</svg>
